<?xml version="1.0" encoding="utf-8"?>
<!-- Generator: Adobe Illustrator 23.1.0, SVG Export Plug-In . SVG Version: 6.00 Build 0)  -->
<svg version="1.1" id="Capa_1" xmlns="http://www.w3.org/2000/svg" xmlns:xlink="http://www.w3.org/1999/xlink" x="0px" y="0px"
	 viewBox="0 0 41.4 42.9" style="enable-background:new 0 0 41.4 42.9;" xml:space="preserve">
<style type="text/css">
	.st0{fill:#768828;}
</style>
<title>BonolotoAJ_topaz</title>
<polygon class="st0" points="37.4,35.8 32.8,35.8 32.8,33.4 35,33.4 35,4.8 6.4,4.8 6.4,33.4 8.4,33.4 8.4,35.8 4,35.8 4,2.4 
	37.4,2.4 "/>
<path class="st0" d="M11.8,23.1C9.7,21,9.3,18,11.4,15.9s5.1-1.7,7.2,0.4c2.5,2.5,0.1,6.8,1.2,7.9c0.1,0.1-0.1,0.1-0.1,0.1
	C18.6,23.2,14.5,25.7,11.8,23.1"/>
<path class="st0" d="M29.4,23.1c2.1-2.1,2.6-5.1,0.4-7.2s-5.1-1.7-7.2,0.4c-2.5,2.5-0.1,6.8-1.2,7.9c-0.1,0.1,0.1,0.1,0.1,0.1
	C22.7,23.2,26.8,25.7,29.4,23.1"/>
<path class="st0" d="M11.8,26.7c-2.1,2.1-2.6,5.1-0.4,7.2s5.1,1.7,7.2-0.5c2.5-2.5,0.1-6.7,1.2-7.9c0.1-0.1-0.1-0.1-0.1-0.1
	C18.6,26.5,14.5,24.1,11.8,26.7"/>
<path class="st0" d="M29.4,26.7c2.1,2.1,2.6,5.1,0.4,7.2s-5.1,1.7-7.2-0.5c-2.5-2.5,0-6.7-1.1-7.9c-0.1-0.1,0.1-0.1,0.1-0.1
	C22.7,26.6,26.8,24.1,29.4,26.7"/>
<path class="st0" d="M18.9,42c-0.3,0-0.6-0.1-0.8-0.3c-0.6-0.4-0.7-1.2-0.2-1.8c0,0,0,0,0,0c1.1-1.6,1.6-3.5,1.5-5.4
	c0-0.7,0.5-1.3,1.2-1.3c0,0,0,0,0,0c0.7,0,1.3,0.5,1.3,1.2c0.2,2.5-0.6,5-2.1,7C19.6,41.8,19.3,42,18.9,42"/>
</svg>
