<svg id="Capa_2" data-name="Capa 2" xmlns="http://www.w3.org/2000/svg" xmlns:xlink="http://www.w3.org/1999/xlink" viewBox="0 0 49.5 48.91"><defs><style>.cls-1{fill:none;}.cls-2{clip-path:url(#clip-path);}.cls-3{fill:url(#Degradado_sin_nombre_2);}.cls-4{clip-path:url(#clip-path-2);}.cls-5{fill:url(#Degradado_sin_nombre_6);}.cls-6{clip-path:url(#clip-path-3);}.cls-7{fill:url(#Degradado_sin_nombre_6-2);}.cls-8{clip-path:url(#clip-path-4);}.cls-9{fill:url(#Degradado_sin_nombre_6-3);}.cls-10{clip-path:url(#clip-path-5);}.cls-11{fill:url(#Degradado_sin_nombre_6-4);}.cls-12{clip-path:url(#clip-path-6);}.cls-13{fill:url(#Degradado_sin_nombre_6-5);}.cls-14{clip-path:url(#clip-path-7);}.cls-15{fill:#242b5a;}</style><clipPath id="clip-path" transform="translate(0.04 3.6)"><path class="cls-1" d="M30.26,1,30.2,7.72a1.28,1.28,0,0,1-.49.9l-5.5,3.6c-.27.17-.24.4.06.5l6.18,2.15a1.18,1.18,0,0,1,.68.75l1.66,6.47c.08.31.3.36.49.1l3.9-5.35a1.18,1.18,0,0,1,.91-.44l6.52.38c.31,0,.42-.18.24-.45l-3.77-5.45a1.26,1.26,0,0,1-.13-1l2.38-6.25c.11-.3,0-.47-.34-.37l-6.23,2a1.18,1.18,0,0,1-1-.2L30.71.79a.37.37,0,0,0-.23-.11c-.13,0-.21.12-.22.32"/></clipPath><linearGradient id="Degradado_sin_nombre_2" x1="-30.98" y1="80.35" x2="-30.55" y2="80.35" gradientTransform="matrix(0, 53.21, -53.21, 0, 4309.86, 1649.71)" gradientUnits="userSpaceOnUse"><stop offset="0" stop-color="#a5844a"/><stop offset="0.17" stop-color="#bb9950"/><stop offset="0.38" stop-color="#c8a653"/><stop offset="0.6" stop-color="#ddbe5a"/><stop offset="0.8" stop-color="#e4c85c"/><stop offset="1" stop-color="#f0d45e"/></linearGradient><clipPath id="clip-path-2" transform="translate(0.04 3.6)"><path class="cls-1" d="M17.31,2l0,2.67A.47.47,0,0,1,17.1,5L15,6.46c-.1.07-.09.16,0,.2l2.39.85a.47.47,0,0,1,.27.3l.64,2.58c0,.12.11.14.18,0L20,8.29a.44.44,0,0,1,.35-.17l2.52.15c.12,0,.16-.07.09-.18L21.49,5.93a.5.5,0,0,1,0-.41L22.35,3c0-.12,0-.18-.13-.14l-2.4.79a.43.43,0,0,1-.38-.07l-2-1.7a.12.12,0,0,0-.09,0c-.05,0-.08,0-.08.13"/></clipPath><linearGradient id="Degradado_sin_nombre_6" x1="-30.33" y1="81.04" x2="-29.89" y2="81.04" gradientTransform="translate(1686.01 625.99) rotate(90) scale(20.57)" gradientUnits="userSpaceOnUse"><stop offset="0" stop-color="#ad8a4c"/><stop offset="0.2" stop-color="#bb9950"/><stop offset="0.48" stop-color="#ccac55"/><stop offset="0.72" stop-color="#e4c85c"/><stop offset="1" stop-color="#f0d45e"/></linearGradient><clipPath id="clip-path-3" transform="translate(0.04 3.6)"><path class="cls-1" d="M18.83,13.73l0,1.55a.29.29,0,0,1-.11.21l-1.22.83c-.06,0-.05.09,0,.12l1.37.49a.34.34,0,0,1,.15.18l.37,1.49c0,.08.06.09.11,0l.86-1.24a.23.23,0,0,1,.2-.1l1.45.08c.07,0,.09,0,0-.1L21.22,16a.26.26,0,0,1,0-.23l.52-1.45c0-.07,0-.11-.07-.09l-1.38.47a.25.25,0,0,1-.22-.05l-1.12-1-.06,0s0,0,0,.08"/></clipPath><linearGradient id="Degradado_sin_nombre_6-2" x1="-30.33" y1="80.74" x2="-29.9" y2="80.74" gradientTransform="translate(973.76 372.25) rotate(90) scale(11.81)" xlink:href="#Degradado_sin_nombre_6"/><clipPath id="clip-path-4" transform="translate(0.04 3.6)"><path class="cls-1" d="M7,12l0,1.61a.31.31,0,0,1-.11.22l-1.26.86c-.07,0-.06.09,0,.12L7,15.32a.31.31,0,0,1,.16.18l.38,1.55c0,.08.07.09.11,0l.89-1.28a.26.26,0,0,1,.21-.1l1.5.09c.07,0,.1,0,.05-.11l-.86-1.3a.31.31,0,0,1,0-.25L10,12.63c0-.07,0-.11-.07-.09L8.49,13a.28.28,0,0,1-.23,0L7.1,12l-.06,0S7,12,7,12"/></clipPath><linearGradient id="Degradado_sin_nombre_6-3" x1="-29.07" y1="80.63" x2="-28.64" y2="80.63" gradientTransform="matrix(0, 12.24, -12.24, 0, 994.57, 367.84)" xlink:href="#Degradado_sin_nombre_6"/><clipPath id="clip-path-5" transform="translate(0.04 3.6)"><path class="cls-1" d="M13.33,10.17v1.08a.18.18,0,0,1-.08.15L12.4,12s0,.07,0,.08l.95.35a.2.2,0,0,1,.1.12l.26,1.05c0,.05,0,.06.07,0l.6-.87a.21.21,0,0,1,.14-.07l1,.06s.06,0,0-.07L15,11.77a.25.25,0,0,1,0-.17l.37-1c0-.05,0-.08-.05-.06l-1,.32a.16.16,0,0,1-.15,0l-.78-.69,0,0s0,0,0,.06"/></clipPath><linearGradient id="Degradado_sin_nombre_6-4" x1="-29.1" y1="81.56" x2="-28.67" y2="81.56" gradientTransform="translate(682.63 248.88) rotate(90) scale(8.2)" xlink:href="#Degradado_sin_nombre_6"/><clipPath id="clip-path-6" transform="translate(0.04 3.6)"><path class="cls-1" d="M1.48,9.55v1a.16.16,0,0,1-.07.13l-.76.53s0,.06,0,.07l.87.32a.15.15,0,0,1,.09.11l.23,1s0,0,.07,0l.55-.78a.15.15,0,0,1,.12-.07l.91.06s.06,0,0-.07L3,11a.19.19,0,0,1,0-.15l.33-.91s0-.07,0-.06l-.86.3a.17.17,0,0,1-.14,0l-.71-.63h0s0,0,0,0"/></clipPath><linearGradient id="Degradado_sin_nombre_6-5" x1="-26.85" y1="81.42" x2="-26.41" y2="81.42" gradientTransform="translate(607.53 209.29) rotate(90) scale(7.44)" xlink:href="#Degradado_sin_nombre_6"/><clipPath id="clip-path-7" transform="translate(0.04 3.6)"><rect class="cls-1" x="-0.9" y="0.11" width="47.4" height="47.78"/></clipPath></defs><title>EuromillonesAJ_topaz</title><g class="cls-2"><rect class="cls-3" x="21.65" y="-1.01" width="25.67" height="25.15" transform="translate(16.04 46.5) rotate(-78)"/></g><g class="cls-4"><rect class="cls-5" x="13.87" y="1.33" width="10.14" height="9.74" transform="translate(9.03 27.07) rotate(-78.17)"/></g><g class="cls-6"><rect class="cls-7" x="16.82" y="13.37" width="5.88" height="5.61" transform="translate(-0.07 35.8) rotate(-78.17)"/></g><g class="cls-8"><rect class="cls-9" x="4.92" y="11.63" width="6.09" height="5.81" transform="translate(-7.85 22.95) rotate(-78.17)"/></g><g class="cls-10"><rect class="cls-11" x="11.92" y="9.93" width="4.11" height="3.9" transform="translate(-0.47 26.73) rotate(-78.17)"/></g><g class="cls-12"><rect class="cls-13" x="0.2" y="9.34" width="3.73" height="3.53" transform="translate(-9.18 14.46) rotate(-78.17)"/></g><g class="cls-14"><path class="cls-15" d="M25.87,36.72a7.83,7.83,0,0,0-7.73-7.92,7.93,7.93,0,0,0,0,15.85,7.83,7.83,0,0,0,7.73-7.93m-8.16-6h0l0,0h0l0,0h0a3.64,3.64,0,0,1,1-.14,3.74,3.74,0,1,1-1.17.2M15.52,42.16a5.54,5.54,0,0,1-.53-.3l-.13-.08,0,0,0,0h0l-.07-.06,0,0h0l-.12-.1a5.62,5.62,0,0,1-.89-.87,6,6,0,0,1-.73-1.06,6.45,6.45,0,0,1-.29-.59,6.78,6.78,0,0,1-.5-2,5.1,5.1,0,0,1,0-.68,3.82,3.82,0,0,1,.06-.68,5,5,0,0,1,.37-1.32l.06-.16.08-.15,0-.07,0,0,0,0,0-.06,0-.09,0,0v0h0l0-.07.1-.15.21-.29A6.79,6.79,0,0,1,15,31.46l-.06.08a1.83,1.83,0,0,1-.13.16l-.12.18a3.48,3.48,0,0,0-.23.38,4.09,4.09,0,0,0-.2.42,3.71,3.71,0,0,0-.16.47,5.16,5.16,0,0,0-.17,2.17,6,6,0,0,0,.84,2.36L15,38a.71.71,0,0,1,.1.14l0,.06,0,0v0l0,0,.05.06,0,0v0l0,0,.07.07,0,0,0,0,.12.13.13.12a6.44,6.44,0,0,0,.56.48,7.06,7.06,0,0,0,.65.4,4.6,4.6,0,0,0,1.49.5,4.41,4.41,0,0,0,.82,0h.6l.11,0H20a4.32,4.32,0,0,0,.78-.22l.38-.16.37-.18a6.12,6.12,0,0,0,1.33-1,6.35,6.35,0,0,0,1.05-1.39l.05-.1,0,0v0l0,0,.05-.08.05-.11,0-.06,0-.05,0-.08a7.52,7.52,0,0,1-.06,1.15,6.61,6.61,0,0,1-.22,1c-.05.17-.11.33-.17.49s-.14.32-.22.48-.17.31-.26.47a1,1,0,0,0-.08.11l0,.06,0,0,0,.06,0,0,0,0-.07.1-.1.12v0h0l0,0,0,0-.09.11-.1.1a3.68,3.68,0,0,1-.4.39,5.55,5.55,0,0,1-.92.67,6.85,6.85,0,0,1-1.07.48,6.1,6.1,0,0,1-4.66-.35M9,43.44H7.52V21.67H28.76V43.44H27.17V45.3h3.41V19.8H5.7V45.3H9Z" transform="translate(0.04 3.6)"/></g></svg>