<?xml version="1.0" encoding="utf-8"?>
<!-- Generator: Adobe Illustrator 23.1.0, SVG Export Plug-In . SVG Version: 6.00 Build 0)  -->
<svg version="1.1" id="Capa_1" xmlns="http://www.w3.org/2000/svg" xmlns:xlink="http://www.w3.org/1999/xlink" x="0px" y="0px"
	 viewBox="0 0 40.3 19.5" style="enable-background:new 0 0 40.3 19.5;" xml:space="preserve">
<style type="text/css">
	.st0{fill:#BF1540;}
</style>
<title>LogoJoker_topaz</title>
<path class="st0" d="M12.1,7L11,1.3L10,7L6.7,4.5L5.1,5.6l1.3-0.3l1.9,3.7h1.4l0,0l0,0h4.1l1.9-3.7l1.3,0.3l-1.5-1.1L12.1,7z
	 M11,3.1l0.8,4.1l-1.7,1.2L11,3.1z M9.6,8.8H8.5L6.6,5H6.5l0.2-0.2L10,7.3L9.8,8.7L9.6,8.8z M15.5,5l-1.9,3.8h-3.4l5.3-3.9l0.2,0.2
	L15.5,5z"/>
<path class="st0" d="M11,1.1c0.2,0,0.4-0.2,0.4-0.4S11.3,0.3,11,0.3c-0.2,0-0.4,0.2-0.4,0.4c0,0,0,0,0,0C10.6,0.9,10.8,1.1,11,1.1
	C11,1.1,11,1.1,11,1.1z"/>
<path class="st0" d="M17.6,5.6c-0.2,0-0.4,0.2-0.4,0.4c0,0.2,0.2,0.4,0.4,0.4C17.8,6.4,18,6.2,18,6C18,5.8,17.8,5.6,17.6,5.6
	C17.6,5.6,17.6,5.6,17.6,5.6z"/>
<path class="st0" d="M4.4,5.4C4.2,5.4,4,5.6,4,5.8c0,0.2,0.2,0.4,0.4,0.4c0.2,0,0.4-0.2,0.4-0.4c0,0,0,0,0,0
	C4.8,5.6,4.6,5.4,4.4,5.4C4.4,5.4,4.4,5.4,4.4,5.4z"/>
<path class="st0" d="M6,11.6H3.4v1.7h0.9v3.4c0,0.6-0.1,1.1-0.9,1.1c-0.2,0-0.4,0-0.6-0.1v1.5c0.3,0,0.6,0.1,0.9,0.1
	c2.2,0,2.4-1.4,2.4-2.7v-3.3l0,0V11.6L6,11.6L6,11.6z"/>
<path class="st0" d="M11,11.4c-2.2-0.1-4,1.6-4.1,3.7c-0.1,2.2,1.6,4,3.7,4.1c0.1,0,0.2,0,0.4,0c2.2,0.1,4-1.6,4.1-3.7
	c0.1-2.2-1.6-4-3.7-4.1C11.3,11.4,11.1,11.4,11,11.4z M11,17.7c-1.3,0-2.3-1-2.4-2.3c0,0,0-0.1,0-0.1c0-1.3,1.1-2.3,2.4-2.3
	c1.3,0,2.3,1.1,2.3,2.4C13.4,16.7,12.3,17.7,11,17.7z"/>
<polygon class="st0" points="22.5,11.6 20.5,11.6 17.8,15 17.8,11.6 16.2,11.6 16.2,19.1 17.8,19.1 17.8,15.7 20.6,19.1 22.7,19.1 
	19.5,15.3 "/>
<polygon class="st0" points="25.1,16 28.4,16 28.4,14.5 25.1,14.5 25.1,13.1 28.6,13.1 28.6,11.6 23.4,11.6 23.4,19.1 28.7,19.1 
	28.7,17.6 25.1,17.6 "/>
<path class="st0" d="M36.1,19.1l-1.9-2.9c0.9-0.4,1.4-1.2,1.4-2.1c0-1.4-1.1-2.5-2.5-2.5c0,0-0.1,0-0.1,0h-3.2v1.3l0,0l1.6,2.3h-1.6
	v4h1.7v-2.5l1,0l1.7,2.5L36.1,19.1z M34,14.1c0,0.4-0.2,0.8-0.6,1l-1.3-1.9H33C33.5,13.1,34,13.5,34,14.1C34,14,34,14.1,34,14.1z"/>
</svg>
