<?xml version="1.0" encoding="utf-8"?>
<!-- Generator: Adobe Illustrator 24.0.3, SVG Export Plug-In . SVG Version: 6.00 Build 0)  -->
<svg version="1.1" id="Capa_1" xmlns="http://www.w3.org/2000/svg" xmlns:xlink="http://www.w3.org/1999/xlink" x="0px" y="0px"
	 viewBox="0 0 63.5 19" style="enable-background:new 0 0 63.5 19;" xml:space="preserve">
<style type="text/css">
	.st0{display:none;fill-rule:evenodd;clip-rule:evenodd;fill:#FF5100;}
	.st1{display:none;fill:#FF5100;}
	.st2{fill:#000B8C;}
</style>
<path class="st0" d="M53.5,0.1L54,1.2l1.2,0.2c0.1,0,0.2,0.1,0.2,0.2c0,0,0,0,0,0c0,0.1,0,0.1-0.1,0.1l-0.9,0.8l0.2,1.2
	c0,0.1,0,0.2-0.2,0.2c0,0,0,0,0,0c0,0-0.1,0-0.1,0l-1.1-0.6L52.3,4C52.2,4,52.1,4,52,3.9c0,0,0,0,0,0c0,0,0-0.1,0-0.1l0.2-1.2
	l-0.9-0.8c-0.1-0.1-0.1-0.2,0-0.3c0,0,0,0,0,0c0,0,0.1,0,0.2,0l0,0l1.2-0.2l0.5-1.1C53.3,0,53.4,0,53.5,0C53.5,0,53.6,0.1,53.5,0.1
	L53.5,0.1z M2.5,9.3h3.6v-2H2.5v-1h3.9V4H0v8.6h6.4v-2.2h-4V9.3z M21.6,7.8L18.9,4h-2v8.6h2.2V8.2l2.4,3.4L24,8.2v4.3h2.2V4h-2
	L21.6,7.8z M27.9,12.6h2.4V4h-2.4V12.6z M34.3,4h-2.4v8.6h5.6v-2.2h-3.2V4z M41,4h-2.4v8.6h5.6v-2.2H41L41,4z M61,8.4L57.6,4h-2.1
	v8.6h2.3V8l3.6,4.6h2V4H61L61,8.4z M10.3,4H7.9v8.6h5.6v-2.2h-3.2V4z M54.2,8.3c0,1.2-0.5,2.3-1.4,3.1l0,0c-1.9,1.7-4.8,1.7-6.7,0
	c-1.7-1.6-1.8-4.3-0.3-6c0.1-0.1,0.2-0.2,0.3-0.3c1.9-1.7,4.8-1.7,6.7,0C53.7,5.9,54.2,7.1,54.2,8.3z M52.4,7.3l-1.8-0.2l-0.8-1.6
	c0-0.1-0.1-0.1-0.1-0.2c-0.1-0.1-0.3,0-0.4,0.1c0,0,0,0,0,0l-0.8,1.6l-1.8,0.2l0,0c-0.2,0-0.3,0.2-0.3,0.4c0,0.1,0,0.1,0.1,0.2
	l1.3,1.3l-0.4,1.8c0,0.1,0,0.1,0,0.2c0.1,0.2,0.3,0.2,0.4,0.1c0,0,0,0,0,0l1.6-0.9l1.6,0.9c0.1,0,0.1,0,0.2,0c0.2,0,0.3-0.2,0.2-0.3
	c0,0,0,0,0,0l-0.3-1.8l1.3-1.2c0.1-0.1,0.1-0.1,0.1-0.2C52.6,7.5,52.5,7.3,52.4,7.3z"/>
<path class="st1" d="M12.9,17.8H15V19h-3.4v-4.6H15v1.2h-2.1v0.5h1.9v1.1h-1.9V17.8z M18.5,16.9c0,0.7-0.2,1-0.8,1s-0.8-0.3-0.8-1
	v-2.4h-1.3V17c0,0.6,0.2,1.1,0.6,1.5c0.8,0.7,2.1,0.7,2.9,0c0.4-0.4,0.6-0.9,0.6-1.5v-2.6h-1.3V16.9z M23.5,17.3l1.1,1.7h-1.5
	l-0.9-1.4h-0.4V19h-1.3v-4.6h2.1c0.4,0,0.8,0.2,1.1,0.5c0.3,0.3,0.5,0.7,0.5,1.1C24.2,16.5,23.9,17,23.5,17.3z M21.8,16.5h0.7
	c0.2,0,0.5-0.2,0.5-0.4c0,0,0-0.1,0-0.1c0-0.1,0-0.2-0.1-0.3c-0.1-0.1-0.2-0.1-0.3-0.1h-0.8L21.8,16.5z M29,15
	c0.9,0.8,1,2.2,0.1,3.2c0,0.1-0.1,0.1-0.1,0.1l0,0c-1,0.9-2.5,0.9-3.5,0c-0.9-0.8-1-2.2-0.1-3.2c0-0.1,0.1-0.1,0.1-0.1
	C26.5,14.1,28,14.1,29,15z M28.4,16.7c0-0.6-0.5-1.2-1.2-1.2c-0.3,0-0.6,0.1-0.8,0.3c-0.5,0.5-0.5,1.2,0,1.7c0,0,0,0,0,0l0,0
	c0.2,0.2,0.5,0.4,0.8,0.3c0.3,0,0.6-0.1,0.8-0.4C28.3,17.3,28.4,17,28.4,16.7L28.4,16.7z M32.8,16.4l-1.4-2h-1V19h1.2v-2.3l1.3,1.8
	l1.3-1.8V19h1.2v-4.6h-1.1L32.8,16.4z M36.1,19h1.3v-4.6h-1.3V19z M39.5,14.4h-1.3V19h3v-1.2h-1.7V14.4z M43.1,14.4h-1.3V19h3v-1.2
	h-1.7L43.1,14.4z M49.3,15.1c0.9,0.8,1,2.2,0.1,3.2c0,0.1-0.1,0.1-0.1,0.1l0,0c-1,0.9-2.5,0.9-3.5,0c-0.9-0.8-1-2.2-0.1-3.2
	c0-0.1,0.1-0.1,0.1-0.1C46.8,14.2,48.3,14.2,49.3,15.1z M48.8,16.7c0-0.6-0.5-1.2-1.2-1.2c-0.3,0-0.6,0.1-0.8,0.3
	c-0.5,0.5-0.5,1.2,0,1.7c0,0,0,0,0,0l0,0c0.5,0.5,1.2,0.5,1.7,0c0,0,0,0,0,0C48.7,17.3,48.8,17,48.8,16.7L48.8,16.7z M53.7,16.8
	l-1.8-2.3h-1.1V19h1.2v-2.5l1.9,2.5h1v-4.6h-1.2L53.7,16.8z M57,17.2h1.9v-1.1H57v-0.5h2.1v-1.2h-3.3V19h3.4v-1.2H57L57,17.2z
	 M59.6,18.1c0.2,0.3,0.5,0.5,0.8,0.7c0.4,0.2,0.8,0.3,1.3,0.3c1.2,0,1.8-0.6,1.8-1.5c0-0.6-0.3-1-1.1-1.3c-0.3-0.1-0.5-0.2-0.8-0.2
	L61.3,16c-0.1,0-0.2-0.1-0.2-0.3c0-0.2,0.2-0.3,0.5-0.3c0.3,0,0.6,0.1,0.8,0.4l0.8-0.7c-0.4-0.5-1-0.8-1.7-0.7
	c-0.4,0-0.8,0.1-1.2,0.4c-0.3,0.2-0.5,0.6-0.5,1c0,0.6,0.4,1.2,1,1.3l0.7,0.2l0.3,0.1c0.2,0.1,0.3,0.2,0.3,0.3S62.1,18,61.7,18
	c-0.5,0-0.9-0.2-1.2-0.6L59.6,18.1z M0,19h1.7c1.3,0.2,2.4-0.7,2.6-2c0-0.1,0-0.2,0-0.3l0,0c0-1.3-1-2.3-2.2-2.3c-0.1,0-0.2,0-0.4,0
	H0V19z M1.3,17.8v-2.4h0.5c0.6-0.1,1.2,0.4,1.2,1c0,0.1,0,0.1,0,0.2l0,0c0,0.6-0.4,1.1-1.1,1.2c-0.1,0-0.1,0-0.2,0L1.3,17.8z
	 M6.3,17.2h1.9v-1.1H6.2v-0.5h2.1v-1.2H5V19h3.4v-1.2H6.2L6.3,17.2z"/>
<g>
	<polygon class="st2" points="41.2,6.1 38.9,6.1 38.9,14.4 45.1,14.4 45.1,12.4 41.2,12.4 	"/>
	<polygon class="st2" points="60.8,10.7 57.4,6.1 55.3,6.1 55.3,14.4 57.6,14.4 57.6,9.6 61.1,14.4 63.1,14.4 63.1,6.1 60.8,6.1 	
		"/>
	<polygon class="st2" points="34.2,6.1 31.8,6.1 31.8,14.4 38,14.4 38,12.4 34.2,12.4 	"/>
	<rect x="28.3" y="6.1" class="st2" width="2.3" height="8.2"/>
	<polygon class="st2" points="24.7,6.1 22.6,9.7 20.4,6.1 18.2,6.1 17.8,14.4 20,14.4 20.2,9.5 21.9,12.3 23.2,12.3 24.7,9.5 
		25,14.4 27.3,14.4 26.9,6.1 	"/>
	<polygon class="st2" points="7.5,12.5 3.3,12.5 3.3,11.1 6.5,11.1 6.5,9.3 3.3,9.3 3.3,8 7.3,8 7.3,6.1 0.9,6.1 0.9,14.4 7.5,14.4 
			"/>
	<polygon class="st2" points="11,6.1 8.6,6.1 8.6,14.4 14.8,14.4 14.8,12.4 11,12.4 	"/>
	<path class="st2" d="M49.9,5.9c-2.8,0-4.6,1.9-4.6,4.3c0,2.3,1.7,4.3,4.6,4.3c2.8,0,4.6-2.1,4.6-4.3C54.4,7.9,52.6,5.9,49.9,5.9z
		 M53.1,12l-2.1-0.1c-0.1,0-0.2,0.1-0.3,0.1l-1.3,1.7c-0.1,0.1-0.1,0.1-0.2,0l-0.5-2c0-0.1-0.1-0.2-0.2-0.2l-2-0.7
		c-0.1,0-0.1-0.1,0-0.2l1.8-1.1c0.1-0.1,0.2-0.2,0.2-0.3l0-2.1c0-0.1,0.1-0.1,0.1-0.1l1.7,1.3c0.1,0.1,0.2,0.1,0.3,0.1l2-0.6
		c0.1,0,0.1,0,0.1,0.1l-0.8,1.9c0,0.1,0,0.2,0,0.3l1.2,1.7C53.2,11.9,53.2,12,53.1,12z"/>
	<path class="st2" d="M53.9,4.9c-0.1,0-0.1,0-0.2,0.1l-0.8,1c0,0.1-0.1,0-0.1,0l-0.3-1.3c0-0.1-0.1-0.1-0.1-0.1l-1.3-0.4
		c-0.1,0-0.1-0.1,0-0.1l1.1-0.7c0.1,0,0.1-0.1,0.1-0.2l0-1.3c0-0.1,0-0.1,0.1,0l1,0.8c0,0,0.1,0.1,0.2,0l1.3-0.4
		c0.1,0,0.1,0,0.1,0.1l-0.5,1.2c0,0.1,0,0.1,0,0.2l0.8,1.1c0,0.1,0,0.1,0,0.1L53.9,4.9z"/>
</g>
</svg>
