<svg id="Capa_2" data-name="Capa 2" xmlns="http://www.w3.org/2000/svg" xmlns:xlink="http://www.w3.org/1999/xlink" viewBox="0 0 45.06 45.06"><defs><style>.cls-1{fill:none;}.cls-2{fill:#008447;}.cls-3{clip-path:url(#clip-path);}</style><clipPath id="clip-path" transform="translate(-0.9 -1.29)"><rect class="cls-1" x="-12.21" y="-13.08" width="72.3" height="72.88"/></clipPath></defs><title>PrimitivaAJ_topaz</title><polygon class="cls-2" points="45.06 45.06 38.88 45.06 38.88 41.77 41.77 41.77 41.77 3.29 3.29 3.29 3.29 41.77 6 41.77 6 45.06 0 45.06 0 0 45.06 0 45.06 45.06"/><g class="cls-3"><path class="cls-2" d="M37.31,33.19a14.88,14.88,0,0,0,.16-2,14,14,0,0,0-.15-2c-4.22-.32-8.79-.62-13.72-.62-5.6,0-10.69.35-14.06.62a15.7,15.7,0,0,0-.15,2,14.88,14.88,0,0,0,.16,2c3,.26,7.93.56,14.05.56,4.47,0,9.2-.2,13.71-.56" transform="translate(-0.9 -1.29)"/><path class="cls-2" d="M34.37,40a13.86,13.86,0,0,0,2.45-4.54c-4.37.33-8.91.51-13.22.51-5.76,0-10.44-.26-13.55-.5A14,14,0,0,0,12.5,40a58,58,0,0,0,11.1,1.1A54.92,54.92,0,0,0,34.37,40" transform="translate(-0.9 -1.29)"/><path class="cls-2" d="M12.44,22.46A13.89,13.89,0,0,0,10,27c3.39-.26,8.25-.58,13.58-.58,4.75,0,9.16.28,13.24.59a14.11,14.11,0,0,0-2.41-4.55A55.44,55.44,0,0,0,23.6,21.28a56.75,56.75,0,0,0-11.16,1.18" transform="translate(-0.9 -1.29)"/><path class="cls-2" d="M23.6,19.1a53.15,53.15,0,0,1,8,.64,14,14,0,0,0-16.27,0,56,56,0,0,1,8.31-.65" transform="translate(-0.9 -1.29)"/><path class="cls-2" d="M23.6,43.25a58.33,58.33,0,0,1-8.22-.59,14,14,0,0,0,16.11,0,55.19,55.19,0,0,1-7.89.59" transform="translate(-0.9 -1.29)"/></g></svg>