<svg id="Capa_2" data-name="Capa 2" xmlns="http://www.w3.org/2000/svg" xmlns:xlink="http://www.w3.org/1999/xlink" viewBox="0 0 44.43 44.43"><defs><style>.cls-1{fill:none;}.cls-2{clip-path:url(#clip-path);}.cls-3{fill:#3fbace;}</style><clipPath id="clip-path" transform="translate(-1.05 -1.49)"><rect class="cls-1" x="-12.4" y="-12.95" width="71.29" height="71.86"/></clipPath></defs><title>QuinigolAJ_topaz</title><g class="cls-2"><path class="cls-3" d="M24,20.28v3.81l.63.37.1.06,2,1.33.07.06.28.2.48.39.07.05.36.3.31.29.05,0,3.92-1.09a.56.56,0,0,0,.43-.54c0-.25,0-.6,0-1.1a28.92,28.92,0,0,0-.45-3.51L32,20.76a12.16,12.16,0,0,0-1.84-1.39l-.29-.18a3.51,3.51,0,0,0-1.27-.56h-.1l-.81.08a8.24,8.24,0,0,0-3.4,1.06.6.6,0,0,0-.27.5" transform="translate(-1.05 -1.49)"/><path class="cls-3" d="M23.24,25.22l-3.81,2.72a.59.59,0,0,0-.22.66l1.31,4.08a.59.59,0,0,0,.52.41l2.31.13h.07l2.08-.13a.59.59,0,0,0,.52-.41l1.31-4.09a.59.59,0,0,0-.22-.66L23.27,25.2Z" transform="translate(-1.05 -1.49)"/><path class="cls-3" d="M22.26,19.78a8.11,8.11,0,0,0-3.4-1.06h0l-.46,0h0l-.26,0a2.72,2.72,0,0,0-1.28.38,12.18,12.18,0,0,0-2.2,1.46.49.49,0,0,0-.16.19,8.35,8.35,0,0,0-.45,2v.07a11.78,11.78,0,0,0-.16,1.9v.1c0,.34,0,.6,0,.79a.59.59,0,0,0,.43.53l3.89,1.08,0,0,.34-.31L19,26.5l.47-.37.29-.22.08-.06,2-1.33.1-.06.62-.36V20.28a.6.6,0,0,0-.27-.5" transform="translate(-1.05 -1.49)"/><path class="cls-3" d="M26,43.47a13.29,13.29,0,0,1-2.79.25,11.81,11.81,0,0,1-2.57-.24.62.62,0,0,0-.48.08,5.82,5.82,0,0,1-1.11.57,13.59,13.59,0,0,0,4.28.73,13.56,13.56,0,0,0,4.26-.73,5.62,5.62,0,0,1-1.12-.57.56.56,0,0,0-.47-.09" transform="translate(-1.05 -1.49)"/><path class="cls-3" d="M34.13,26.53a9.21,9.21,0,0,1,2.2,3.38,4.23,4.23,0,0,0,.65-.86.32.32,0,0,1,.1-.1,14.22,14.22,0,0,0-3.61-7.48A14.76,14.76,0,0,1,33.93,26a.6.6,0,0,0,.2.55" transform="translate(-1.05 -1.49)"/><path class="cls-3" d="M9.46,29a.32.32,0,0,1,.1.1,4.54,4.54,0,0,0,.64.86,9.31,9.31,0,0,1,2.2-3.37.6.6,0,0,0,.2-.56,14.12,14.12,0,0,1,.27-4.28A14.06,14.06,0,0,0,9.46,29" transform="translate(-1.05 -1.49)"/><path class="cls-3" d="M28.51,38.22c-.41-.72-1-1.59-1.61-2.56-.25-.37-.48-.69-.66-.95a.57.57,0,0,0-.54-.24,19,19,0,0,1-2,.09h-.78a19,19,0,0,1-2-.09.57.57,0,0,0-.54.24c-.18.26-.41.58-.66.95-.66,1-1.2,1.84-1.62,2.56a.61.61,0,0,0,0,.51A9.39,9.39,0,0,0,20.39,42h0a11.5,11.5,0,0,0,1.57.33,10.6,10.6,0,0,0,2.6,0A14.11,14.11,0,0,0,26,42a.7.7,0,0,0,.24-.13,9.55,9.55,0,0,0,2.3-3.18.57.57,0,0,0,0-.51" transform="translate(-1.05 -1.49)"/><path class="cls-3" d="M16.71,43.25h.07A5.16,5.16,0,0,0,18.31,43a.59.59,0,0,0,.27-1,11.13,11.13,0,0,1-1.8-2.83.62.62,0,0,0-.46-.35,14.9,14.9,0,0,1-2.61-.71.59.59,0,0,0-.8.53,13.27,13.27,0,0,0,.11,2,14,14,0,0,0,3.21,2.61h.48" transform="translate(-1.05 -1.49)"/><path class="cls-3" d="M19.71,17.63A10.85,10.85,0,0,1,23,18.71a.6.6,0,0,0,.61,0A11.1,11.1,0,0,1,27,17.62l-.65-.24-.54-.2a14.25,14.25,0,0,0-2.46-.28h-.18a14.21,14.21,0,0,0-2.37.27l-1.1.46" transform="translate(-1.05 -1.49)"/><path class="cls-3" d="M33.63,38.68a.59.59,0,0,0-.8-.53,14.9,14.9,0,0,1-2.61.71.65.65,0,0,0-.47.35A10.79,10.79,0,0,1,28,42a.59.59,0,0,0,.27,1,5.16,5.16,0,0,0,1.53.26l.54,0a14.32,14.32,0,0,0,3.22-2.63,13.05,13.05,0,0,0,.11-2" transform="translate(-1.05 -1.49)"/><path class="cls-3" d="M30.18,37.55a13.2,13.2,0,0,0,3.21-1.07l0,0a9.36,9.36,0,0,0,1.82-5c0-.19,0-.34,0-.42v-.14a.17.17,0,0,1,0-.07,8.53,8.53,0,0,0-2-3.32.6.6,0,0,0-.56-.14l-3.65,1a.6.6,0,0,0-.42.45,20.05,20.05,0,0,1-1.37,4.41.59.59,0,0,0,.05.6c.49.71,1.43,2.07,2.2,3.39a.58.58,0,0,0,.62.28" transform="translate(-1.05 -1.49)"/><path class="cls-3" d="M35,38.18a13.94,13.94,0,0,0,2-7.09l-.3.23a11.48,11.48,0,0,1-1.78,5.54.6.6,0,0,0-.09.49,5.31,5.31,0,0,1,.15.83" transform="translate(-1.05 -1.49)"/><path class="cls-3" d="M13.14,36.48a13.45,13.45,0,0,0,3.22,1.07.59.59,0,0,0,.62-.28c.77-1.32,1.71-2.68,2.2-3.39a.59.59,0,0,0,.05-.6,20.05,20.05,0,0,1-1.37-4.41.59.59,0,0,0-.42-.44l-3.65-1a.6.6,0,0,0-.56.14,8.53,8.53,0,0,0-2,3.32s0,0,0,.06v.15c0,.08,0,.23,0,.42a9.36,9.36,0,0,0,1.81,4.94l0,0" transform="translate(-1.05 -1.49)"/><path class="cls-3" d="M9.87,31.32a2.17,2.17,0,0,1-.3-.23,13.94,13.94,0,0,0,2,7.09,5.31,5.31,0,0,1,.15-.83.6.6,0,0,0-.09-.49,11.48,11.48,0,0,1-1.78-5.54" transform="translate(-1.05 -1.49)"/><polygon class="cls-3" points="44.43 44.43 38.34 44.43 38.34 41.19 41.19 41.19 41.19 3.25 3.25 3.25 3.25 41.19 5.91 41.19 5.91 44.43 0 44.43 0 0 44.43 0 44.43 44.43"/></g></svg>