<?xml version="1.0" encoding="utf-8"?>
<!-- Generator: Adobe Illustrator 25.2.1, SVG Export Plug-In . SVG Version: 6.00 Build 0)  -->
<svg version="1.1" id="Capa_2_1_" xmlns="http://www.w3.org/2000/svg" xmlns:xlink="http://www.w3.org/1999/xlink" x="0px" y="0px"
	 viewBox="0 0 43.2 43.3" style="enable-background:new 0 0 43.2 43.3;" xml:space="preserve">
<style type="text/css">
	.st0{fill:#CB1517;}
</style>
<g>
	<g>
		<path class="st0" d="M8.1,40.1h0.7l1.2,2.8H9.2L9,42.4H7.9l-0.2,0.5H6.9L8.1,40.1z M8.8,41.8l-0.3-0.8l-0.3,0.8H8.8z"/>
		<path class="st0" d="M10.3,40.2H11l1.1,1.5v-1.5h0.8v2.8h-0.7l-1.2-1.5v1.5h-0.8V40.2z"/>
		<path class="st0" d="M13.4,40.2h0.8v2.8h-0.8V40.2z"/>
		<path class="st0" d="M14.5,40.2h0.9l0.6,1.7l0.6-1.7h0.8l-1.1,2.8h-0.7L14.5,40.2z"/>
		<path class="st0" d="M17.7,40.2h2.2v0.7h-1.5v0.4h1.3v0.6h-1.3v0.4h1.5v0.7h-2.2V40.2z"/>
		<path class="st0" d="M20.3,40.2h1.3c0.2,0,0.4,0,0.5,0.1c0.1,0.1,0.3,0.1,0.4,0.2c0.2,0.2,0.2,0.4,0.2,0.6v0
			c0,0.2-0.1,0.4-0.2,0.5c-0.1,0.1-0.2,0.2-0.4,0.3l0.7,1H22l-0.6-0.8h0h-0.3v0.8h-0.8V40.2z M21.6,41.5c0.1,0,0.2,0,0.3-0.1
			c0.1-0.1,0.1-0.1,0.1-0.2v0c0-0.1,0-0.2-0.1-0.2c-0.1-0.1-0.2-0.1-0.3-0.1h-0.5v0.7H21.6z"/>
		<path class="st0" d="M24.2,43c-0.2,0-0.5,0-0.7-0.1c-0.2-0.1-0.4-0.2-0.6-0.3l0.4-0.5c0.3,0.2,0.6,0.3,0.9,0.3c0.1,0,0.2,0,0.2,0
			c0.1,0,0.1-0.1,0.1-0.1v0c0,0,0-0.1,0-0.1c0,0,0,0-0.1-0.1c0,0-0.1,0-0.1-0.1c-0.1,0-0.1,0-0.2-0.1c-0.1,0-0.3-0.1-0.4-0.1
			c-0.1,0-0.2-0.1-0.3-0.2c-0.1-0.1-0.2-0.1-0.2-0.2c-0.1-0.1-0.1-0.2-0.1-0.4v0c0-0.1,0-0.2,0.1-0.4c0-0.1,0.1-0.2,0.2-0.3
			c0.1-0.1,0.2-0.1,0.3-0.2c0.1,0,0.3-0.1,0.4-0.1c0.2,0,0.4,0,0.6,0.1c0.2,0.1,0.4,0.2,0.5,0.3L24.9,41c-0.1-0.1-0.3-0.2-0.4-0.2
			c-0.1,0-0.3-0.1-0.4-0.1c-0.1,0-0.2,0-0.2,0.1c0,0-0.1,0.1-0.1,0.1v0c0,0,0,0.1,0,0.1c0,0,0,0,0.1,0.1c0,0,0.1,0,0.1,0.1
			c0.1,0,0.1,0,0.2,0.1c0.2,0,0.3,0.1,0.4,0.1c0.1,0,0.2,0.1,0.3,0.2c0.1,0.1,0.2,0.1,0.2,0.2c0,0.1,0.1,0.2,0.1,0.3v0
			c0,0.1,0,0.3-0.1,0.4c-0.1,0.1-0.1,0.2-0.2,0.3c-0.1,0.1-0.2,0.1-0.4,0.2C24.5,42.9,24.4,43,24.2,43z"/>
		<path class="st0" d="M26.7,40.1h0.7l1.2,2.8h-0.8l-0.2-0.5h-1.1l-0.2,0.5h-0.8L26.7,40.1z M27.3,41.8L27,41.1l-0.3,0.8H27.3z"/>
		<path class="st0" d="M28.8,40.2h1.3c0.2,0,0.4,0,0.5,0.1c0.1,0.1,0.3,0.1,0.4,0.2c0.2,0.2,0.2,0.4,0.2,0.6v0
			c0,0.2-0.1,0.4-0.2,0.5c-0.1,0.1-0.2,0.2-0.4,0.3l0.7,1h-0.9l-0.6-0.8h0h-0.3v0.8h-0.8V40.2z M30.1,41.5c0.1,0,0.2,0,0.3-0.1
			c0.1-0.1,0.1-0.1,0.1-0.2v0c0-0.1,0-0.2-0.1-0.2c-0.1-0.1-0.2-0.1-0.3-0.1h-0.5v0.7H30.1z"/>
		<path class="st0" d="M31.7,40.2h0.8v2.8h-0.8V40.2z"/>
		<path class="st0" d="M34.4,43c-0.2,0-0.4,0-0.6-0.1c-0.2-0.1-0.3-0.2-0.5-0.3c-0.1-0.1-0.2-0.3-0.3-0.5c-0.1-0.2-0.1-0.4-0.1-0.6
			v0c0-0.2,0-0.4,0.1-0.6c0.1-0.2,0.2-0.3,0.3-0.5c0.1-0.1,0.3-0.2,0.5-0.3c0.2-0.1,0.4-0.1,0.6-0.1c0.2,0,0.4,0,0.6,0.1
			c0.2,0.1,0.3,0.2,0.5,0.3c0.1,0.1,0.2,0.3,0.3,0.5c0.1,0.2,0.1,0.4,0.1,0.6v0c0,0.2,0,0.4-0.1,0.6c-0.1,0.2-0.2,0.3-0.3,0.5
			c-0.1,0.1-0.3,0.2-0.5,0.3C34.8,42.9,34.6,43,34.4,43z M34.4,42.3c0.1,0,0.2,0,0.3-0.1c0.1,0,0.2-0.1,0.2-0.2
			c0.1-0.1,0.1-0.1,0.1-0.2c0-0.1,0.1-0.2,0.1-0.3v0c0-0.1,0-0.2-0.1-0.3c0-0.1-0.1-0.2-0.1-0.2c-0.1-0.1-0.1-0.1-0.2-0.2
			c-0.1,0-0.2-0.1-0.3-0.1c-0.1,0-0.2,0-0.3,0.1c-0.1,0-0.2,0.1-0.2,0.2c-0.1,0.1-0.1,0.1-0.1,0.2c0,0.1,0,0.2,0,0.3v0
			c0,0.1,0,0.2,0.1,0.3c0,0.1,0.1,0.2,0.1,0.2c0.1,0.1,0.1,0.1,0.2,0.2C34.2,42.3,34.3,42.3,34.4,42.3z"/>
	</g>
	<g>
		<g>
			<g>
				<g>
					<polygon class="st0" points="43.2,43.2 37.3,43.2 37.3,40.1 40.1,40.1 40.1,3.2 3.2,3.2 3.2,40.1 5.8,40.1 5.8,43.2 0,43.2 
						0,0 43.2,0 					"/>
				</g>
			</g>
		</g>
		<g>
			<g>
				<path class="st0" d="M37.7,26.2c-0.5-1-1.1-1.8-1.9-2.5c-0.8-0.6-1.7-1.1-2.7-1.5c-1-0.3-2.1-0.5-3.2-0.5
					c-0.8,0-1.6,0.1-2.2,0.3c-0.6,0.2-1.2,0.4-1.8,0.6l0.2-3.8h11.3v-5.7H24.5l-4.4,7.8l-0.3,4.9l4.1,2.3c0.6-0.4,1.2-0.7,1.9-0.9
					c0.7-0.2,1.4-0.4,2.1-0.4c1.1,0,2,0.3,2.7,0.8c0.7,0.5,1,1.2,1,2.1v0.1c0,0.9-0.3,1.6-1,2.2c-0.7,0.5-1.6,0.8-2.7,0.8
					c-1.1,0-2.1-0.2-3.1-0.7c-1-0.5-2-1.1-3-2l-4,4.7c1.3,1.2,2.8,2.2,4.4,2.9c1.6,0.7,3.6,1.1,5.8,1.1c1.5,0,2.9-0.2,4.2-0.6
					c1.3-0.4,2.4-1,3.3-1.8c0.9-0.8,1.6-1.7,2.1-2.8c0.5-1.1,0.8-2.4,0.8-3.8v-0.1C38.5,28.4,38.2,27.2,37.7,26.2z"/>
			</g>
			<g>
				<polygon class="st0" points="24.4,5.3 24.4,10.5 23,13.1 20.3,17.9 13.3,30.4 5.6,30.4 16.7,11.1 5.1,11.1 5.1,5.3 				"/>
			</g>
		</g>
	</g>
</g>
</svg>
