<?xml version="1.0" encoding="utf-8"?>
<!-- Generator: Adobe Illustrator 23.1.0, SVG Export Plug-In . SVG Version: 6.00 Build 0)  -->
<svg version="1.1" id="Capa_1" xmlns="http://www.w3.org/2000/svg" xmlns:xlink="http://www.w3.org/1999/xlink" x="0px" y="0px"
	 viewBox="0 0 35.8 36.5" style="enable-background:new 0 0 35.8 36.5;" xml:space="preserve">
<style type="text/css">
	.st0{fill:#FBBA33;}
</style>
<title>QuintupleAJ_topaz</title>
<polygon class="st0" points="32.1,28.4 28.2,28.4 28.2,26.3 30,26.3 30,2.1 5.7,2.1 5.7,26.3 7.4,26.3 7.4,28.4 3.7,28.4 3.7,0 
	32.1,0 "/>
<rect x="11.8" y="6.2" class="st0" width="2.1" height="10.1"/>
<rect x="17" y="3.7" class="st0" width="2.1" height="10.5"/>
<rect x="22.1" y="6.2" class="st0" width="2.1" height="10.1"/>
<path class="st0" d="M20.4,18.9c0.4-0.5,0.9-0.8,1.5-1.1v0c-0.1,0.4-0.1,0.7-0.2,1.1c0.2-0.2,0.5-0.4,0.7-0.6h0
	c-0.3,2.3,0.6,3.1,1.3,4.6c0.3,0.8,0.7,1.9,1,2.7c0.2,0.4,0.4,0.8,0.6,1.2c0.7,1.6-0.5,2.4-2,2c-0.3-0.3-0.5-0.7-0.6-1.1
	c-1.5-0.2-2.2-1.4-3.1-2.3c-2.6,1-0.7,3.8-0.2,6.1c0.3,2.5-0.4,3.8-1.8,4.8c-6.5-6.7-6.9-7.2-6.9-7.4c0-1.3,0.2-2.6,0.6-3.9
	c1.2-3.4,4.1-5,8.5-5.6C20,19.5,20.4,19.1,20.4,18.9"/>
</svg>
