<svg id="Layer_1" data-name="Layer 1" xmlns="http://www.w3.org/2000/svg" xmlns:xlink="http://www.w3.org/1999/xlink" viewBox="0 0 188.54 32.51"><defs><style>.cls-1{fill:url(#linear-gradient);}.cls-2{fill:#fff;}</style><linearGradient id="linear-gradient" y1="16.25" x2="188.54" y2="16.25" gradientUnits="userSpaceOnUse"><stop offset="0.6" stop-color="#51a8bc"/><stop offset="0.99" stop-color="#81c3cc"/></linearGradient></defs><rect class="cls-1" width="188.54" height="32.51"/><path class="cls-2" d="M49.81,23.28l-2.55-3.66-.49,0H44v3.64H41.63V10.78h5.14a7.09,7.09,0,0,1,2.84.53,4.07,4.07,0,0,1,1.84,1.54,4.31,4.31,0,0,1,.65,2.38,4.23,4.23,0,0,1-.69,2.43,4.08,4.08,0,0,1-2,1.51l2.87,4.11ZM49,13.39a3.54,3.54,0,0,0-2.3-.65H44v5h2.72a3.54,3.54,0,0,0,2.3-.65,2.27,2.27,0,0,0,.79-1.85A2.23,2.23,0,0,0,49,13.39Z"/><path class="cls-2" d="M64.07,21.34v1.94H54.69V10.78h9.13v2H57V16h6v1.91H57v3.45Z"/><path class="cls-2" d="M67.74,23.05A5.88,5.88,0,0,1,65.6,22l.81-1.8a6.54,6.54,0,0,0,1.88,1,6.72,6.72,0,0,0,2.24.38,3.93,3.93,0,0,0,2.08-.44,1.35,1.35,0,0,0,.69-1.18,1.18,1.18,0,0,0-.38-.89,2.71,2.71,0,0,0-1-.54c-.39-.13-.92-.28-1.6-.45A17,17,0,0,1,68,17.35a3.81,3.81,0,0,1-1.52-1.06,2.87,2.87,0,0,1-.63-2,3.35,3.35,0,0,1,.56-1.88,3.77,3.77,0,0,1,1.7-1.35,6.94,6.94,0,0,1,2.78-.5,9,9,0,0,1,2.25.29,6.16,6.16,0,0,1,1.91.82l-.73,1.8a7.41,7.41,0,0,0-1.72-.73,6.24,6.24,0,0,0-1.73-.25,3.64,3.64,0,0,0-2,.46,1.45,1.45,0,0,0-.67,1.24,1.1,1.1,0,0,0,.39.87,2.67,2.67,0,0,0,1,.54c.4.13.93.28,1.61.44a18.4,18.4,0,0,1,2.29.67A4,4,0,0,1,75,17.82a2.76,2.76,0,0,1,.64,1.93A3.32,3.32,0,0,1,75,21.62,3.85,3.85,0,0,1,73.32,23a6.82,6.82,0,0,1-2.79.5A9.33,9.33,0,0,1,67.74,23.05Z"/><path class="cls-2" d="M79.23,22a5.69,5.69,0,0,1-1.44-4.18v-7h2.32v7q0,3.67,3.18,3.68c2.1,0,3.16-1.23,3.16-3.68v-7h2.29v7A5.69,5.69,0,0,1,87.3,22a6.34,6.34,0,0,1-8.07,0Z"/><path class="cls-2" d="M92,10.78h2.32V21.32h6.54v2H92Z"/><path class="cls-2" d="M104.06,12.74H99.92v-2h10.61v2h-4.14V23.28h-2.33Z"/><path class="cls-2" d="M119.77,20.39h-6.26l-1.23,2.89h-2.39l5.62-12.5h2.29l5.65,12.5H121ZM119,18.57l-2.36-5.47-2.34,5.47Z"/><path class="cls-2" d="M125,10.78h5.47a7.86,7.86,0,0,1,3.56.78,5.75,5.75,0,0,1,2.41,2.19,6.24,6.24,0,0,1,.86,3.28,6.24,6.24,0,0,1-.86,3.28,5.77,5.77,0,0,1-2.41,2.2,8,8,0,0,1-3.56.77H125Zm5.36,10.54a5.29,5.29,0,0,0,2.42-.53,3.71,3.71,0,0,0,1.61-1.5A4.39,4.39,0,0,0,135,17a4.39,4.39,0,0,0-.57-2.26,3.71,3.71,0,0,0-1.61-1.5,5.29,5.29,0,0,0-2.42-.53h-3v8.58Z"/><path class="cls-2" d="M142.18,22.63a6.2,6.2,0,0,1-2.41-2.3,6.67,6.67,0,0,1,0-6.59,6.15,6.15,0,0,1,2.41-2.31,7.59,7.59,0,0,1,6.9,0,6.13,6.13,0,0,1,2.41,2.3,6.65,6.65,0,0,1,0,6.61,6.18,6.18,0,0,1-2.41,2.29,7.59,7.59,0,0,1-6.9,0Zm5.7-1.77a4,4,0,0,0,1.57-1.57,4.69,4.69,0,0,0,0-4.52,4,4,0,0,0-1.57-1.57,4.8,4.8,0,0,0-4.5,0,4,4,0,0,0-1.57,1.57,4.77,4.77,0,0,0,0,4.52,4,4,0,0,0,1.57,1.57,4.73,4.73,0,0,0,4.5,0Z"/><path class="cls-2" d="M155.91,23.05A5.75,5.75,0,0,1,153.78,22l.8-1.8a6.47,6.47,0,0,0,1.89,1,6.72,6.72,0,0,0,2.24.38,4,4,0,0,0,2.08-.44,1.35,1.35,0,0,0,.69-1.18,1.15,1.15,0,0,0-.39-.89,2.67,2.67,0,0,0-1-.54c-.39-.13-.93-.28-1.61-.45a17.2,17.2,0,0,1-2.31-.68,3.74,3.74,0,0,1-1.52-1.06,2.87,2.87,0,0,1-.63-2,3.27,3.27,0,0,1,.56-1.88,3.72,3.72,0,0,1,1.7-1.35,6.89,6.89,0,0,1,2.77-.5,8.9,8.9,0,0,1,2.25.29,6.22,6.22,0,0,1,1.92.82l-.74,1.8a7.34,7.34,0,0,0-1.71-.73,6.29,6.29,0,0,0-1.73-.25,3.64,3.64,0,0,0-2,.46,1.43,1.43,0,0,0-.67,1.24,1.12,1.12,0,0,0,.38.87,2.71,2.71,0,0,0,1,.54c.39.13.93.28,1.61.44a18.18,18.18,0,0,1,2.28.67,3.93,3.93,0,0,1,1.53,1.07,2.8,2.8,0,0,1,.63,1.93,3.24,3.24,0,0,1-.56,1.87A3.77,3.77,0,0,1,161.5,23a6.89,6.89,0,0,1-2.79.5A9.35,9.35,0,0,1,155.91,23.05Z"/><path class="cls-2" d="M32.33,18H28.22v4h-3V18H21.1V15.1h4.08v-4h3v4h4.11Z"/><path class="cls-2" d="M185.41,30.13H3.08V2.41H185.41Zm-181.3-1H184.38V3.44H4.11Z"/></svg>