<svg id="Layer_1" data-name="Layer 1" xmlns="http://www.w3.org/2000/svg" viewBox="0 0 205.7 58.72"><defs><style>.cls-1,.cls-2{fill:#748525;}.cls-1{fill-rule:evenodd;}</style></defs><polygon class="cls-1" points="57.42 2.63 57.42 52.8 46.2 52.8 46.2 55.44 60.06 55.44 60.06 0 0 0 0 55.44 13.86 55.44 13.86 52.8 2.64 52.8 2.64 2.63 57.42 2.63"/><path class="cls-2" d="M29.21,23.76a6,6,0,0,0,.06-.85V22.8h0a7.51,7.51,0,0,0-2.6-6.13,8.2,8.2,0,0,0-6-2.06,6.61,6.61,0,0,0-4.76,2,7.11,7.11,0,0,0-2.38,5.3,7.91,7.91,0,0,0,2.82,6.34,7.32,7.32,0,0,0,5.42,1.95h0l1.41,0c.76,0,2.35-.18,3.25-.19s.48,0,1.08,0c1.3,0,1.63.32,1.63.32l.11-.11h0s-.33-.32-.33-1.62a33.29,33.29,0,0,1,.22-4.34A3.44,3.44,0,0,0,29.21,23.76Zm-.09.61,0-.1C29.13,24.35,29.09,24.44,29.12,24.37Z"/><path class="cls-2" d="M32.09,24.26a34.87,34.87,0,0,1,.21,4.34c0,1.3-.32,1.62-.32,1.62h0l.11.11s.32-.32,1.62-.32c.61,0,.29,0,1.09,0s2.49.19,3.25.19l1.41,0h0a7.35,7.35,0,0,0,5.42-1.95,7.93,7.93,0,0,0,2.82-6.34,7.15,7.15,0,0,0-2.39-5.3,6.57,6.57,0,0,0-4.76-2,8.18,8.18,0,0,0-6,2.06A7.49,7.49,0,0,0,32,22.8h0v.11a7.92,7.92,0,0,0,.05.85A2.1,2.1,0,0,0,32.09,24.26Zm0,0,0,.1Z"/><path class="cls-2" d="M29.16,38.24a33.15,33.15,0,0,1-.22-4.33c0-1.3.33-1.63.33-1.63h0l-.11-.11s-.33.33-1.63.33H26.45c-.9,0-2.49-.2-3.25-.2l-1.41,0h0a7.41,7.41,0,0,0-5.42,1.95,8,8,0,0,0-2.82,6.35,7.14,7.14,0,0,0,2.38,5.3,6.64,6.64,0,0,0,4.76,2,8.17,8.17,0,0,0,6-2.06,7.49,7.49,0,0,0,2.6-6.12h0V39.6a6.22,6.22,0,0,0-.06-.86A3.64,3.64,0,0,0,29.16,38.24Zm0,0a.94.94,0,0,1,0-.09C29.09,38.06,29.13,38.16,29.15,38.22Z"/><path class="cls-2" d="M32,38.74a8.27,8.27,0,0,0-.05.86v.11h0a7.45,7.45,0,0,0,2.6,6.12,8.12,8.12,0,0,0,6,2.06,6.6,6.6,0,0,0,4.76-2,7.11,7.11,0,0,0,2.39-5.3A7.64,7.64,0,0,0,45,34.34a7.81,7.81,0,0,0-5.53-2.06h0l-1.41,0c-.76,0-2.35.19-3.25.2H33.71c-1.3,0-1.62-.33-1.62-.33l-.11.11h0s.32.33.32,1.63a34.72,34.72,0,0,1-.21,4.33A2.2,2.2,0,0,0,32,38.74Zm.1-.6,0,.09C32.12,38.16,32.15,38.06,32.13,38.14Z"/><path class="cls-2" d="M31.87,53.42a17.25,17.25,0,0,0,.87-6.72,2.06,2.06,0,1,0-4.12,0,1.77,1.77,0,0,0,0,.23,14.79,14.79,0,0,1-.45,4.65,16.32,16.32,0,0,1-1.9,3.77,1.62,1.62,0,0,0-.2.28h0a2.1,2.1,0,0,0-.27,1,2.06,2.06,0,0,0,2.06,2.06A2,2,0,0,0,29.4,58h0a0,0,0,0,1,0,0,1.94,1.94,0,0,0,.23-.33A19.35,19.35,0,0,0,31.87,53.42Z"/><path class="cls-2" d="M87.05,29.3a3.72,3.72,0,0,1,.75,2.34,3.49,3.49,0,0,1-1.62,3.09,8.27,8.27,0,0,1-4.66,1.09H73.29V20.58h7.8a7.74,7.74,0,0,1,4.44,1.07,3.38,3.38,0,0,1,1.52,2.91,3.57,3.57,0,0,1-.53,2A3.63,3.63,0,0,1,85,27.87,4.25,4.25,0,0,1,87.05,29.3Zm-9.49-5.61v2.94h3c1.45,0,2.18-.49,2.18-1.48s-.73-1.46-2.18-1.46Zm5.88,7.47c0-1-.76-1.54-2.27-1.54H77.56v3.09h3.61C82.68,32.71,83.44,32.19,83.44,31.16Z"/><path class="cls-2" d="M93.38,35.11a7.72,7.72,0,0,1-3-2.84,8.08,8.08,0,0,1,0-8.14,7.72,7.72,0,0,1,3-2.84,9.79,9.79,0,0,1,8.7,0,7.72,7.72,0,0,1,3,2.84,8.08,8.08,0,0,1,0,8.14,7.72,7.72,0,0,1-3,2.84,9.79,9.79,0,0,1-8.7,0ZM99.82,32a3.89,3.89,0,0,0,1.48-1.53,5,5,0,0,0,0-4.56,3.89,3.89,0,0,0-1.48-1.53,4.25,4.25,0,0,0-4.18,0,3.83,3.83,0,0,0-1.48,1.53,5,5,0,0,0,0,4.56A3.83,3.83,0,0,0,95.64,32a4.25,4.25,0,0,0,4.18,0Z"/><path class="cls-2" d="M123,20.58V35.82h-3.55l-6.74-8.12v8.12h-4.22V20.58H112l6.73,8.12V20.58Z"/><path class="cls-2" d="M129.37,35.11a7.81,7.81,0,0,1,0-13.82,9.76,9.76,0,0,1,8.69,0,7.81,7.81,0,0,1,0,13.82,9.76,9.76,0,0,1-8.69,0Zm6.44-3.1a4,4,0,0,0,1.48-1.53,5.08,5.08,0,0,0,0-4.56,4,4,0,0,0-1.48-1.53,4.27,4.27,0,0,0-4.19,0,4,4,0,0,0-1.48,1.53,5.08,5.08,0,0,0,0,4.56A4,4,0,0,0,131.62,32a4.27,4.27,0,0,0,4.19,0Z"/><path class="cls-2" d="M144.45,20.58h4.32V32.4H156v3.42H144.45Z"/><path class="cls-2" d="M160.85,35.11a7.81,7.81,0,0,1,0-13.82,9.76,9.76,0,0,1,8.69,0,7.82,7.82,0,0,1,3,2.84,8.08,8.08,0,0,1,0,8.14,7.82,7.82,0,0,1-3,2.84,9.76,9.76,0,0,1-8.69,0Zm6.43-3.1a3.83,3.83,0,0,0,1.48-1.53,5,5,0,0,0,0-4.56,3.83,3.83,0,0,0-1.48-1.53,4.25,4.25,0,0,0-4.18,0,3.89,3.89,0,0,0-1.48,1.53,5.08,5.08,0,0,0,0,4.56A3.89,3.89,0,0,0,163.1,32a4.25,4.25,0,0,0,4.18,0Z"/><path class="cls-2" d="M179,24h-4.68V20.58h13.65V24h-4.66V35.82H179Z"/><path class="cls-2" d="M192.67,35.11a7.82,7.82,0,0,1-3-2.84,8.08,8.08,0,0,1,0-8.14,7.82,7.82,0,0,1,3-2.84,9.76,9.76,0,0,1,8.69,0,7.68,7.68,0,0,1,3,2.84,8.08,8.08,0,0,1,0,8.14,7.68,7.68,0,0,1-3,2.84,9.76,9.76,0,0,1-8.69,0Zm6.44-3.1a3.89,3.89,0,0,0,1.48-1.53,5,5,0,0,0,0-4.56,3.89,3.89,0,0,0-1.48-1.53,4.25,4.25,0,0,0-4.18,0,3.83,3.83,0,0,0-1.48,1.53,5,5,0,0,0,0,4.56A3.83,3.83,0,0,0,194.93,32a4.25,4.25,0,0,0,4.18,0Z"/></svg>