<svg id="Layer_1" data-name="Layer 1" xmlns="http://www.w3.org/2000/svg" viewBox="0 0 256.84 55.44"><defs><style>.cls-1,.cls-2{fill:#0a597c;}.cls-1{fill-rule:evenodd;}</style></defs><polygon class="cls-1" points="57.42 2.63 57.42 52.8 46.2 52.8 46.2 55.44 60.06 55.44 60.06 0 0 0 0 55.44 13.86 55.44 13.86 52.8 2.64 52.8 2.64 2.63 57.42 2.63"/><path class="cls-2" d="M30,15.94A19.76,19.76,0,1,0,49.79,35.7,19.76,19.76,0,0,0,30,15.94ZM32,20.14a9.53,9.53,0,1,1-9.53,9.53A9.52,9.52,0,0,1,32,20.14Zm-1.8,30.94c-8.56,0-15.78-7.56-15.78-15.83,0-5.16,3.08-9.77,7.48-12.5a21.34,21.34,0,0,0-1.21,1.86,13.13,13.13,0,0,0-1.34,6.25c0,6.48,5.55,13.51,12.78,13.51,5.67,0,11.7-4.4,13.55-9.6,0,.45,0,.9,0,1.37C45.68,44.46,38.73,51.08,30.16,51.08Z"/><path class="cls-2" d="M85.53,32.72v3.34H73.29V20.81h12v3.33H77.56v2.57h6.77v3.23H77.56v2.78Z"/><path class="cls-2" d="M89.68,34.51a7,7,0,0,1-1.88-5.25V20.81h4.31v8.32c0,2.44,1,3.66,2.9,3.66s2.87-1.22,2.87-3.66V20.81h4.25v8.45a7.05,7.05,0,0,1-1.88,5.25,8.47,8.47,0,0,1-10.57,0Z"/><path class="cls-2" d="M111.71,32h-2.35v4.06h-4.31V20.81h7a8.78,8.78,0,0,1,3.59.68,5.46,5.46,0,0,1,2.36,2,5.4,5.4,0,0,1,.82,3,5.29,5.29,0,0,1-.77,2.89,5.14,5.14,0,0,1-2.21,1.92l3.29,4.8h-4.62Zm2.05-7.21a3,3,0,0,0-2-.58h-2.4v4.46h2.4a3,3,0,0,0,2-.58,2,2,0,0,0,.68-1.64A2.1,2.1,0,0,0,113.76,24.79Z"/><path class="cls-2" d="M124.51,35.34a7.87,7.87,0,0,1-3-2.83,7.79,7.79,0,0,1,3-11,9.68,9.68,0,0,1,8.69,0,7.59,7.59,0,0,1,3,2.83,7.79,7.79,0,0,1-3,11,9.76,9.76,0,0,1-8.69,0Zm6.44-3.1a3.89,3.89,0,0,0,1.48-1.53,5.06,5.06,0,0,0,0-4.55A3.85,3.85,0,0,0,131,24.62a4.31,4.31,0,0,0-4.18,0,3.88,3.88,0,0,0-1.49,1.54,5.06,5.06,0,0,0,0,4.55,3.92,3.92,0,0,0,1.49,1.53,4.25,4.25,0,0,0,4.18,0Z"/><path class="cls-2" d="M153.36,36.06l0-8.09-3.92,6.58h-1.92l-3.9-6.36v7.87h-4V20.81h3.55l5.36,8.8,5.22-8.8h3.55l.05,15.25Z"/><path class="cls-2" d="M160.38,20.81h4.31V36.06h-4.31Z"/><path class="cls-2" d="M167.76,20.81h4.32V32.64h7.27v3.42H167.76Z"/><path class="cls-2" d="M181.05,20.81h4.31V32.64h7.28v3.42H181.05Z"/><path class="cls-2" d="M197.44,35.34a7.87,7.87,0,0,1-3-2.83,7.79,7.79,0,0,1,3-11,9.68,9.68,0,0,1,8.69,0,7.59,7.59,0,0,1,3,2.83,7.79,7.79,0,0,1-3,11,9.76,9.76,0,0,1-8.69,0Zm6.44-3.1a3.89,3.89,0,0,0,1.48-1.53,5,5,0,0,0,0-4.55,3.85,3.85,0,0,0-1.48-1.54,4.31,4.31,0,0,0-4.18,0,3.79,3.79,0,0,0-1.48,1.54,5,5,0,0,0,0,4.55,3.83,3.83,0,0,0,1.48,1.53,4.25,4.25,0,0,0,4.18,0Z"/><path class="cls-2" d="M227,20.81V36.06h-3.56l-6.73-8.13v8.13h-4.22V20.81h3.55l6.73,8.12V20.81Z"/><path class="cls-2" d="M242.33,32.72v3.34H230.08V20.81h12v3.33h-7.69v2.57h6.78v3.23h-6.78v2.78Z"/><path class="cls-2" d="M246.49,35.9a8.64,8.64,0,0,1-2.83-1.22l1.41-3.18a9,9,0,0,0,2.38,1.09,8.87,8.87,0,0,0,2.65.42c1.66,0,2.49-.42,2.49-1.24a1,1,0,0,0-.71-1,12.66,12.66,0,0,0-2.28-.67,23.08,23.08,0,0,1-2.87-.79,4.85,4.85,0,0,1-2-1.37,3.61,3.61,0,0,1-.83-2.52,4.38,4.38,0,0,1,.76-2.52A5.06,5.06,0,0,1,247,21.16a9.26,9.26,0,0,1,3.71-.66,13.37,13.37,0,0,1,3,.34,9.3,9.3,0,0,1,2.57,1L254.87,25a8.9,8.9,0,0,0-4.22-1.17,3.53,3.53,0,0,0-1.88.38,1.13,1.13,0,0,0-.58,1,1,1,0,0,0,.69.91,12.35,12.35,0,0,0,2.25.64,20.43,20.43,0,0,1,2.88.79,5.11,5.11,0,0,1,2,1.35,3.67,3.67,0,0,1,.84,2.52,4.28,4.28,0,0,1-.77,2.48,5.29,5.29,0,0,1-2.28,1.78,9.36,9.36,0,0,1-3.71.66A13.86,13.86,0,0,1,246.49,35.9Z"/></svg>