<?xml version="1.0" encoding="utf-8"?>
<!-- Generator: Adobe Illustrator 24.2.0, SVG Export Plug-In . SVG Version: 6.00 Build 0)  -->
<svg version="1.1" id="Layer_1" xmlns="http://www.w3.org/2000/svg" xmlns:xlink="http://www.w3.org/1999/xlink" x="0px" y="0px"
	 viewBox="0 0 193.4 55.8" style="enable-background:new 0 0 193.4 55.8;" xml:space="preserve">
<style type="text/css">
	.st0{fill:#DC3F47;}
	.st1{fill-rule:evenodd;clip-rule:evenodd;fill:#DC3F47;}
</style>
<path class="st0" d="M85.5,25.1v3.3H73.3V13.2h12v3.3h-7.7v2.6h6.8v3.2h-6.8v2.8H85.5z"/>
<path class="st0" d="M87.9,13.2h4.3V25h7.3v3.4H87.9V13.2z"/>
<path class="st0" d="M117.8,20.5h3.8v6.3c-0.9,0.6-1.9,1.1-3,1.4c-1.1,0.3-2.2,0.5-3.4,0.5c-1.5,0-3-0.3-4.3-1
	c-1.2-0.6-2.3-1.6-3-2.8c-0.7-1.2-1.1-2.7-1.1-4.1c0-1.4,0.4-2.9,1.1-4.1c0.7-1.2,1.8-2.2,3-2.8c1.4-0.7,2.9-1,4.4-1
	c1.3,0,2.6,0.2,3.8,0.7c1.1,0.5,2.1,1.2,2.8,2.1l-2.8,2.5c-0.9-1.1-2.3-1.7-3.7-1.7c-1.2-0.1-2.3,0.4-3.2,1.2
	c-0.8,0.8-1.2,2-1.2,3.2c0,0.8,0.2,1.6,0.5,2.3c0.4,0.6,0.9,1.2,1.5,1.5c0.7,0.4,1.5,0.6,2.3,0.5c0.8,0,1.6-0.2,2.3-0.5L117.8,20.5z
	"/>
<path class="st0" d="M127.7,27.7c-2.6-1.3-4.2-4-4.1-6.9c-0.1-2.9,1.5-5.6,4.1-6.9c2.7-1.4,6-1.4,8.7,0c1.2,0.7,2.3,1.6,3,2.8
	c1.5,2.5,1.5,5.6,0,8.1c-0.7,1.2-1.8,2.2-3,2.8C133.6,29.1,130.4,29.1,127.7,27.7z M134.1,24.6c0.6-0.4,1.1-0.9,1.5-1.5
	c0.7-1.4,0.7-3.1,0-4.5c-0.3-0.6-0.9-1.2-1.5-1.5c-1.3-0.7-2.9-0.7-4.2,0c-0.6,0.4-1.1,0.9-1.5,1.5c-0.7,1.4-0.7,3.1,0,4.6
	c0.3,0.6,0.9,1.2,1.5,1.5C131.2,25.3,132.8,25.3,134.1,24.6L134.1,24.6z"/>
<path class="st0" d="M149.4,24.4h-2.4v4.1h-4.3V13.2h7c1.2,0,2.5,0.2,3.6,0.7c1,0.4,1.8,1.1,2.4,2c0.6,0.9,0.9,1.9,0.8,3
	c0.1,2.1-1.1,4-3,4.8l3.3,4.8h-4.6L149.4,24.4z M151.5,17.2c-0.6-0.4-1.3-0.6-2-0.6h-2.4V21h2.4c0.7,0.1,1.4-0.2,2-0.6
	c0.5-0.4,0.7-1,0.7-1.6C152.2,18.2,151.9,17.6,151.5,17.2z"/>
<path class="st0" d="M158.9,13.2h7.2c1.5,0,3.1,0.3,4.4,0.9c1.2,0.6,2.3,1.5,3,2.7c0.7,1.2,1.1,2.6,1.1,4c0,1.4-0.3,2.8-1.1,4
	c-0.7,1.2-1.8,2.1-3,2.6c-1.4,0.6-2.9,1-4.4,0.9h-7.2V13.2z M165.9,25c1.2,0.1,2.3-0.3,3.1-1.1c0.8-0.8,1.3-1.9,1.2-3.1
	c0.1-1.1-0.4-2.3-1.2-3.1c-0.9-0.8-2-1.2-3.1-1.1h-2.7V25L165.9,25z"/>
<path class="st0" d="M180.2,27.7c-2.6-1.3-4.2-4-4.1-6.9c-0.1-2.9,1.5-5.6,4.1-6.9c2.7-1.4,6-1.4,8.7,0c1.2,0.7,2.3,1.6,3,2.8
	c1.5,2.5,1.5,5.6,0,8.1c-0.7,1.2-1.8,2.2-3,2.8C186.2,29.1,182.9,29.1,180.2,27.7z M186.7,24.6c0.6-0.4,1.1-0.9,1.5-1.5
	c0.7-1.4,0.7-3.1,0-4.5c-0.3-0.6-0.9-1.2-1.5-1.5c-1.3-0.7-2.9-0.7-4.2,0c-0.6,0.4-1.1,0.9-1.5,1.5c-0.7,1.4-0.7,3.1,0,4.5
	c0.3,0.6,0.9,1.2,1.5,1.5C183.8,25.3,185.4,25.3,186.7,24.6L186.7,24.6z"/>
<path class="st0" d="M73.2,33.6h4.1c1,0,1.9,0.2,2.8,0.6c0.8,0.4,1.4,1,1.9,1.8c0.9,1.6,0.9,3.5,0,5.1c-0.4,0.7-1.1,1.3-1.9,1.7
	c-0.9,0.4-1.8,0.6-2.8,0.6h-4.1V33.6z M77.2,42.2c0.7,0,1.4-0.1,2.1-0.5c0.6-0.3,1.1-0.7,1.4-1.3c0.3-0.6,0.5-1.3,0.5-1.9
	c0-0.7-0.2-1.3-0.5-1.9c-0.3-0.6-0.8-1-1.4-1.3c-0.6-0.3-1.4-0.5-2.1-0.5h-2.6v7.4L77.2,42.2z"/>
<path class="st0" d="M91.9,42.2v1.2h-7.1v-9.8h6.9v1.2h-5.5v3h4.9V39h-4.9v3.2H91.9z"/>
<path class="st0" d="M97.9,33.6h1.4v8.6h5.3v1.2h-6.7V33.6z"/>
<path class="st0" d="M112.5,41h-5.2l-1.1,2.5h-1.4l4.4-9.8h1.4l4.4,9.8h-1.5L112.5,41z M112.1,39.9l-2.1-4.8l-2.1,4.8H112.1z"/>
<path class="st0" d="M127.1,34.5c1.4,1.3,1.5,3.5,0.2,4.8c-0.1,0.1-0.1,0.1-0.2,0.2c-0.9,0.7-1.9,1-3,0.9h-2.4v3h-1.4v-9.8h3.8
	C125.2,33.6,126.3,33.9,127.1,34.5z M126.1,38.7c0.9-0.9,0.9-2.3,0.1-3.2c0,0-0.1-0.1-0.1-0.1c-0.6-0.4-1.3-0.6-2-0.6h-2.4v4.4h2.4
	C124.8,39.3,125.5,39.1,126.1,38.7L126.1,38.7z"/>
<path class="st0" d="M136.8,43.4l-2.1-3h-0.6h-2.4v3h-1.4v-9.8h3.8c1.1-0.1,2.1,0.3,3,0.9c0.7,0.6,1.1,1.5,1.1,2.5
	c0,0.7-0.2,1.4-0.6,1.9c-0.4,0.6-1,1-1.6,1.2l2.3,3.3L136.8,43.4z M136.1,38.7c0.5-0.4,0.7-1,0.7-1.6c0-0.6-0.2-1.2-0.7-1.6
	c-0.6-0.4-1.3-0.6-2-0.6h-2.4v4.4h2.4C134.8,39.3,135.5,39.1,136.1,38.7z"/>
<path class="st0" d="M140.5,33.6h1.4v9.8h-1.4V33.6z"/>
<path class="st0" d="M153.9,43.4v-7.1l-3.5,6h-0.6l-3.6-5.9v7.1h-1.4v-9.8h1.2l4,6.9l4-6.9h1.1v9.8H153.9z"/>
<path class="st0" d="M158.2,33.6h1.4v9.8h-1.4V33.6z"/>
<path class="st0" d="M164.5,34.8h-3.4v-1.2h8.1v1.2h-3.4v8.6h-1.4V34.8z"/>
<path class="st0" d="M170.7,33.6h1.4v9.8h-1.4V33.6z"/>
<path class="st0" d="M183.5,33.6l-4.3,9.8h-1.4l-4.3-9.8h1.5l3.5,8l3.6-8H183.5z"/>
<path class="st0" d="M190.7,41h-5.2l-1.1,2.5h-1.4l4.4-9.8h1.4l4.4,9.8h-1.5L190.7,41z M190.2,39.9l-2.1-4.8l-2.1,4.8L190.2,39.9z"
	/>
<g>
	<g>
		<polygon class="st1" points="57.3,2.5 57.3,52.7 46.3,52.7 46.3,55.2 60.1,55.2 60.1,0 0,0 0,55.2 14,55.2 14,52.7 2.8,52.7 
			2.8,2.5 		"/>
	</g>
</g>
<g>
	<path class="st0" d="M45.2,41c-5,0.5-10.1,0.5-14.9,0.5c-6.2,0-11.5-0.2-15.4-0.5c-0.2-0.9-0.5-1.8-0.7-2.8c3.7,0.2,9.2,0.5,16,0.5
		c5,0,10.5-0.2,15.6-0.7C45.8,39.2,45.6,40.1,45.2,41 M37.1,50c-2.3,0.2-4.6,0.5-6.9,0.5c-2.5,0-5,0-7.3-0.5
		c-1.6-0.7-3.2-1.8-4.6-3.4c3.9,0.7,7.8,0.9,11.5,0.9S37.4,47,41,46.5C40.3,47.9,38.7,49.1,37.1,50 M14.9,30.7
		C19,30.5,24.3,30,30.5,30c5.5,0,10.3,0.2,15.1,0.7c0.2,0.9,0.5,1.8,0.7,2.8c-5-0.5-10.3-0.7-16-0.7c-6.2,0-12.1,0.5-16.3,0.7
		C14.2,32.6,14.4,31.6,14.9,30.7 M21.8,21.5c2.8-0.5,5.7-0.5,8.7-0.5c2.8,0,5.3,0.2,8,0.5c1.4,0.9,2.8,2.1,3.9,3.4
		c-8-1.6-16.3-1.6-24.3,0C19,23.6,20.2,22.5,21.8,21.5 M29.8,15.8C19,16,10.3,25,10.5,35.8c0.2,10.8,8.9,19.5,19.7,19.5
		C41,55,49.7,46.3,49.7,35.5C49.5,24.8,40.6,16,29.8,15.8"/>
</g>
</svg>
