<svg id="Layer_1" data-name="Layer 1" xmlns="http://www.w3.org/2000/svg" viewBox="0 0 40.33 17.82"><defs><style>.cls-1{fill:#b71111;}.cls-2{fill:#fff;}</style></defs><rect class="cls-1" y="0.01" width="40.33" height="17.81"/><path class="cls-2" d="M13.61,3.36V13.85H11.66V9.35H6.24v4.5H4.3V3.36H6.24V7.69h5.42V3.36Z"/><path class="cls-2" d="M18.43,13.3a5.14,5.14,0,0,1-2-1.93,5.32,5.32,0,0,1-.73-2.76,5.33,5.33,0,0,1,.73-2.77,5.14,5.14,0,0,1,2-1.93,6.34,6.34,0,0,1,5.79,0,5.25,5.25,0,0,1,2,1.92A5.32,5.32,0,0,1,27,8.61a5.31,5.31,0,0,1-.73,2.77,5.25,5.25,0,0,1-2,1.92,6.34,6.34,0,0,1-5.79,0Zm4.78-1.48a3.49,3.49,0,0,0,1.32-1.32A3.77,3.77,0,0,0,25,8.61a3.78,3.78,0,0,0-.48-1.9,3.49,3.49,0,0,0-1.32-1.32,4,4,0,0,0-3.77,0,3.49,3.49,0,0,0-1.32,1.32,3.78,3.78,0,0,0-.48,1.9,3.77,3.77,0,0,0,.48,1.89,3.49,3.49,0,0,0,1.32,1.32,4,4,0,0,0,3.77,0Z"/><path class="cls-2" d="M33.11,10.15v3.7H31.17V10.18L27.05,3.36h2.08L32.2,8.47l3.1-5.11h1.92Z"/></svg>