<svg id="Layer_1" data-name="Layer 1" xmlns="http://www.w3.org/2000/svg" viewBox="0 0 195.17 56.66"><defs><style>.cls-1,.cls-2{fill:#eb6c20;}.cls-1{fill-rule:evenodd;}</style></defs><polygon class="cls-1" points="57.42 2.63 57.42 52.8 46.2 52.8 46.2 55.44 60.06 55.44 60.06 0 0 0 0 55.44 13.86 55.44 13.86 52.8 2.64 52.8 2.64 2.63 57.42 2.63"/><g id="X3DEOX"><path class="cls-2" d="M38.26,16.26c-.09.85-.16,1.48-.23,2.28l1.54-1a14.09,14.09,0,0,0,0,2.62,11.72,11.72,0,0,0,1,3.5,77,77,0,0,1,4,9.31c.51,1.3,1.1,2.56,1.56,3.89a2.39,2.39,0,0,1-.82,2.85,3.22,3.22,0,0,1-3.42.33,3,3,0,0,1-1.13-1.55,1.44,1.44,0,0,0-1.11-1A7.76,7.76,0,0,1,36,35.05c-.61-.61-1.19-1.24-1.75-1.89A.86.86,0,0,0,33,33a4,4,0,0,0-2.25,4.42,36.18,36.18,0,0,0,1.26,4.89,18.86,18.86,0,0,1,1.23,7.48,8.67,8.67,0,0,1-3.5,6.42,2.88,2.88,0,0,1-.54.37s-.42-.5-.47-.53l-9-9.48c-1.61-1.73-5.34-5.78-5.34-5.78h0a27.64,27.64,0,0,1,1.61-9.62,15.56,15.56,0,0,1,8.13-8.46,33.23,33.23,0,0,1,9.22-2.58,2.56,2.56,0,0,0,1.22-.63c.74-.7,1.38-1.53,2.11-2.23A9.6,9.6,0,0,1,38.26,16.26Z"/></g><path class="cls-2" d="M73.29,20.58H77.6V32.4h7.28v3.42H73.29Z"/><path class="cls-2" d="M89.68,35.11a7.81,7.81,0,0,1,0-13.82,9.76,9.76,0,0,1,8.69,0,7.81,7.81,0,0,1,0,13.82,9.76,9.76,0,0,1-8.69,0ZM96.12,32a3.89,3.89,0,0,0,1.48-1.53,5.08,5.08,0,0,0,0-4.56,3.89,3.89,0,0,0-1.48-1.53,4.27,4.27,0,0,0-4.19,0,4,4,0,0,0-1.48,1.53,5.08,5.08,0,0,0,0,4.56A4,4,0,0,0,91.93,32a4.27,4.27,0,0,0,4.19,0Z"/><path class="cls-2" d="M107.79,24h-4.68V20.58h13.66V24h-4.66V35.82h-4.32Z"/><path class="cls-2" d="M121.51,35.11a7.68,7.68,0,0,1-3-2.84,8.08,8.08,0,0,1,0-8.14,7.68,7.68,0,0,1,3-2.84,9.76,9.76,0,0,1,8.69,0,7.72,7.72,0,0,1,3,2.84,8,8,0,0,1,0,8.14,7.72,7.72,0,0,1-3,2.84,9.76,9.76,0,0,1-8.69,0Zm6.43-3.1a3.83,3.83,0,0,0,1.48-1.53,5,5,0,0,0,0-4.56,3.83,3.83,0,0,0-1.48-1.53,4.25,4.25,0,0,0-4.18,0,3.89,3.89,0,0,0-1.48,1.53,5,5,0,0,0,0,4.56A3.89,3.89,0,0,0,123.76,32a4.25,4.25,0,0,0,4.18,0Z"/><path class="cls-2" d="M139.62,24h-4.69V20.58h13.66V24h-4.66V35.82h-4.31Z"/><path class="cls-2" d="M151.72,34.28A7,7,0,0,1,149.84,29V20.58h4.31V28.9c0,2.44,1,3.66,2.9,3.66s2.87-1.22,2.87-3.66V20.58h4.25V29a7.07,7.07,0,0,1-1.88,5.25,8.47,8.47,0,0,1-10.57,0Z"/><path class="cls-2" d="M173.75,31.77H171.4v4.05h-4.31V20.58h7a8.61,8.61,0,0,1,3.59.68,5.14,5.14,0,0,1,3.18,5,5.07,5.07,0,0,1-3,4.81l3.29,4.79h-4.62Zm2.05-7.21a3,3,0,0,0-2-.59h-2.4v4.47h2.4a3,3,0,0,0,2-.58,2,2,0,0,0,.68-1.64A2.09,2.09,0,0,0,175.8,24.56Z"/><path class="cls-2" d="M187.52,23.91v3.35h6.73V30.6h-6.73v5.22h-4.31V20.58h12v3.33Z"/></svg>