<svg id="Layer_1" data-name="Layer 1" xmlns="http://www.w3.org/2000/svg" viewBox="0 0 302.6 55.44"><defs><style>.cls-1,.cls-2{fill:#5975b5;}.cls-2{fill-rule:evenodd;}</style></defs><path class="cls-1" d="M73.29,20.58H77.6V32.4h7.28v3.42H73.29Z"/><path class="cls-1" d="M89.68,35.11a7.81,7.81,0,0,1,0-13.82,9.76,9.76,0,0,1,8.69,0,7.81,7.81,0,0,1,0,13.82,9.76,9.76,0,0,1-8.69,0ZM96.12,32a3.89,3.89,0,0,0,1.48-1.53,5.08,5.08,0,0,0,0-4.56,3.89,3.89,0,0,0-1.48-1.53,4.27,4.27,0,0,0-4.19,0,4,4,0,0,0-1.48,1.53,5.08,5.08,0,0,0,0,4.56A4,4,0,0,0,91.93,32a4.27,4.27,0,0,0,4.19,0Z"/><path class="cls-1" d="M107.79,24h-4.68V20.58h13.66V24h-4.66V35.82h-4.32Z"/><path class="cls-1" d="M130.62,32.49v3.33H118.38V20.58h12v3.33h-7.69v2.57h6.77V29.7h-6.77v2.79Z"/><path class="cls-1" d="M139.68,31.77h-2.35v4.05H133V20.58h7a8.61,8.61,0,0,1,3.59.68,5.14,5.14,0,0,1,3.18,5,5.07,5.07,0,0,1-3,4.81l3.29,4.79h-4.62Zm2-7.21a3,3,0,0,0-2-.59h-2.4v4.47h2.4a3,3,0,0,0,2-.58,2,2,0,0,0,.68-1.64A2.09,2.09,0,0,0,141.73,24.56Z"/><path class="cls-1" d="M149.14,20.58h4.31V35.82h-4.31ZM152.08,16h4.14l-4.1,3.31h-3Z"/><path class="cls-1" d="M166.74,32.86h-6.45l-1.2,3h-4.4l6.73-15.24h4.25l6.75,15.24h-4.48Zm-1.27-3.18-2-4.88-2,4.88Z"/><path class="cls-1" d="M194.49,20.58V35.82h-3.55l-6.73-8.12v8.12H180V20.58h3.55l6.73,8.12V20.58Z"/><path class="cls-1" d="M207.76,32.86h-6.45l-1.2,3h-4.4l6.73-15.24h4.25l6.75,15.24H209Zm-1.27-3.18-2-4.88-2,4.88Z"/><path class="cls-1" d="M217.74,35.12a7.59,7.59,0,0,1-3-2.82,8.24,8.24,0,0,1,0-8.19,7.55,7.55,0,0,1,3-2.83,9.11,9.11,0,0,1,4.31-1,9.24,9.24,0,0,1,3.76.74,7.31,7.31,0,0,1,2.79,2.14l-2.74,2.48a4.53,4.53,0,0,0-3.6-1.79,4.39,4.39,0,0,0-2.21.55,3.81,3.81,0,0,0-1.5,1.53,5.17,5.17,0,0,0,0,4.56,3.81,3.81,0,0,0,1.5,1.53,4.39,4.39,0,0,0,2.21.55,4.53,4.53,0,0,0,3.6-1.79l2.74,2.48a7.21,7.21,0,0,1-2.79,2.14,9.24,9.24,0,0,1-3.76.74A9.11,9.11,0,0,1,217.74,35.12Z"/><path class="cls-1" d="M230.52,20.58h4.31V35.82h-4.31Z"/><path class="cls-1" d="M241.25,35.11a7.81,7.81,0,0,1,0-13.82,9.76,9.76,0,0,1,8.69,0,7.81,7.81,0,0,1,0,13.82,9.76,9.76,0,0,1-8.69,0Zm6.44-3.1a4,4,0,0,0,1.48-1.53,5.08,5.08,0,0,0,0-4.56,4,4,0,0,0-1.48-1.53,4.27,4.27,0,0,0-4.19,0A3.89,3.89,0,0,0,242,25.92a5.08,5.08,0,0,0,0,4.56A3.89,3.89,0,0,0,243.5,32a4.27,4.27,0,0,0,4.19,0Z"/><path class="cls-1" d="M270.84,20.58V35.82h-3.55l-6.73-8.12v8.12h-4.23V20.58h3.55l6.74,8.12V20.58Z"/><path class="cls-1" d="M284.11,32.86h-6.45l-1.2,3h-4.4l6.73-15.24H283l6.75,15.24h-4.48Zm-1.27-3.18-2-4.88-2,4.88Z"/><path class="cls-1" d="M291,20.58h4.32V32.4h7.27v3.42H291Z"/><polygon class="cls-2" points="57.42 2.63 57.42 52.8 46.2 52.8 46.2 55.44 60.06 55.44 60.06 0 0 0 0 55.44 13.86 55.44 13.86 52.8 2.64 52.8 2.64 2.63 57.42 2.63"/><path class="cls-2" d="M27.39,51.22v4.22h5.34V51.22A18.07,18.07,0,0,0,38,49.59H22.12A18.16,18.16,0,0,0,27.39,51.22Z"/><path class="cls-2" d="M33.17,18.76H31.1a131.82,131.82,0,0,1,.62,13.17H35A45.39,45.39,0,0,0,33.17,18.76Z"/><path class="cls-2" d="M22.8,18.76c-2.5,3.13-4.15,7.84-4.37,13.17h3.33c.15-5.33,1.33-10,3.11-13.17Z"/><path class="cls-2" d="M27,18.76a45.73,45.73,0,0,0-1.87,13.17H28.4c0-5.33.27-10,.62-13.17Z"/><path class="cls-2" d="M48.34,31.93a18.25,18.25,0,0,0-6.86-13.17H39.19a20,20,0,0,1,5.49,13.17Z"/><path class="cls-2" d="M31.1,47.44h2.07A45.5,45.5,0,0,0,35,34.27H31.72C31.69,39.59,31.46,44.3,31.1,47.44Z"/><path class="cls-2" d="M25.08,34.27A45.84,45.84,0,0,0,27,47.44H29c-.35-3.14-.59-7.85-.62-13.17Z"/><path class="cls-2" d="M18.43,34.27c.22,5.32,1.87,10,4.37,13.17h2.07c-1.78-3.14-3-7.85-3.11-13.17Z"/><path class="cls-2" d="M11.76,34.27a18.29,18.29,0,0,0,6.9,13.17h2.27a20.07,20.07,0,0,1-5.49-13.17Z"/><path class="cls-2" d="M39.19,47.44h2.27a18.25,18.25,0,0,0,6.9-13.17H44.68A20,20,0,0,1,39.19,47.44Z"/><path class="cls-2" d="M35.25,47.44h2.08c2.5-3.14,4.14-7.85,4.36-13.17H38.37C38.21,39.59,37,44.3,35.25,47.44Z"/><path class="cls-2" d="M37.33,18.76H35.25c1.79,3.13,3,7.84,3.12,13.17h3.32C41.47,26.6,39.83,21.89,37.33,18.76Z"/><path class="cls-2" d="M20.93,18.76H18.65a18.29,18.29,0,0,0-6.87,13.17h3.66A20,20,0,0,1,20.93,18.76Z"/><path class="cls-2" d="M38.12,16.64h0a18.35,18.35,0,0,0-16.18,0H38.12Z"/></svg>