<svg id="Layer_1" data-name="Layer 1" xmlns="http://www.w3.org/2000/svg" viewBox="0 0 230.66 55.8"><defs><style>.cls-1,.cls-2{fill:#098342;}.cls-1{fill-rule:evenodd;}</style></defs><polygon class="cls-1" points="57.42 2.63 57.42 52.8 46.2 52.8 46.2 55.44 60.06 55.44 60.06 0 0 0 0 55.44 13.86 55.44 13.86 52.8 2.64 52.8 2.64 2.63 57.42 2.63"/><path class="cls-2" d="M49,34h0s-9.81-.66-18.88-.66-18.71.55-18.71.55h-.23a19.81,19.81,0,0,0-.21,2.79,18.55,18.55,0,0,0,.21,2.8c.05,0,9.83.66,18.88.66s18.71-.55,18.71-.55h.22a19.93,19.93,0,0,0,.22-2.91A21.39,21.39,0,0,0,49,34Z"/><path class="cls-2" d="M45.05,48.51a18.87,18.87,0,0,0,3.21-6.08s-11,.66-18.27.66-18.2-.69-18.22-.69A19,19,0,0,0,15,48.51h.06s5.15,1.6,14.94,1.6S45.05,48.51,45.05,48.51Z"/><path class="cls-2" d="M19.05,21.1a107.94,107.94,0,0,1,11-.76,102.9,102.9,0,0,1,11,.8l.16.07a19.14,19.14,0,0,0-22.4,0Z"/><path class="cls-2" d="M30,53.1a102.64,102.64,0,0,1-11-.8,19.16,19.16,0,0,0,22,0A106.68,106.68,0,0,1,30,53.1Z"/><path class="cls-2" d="M11.78,31.07s11-.66,18.27-.66,18.22.7,18.22.7h0a19.21,19.21,0,0,0-3.21-6.19H45s-5.14-1.6-14.93-1.6S15,24.93,15,24.93h0a19.34,19.34,0,0,0-3.22,6.17Z"/><path class="cls-2" d="M73.29,20.58H77.6V32.4h7.28v3.42H73.29Z"/><path class="cls-2" d="M97,32.86H90.52l-1.2,3h-4.4l6.73-15.24H95.9l6.75,15.24H98.16ZM95.7,29.68l-2-4.88-2,4.88Z"/><path class="cls-2" d="M120.77,21.26a5.33,5.33,0,0,1,2.36,2,5.4,5.4,0,0,1,.83,3,5.14,5.14,0,0,1-3.19,4.93,8.61,8.61,0,0,1-3.59.69h-2.66v4h-4.31V20.58h7A8.78,8.78,0,0,1,120.77,21.26Zm-1.85,6.6a2,2,0,0,0,.68-1.64,2.09,2.09,0,0,0-.68-1.66,3,3,0,0,0-2-.59h-2.4v4.47h2.4A3,3,0,0,0,118.92,27.86Z"/><path class="cls-2" d="M132.71,31.77h-2.35v4.05h-4.31V20.58h7a8.81,8.81,0,0,1,3.59.68A5.55,5.55,0,0,1,139,29.1,5.16,5.16,0,0,1,136.81,31l3.29,4.79h-4.62Zm2-7.21a3,3,0,0,0-2-.59h-2.4v4.47h2.4a3,3,0,0,0,2-.58,2,2,0,0,0,.68-1.64A2.09,2.09,0,0,0,134.76,24.56Z"/><path class="cls-2" d="M142.17,20.58h4.31V35.82h-4.31Z"/><path class="cls-2" d="M163.32,35.82l0-8.08-3.92,6.58h-1.91L153.54,28v7.86h-4V20.58h3.55l5.36,8.8,5.23-8.8h3.55l0,15.24Z"/><path class="cls-2" d="M170.33,20.58h4.32V35.82h-4.32Z"/><path class="cls-2" d="M181,24h-4.68V20.58h13.66V24h-4.66V35.82H181Z"/><path class="cls-2" d="M191.55,20.58h4.31V35.82h-4.31Z"/><path class="cls-2" d="M214.36,20.58l-6.54,15.24h-4.25l-6.51-15.24h4.66l4.14,9.93,4.23-9.93Z"/><path class="cls-2" d="M224.94,32.86H218.5l-1.2,3h-4.4l6.73-15.24h4.25l6.75,15.24h-4.49Zm-1.26-3.18-2-4.88-2,4.88Z"/></svg>