<svg id="Layer_1" data-name="Layer 1" xmlns="http://www.w3.org/2000/svg" viewBox="0 0 272.92 63.33"><defs><style>.cls-1,.cls-2{fill:#ce9509;}.cls-1{fill-rule:evenodd;}</style></defs><polygon class="cls-1" points="57.42 2.63 57.42 52.8 46.2 52.8 46.2 55.44 60.06 55.44 60.06 0 0 0 0 55.44 13.86 55.44 13.86 52.8 2.64 52.8 2.64 2.63 57.42 2.63"/><g id="X3DEOX"><path class="cls-2" d="M37.07,29.14c-.08.73-.13,1.26-.2,1.94l1.31-.87a12.47,12.47,0,0,0,0,2.22,10.2,10.2,0,0,0,.87,3,63.12,63.12,0,0,1,3.37,7.9c.44,1.1.94,2.17,1.33,3.3A2,2,0,0,1,43.09,49a2.75,2.75,0,0,1-2.91.28,2.58,2.58,0,0,1-1-1.31,1.21,1.21,0,0,0-.94-.88,6.68,6.68,0,0,1-3.14-2c-.51-.52-1-1.05-1.48-1.61a.74.74,0,0,0-1-.17,3.43,3.43,0,0,0-1.91,3.75,29.38,29.38,0,0,0,1.07,4.15,16,16,0,0,1,1,6.35,7.33,7.33,0,0,1-3,5.45,2.9,2.9,0,0,1-.45.32l-.4-.46-7.62-8c-1.37-1.47-4.53-4.9-4.53-4.9h0a23.61,23.61,0,0,1,1.36-8.17,13.17,13.17,0,0,1,6.9-7.17A27.93,27.93,0,0,1,33,32.4a2.13,2.13,0,0,0,1-.54c.63-.59,1.17-1.29,1.79-1.89A9.39,9.39,0,0,1,37.07,29.14Z"/></g><rect class="cls-2" x="18.76" y="9.35" width="3.56" height="16.58"/><rect class="cls-2" x="37.71" y="9.35" width="3.56" height="16.58"/><rect class="cls-2" x="28.44" y="5.07" width="3.56" height="17.42"/><path class="cls-2" d="M90.24,37.62a5,5,0,0,1-1.87,1.43,5.92,5.92,0,0,1-2.4.49,6.86,6.86,0,0,1-4.35-1.41A17.76,17.76,0,0,1,79.3,36a8.41,8.41,0,0,1-3.53-1.42,7.65,7.65,0,0,1-2.41-2.74,7.81,7.81,0,0,1-.86-3.64,7.62,7.62,0,0,1,4.13-6.9,9.68,9.68,0,0,1,8.69,0,7.59,7.59,0,0,1,3,2.83A7.79,7.79,0,0,1,84.27,35.6a2.8,2.8,0,0,0,.86.67,2.17,2.17,0,0,0,.92.2,3.13,3.13,0,0,0,2.31-1.07ZM77.4,30.51A3.92,3.92,0,0,0,78.89,32a4.25,4.25,0,0,0,4.18,0,3.89,3.89,0,0,0,1.48-1.53,5.06,5.06,0,0,0,0-4.55,3.92,3.92,0,0,0-1.48-1.54,4.31,4.31,0,0,0-4.18,0A3.94,3.94,0,0,0,77.4,26a5.06,5.06,0,0,0,0,4.55Z"/><path class="cls-2" d="M93.47,34.31a7,7,0,0,1-1.88-5.25V20.61H95.9v8.32c0,2.44,1,3.66,2.9,3.66s2.87-1.22,2.87-3.66V20.61h4.25v8.45A7,7,0,0,1,104,34.31a8.47,8.47,0,0,1-10.57,0Z"/><path class="cls-2" d="M108.84,20.61h4.31V35.86h-4.31Zm2.94-4.55h4.14l-4.1,3.31h-3Z"/><path class="cls-2" d="M130.73,20.61V35.86h-3.55l-6.73-8.13v8.13h-4.23V20.61h3.55l6.73,8.12V20.61Z"/><path class="cls-2" d="M137,24h-4.69V20.61H146V24h-4.66V35.86H137Z"/><path class="cls-2" d="M149.13,34.31a7,7,0,0,1-1.89-5.25V20.61h4.32v8.32q0,3.66,2.89,3.66t2.88-3.66V20.61h4.25v8.45a7,7,0,0,1-1.89,5.25,8.46,8.46,0,0,1-10.56,0Z"/><path class="cls-2" d="M175.06,21.29a5.17,5.17,0,0,1,3.18,5,5.15,5.15,0,0,1-3.18,4.93,8.64,8.64,0,0,1-3.59.69h-2.66v4H164.5V20.61h7A8.81,8.81,0,0,1,175.06,21.29Zm-1.85,6.61a2.06,2.06,0,0,0,.67-1.65,2.1,2.1,0,0,0-.67-1.66,3,3,0,0,0-2-.58h-2.4v4.46h2.4A3,3,0,0,0,173.21,27.9Z"/><path class="cls-2" d="M180.33,20.61h4.31V32.44h7.28v3.42H180.33Z"/><path class="cls-2" d="M205.86,32.52v3.34H193.62V20.61h12v3.33h-7.69v2.57h6.77v3.23h-6.77v2.78Z"/><path class="cls-2" d="M225.16,21.29a5.17,5.17,0,0,1,3.18,5,5.15,5.15,0,0,1-3.18,4.93,8.61,8.61,0,0,1-3.59.69h-2.66v4H214.6V20.61h7A8.78,8.78,0,0,1,225.16,21.29Zm-1.85,6.61a2.07,2.07,0,0,0,.68-1.65,2.1,2.1,0,0,0-.68-1.66,3,3,0,0,0-2-.58h-2.4v4.46h2.4A3,3,0,0,0,223.31,27.9Z"/><path class="cls-2" d="M230.43,20.61h4.32V32.44H242v3.42H230.43Z"/><path class="cls-2" d="M245.32,34.31a7,7,0,0,1-1.88-5.25V20.61h4.31v8.32q0,3.66,2.9,3.66c1.92,0,2.87-1.22,2.87-3.66V20.61h4.25v8.45a7,7,0,0,1-1.88,5.25,8.47,8.47,0,0,1-10.57,0Z"/><path class="cls-2" d="M262.46,35.7a8.7,8.7,0,0,1-2.84-1.22L261,31.3a9.69,9.69,0,0,0,5,1.51c1.66,0,2.48-.42,2.48-1.24a1,1,0,0,0-.7-1,12.66,12.66,0,0,0-2.28-.67,21,21,0,0,1-2.87-.79,4.82,4.82,0,0,1-2-1.37,3.66,3.66,0,0,1-.83-2.52,4.38,4.38,0,0,1,.77-2.52A5,5,0,0,1,262.92,21a9.31,9.31,0,0,1,3.72-.66,13.37,13.37,0,0,1,3,.34,9.42,9.42,0,0,1,2.57,1l-1.33,3.2a8.9,8.9,0,0,0-4.22-1.17,3.6,3.6,0,0,0-1.88.38,1.14,1.14,0,0,0-.59,1,1,1,0,0,0,.7.91,12.11,12.11,0,0,0,2.25.64,20.43,20.43,0,0,1,2.88.79,5.15,5.15,0,0,1,2,1.35,3.62,3.62,0,0,1,.84,2.52,4.27,4.27,0,0,1-.76,2.48,5.26,5.26,0,0,1-2.29,1.78,9.27,9.27,0,0,1-3.7.66A13.86,13.86,0,0,1,262.46,35.7Z"/></svg>