<svg id="Layer_1" data-name="Layer 1" xmlns="http://www.w3.org/2000/svg" viewBox="0 0 187.96 55.44"><defs><style>.cls-1,.cls-2{fill:#418ca3;}.cls-1{fill-rule:evenodd;}</style></defs><polygon class="cls-1" points="57.42 2.63 57.42 52.8 46.2 52.8 46.2 55.44 60.06 55.44 60.06 0 0 0 0 55.44 13.86 55.44 13.86 52.8 2.64 52.8 2.64 2.63 57.42 2.63"/><path class="cls-2" d="M29.07,27.81V22.53s-2.7-1.26-5.7-2.54a11,11,0,0,0-5.31,3.53l-.37,6.61,5.56,1.73Z"/><polygon class="cls-2" points="16.07 43.9 21.3 45.71 24.66 40.42 22.3 33.39 17.34 31.86 13.51 36.89 16.07 43.9"/><path class="cls-2" d="M15.89,30.6l.47-6S13,27,12.08,33.41a7.79,7.79,0,0,0,.51,2.17Z"/><path class="cls-2" d="M14.67,46.14V44.47l-2.73-7.42S11.6,43.23,14.67,46.14Z"/><path class="cls-2" d="M21.27,47.6l-5.2-2.2-.24,2.78a20.32,20.32,0,0,0,6.19,5c1.1-.78,1.9-1.44,1.9-1.44Z"/><path class="cls-2" d="M30.73,27.81l5.83,4.05,5.55-1.73-.37-6.61A11,11,0,0,0,36.43,20c-3,1.28-5.7,2.54-5.7,2.54Z"/><polygon class="cls-2" points="35.14 40.42 38.51 45.71 43.74 43.9 46.3 36.89 42.47 31.86 37.51 33.39 35.14 40.42"/><path class="cls-2" d="M47.22,35.58a7.92,7.92,0,0,0,.5-2.17c-.9-6.46-4.28-8.83-4.28-8.83l.47,6Z"/><path class="cls-2" d="M47.86,37.05l-2.73,7.42v1.67C48.2,43.23,47.86,37.05,47.86,37.05Z"/><path class="cls-2" d="M38.53,47.6l-2.65,4.09s.8.66,1.9,1.44a20.32,20.32,0,0,0,6.19-5l-.23-2.78Z"/><path class="cls-2" d="M29.9,53H25.05l-1.24,1.19a12.8,12.8,0,0,0,6,1.18H30a12.73,12.73,0,0,0,6-1.18L34.75,53Z"/><polygon class="cls-2" points="25.89 51.52 29.9 51.52 33.92 51.52 37.03 46.7 33.74 41.33 29.9 41.33 26.06 41.33 22.78 46.7 25.89 51.52"/><path class="cls-2" d="M34.44,19a20.34,20.34,0,0,0-4.54-.72,20.2,20.2,0,0,0-4.53.72l4.53,2.07Z"/><polygon class="cls-2" points="33.57 39.64 35.72 33.34 29.9 29.32 24.08 33.34 26.23 39.64 29.9 39.64 33.57 39.64"/><path class="cls-2" d="M90.24,37.59A5.06,5.06,0,0,1,88.37,39a5.92,5.92,0,0,1-2.4.49,6.86,6.86,0,0,1-4.35-1.41A17.76,17.76,0,0,1,79.3,36a8.41,8.41,0,0,1-3.53-1.42,7.65,7.65,0,0,1-2.41-2.74,7.84,7.84,0,0,1-.86-3.64,7.69,7.69,0,0,1,1.1-4.07,7.82,7.82,0,0,1,3-2.84,9.76,9.76,0,0,1,8.69,0,7.79,7.79,0,0,1-1,14.27,2.7,2.7,0,0,0,.86.68,2.17,2.17,0,0,0,.92.19,3.12,3.12,0,0,0,2.31-1.06ZM77.4,30.48A3.92,3.92,0,0,0,78.89,32a4.25,4.25,0,0,0,4.18,0,3.89,3.89,0,0,0,1.48-1.53,5.08,5.08,0,0,0,0-4.56,3.89,3.89,0,0,0-1.48-1.53,4.25,4.25,0,0,0-4.18,0,3.92,3.92,0,0,0-1.49,1.53,5.08,5.08,0,0,0,0,4.56Z"/><path class="cls-2" d="M93.47,34.28A7,7,0,0,1,91.59,29V20.58H95.9V28.9c0,2.44,1,3.66,2.9,3.66s2.87-1.22,2.87-3.66V20.58h4.25V29A7.07,7.07,0,0,1,104,34.28a8.47,8.47,0,0,1-10.57,0Z"/><path class="cls-2" d="M108.84,20.58h4.31V35.82h-4.31Z"/><path class="cls-2" d="M130.73,20.58V35.82h-3.55l-6.73-8.12v8.12h-4.23V20.58h3.55l6.73,8.12V20.58Z"/><path class="cls-2" d="M133.78,20.58h4.31V35.82h-4.31Z"/><path class="cls-2" d="M151.38,27.87h3.81v6.32a9.94,9.94,0,0,1-3,1.44,12.17,12.17,0,0,1-3.4.5,9.11,9.11,0,0,1-4.31-1,7.65,7.65,0,0,1-3-2.82,8.24,8.24,0,0,1,0-8.19,7.59,7.59,0,0,1,3-2.83,9.36,9.36,0,0,1,4.38-1,9.72,9.72,0,0,1,3.83.72,7.38,7.38,0,0,1,2.83,2.07l-2.74,2.48a4.86,4.86,0,0,0-3.71-1.7,4.11,4.11,0,0,0-4.35,4.36,4.62,4.62,0,0,0,.54,2.25A3.81,3.81,0,0,0,146.81,32a4.46,4.46,0,0,0,2.24.56,5.57,5.57,0,0,0,2.33-.5Z"/><path class="cls-2" d="M161.28,35.11a7.82,7.82,0,0,1-3-2.84,8.08,8.08,0,0,1,0-8.14,7.82,7.82,0,0,1,3-2.84,9.76,9.76,0,0,1,8.69,0,7.81,7.81,0,0,1,0,13.82,9.76,9.76,0,0,1-8.69,0Zm6.44-3.1a3.89,3.89,0,0,0,1.48-1.53,5,5,0,0,0,0-4.56,3.89,3.89,0,0,0-1.48-1.53,4.25,4.25,0,0,0-4.18,0,3.92,3.92,0,0,0-1.49,1.53,5.08,5.08,0,0,0,0,4.56A3.92,3.92,0,0,0,163.54,32a4.25,4.25,0,0,0,4.18,0Z"/><path class="cls-2" d="M176.37,20.58h4.31V32.4H188v3.42H176.37Z"/></svg>