<svg id="Layer_1" data-name="Layer 1" xmlns="http://www.w3.org/2000/svg" viewBox="0 0 222.09 55.44"><defs><style>.cls-1,.cls-2{fill:#c22021;}.cls-1{fill-rule:evenodd;}</style></defs><polygon class="cls-1" points="57.41 2.63 57.41 52.8 46.18 52.8 46.18 55.44 60.04 55.44 60.04 0 -0.02 0 -0.02 55.44 13.84 55.44 13.84 52.8 2.62 52.8 2.62 2.63 57.41 2.63"/><path class="cls-2" d="M29.69,36.9l-15.9,9.26,16.09,9.28,15.83-9.28Zm4.81,9.77a6.65,6.65,0,0,1-3.47.75l-3.41-.13,3.05,1.76-2.13,1.22-6.6-3.81,1.47-.85,7.26.17a2.94,2.94,0,0,0,1.49-.24c.42-.23.64-.68,0-1.06a2.48,2.48,0,0,0-2.13,0L27.9,43.26a7,7,0,0,1,6.28,0C36.35,44.5,35.65,46.16,34.5,46.67Z"/><path class="cls-2" d="M28.73,16.36l-16.11,9.3V44.41l16.07-9.28V16.36Zm-8.79,19.5V28.2L18.62,29V26.45l3.7-2.13V34.43Z"/><path class="cls-2" d="M46.84,25.58,30.77,16.36V35.22L46.84,44.5ZM40.78,36.5,39.1,32.75l-1.71,1.81L34.65,33l3-3.38-3-6.7,2.94,1.7L39.1,28l1.49-1.68L43.52,28l-3,3.26,3,6.85Z"/><path class="cls-2" d="M73.29,20.58H77.6V32.4h7.28v3.42H73.29Z"/><path class="cls-2" d="M97,32.86H90.52l-1.2,3h-4.4l6.73-15.24H95.9l6.75,15.24H98.16ZM95.7,29.68l-2-4.88-2,4.88Z"/><path class="cls-2" d="M127.16,37.59A5.11,5.11,0,0,1,125.3,39a6,6,0,0,1-2.41.49,6.86,6.86,0,0,1-4.35-1.41,17.76,17.76,0,0,1-2.32-2.1,8.41,8.41,0,0,1-3.53-1.42,7.53,7.53,0,0,1-2.4-2.74,7.73,7.73,0,0,1-.87-3.64,7.6,7.6,0,0,1,1.11-4.07,7.72,7.72,0,0,1,3-2.84,9.79,9.79,0,0,1,8.7,0,7.72,7.72,0,0,1,3,2.84,7.78,7.78,0,0,1-4.08,11.43,2.81,2.81,0,0,0,.86.68,2.17,2.17,0,0,0,.92.19,3.12,3.12,0,0,0,2.31-1.06Zm-12.83-7.11A3.83,3.83,0,0,0,115.81,32,4.25,4.25,0,0,0,120,32a3.89,3.89,0,0,0,1.48-1.53,5,5,0,0,0,0-4.56A3.89,3.89,0,0,0,120,24.39a4.25,4.25,0,0,0-4.18,0,3.83,3.83,0,0,0-1.48,1.53,5,5,0,0,0,0,4.56Z"/><path class="cls-2" d="M130.39,34.28A7.07,7.07,0,0,1,128.51,29V20.58h4.31V28.9q0,3.66,2.9,3.66c1.92,0,2.87-1.22,2.87-3.66V20.58h4.25V29A7.07,7.07,0,0,1,141,34.28a8.47,8.47,0,0,1-10.57,0Z"/><path class="cls-2" d="M145.76,20.58h4.31V35.82h-4.31Z"/><path class="cls-2" d="M167.65,20.58V35.82H164.1l-6.73-8.12v8.12h-4.23V20.58h3.56l6.73,8.12V20.58Z"/><path class="cls-2" d="M170.7,20.58H175V35.82H170.7Z"/><path class="cls-2" d="M190.33,32.49v3.33H178.09V20.58h12v3.33h-7.69v2.57h6.77V29.7h-6.77v2.79Z"/><path class="cls-2" d="M192.72,20.58H197V32.4h7.27v3.42H192.72Z"/><path class="cls-2" d="M216.4,32.86H210l-1.2,3h-4.4l6.73-15.24h4.25l6.75,15.24H217.6Zm-1.26-3.18-2-4.88-2,4.88Z"/></svg>