<svg id="Layer_1" data-name="Layer 1" xmlns="http://www.w3.org/2000/svg" viewBox="0 0 169.2 26.92"><defs><style>.cls-1,.cls-2{fill:#fff;}.cls-2{fill-rule:evenodd;}</style></defs><path class="cls-1" d="M49.22,13.88A3.85,3.85,0,0,1,50,16.29a3.58,3.58,0,0,1-1.58,3.12A8.1,8.1,0,0,1,43.8,20.5h-8V5.09h7.53a7.46,7.46,0,0,1,4.33,1.07,3.43,3.43,0,0,1,1.5,2.93,3.77,3.77,0,0,1-.53,2,3.88,3.88,0,0,1-1.51,1.38A4.1,4.1,0,0,1,49.22,13.88ZM39.38,7.77V11.4h3.54a3.54,3.54,0,0,0,2-.46,1.53,1.53,0,0,0,.69-1.36,1.52,1.52,0,0,0-.69-1.36,3.63,3.63,0,0,0-2-.45Zm6.28,9.58a1.59,1.59,0,0,0,.72-1.43c0-1.28-1-1.92-2.84-1.92H39.38v3.81h4.16A3.93,3.93,0,0,0,45.66,17.35Z"/><path class="cls-1" d="M55.81,19.72a7.68,7.68,0,0,1-3-2.85,7.83,7.83,0,0,1-1.09-4.08,7.83,7.83,0,0,1,1.09-4.08,7.75,7.75,0,0,1,3-2.85,9.49,9.49,0,0,1,8.64,0,7.85,7.85,0,0,1,0,13.86,9.49,9.49,0,0,1-8.64,0Zm6.79-2.63a4.48,4.48,0,0,0,1.73-1.75A5.1,5.1,0,0,0,65,12.79a5.13,5.13,0,0,0-.63-2.55A4.55,4.55,0,0,0,62.6,8.49a5.14,5.14,0,0,0-4.93,0,4.55,4.55,0,0,0-1.73,1.75,5.13,5.13,0,0,0-.63,2.55,5.1,5.1,0,0,0,.63,2.55,4.48,4.48,0,0,0,1.73,1.75,5.14,5.14,0,0,0,4.93,0Z"/><path class="cls-1" d="M85.38,5.09V20.5H82.46l-7.69-9.36V20.5H71.25V5.09h3l7.66,9.35V5.09Z"/><path class="cls-1" d="M92.17,19.72a7.65,7.65,0,0,1-3-2.85,7.74,7.74,0,0,1-1.09-4.08,7.68,7.68,0,0,1,4.1-6.93,9,9,0,0,1,4.33-1,8.89,8.89,0,0,1,4.31,1,7.7,7.7,0,0,1,4.12,6.93,7.7,7.7,0,0,1-4.12,6.93,8.89,8.89,0,0,1-4.31,1A9,9,0,0,1,92.17,19.72ZM99,17.09a4.45,4.45,0,0,0,1.72-1.75,5.1,5.1,0,0,0,.63-2.55,5.13,5.13,0,0,0-.63-2.55A4.52,4.52,0,0,0,99,8.49a5.16,5.16,0,0,0-4.94,0,4.45,4.45,0,0,0-1.72,1.75,5.13,5.13,0,0,0-.63,2.55,5.1,5.1,0,0,0,.63,2.55A4.39,4.39,0,0,0,94,17.09a5.16,5.16,0,0,0,4.94,0Z"/><path class="cls-1" d="M107.62,5.09h3.56v12.5h7.73V20.5H107.62Z"/><path class="cls-1" d="M123.78,19.72a7.58,7.58,0,0,1-3-2.85,7.74,7.74,0,0,1-1.09-4.08,7.74,7.74,0,0,1,1.09-4.08,7.65,7.65,0,0,1,3-2.85,9,9,0,0,1,4.33-1,8.89,8.89,0,0,1,4.31,1,7.7,7.7,0,0,1,4.12,6.93,7.7,7.7,0,0,1-4.12,6.93,8.89,8.89,0,0,1-4.31,1A9,9,0,0,1,123.78,19.72Zm6.79-2.63a4.41,4.41,0,0,0,1.73-1.75,5.1,5.1,0,0,0,.63-2.55,5.13,5.13,0,0,0-.63-2.55,4.48,4.48,0,0,0-1.73-1.75,4.84,4.84,0,0,0-2.46-.63,4.91,4.91,0,0,0-2.47.63,4.45,4.45,0,0,0-1.72,1.75,5.13,5.13,0,0,0-.63,2.55,5.1,5.1,0,0,0,.63,2.55,4.39,4.39,0,0,0,1.72,1.75,4.91,4.91,0,0,0,2.47.63A4.84,4.84,0,0,0,130.57,17.09Z"/><path class="cls-1" d="M142.2,8h-4.93V5.09h13.42V8h-4.93V20.5H142.2Z"/><path class="cls-1" d="M155.52,19.72a7.65,7.65,0,0,1-3-2.85,7.74,7.74,0,0,1-1.09-4.08,7.68,7.68,0,0,1,4.1-6.93,9,9,0,0,1,4.33-1,8.89,8.89,0,0,1,4.31,1,7.7,7.7,0,0,1,4.12,6.93,7.7,7.7,0,0,1-4.12,6.93,8.89,8.89,0,0,1-4.31,1A9,9,0,0,1,155.52,19.72Zm6.8-2.63A4.39,4.39,0,0,0,164,15.34a5.1,5.1,0,0,0,.63-2.55,5.13,5.13,0,0,0-.63-2.55,4.45,4.45,0,0,0-1.72-1.75,4.91,4.91,0,0,0-2.47-.63,4.84,4.84,0,0,0-2.46.63,4.41,4.41,0,0,0-1.73,1.75,5.13,5.13,0,0,0-.63,2.55,5.1,5.1,0,0,0,.63,2.55,4.35,4.35,0,0,0,1.73,1.75,4.84,4.84,0,0,0,2.46.63A4.91,4.91,0,0,0,162.32,17.09Z"/><polygon class="cls-2" points="24.99 1.15 24.99 22.98 20.1 22.98 20.1 24.12 26.13 24.12 26.13 0 0 0 0 24.12 6.03 24.12 6.03 22.98 1.15 22.98 1.15 1.15 24.99 1.15"/><path class="cls-1" d="M12.4,9.44a2.73,2.73,0,0,0,0-.41V9h0A3.64,3.64,0,0,0,11.18,6,4,4,0,0,0,8.3,5,3.15,3.15,0,0,0,6,6,3.41,3.41,0,0,0,4.87,8.56a3.82,3.82,0,0,0,1.35,3,3.56,3.56,0,0,0,2.61.94h.68c.36,0,1.13-.09,1.56-.1h.52c.63,0,.78.16.78.16l.06,0h0s-.16-.16-.16-.78a17,17,0,0,1,.1-2.09A1.27,1.27,0,0,0,12.4,9.44Zm-.05.29,0,0S12.34,9.77,12.35,9.73Z"/><path class="cls-1" d="M13.78,9.68a15.5,15.5,0,0,1,.11,2.09c0,.62-.16.78-.16.78h0l0,0s.16-.16.78-.16h.52c.44,0,1.2.1,1.57.1h.68a3.55,3.55,0,0,0,2.6-.94,3.83,3.83,0,0,0,1.36-3A3.45,3.45,0,0,0,20.14,6a3.17,3.17,0,0,0-2.29-1A3.93,3.93,0,0,0,15,6a3.61,3.61,0,0,0-1.25,3h0V9a2.73,2.73,0,0,0,0,.41A1.87,1.87,0,0,0,13.78,9.68Zm0,0s0,0,0,.05S13.8,9.72,13.79,9.69Z"/><path class="cls-1" d="M12.37,16.41a17,17,0,0,1-.1-2.09c0-.62.16-.78.16-.78h0l-.06,0s-.15.15-.78.15h-.52c-.43,0-1.2-.09-1.56-.09H8.83a3.52,3.52,0,0,0-2.61.94,3.82,3.82,0,0,0-1.35,3.05A3.41,3.41,0,0,0,6,20.07,3.15,3.15,0,0,0,8.3,21a3.93,3.93,0,0,0,2.88-1,3.6,3.6,0,0,0,1.25-2.94h0v0a2.73,2.73,0,0,0,0-.41A1.27,1.27,0,0,0,12.37,16.41Zm0,0,0,0S12.36,16.36,12.37,16.4Z"/><path class="cls-1" d="M13.76,16.65a2.73,2.73,0,0,0,0,.41v0h0A3.57,3.57,0,0,0,15,20.05a3.89,3.89,0,0,0,2.87,1,3.17,3.17,0,0,0,2.29-1,3.41,3.41,0,0,0,1.15-2.54,3.91,3.91,0,0,0-4-4h-.68c-.37,0-1.13.09-1.57.09h-.52c-.62,0-.78-.15-.78-.15l0,0h0s.16.16.16.78a15.5,15.5,0,0,1-.11,2.09A1.87,1.87,0,0,0,13.76,16.65Zm0-.3v0S13.81,16.32,13.8,16.35Z"/><path class="cls-1" d="M13.68,23.7a8.23,8.23,0,0,0,.41-3.23,1,1,0,0,0-2,0,.41.41,0,0,0,0,.11,7.15,7.15,0,0,1-.22,2.24A7.63,7.63,0,0,1,11,24.63a.71.71,0,0,0-.1.14h0a1,1,0,0,0-.13.49,1,1,0,0,0,1,1,1,1,0,0,0,.74-.34h0a.57.57,0,0,0,.11-.16A8.93,8.93,0,0,0,13.68,23.7Z"/></svg>