<svg id="Layer_1" data-name="Layer 1" xmlns="http://www.w3.org/2000/svg" viewBox="0 0 220.98 25.05"><defs><style>.cls-1,.cls-2{fill:#fff;}.cls-2{fill-rule:evenodd;}</style></defs><path class="cls-1" d="M47.76,17.63V20.5H35.83V5.09H47.48V8h-8.1v3.34h7.15v2.78H39.38v3.56Z"/><path class="cls-1" d="M52.31,18.93a7,7,0,0,1-1.84-5.21V5.09H54v8.49q0,4.14,3.43,4.14a3.19,3.19,0,0,0,2.55-1,4.65,4.65,0,0,0,.89-3.14V5.09h3.52v8.63a7,7,0,0,1-1.84,5.21,7,7,0,0,1-5.14,1.83A7,7,0,0,1,52.31,18.93Z"/><path class="cls-1" d="M77.77,20.5l-3-4.3H71.52v4.3H68V5.09h6.67a8.46,8.46,0,0,1,3.55.68A5.27,5.27,0,0,1,80.5,7.71a5.33,5.33,0,0,1,.81,3,5.24,5.24,0,0,1-.82,3,5.3,5.3,0,0,1-2.35,1.9l3.46,5ZM76.86,8.69A3.68,3.68,0,0,0,74.42,8h-2.9v5.37h2.9a3.68,3.68,0,0,0,2.44-.7,2.44,2.44,0,0,0,.84-2A2.42,2.42,0,0,0,76.86,8.69Z"/><path class="cls-1" d="M87.27,19.73a7.63,7.63,0,0,1-3-2.86,7.74,7.74,0,0,1-1.09-4.08,7.67,7.67,0,0,1,4.11-6.93,9.47,9.47,0,0,1,8.63,0A7.7,7.7,0,0,1,100,12.79a7.73,7.73,0,0,1-4.12,6.94,9.55,9.55,0,0,1-8.63,0Zm6.79-2.64a4.39,4.39,0,0,0,1.72-1.75,5.08,5.08,0,0,0,.63-2.55,5.13,5.13,0,0,0-.63-2.55,4.45,4.45,0,0,0-1.72-1.75,4.91,4.91,0,0,0-2.47-.63,4.84,4.84,0,0,0-2.46.63,4.41,4.41,0,0,0-1.73,1.75,5.13,5.13,0,0,0-.63,2.55,5.08,5.08,0,0,0,.63,2.55,4.35,4.35,0,0,0,1.73,1.75,4.84,4.84,0,0,0,2.46.63A4.91,4.91,0,0,0,94.06,17.09Z"/><path class="cls-1" d="M116.73,20.5l0-9.25-4.54,7.62h-1.61l-4.51-7.42V20.5h-3.34V5.09h3l5.76,9.57,5.68-9.57H120l0,15.41Z"/><path class="cls-1" d="M123.73,5.09h3.56V20.5h-3.56Z"/><path class="cls-1" d="M131,5.09h3.56v12.5h7.73V20.5H131Z"/><path class="cls-1" d="M144.24,5.09h3.57v12.5h7.72V20.5H144.24Z"/><path class="cls-1" d="M160.41,19.73a7.7,7.7,0,0,1-3-2.86,7.83,7.83,0,0,1-1.08-4.08,7.83,7.83,0,0,1,1.08-4.08,7.75,7.75,0,0,1,3-2.85,9.49,9.49,0,0,1,8.64,0,7.86,7.86,0,0,1,0,13.87,9.57,9.57,0,0,1-8.64,0Zm6.79-2.64a4.48,4.48,0,0,0,1.73-1.75,5.08,5.08,0,0,0,.63-2.55,5.13,5.13,0,0,0-.63-2.55,4.55,4.55,0,0,0-1.73-1.75,5.14,5.14,0,0,0-4.93,0,4.55,4.55,0,0,0-1.73,1.75,5.12,5.12,0,0,0-.62,2.55,5.07,5.07,0,0,0,.62,2.55,4.48,4.48,0,0,0,1.73,1.75,5.14,5.14,0,0,0,4.93,0Z"/><path class="cls-1" d="M190,5.09V20.5h-2.92l-7.69-9.36V20.5h-3.52V5.09h3l7.66,9.35V5.09Z"/><path class="cls-1" d="M205.57,17.63V20.5H193.64V5.09h11.64V8h-8.1v3.34h7.16v2.78h-7.16v3.56Z"/><path class="cls-1" d="M209.94,20.26A8.22,8.22,0,0,1,207.2,19l1.21-2.69a8.2,8.2,0,0,0,2.35,1.17,9,9,0,0,0,2.73.44,4.39,4.39,0,0,0,2.25-.45,1.37,1.37,0,0,0,.73-1.2,1.19,1.19,0,0,0-.43-.92,3.41,3.41,0,0,0-1.11-.58,18.36,18.36,0,0,0-1.81-.48,24.1,24.1,0,0,1-2.88-.84,4.78,4.78,0,0,1-1.93-1.34,3.62,3.62,0,0,1-.8-2.47,4.33,4.33,0,0,1,.72-2.43,5,5,0,0,1,2.19-1.73A9.06,9.06,0,0,1,214,4.82a12.08,12.08,0,0,1,2.88.35,8.77,8.77,0,0,1,2.47,1l-1.1,2.71A8.6,8.6,0,0,0,214,7.68a4,4,0,0,0-2.21.49,1.48,1.48,0,0,0-.72,1.28,1.25,1.25,0,0,0,.83,1.17,12.76,12.76,0,0,0,2.52.76,25.27,25.27,0,0,1,2.88.84,4.83,4.83,0,0,1,1.93,1.32A3.57,3.57,0,0,1,220,16a4.21,4.21,0,0,1-.74,2.41,4.9,4.9,0,0,1-2.21,1.73,8.94,8.94,0,0,1-3.59.64A12.6,12.6,0,0,1,209.94,20.26Z"/><polygon class="cls-2" points="24.99 1.15 24.99 22.98 20.1 22.98 20.1 24.12 26.13 24.12 26.13 0 0 0 0 24.12 6.03 24.12 6.03 22.98 1.15 22.98 1.15 1.15 24.99 1.15"/><path class="cls-1" d="M13.07,6.94a8.6,8.6,0,1,0,8.6,8.59A8.6,8.6,0,0,0,13.07,6.94Zm.84,1.82a4.15,4.15,0,1,1-4.15,4.15A4.14,4.14,0,0,1,13.91,8.76Zm-.78,13.47a7.06,7.06,0,0,1-6.87-6.89A6.54,6.54,0,0,1,9.51,9.9a7.55,7.55,0,0,0-.52.81,5.68,5.68,0,0,0-.59,2.72c0,2.82,2.42,5.88,5.56,5.88a6.73,6.73,0,0,0,5.9-4.18c0,.19,0,.39,0,.6A6.61,6.61,0,0,1,13.13,22.23Z"/></svg>