<?xml version="1.0" encoding="utf-8"?>
<!-- Generator: Adobe Illustrator 24.2.0, SVG Export Plug-In . SVG Version: 6.00 Build 0)  -->
<svg version="1.1" id="Layer_1" xmlns="http://www.w3.org/2000/svg" xmlns:xlink="http://www.w3.org/1999/xlink" x="0px" y="0px"
	 viewBox="0 0 352 25.2" style="enable-background:new 0 0 352 25.2;" xml:space="preserve">
<style type="text/css">
	.st0{fill:#FFFFFF;}
	.st1{fill-rule:evenodd;clip-rule:evenodd;fill:#FFFFFF;}
</style>
<path class="st0" d="M47.8,17.6v2.9H35.8V5.1h11.6V8h-8.1v3.3h7.2v2.8h-7.1v3.6L47.8,17.6z"/>
<path class="st0" d="M50.6,5.1h3.6v12.5h7.7v2.9H50.6V5.1z"/>
<path class="st0" d="M80.5,12.5h3.3v6.2c-0.9,0.6-1.9,1.1-2.9,1.5c-1.1,0.3-2.2,0.5-3.3,0.5c-1.5,0-3-0.3-4.3-1
	c-1.2-0.7-2.3-1.6-3-2.8c-0.7-1.2-1.1-2.7-1.1-4.1c0-1.4,0.4-2.9,1.1-4.1c0.7-1.2,1.8-2.2,3-2.8c1.3-0.7,2.8-1,4.3-1
	c1.3,0,2.5,0.2,3.7,0.7c1.1,0.4,2,1.1,2.8,2l-2.2,2c-1.7-1.8-4.4-2.3-6.6-1.1c-0.7,0.4-1.4,1-1.8,1.7c-0.4,0.8-0.7,1.7-0.6,2.6
	c0,0.9,0.2,1.8,0.6,2.6c0.4,0.7,1,1.3,1.8,1.7c0.8,0.4,1.7,0.6,2.6,0.6c1,0,1.9-0.2,2.8-0.7L80.5,12.5z"/>
<path class="st0" d="M90.2,19.7c-2.6-1.3-4.2-4-4.1-6.9c-0.1-2.9,1.5-5.6,4.1-6.9c2.7-1.4,5.9-1.4,8.6,0c1.2,0.7,2.3,1.6,3,2.8
	c0.7,1.2,1.1,2.6,1.1,4.1c0,1.4-0.4,2.9-1.1,4.1c-0.7,1.2-1.8,2.2-3,2.9C96.2,21.1,93,21.1,90.2,19.7z M97,17.1
	c0.7-0.4,1.3-1,1.7-1.7c0.4-0.8,0.6-1.7,0.6-2.6c0-0.9-0.2-1.8-0.6-2.6c-0.4-0.7-1-1.3-1.7-1.8c-0.8-0.4-1.6-0.6-2.5-0.6
	c-0.9,0-1.7,0.2-2.5,0.6c-0.7,0.4-1.3,1-1.7,1.8c-0.4,0.8-0.6,1.7-0.6,2.6c0,0.9,0.2,1.8,0.6,2.6c0.4,0.7,1,1.3,1.7,1.7
	c0.7,0.4,1.6,0.6,2.5,0.6C95.4,17.7,96.2,17.5,97,17.1z"/>
<path class="st0" d="M115.5,20.5l-3-4.3h-3.3v4.3h-3.6V5.1h6.7c1.2,0,2.4,0.2,3.6,0.7c0.9,0.4,1.8,1.1,2.3,1.9
	c0.6,0.9,0.8,1.9,0.8,3c0.1,2.1-1.2,4.1-3.2,4.9l3.5,4.9L115.5,20.5z M114.6,8.7c-0.7-0.5-1.6-0.7-2.4-0.7h-2.9v5.4h2.9
	c0.9,0.1,1.7-0.2,2.4-0.7c0.6-0.5,0.9-1.2,0.8-2C115.5,9.9,115.2,9.2,114.6,8.7z"/>
<path class="st0" d="M121.9,5.1h7c1.5,0,3.1,0.3,4.4,1c1.2,0.6,2.3,1.5,3,2.7c0.7,1.2,1.1,2.6,1.1,4c0,1.4-0.3,2.8-1.1,4
	c-0.7,1.2-1.8,2.1-3,2.7c-1.4,0.7-2.9,1-4.4,1h-7V5.1z M128.7,17.6c1.4,0.1,2.7-0.4,3.7-1.3c0.9-0.9,1.4-2.2,1.4-3.5
	c0.1-1.3-0.4-2.6-1.4-3.5c-1-0.9-2.3-1.4-3.7-1.3h-3.3v9.6L128.7,17.6z"/>
<path class="st0" d="M143.2,19.7c-2.6-1.3-4.2-4-4.1-6.9c-0.1-2.9,1.5-5.6,4.1-6.9c2.7-1.4,5.9-1.4,8.6,0c2.6,1.3,4.2,4,4.1,6.9
	c0,2.9-1.6,5.6-4.1,6.9C149.1,21.1,145.9,21.1,143.2,19.7z M150,17.1c0.7-0.4,1.3-1,1.7-1.7c0.4-0.8,0.6-1.7,0.6-2.6
	c0-0.9-0.2-1.8-0.6-2.6c-0.4-0.7-1-1.3-1.7-1.8c-0.8-0.4-1.6-0.6-2.5-0.6c-0.9,0-1.7,0.2-2.5,0.6c-0.7,0.4-1.3,1-1.7,1.8
	c-0.4,0.8-0.6,1.7-0.6,2.6c0,0.9,0.2,1.8,0.6,2.6c0.4,0.7,1,1.3,1.7,1.7c0.7,0.4,1.6,0.6,2.5,0.6C148.3,17.7,149.2,17.5,150,17.1z"
	/>
<path class="st0" d="M165.5,5.1h6.3c1.5,0,3,0.3,4.3,1c1.2,0.6,2.2,1.6,2.9,2.7c0.7,1.2,1,2.6,1,4c0,1.4-0.3,2.8-1,4
	c-0.7,1.2-1.7,2.1-2.9,2.7c-1.3,0.7-2.8,1-4.3,1h-6.3L165.5,5.1z M171.7,19.1c1.2,0,2.4-0.3,3.5-0.8c1-0.5,1.8-1.3,2.4-2.2
	c0.6-1,0.9-2.1,0.8-3.3c0-1.1-0.3-2.3-0.8-3.3c-0.6-1-1.4-1.7-2.4-2.2c-1.1-0.6-2.3-0.8-3.5-0.8h-4.6v12.6H171.7z"/>
<path class="st0" d="M194.6,19.1v1.4h-10.9V5.1h10.6v1.4h-8.9V12h8v1.4h-8v5.7L194.6,19.1z"/>
<path class="st0" d="M204.2,5.1h1.6v14h8.6v1.4h-10.3V5.1z"/>
<path class="st0" d="M226.9,16.4h-8.6l-1.9,4.1h-1.7l7-15.4h1.6l7,15.4h-1.7L226.9,16.4z M226.3,15.1l-3.7-8.3l-3.7,8.3H226.3z"/>
<path class="st0" d="M249.1,6.5c1.1,1,1.8,2.4,1.7,3.9c0.1,1.5-0.5,2.9-1.7,3.9c-1.3,1-3,1.5-4.6,1.4h-4.1v4.9h-1.6V5.1h5.8
	C246.2,5,247.8,5.5,249.1,6.5z M248,13.2c0.8-0.7,1.3-1.7,1.2-2.8c0.1-1.1-0.4-2.2-1.2-2.9c-1-0.7-2.3-1.1-3.5-1h-4.1v7.7h4.1
	C245.7,14.3,247,13.9,248,13.2z"/>
<path class="st0" d="M264.9,20.5l-3.5-4.9c-0.4,0-0.8,0.1-1.2,0.1H256v4.9h-1.6V5.1h5.8c1.7-0.1,3.3,0.4,4.6,1.4
	c1.1,1,1.7,2.4,1.7,3.9c0,1.1-0.3,2.2-0.9,3.1c-0.7,0.9-1.6,1.5-2.6,1.8l3.8,5.3L264.9,20.5z M263.6,13.2c0.8-0.7,1.3-1.8,1.2-2.8
	c0.1-1.1-0.4-2.2-1.2-2.9c-1-0.7-2.3-1.1-3.5-1H256v7.7h4.1C261.3,14.3,262.6,13.9,263.6,13.2z"/>
<path class="st0" d="M270.3,5.1h1.6v15.4h-1.6V5.1z"/>
<path class="st0" d="M292.9,5.1v15.4h-1.6V8.2l-6.1,10.4h-0.8l-6-10.3v12.3H277V5.1h1.4l6.7,11.4l6.6-11.4H292.9z"/>
<path class="st0" d="M297.9,5.1h1.6v15.4h-1.6V5.1z"/>
<path class="st0" d="M307.6,6.5h-5.4V5.1h12.5v1.4h-5.4v14h-1.6V6.5z"/>
<path class="st0" d="M317.2,5.1h1.6v15.4h-1.6V5.1z"/>
<path class="st0" d="M336.5,5.1l-6.8,15.4h-1.6l-6.8-15.4h1.8l5.9,13.4l6-13.4L336.5,5.1z"/>
<path class="st0" d="M347.9,16.4h-8.6l-1.9,4.1h-1.7l7-15.4h1.6l7,15.4h-1.7L347.9,16.4z M347.3,15.1l-3.7-8.3l-3.7,8.3H347.3z"/>
<g>
	<g>
		<polygon class="st1" points="25,1.1 25,23 20.2,23 20.2,24.1 26.2,24.1 26.2,0 0,0 0,24.1 6.1,24.1 6.1,23 1.2,23 1.2,1.1 		"/>
	</g>
</g>
<g>
	<path class="st0" d="M19.7,17.9c-2.2,0.2-4.4,0.2-6.5,0.2c-2.7,0-5-0.1-6.7-0.2c-0.1-0.4-0.2-0.8-0.3-1.2c1.6,0.1,4,0.2,7,0.2
		c2.2,0,4.6-0.1,6.8-0.3C20,17.1,19.9,17.5,19.7,17.9 M16.2,21.8c-1,0.1-2,0.2-3,0.2C12.1,22,11,22,10,21.8c-0.7-0.3-1.4-0.8-2-1.5
		c1.7,0.3,3.4,0.4,5,0.4s3.3-0.2,4.9-0.4C17.6,20.9,16.9,21.4,16.2,21.8 M6.5,13.4c1.8-0.1,4.1-0.3,6.8-0.3c2.4,0,4.5,0.1,6.6,0.3
		c0.1,0.4,0.2,0.8,0.3,1.2c-2.2-0.2-4.5-0.3-7-0.3c-2.7,0-5.3,0.2-7.1,0.3C6.2,14.2,6.3,13.8,6.5,13.4 M9.5,9.4
		c1.2-0.2,2.5-0.2,3.8-0.2c1.2,0,2.3,0.1,3.5,0.2c0.6,0.4,1.2,0.9,1.7,1.5c-3.5-0.7-7.1-0.7-10.6,0C8.3,10.3,8.8,9.8,9.5,9.4
		 M13,6.9C8.3,7,4.5,10.9,4.6,15.6c0.1,4.7,3.9,8.5,8.6,8.5c4.7-0.1,8.5-3.9,8.5-8.6C21.6,10.8,17.7,7,13,6.9"/>
</g>
</svg>
