<svg id="Layer_1" data-name="Layer 1" xmlns="http://www.w3.org/2000/svg" viewBox="0 0 158.57 27.26"><defs><style>.cls-1,.cls-2{fill:#fff;}.cls-2{fill-rule:evenodd;}</style></defs><path class="cls-1" d="M35.83,5.09H39.4v12.5h7.73V20.5H35.83Z"/><path class="cls-1" d="M52,19.73a7.65,7.65,0,0,1-3-2.85,7.8,7.8,0,0,1-1.09-4.09A7.74,7.74,0,0,1,49,8.71a7.65,7.65,0,0,1,3-2.85,9,9,0,0,1,4.33-1,8.92,8.92,0,0,1,4.31,1,7.86,7.86,0,0,1,0,13.87,8.91,8.91,0,0,1-4.31,1A9,9,0,0,1,52,19.73Zm6.79-2.63a4.55,4.55,0,0,0,1.73-1.75,5.14,5.14,0,0,0,.63-2.56,5.13,5.13,0,0,0-.63-2.55,4.48,4.48,0,0,0-1.73-1.75,4.84,4.84,0,0,0-2.46-.63,4.91,4.91,0,0,0-2.47.63,4.55,4.55,0,0,0-1.73,1.75,5.23,5.23,0,0,0-.62,2.55,5.24,5.24,0,0,0,.62,2.56,4.61,4.61,0,0,0,1.73,1.75,5,5,0,0,0,2.47.62A4.94,4.94,0,0,0,58.79,17.1Z"/><path class="cls-1" d="M70.41,8H65.48V5.09H78.91V8H74V20.5H70.41Z"/><path class="cls-1" d="M83.74,19.73a7.65,7.65,0,0,1-3-2.85,7.8,7.8,0,0,1-1.09-4.09,7.74,7.74,0,0,1,1.09-4.08,7.65,7.65,0,0,1,3-2.85,9,9,0,0,1,4.33-1,8.89,8.89,0,0,1,4.31,1,7.86,7.86,0,0,1,0,13.87,8.89,8.89,0,0,1-4.31,1A9,9,0,0,1,83.74,19.73Zm6.79-2.63a4.55,4.55,0,0,0,1.73-1.75,5.14,5.14,0,0,0,.63-2.56,5.13,5.13,0,0,0-.63-2.55,4.48,4.48,0,0,0-1.73-1.75,4.84,4.84,0,0,0-2.46-.63,4.91,4.91,0,0,0-2.47.63,4.55,4.55,0,0,0-1.73,1.75,5.23,5.23,0,0,0-.62,2.55,5.24,5.24,0,0,0,.62,2.56A4.61,4.61,0,0,0,85.6,17.1a5,5,0,0,0,2.47.62A4.94,4.94,0,0,0,90.53,17.1Z"/><path class="cls-1" d="M102.16,8H97.22V5.09h13.43V8h-4.93V20.5h-3.56Z"/><path class="cls-1" d="M114,18.93a7,7,0,0,1-1.84-5.21V5.09h3.57v8.49q0,4.14,3.43,4.14a3.19,3.19,0,0,0,2.55-1,4.65,4.65,0,0,0,.88-3.14V5.09h3.53v8.63a7,7,0,0,1-1.84,5.21,8.13,8.13,0,0,1-10.28,0Z"/><path class="cls-1" d="M139.47,20.5l-3-4.3h-3.28v4.3h-3.56V5.09h6.67a8.61,8.61,0,0,1,3.55.68,5.27,5.27,0,0,1,2.33,1.94,5.33,5.33,0,0,1,.81,3,5,5,0,0,1-3.17,4.86l3.46,5Zm-.91-11.81a3.68,3.68,0,0,0-2.44-.7h-2.91v5.37h2.91a3.68,3.68,0,0,0,2.44-.7,2.44,2.44,0,0,0,.84-2A2.42,2.42,0,0,0,138.56,8.69Z"/><path class="cls-1" d="M149.39,8V12h7.14v2.86h-7.14V20.5h-3.56V5.09h11.64V8Z"/><polygon class="cls-2" points="24.99 1.15 24.99 22.98 20.1 22.98 20.1 24.12 26.13 24.12 26.13 0 0 0 0 24.12 6.03 24.12 6.03 22.98 1.15 22.98 1.15 1.15 24.99 1.15"/><g id="X3DEOX"><path class="cls-1" d="M17.05,6.58c0,.42-.08.73-.11,1.12l.75-.51a6.85,6.85,0,0,0,0,1.29,5.82,5.82,0,0,0,.5,1.71,37.43,37.43,0,0,1,1.95,4.56c.25.63.54,1.25.76,1.9a1.17,1.17,0,0,1-.4,1.4,1.58,1.58,0,0,1-1.67.16c-.26-.11-.43-.47-.56-.76a.71.71,0,0,0-.54-.5,3.82,3.82,0,0,1-1.81-1.17c-.3-.3-.58-.6-.86-.93a.42.42,0,0,0-.59-.09,2,2,0,0,0-1.1,2.16A17.85,17.85,0,0,0,14,19.31a9.38,9.38,0,0,1,.6,3.67,4.25,4.25,0,0,1-1.71,3.14,1.2,1.2,0,0,1-.26.18s-.21-.24-.24-.26L8,21.4,5.39,18.57h0a13.78,13.78,0,0,1,.79-4.71,7.61,7.61,0,0,1,4-4.14,16.08,16.08,0,0,1,4.52-1.26,1.3,1.3,0,0,0,.59-.31c.37-.35.68-.75,1-1.09A4.53,4.53,0,0,1,17.05,6.58Z"/></g></svg>