<svg id="Layer_1" data-name="Layer 1" xmlns="http://www.w3.org/2000/svg" viewBox="0 0 265.35 28.52"><defs><style>.cls-1,.cls-2{fill:#fff;}.cls-2{fill-rule:evenodd;}</style></defs><path class="cls-1" d="M36.06,6.39h3.57v12.5h7.73V21.8H36.06Z"/><path class="cls-1" d="M52.23,21a7.65,7.65,0,0,1-3-2.85,7.8,7.8,0,0,1-1.09-4.09A7.74,7.74,0,0,1,49.22,10a7.65,7.65,0,0,1,3-2.85,9,9,0,0,1,4.33-1,8.89,8.89,0,0,1,4.31,1,7.86,7.86,0,0,1,0,13.87,8.89,8.89,0,0,1-4.31,1A9,9,0,0,1,52.23,21ZM59,18.4a4.55,4.55,0,0,0,1.73-1.75,5.14,5.14,0,0,0,.63-2.56,5.13,5.13,0,0,0-.63-2.55A4.48,4.48,0,0,0,59,9.79a4.84,4.84,0,0,0-2.46-.63,4.91,4.91,0,0,0-2.47.63,4.55,4.55,0,0,0-1.73,1.75,5.23,5.23,0,0,0-.62,2.55,5.24,5.24,0,0,0,.62,2.56,4.61,4.61,0,0,0,1.73,1.75,5,5,0,0,0,2.47.62A4.94,4.94,0,0,0,59,18.4Z"/><path class="cls-1" d="M70.65,9.29H65.72V6.39H79.14v2.9H74.21V21.8H70.65Z"/><path class="cls-1" d="M93,18.93V21.8H81.06V6.39H92.7V9.25H84.6V12.6h7.16v2.77H84.6v3.56Z"/><path class="cls-1" d="M105.65,21.8l-3-4.3H99.39v4.3H95.83V6.39h6.67a8.61,8.61,0,0,1,3.55.68A5.27,5.27,0,0,1,108.38,9a5.33,5.33,0,0,1,.81,3A5,5,0,0,1,106,16.84l3.46,5ZM104.74,10a3.68,3.68,0,0,0-2.44-.7H99.39v5.37h2.91a3.68,3.68,0,0,0,2.44-.7,2.44,2.44,0,0,0,.84-2A2.42,2.42,0,0,0,104.74,10Z"/><path class="cls-1" d="M114.76,2h3.7l-4,3.17h-2.68ZM112,6.39h3.56V21.8H112Z"/><path class="cls-1" d="M129.37,18.49h-7.15l-1.36,3.31H117.2l6.87-15.41h3.52l6.89,15.41h-3.74Zm-1.12-2.7-2.44-5.9-2.44,5.9Z"/><path class="cls-1" d="M156.45,6.39V21.8h-2.93l-7.68-9.36V21.8h-3.52V6.39h3l7.66,9.35V6.39Z"/><path class="cls-1" d="M170.25,18.49H163.1l-1.37,3.31h-3.65L165,6.39h3.52l6.89,15.41h-3.74Zm-1.12-2.7-2.44-5.9-2.45,5.9Z"/><path class="cls-1" d="M179.86,21a7.64,7.64,0,0,1-3-2.84,7.8,7.8,0,0,1-1.09-4.11,7.79,7.79,0,0,1,1.09-4.1,7.57,7.57,0,0,1,3-2.84,8.82,8.82,0,0,1,4.28-1,9,9,0,0,1,3.62.71,7.21,7.21,0,0,1,2.72,2L188.19,11a4.9,4.9,0,0,0-3.87-1.81,5.14,5.14,0,0,0-2.56.63A4.53,4.53,0,0,0,180,11.54a5.23,5.23,0,0,0-.62,2.55,5.24,5.24,0,0,0,.62,2.56,4.6,4.6,0,0,0,1.75,1.75,5.24,5.24,0,0,0,2.56.62,4.91,4.91,0,0,0,3.87-1.82l2.29,2.11a7.14,7.14,0,0,1-2.73,2.05,9,9,0,0,1-3.63.7A8.88,8.88,0,0,1,179.86,21Z"/><path class="cls-1" d="M192.88,6.39h3.57V21.8h-3.57Z"/><path class="cls-1" d="M203.24,21a7.68,7.68,0,0,1-3-2.85,7.8,7.8,0,0,1-1.09-4.09,7.67,7.67,0,0,1,4.11-6.93,9.49,9.49,0,0,1,8.64,0,7.79,7.79,0,0,1,3,2.85,7.66,7.66,0,0,1,1.1,4.08A7.72,7.72,0,0,1,211.88,21a9.57,9.57,0,0,1-8.64,0ZM210,18.4a4.61,4.61,0,0,0,1.73-1.75,5.24,5.24,0,0,0,.62-2.56,5.23,5.23,0,0,0-.62-2.55A4.55,4.55,0,0,0,210,9.79a4.91,4.91,0,0,0-2.47-.63,4.84,4.84,0,0,0-2.46.63,4.48,4.48,0,0,0-1.73,1.75,5.13,5.13,0,0,0-.63,2.55,5.14,5.14,0,0,0,.63,2.56,4.55,4.55,0,0,0,1.73,1.75,4.94,4.94,0,0,0,2.46.62A5,5,0,0,0,210,18.4Z"/><path class="cls-1" d="M232.81,6.39V21.8h-2.93l-7.68-9.36V21.8h-3.52V6.39h2.95l7.66,9.35V6.39Z"/><path class="cls-1" d="M246.61,18.49h-7.15l-1.37,3.31h-3.65l6.87-15.41h3.52l6.89,15.41H248Zm-1.12-2.7-2.44-5.9-2.45,5.9Z"/><path class="cls-1" d="M253.33,6.39h3.56v12.5h7.73V21.8H253.33Z"/><polygon class="cls-2" points="24.99 2.45 24.99 24.28 20.1 24.28 20.1 25.42 26.13 25.42 26.13 1.3 0 1.3 0 25.42 6.03 25.42 6.03 24.28 1.15 24.28 1.15 2.45 24.99 2.45"/><path class="cls-2" d="M11.91,23.56v1.86h2.35V23.56a7.94,7.94,0,0,0,2.32-.72h-7A7.91,7.91,0,0,0,11.91,23.56Z"/><path class="cls-2" d="M14.45,9.23h-.91a57.08,57.08,0,0,1,.27,5.82h1.47A19.91,19.91,0,0,0,14.45,9.23Z"/><path class="cls-2" d="M9.88,9.23A10.07,10.07,0,0,0,8,15.05H9.42A12.92,12.92,0,0,1,10.8,9.23Z"/><path class="cls-2" d="M11.71,9.23a20.3,20.3,0,0,0-.82,5.82h1.46c0-2.36.12-4.44.27-5.82Z"/><path class="cls-2" d="M21.14,15.05a8.11,8.11,0,0,0-3-5.82h-1a8.86,8.86,0,0,1,2.41,5.82Z"/><path class="cls-2" d="M13.54,21.89h.91a19.89,19.89,0,0,0,.83-5.81H13.81A57,57,0,0,1,13.54,21.89Z"/><path class="cls-2" d="M10.89,16.08a20.28,20.28,0,0,0,.82,5.81h.91c-.15-1.38-.26-3.46-.27-5.81Z"/><path class="cls-2" d="M8,16.08a10.06,10.06,0,0,0,1.92,5.81h.91a13,13,0,0,1-1.37-5.81Z"/><path class="cls-2" d="M5,16.08a8.06,8.06,0,0,0,3,5.81h1a8.82,8.82,0,0,1-2.42-5.81Z"/><path class="cls-2" d="M17.11,21.89h1a8.07,8.07,0,0,0,3-5.81H19.52A8.86,8.86,0,0,1,17.11,21.89Z"/><path class="cls-2" d="M15.37,21.89h.91a10.07,10.07,0,0,0,1.93-5.81H16.74A12.92,12.92,0,0,1,15.37,21.89Z"/><path class="cls-2" d="M16.28,9.23h-.91a12.93,12.93,0,0,1,1.37,5.82h1.47A10.15,10.15,0,0,0,16.28,9.23Z"/><path class="cls-2" d="M9.06,9.23h-1a8.06,8.06,0,0,0-3,5.82H6.64A8.82,8.82,0,0,1,9.06,9.23Z"/><path class="cls-2" d="M16.63,8.3h0a8.07,8.07,0,0,0-7.13,0h7.11Z"/></svg>