<svg id="Layer_1" data-name="Layer 1" xmlns="http://www.w3.org/2000/svg" viewBox="0 0 192.46 24.43"><defs><style>.cls-1,.cls-2{fill:#fff;}.cls-2{fill-rule:evenodd;}</style></defs><path class="cls-1" d="M35.83,5.09H39.4v12.5h7.73V20.5H35.83Z"/><path class="cls-1" d="M59.41,17.19H52.25L50.89,20.5H47.23L54.1,5.09h3.52l6.9,15.41H60.77Zm-1.12-2.7-2.45-5.9-2.44,5.9Z"/><path class="cls-1" d="M82.58,5.77a5.1,5.1,0,0,1,3.13,4.91,5.38,5.38,0,0,1-.81,3,5.29,5.29,0,0,1-2.32,1.94,8.83,8.83,0,0,1-3.56.67h-3.1V20.5H72.35V5.09H79A8.5,8.5,0,0,1,82.58,5.77Zm-1.31,6.88a2.43,2.43,0,0,0,.83-2,2.45,2.45,0,0,0-.83-2A3.73,3.73,0,0,0,78.82,8h-2.9v5.35h2.9A3.78,3.78,0,0,0,81.27,12.65Z"/><path class="cls-1" d="M98.06,20.5l-3-4.3H91.81v4.3H88.24V5.09h6.67a8.5,8.5,0,0,1,3.56.68,5.24,5.24,0,0,1,2.32,1.94,5.33,5.33,0,0,1,.82,3,5,5,0,0,1-3.17,4.86l3.45,5Zm-.9-11.81A3.7,3.7,0,0,0,94.72,8H91.81v5.37h2.91a3.7,3.7,0,0,0,2.44-.7,2.44,2.44,0,0,0,.84-2A2.42,2.42,0,0,0,97.16,8.69Z"/><path class="cls-1" d="M104.42,5.09H108V20.5h-3.57Z"/><path class="cls-1" d="M125.66,20.5l0-9.25-4.53,7.62H119.5L115,11.45V20.5h-3.35V5.09h3l5.77,9.57L126,5.09H129l0,15.41Z"/><path class="cls-1" d="M132.66,5.09h3.57V20.5h-3.57Z"/><path class="cls-1" d="M143.08,8h-4.94V5.09h13.43V8h-4.93V20.5h-3.56Z"/><path class="cls-1" d="M153.49,5.09h3.56V20.5h-3.56Z"/><path class="cls-1" d="M175.43,5.09,168.76,20.5h-3.52L158.59,5.09h3.86l4.69,11,4.75-11Z"/><path class="cls-1" d="M186.35,17.19H179.2l-1.37,3.31h-3.65l6.87-15.41h3.52l6.89,15.41h-3.74Zm-1.12-2.7-2.44-5.9-2.45,5.9Z"/><polygon class="cls-2" points="24.99 1.15 24.99 22.98 20.1 22.98 20.1 24.12 26.13 24.12 26.13 0 0 0 0 24.12 6.03 24.12 6.03 22.98 1.15 22.98 1.15 1.15 24.99 1.15"/><path class="cls-1" d="M21.62,14.35h0s-4.42-.3-8.52-.3-8.44.25-8.44.25H4.54a8.79,8.79,0,0,0-.09,1.26,8.69,8.69,0,0,0,.09,1.26s4.44.3,8.53.3,8.44-.25,8.44-.25h.1a9.39,9.39,0,0,0,.1-1.31A12.09,12.09,0,0,0,21.62,14.35Z"/><path class="cls-1" d="M19.86,20.89a8.66,8.66,0,0,0,1.44-2.74s-4.95.3-8.24.3-8.21-.32-8.22-.32a8.48,8.48,0,0,0,1.45,2.76h0a25,25,0,0,0,6.74.72A25.85,25.85,0,0,0,19.86,20.89Z"/><path class="cls-1" d="M8.12,8.52a49.11,49.11,0,0,1,5-.34,46.43,46.43,0,0,1,5,.36l.07,0A8.65,8.65,0,0,0,8,8.57Z"/><path class="cls-1" d="M13.06,23a46.43,46.43,0,0,1-5-.36,8.65,8.65,0,0,0,9.94,0S15.25,23,13.06,23Z"/><path class="cls-1" d="M4.84,13s4.95-.3,8.24-.3,8.23.32,8.23.32h0a8.63,8.63,0,0,0-1.45-2.79h0a25.18,25.18,0,0,0-6.75-.72,25.8,25.8,0,0,0-6.79.72h0A8.58,8.58,0,0,0,4.82,13Z"/></svg>