<svg id="Layer_1" data-name="Layer 1" xmlns="http://www.w3.org/2000/svg" viewBox="0 0 236.8 27.31"><defs><style>.cls-1,.cls-2{fill:#fff;}.cls-2{fill-rule:evenodd;}</style></defs><path class="cls-1" d="M52.5,22.15a5,5,0,0,1-1.82,1.4,5.48,5.48,0,0,1-2.34.49,6.55,6.55,0,0,1-3.11-.74,13.4,13.4,0,0,1-3.17-2.61,8.62,8.62,0,0,1-3.73-1.34,7.64,7.64,0,0,1-2.55-2.78,7.89,7.89,0,0,1-.92-3.78A7.83,7.83,0,0,1,36,8.71a7.75,7.75,0,0,1,3-2.85,9.49,9.49,0,0,1,8.64,0,7.7,7.7,0,0,1,4.12,6.93,7.71,7.71,0,0,1-1.51,4.71,7.84,7.84,0,0,1-4,2.82,4.14,4.14,0,0,0,1.07.83,2.65,2.65,0,0,0,1.11.25,3.32,3.32,0,0,0,2.51-1.15ZM39.1,15.34a4.48,4.48,0,0,0,1.73,1.75,5.14,5.14,0,0,0,4.93,0,4.48,4.48,0,0,0,1.73-1.75,5.08,5.08,0,0,0,.63-2.55,5.13,5.13,0,0,0-.63-2.55,4.55,4.55,0,0,0-1.73-1.75,5.14,5.14,0,0,0-4.93,0,4.55,4.55,0,0,0-1.73,1.75,5.13,5.13,0,0,0-.63,2.55A5.08,5.08,0,0,0,39.1,15.34Z"/><path class="cls-1" d="M56.12,18.93a7,7,0,0,1-1.84-5.21V5.09h3.57v8.49q0,4.14,3.43,4.14a3.2,3.2,0,0,0,2.55-1,4.65,4.65,0,0,0,.88-3.14V5.09h3.53v8.63a7,7,0,0,1-1.84,5.21,7,7,0,0,1-5.14,1.83A7,7,0,0,1,56.12,18.93Z"/><path class="cls-1" d="M74.51.66h3.7l-4,3.17H71.54ZM71.76,5.09h3.56V20.5H71.76Z"/><path class="cls-1" d="M93.11,5.09V20.5H90.18L82.5,11.14V20.5H79V5.09h3l7.66,9.35V5.09Z"/><path class="cls-1" d="M100,8H95V5.09h13.43V8h-4.93V20.5H100Z"/><path class="cls-1" d="M111.81,18.93A7,7,0,0,1,110,13.72V5.09h3.57v8.49q0,4.14,3.43,4.14a3.19,3.19,0,0,0,2.55-1,4.65,4.65,0,0,0,.88-3.14V5.09h3.53v8.63a7,7,0,0,1-1.84,5.21,8.13,8.13,0,0,1-10.28,0Z"/><path class="cls-1" d="M137.67,5.77A5.27,5.27,0,0,1,140,7.71a5.33,5.33,0,0,1,.81,3,5.36,5.36,0,0,1-.81,3,5.27,5.27,0,0,1-2.33,1.94,8.78,8.78,0,0,1-3.55.67H131V20.5h-3.56V5.09h6.67A8.46,8.46,0,0,1,137.67,5.77Zm-1.31,6.88a2.41,2.41,0,0,0,.84-2,2.42,2.42,0,0,0-.84-2,3.68,3.68,0,0,0-2.44-.7H131v5.35h2.91A3.74,3.74,0,0,0,136.36,12.65Z"/><path class="cls-1" d="M143.34,5.09h3.57v12.5h7.72V20.5H143.34Z"/><path class="cls-1" d="M168.57,17.63V20.5H156.64V5.09h11.64V8h-8.1v3.34h7.15v2.78h-7.15v3.56Z"/><path class="cls-1" d="M187.86,5.77a5.18,5.18,0,0,1,2.32,1.94,5.25,5.25,0,0,1,.82,3,5.29,5.29,0,0,1-.82,3,5.18,5.18,0,0,1-2.32,1.94,8.78,8.78,0,0,1-3.55.67H181.2V20.5h-3.56V5.09h6.67A8.46,8.46,0,0,1,187.86,5.77Zm-1.31,6.88a2.41,2.41,0,0,0,.84-2,2.42,2.42,0,0,0-.84-2,3.7,3.7,0,0,0-2.44-.7H181.2v5.35h2.91A3.75,3.75,0,0,0,186.55,12.65Z"/><path class="cls-1" d="M193.53,5.09h3.57v12.5h7.72V20.5H193.53Z"/><path class="cls-1" d="M208.33,18.93a7,7,0,0,1-1.83-5.21V5.09h3.56v8.49q0,4.14,3.44,4.14a3.21,3.21,0,0,0,2.55-1,4.65,4.65,0,0,0,.88-3.14V5.09h3.52v8.63a7,7,0,0,1-1.84,5.21,8.13,8.13,0,0,1-10.28,0Z"/><path class="cls-1" d="M225.5,20.26A8.32,8.32,0,0,1,222.76,19L224,16.29a8.26,8.26,0,0,0,2.36,1.17,9,9,0,0,0,2.73.44,4.34,4.34,0,0,0,2.24-.45,1.35,1.35,0,0,0,.73-1.2,1.16,1.16,0,0,0-.43-.92,3.36,3.36,0,0,0-1.1-.58,18.68,18.68,0,0,0-1.82-.48,25.27,25.27,0,0,1-2.88-.84,4.78,4.78,0,0,1-1.93-1.34,3.67,3.67,0,0,1-.8-2.47,4.26,4.26,0,0,1,.73-2.43A4.85,4.85,0,0,1,226,5.46a9,9,0,0,1,3.57-.64,11.62,11.62,0,0,1,2.89.36,8.3,8.3,0,0,1,2.46,1l-1.1,2.71a8.55,8.55,0,0,0-4.27-1.22,4,4,0,0,0-2.21.49,1.48,1.48,0,0,0-.72,1.28,1.25,1.25,0,0,0,.83,1.17,12.76,12.76,0,0,0,2.52.76,24.67,24.67,0,0,1,2.88.84,4.83,4.83,0,0,1,1.93,1.32,3.52,3.52,0,0,1,.8,2.44,4.2,4.2,0,0,1-.73,2.41,4.93,4.93,0,0,1-2.22,1.73,8.92,8.92,0,0,1-3.58.64A12.67,12.67,0,0,1,225.5,20.26Z"/><polygon class="cls-2" points="24.99 1.15 24.99 22.98 20.1 22.98 20.1 24.12 26.13 24.12 26.13 0 0 0 0 24.12 6.03 24.12 6.03 22.98 1.15 22.98 1.15 1.15 24.99 1.15"/><g id="X3DEOX"><path class="cls-1" d="M16.64,10.52c0,.34-.06.58-.09.9l.6-.41a5.76,5.76,0,0,0,0,1,4.44,4.44,0,0,0,.4,1.37,28.55,28.55,0,0,1,1.55,3.65c.21.51.44,1,.62,1.52a1,1,0,0,1-.32,1.12,1.26,1.26,0,0,1-1.34.13,1.15,1.15,0,0,1-.45-.61.55.55,0,0,0-.43-.4,3,3,0,0,1-1.45-.93,9.59,9.59,0,0,1-.68-.75.35.35,0,0,0-.48-.07,1.59,1.59,0,0,0-.88,1.73,12.47,12.47,0,0,0,.5,1.91,7.52,7.52,0,0,1,.48,2.93,3.45,3.45,0,0,1-1.37,2.52,1.24,1.24,0,0,1-.21.14l-.19-.21L9.4,22.38,7.31,20.12h0a11.06,11.06,0,0,1,.63-3.77A6.09,6.09,0,0,1,11.13,13a12.52,12.52,0,0,1,3.61-1,1.11,1.11,0,0,0,.48-.25c.29-.28.54-.6.82-.87A3.68,3.68,0,0,1,16.64,10.52Z"/></g><rect class="cls-1" x="9.19" y="3.48" width="1.33" height="6.18"/><rect class="cls-1" x="16.25" y="3.48" width="1.33" height="6.18"/><rect class="cls-1" x="12.8" y="1.88" width="1.33" height="6.5"/></svg>