<svg id="Layer_1" data-name="Layer 1" xmlns="http://www.w3.org/2000/svg" viewBox="0 0 152.66 25.42"><defs><style>.cls-1,.cls-2{fill:#fff;}.cls-2{fill-rule:evenodd;}</style></defs><path class="cls-1" d="M52.73,22.34a4.9,4.9,0,0,1-1.82,1.41,5.63,5.63,0,0,1-2.34.49,6.55,6.55,0,0,1-3.11-.74,13.4,13.4,0,0,1-3.17-2.61,8.75,8.75,0,0,1-3.73-1.34A7.59,7.59,0,0,1,36,16.76,7.81,7.81,0,0,1,35.1,13,7.78,7.78,0,0,1,36.19,8.9a7.65,7.65,0,0,1,3-2.85,9,9,0,0,1,4.33-1,8.91,8.91,0,0,1,4.31,1A7.7,7.7,0,0,1,52,13a7.72,7.72,0,0,1-5.51,7.52,3.93,3.93,0,0,0,1.07.83,2.5,2.5,0,0,0,1.11.25,3.35,3.35,0,0,0,2.51-1.14Zm-13.4-6.8a4.55,4.55,0,0,0,1.73,1.75,5.14,5.14,0,0,0,4.93,0,4.48,4.48,0,0,0,1.73-1.75A5.13,5.13,0,0,0,48.35,13a5.14,5.14,0,0,0-.63-2.56A4.48,4.48,0,0,0,46,8.68a5.21,5.21,0,0,0-4.93,0,4.55,4.55,0,0,0-1.73,1.75A5.13,5.13,0,0,0,38.71,13,5.12,5.12,0,0,0,39.33,15.54Z"/><path class="cls-1" d="M56.35,19.13a7,7,0,0,1-1.84-5.22V5.28h3.57v8.5q0,4.14,3.43,4.14a3.23,3.23,0,0,0,2.55-1,4.67,4.67,0,0,0,.88-3.14V5.28h3.53v8.63a7.07,7.07,0,0,1-1.84,5.22A7,7,0,0,1,61.49,21,7,7,0,0,1,56.35,19.13Z"/><path class="cls-1" d="M72,5.28h3.56V20.69H72Z"/><path class="cls-1" d="M93.34,5.28V20.69H90.41l-7.68-9.35v9.35H79.21V5.28h3l7.66,9.36V5.28Z"/><path class="cls-1" d="M97,5.28h3.57V20.69H97Z"/><path class="cls-1" d="M114.63,12.75h3.25V19a9.28,9.28,0,0,1-2.9,1.45,11.22,11.22,0,0,1-3.33.51,9,9,0,0,1-4.31-1,7.63,7.63,0,0,1-3-2.84,7.88,7.88,0,0,1-1.09-4.1,7.89,7.89,0,0,1,1.09-4.11,7.61,7.61,0,0,1,3-2.84,9.22,9.22,0,0,1,4.36-1,9.65,9.65,0,0,1,3.68.68,7.4,7.4,0,0,1,2.77,2L115.88,9.8a5.29,5.29,0,0,0-4-1.74,5.42,5.42,0,0,0-2.62.61,4.41,4.41,0,0,0-1.79,1.74,5.19,5.19,0,0,0-.63,2.58,5.13,5.13,0,0,0,.63,2.55,4.54,4.54,0,0,0,1.78,1.75,5.19,5.19,0,0,0,2.58.63,5.82,5.82,0,0,0,2.78-.66Z"/><path class="cls-1" d="M124.32,19.92a7.65,7.65,0,0,1-3-2.85A7.74,7.74,0,0,1,120.22,13a7.78,7.78,0,0,1,1.09-4.09,7.65,7.65,0,0,1,3-2.85,9,9,0,0,1,4.33-1,8.89,8.89,0,0,1,4.31,1A7.7,7.7,0,0,1,137.08,13,7.7,7.7,0,0,1,133,19.92a8.89,8.89,0,0,1-4.31,1A9,9,0,0,1,124.32,19.92Zm6.79-2.63a4.48,4.48,0,0,0,1.73-1.75,5.13,5.13,0,0,0,.63-2.55,5.14,5.14,0,0,0-.63-2.56,4.48,4.48,0,0,0-1.73-1.75,4.84,4.84,0,0,0-2.46-.62,4.9,4.9,0,0,0-2.47.62,4.55,4.55,0,0,0-1.73,1.75,5.24,5.24,0,0,0-.62,2.56,5.23,5.23,0,0,0,.62,2.55,4.55,4.55,0,0,0,1.73,1.75,4.91,4.91,0,0,0,2.47.63A4.84,4.84,0,0,0,131.11,17.29Z"/><path class="cls-1" d="M139.76,5.28h3.57V17.79h7.73v2.9h-11.3Z"/><polygon class="cls-2" points="25.22 1.34 25.22 23.17 20.33 23.17 20.33 24.32 26.36 24.32 26.36 0.2 0.23 0.2 0.23 24.32 6.26 24.32 6.26 23.17 1.38 23.17 1.38 1.34 25.22 1.34"/><path class="cls-1" d="M12.69,11.32V8.83s-1.27-.6-2.69-1.2A5.21,5.21,0,0,0,7.49,9.29l-.17,3.13,2.62.82Z"/><polygon class="cls-1" points="6.55 18.93 9.02 19.79 10.61 17.28 9.49 13.96 7.15 13.24 5.34 15.61 6.55 18.93"/><path class="cls-1" d="M6.47,12.64l.22-2.85a6.15,6.15,0,0,0-2,4.18,3.71,3.71,0,0,0,.24,1Z"/><path class="cls-1" d="M5.89,20V19.2L4.6,15.69S4.44,18.61,5.89,20Z"/><path class="cls-1" d="M9,20.68l-2.46-1L6.44,21a9.46,9.46,0,0,0,2.92,2.34c.52-.37.9-.68.9-.68Z"/><path class="cls-1" d="M13.48,11.32l2.75,1.92,2.63-.82-.18-3.13a5.15,5.15,0,0,0-2.5-1.66c-1.42.6-2.7,1.2-2.7,1.2Z"/><polygon class="cls-1" points="15.56 17.28 17.16 19.79 19.63 18.93 20.84 15.61 19.03 13.24 16.68 13.96 15.56 17.28"/><path class="cls-1" d="M21.27,15a3.71,3.71,0,0,0,.24-1,6.12,6.12,0,0,0-2-4.18l.22,2.85Z"/><path class="cls-1" d="M21.58,15.69,20.29,19.2V20C21.74,18.61,21.58,15.69,21.58,15.69Z"/><path class="cls-1" d="M17.17,20.68l-1.25,1.93s.37.31.89.68A9.56,9.56,0,0,0,19.74,21l-.11-1.31Z"/><path class="cls-1" d="M13.09,23.21H10.8l-.59.56a6.1,6.1,0,0,0,2.85.55h.06A6.15,6.15,0,0,0,16,23.77l-.59-.56Z"/><polygon class="cls-1" points="11.19 22.53 13.09 22.53 14.99 22.53 16.46 20.25 14.9 17.71 13.09 17.71 11.27 17.71 9.72 20.25 11.19 22.53"/><path class="cls-1" d="M15.23,7.15a9.55,9.55,0,0,0-2.14-.34,9.69,9.69,0,0,0-2.15.34l2.15,1Z"/><polygon class="cls-1" points="14.82 16.91 15.84 13.94 13.09 12.03 10.34 13.94 11.35 16.91 13.09 16.91 14.82 16.91"/></svg>