<svg id="Layer_1" data-name="Layer 1" xmlns="http://www.w3.org/2000/svg" viewBox="0 0 185.24 24.75"><defs><style>.cls-1,.cls-2{fill:#fff;}.cls-2{fill-rule:evenodd;}</style></defs><path class="cls-1" d="M35.83,5.09H39.4v12.5h7.73V20.5H35.83Z"/><path class="cls-1" d="M59.41,17.19H52.25L50.89,20.5H47.23L54.1,5.09h3.52L64.51,20.5H60.77Zm-1.12-2.7-2.45-5.9-2.44,5.9Z"/><path class="cls-1" d="M89,22.15a4.94,4.94,0,0,1-1.81,1.4,5.53,5.53,0,0,1-2.35.49,6.54,6.54,0,0,1-3.1-.74,13.4,13.4,0,0,1-3.17-2.61,8.57,8.57,0,0,1-3.73-1.34,7.55,7.55,0,0,1-2.55-2.78,7.89,7.89,0,0,1-.92-3.78,7.83,7.83,0,0,1,1.09-4.08,7.68,7.68,0,0,1,3-2.85,9.49,9.49,0,0,1,8.64,0,7.79,7.79,0,0,1,3,2.85,7.66,7.66,0,0,1,1.1,4.08,7.7,7.7,0,0,1-1.5,4.71,7.84,7.84,0,0,1-4,2.82,3.73,3.73,0,0,0,1.07.82,2.45,2.45,0,0,0,1.11.26,3.34,3.34,0,0,0,2.51-1.15ZM75.62,15.34a4.41,4.41,0,0,0,1.73,1.75,4.84,4.84,0,0,0,2.46.63,4.91,4.91,0,0,0,2.47-.63A4.48,4.48,0,0,0,84,15.34a5.1,5.1,0,0,0,.62-2.55A5.12,5.12,0,0,0,84,10.24a4.55,4.55,0,0,0-1.73-1.75,4.91,4.91,0,0,0-2.47-.63,4.84,4.84,0,0,0-2.46.63,4.48,4.48,0,0,0-1.73,1.75A5.13,5.13,0,0,0,75,12.79,5.1,5.1,0,0,0,75.62,15.34Z"/><path class="cls-1" d="M92.64,18.93a7,7,0,0,1-1.84-5.21V5.09h3.56v8.49q0,4.14,3.44,4.14a3.21,3.21,0,0,0,2.55-1,4.65,4.65,0,0,0,.88-3.14V5.09h3.52v8.63a7,7,0,0,1-1.84,5.21,8.12,8.12,0,0,1-10.27,0Z"/><path class="cls-1" d="M108.27,5.09h3.57V20.5h-3.57Z"/><path class="cls-1" d="M129.63,5.09V20.5H126.7L119,11.14V20.5h-3.53V5.09h3l7.66,9.35V5.09Z"/><path class="cls-1" d="M133.28,5.09h3.57V20.5h-3.57Z"/><path class="cls-1" d="M152.43,17.63V20.5H140.5V5.09h11.64V8H144v3.34h7.16v2.78H144v3.56Z"/><path class="cls-1" d="M155.27,5.09h3.57v12.5h7.72V20.5H155.27Z"/><path class="cls-1" d="M178.85,17.19h-7.16l-1.36,3.31h-3.66l6.87-15.41h3.52L184,20.5h-3.74Zm-1.13-2.7-2.44-5.9-2.44,5.9Z"/><polygon class="cls-2" points="24.99 1.15 24.99 22.98 20.1 22.98 20.1 24.12 26.13 24.12 26.13 0 0 0 0 24.12 6.03 24.12 6.03 22.98 1.15 22.98 1.15 1.15 24.99 1.15"/><path class="cls-1" d="M12.84,15.8,5.73,19.94l7.19,4.15L20,19.94ZM15,20.17a3,3,0,0,1-1.55.33l-1.53-.06,1.37.79-1,.54-3-1.7.66-.38,3.25.08a1.38,1.38,0,0,0,.66-.11c.19-.1.29-.3,0-.47a1.06,1.06,0,0,0-.95,0l-1-.55a3.16,3.16,0,0,1,2.81,0C15.82,19.2,15.5,19.94,15,20.17Z"/><path class="cls-1" d="M12.41,6.62l-7.2,4.15v8.39L12.39,15V6.62ZM8.48,15.33V11.91l-.59.34V11.13l1.66-1V14.7Z"/><path class="cls-1" d="M20.51,10.74,13.32,6.62v8.43l7.19,4.15ZM17.8,15.62,17,13.94l-.76.81L15.06,14l1.35-1.51-1.35-3,1.32.76L17,11.81l.67-.75,1.31.76-1.34,1.46L19,16.34Z"/></svg>