<svg id="Capa_2" data-name="Capa 2" xmlns="http://www.w3.org/2000/svg" viewBox="0 0 44.95 44.88"><defs><style>.cls-1{fill:#dc3f47;}</style></defs><title>ElGordoAJ_topaz</title><polygon class="cls-1" points="0 0 0 44.88 5.99 44.88 5.99 41.66 3.29 41.66 3.29 3.29 41.66 3.29 41.66 41.66 38.76 41.66 38.76 44.88 44.95 44.88 44.95 0 0 0"/><path class="cls-1" d="M34.08,35.45c-3.56.26-7.18.4-10.67.4-4.54,0-8.29-.2-10.92-.4A17.12,17.12,0,0,1,12,33.54c2.64.2,6.58.4,11.45.4,3.62,0,7.51-.13,11.19-.46a18.88,18.88,0,0,1-.52,2m-5.8,6.45a40.38,40.38,0,0,1-4.87.26c-1.84,0-3.55-.13-5.13-.26a11.28,11.28,0,0,1-3.22-2.37,50.75,50.75,0,0,0,8.35.72,50,50,0,0,0,8.1-.72,11.18,11.18,0,0,1-3.23,2.37M12.36,28.08c2.89-.2,6.78-.46,11.05-.46,3.89,0,7.44.2,10.8.46A17.22,17.22,0,0,1,34.67,30c-3.49-.26-7.24-.53-11.26-.53-4.47,0-8.62.27-11.51.46a6.21,6.21,0,0,1,.46-1.84m5.07-6.38a45.27,45.27,0,0,1,6-.4,37.8,37.8,0,0,1,5.66.4,11.78,11.78,0,0,1,2.83,2.37,46.18,46.18,0,0,0-8.49-.86,45.74,45.74,0,0,0-8.81.86,10.37,10.37,0,0,1,2.83-2.37m5.85-4.15a14,14,0,1,0,14,14,14.07,14.07,0,0,0-14-14" transform="translate(-0.78 -1.56)"/></svg>