<?xml version="1.0" encoding="utf-8"?>
<!-- Generator: Adobe Illustrator 23.1.0, SVG Export Plug-In . SVG Version: 6.00 Build 0)  -->
<svg version="1.1" id="Capa_1" xmlns="http://www.w3.org/2000/svg" xmlns:xlink="http://www.w3.org/1999/xlink" x="0px" y="0px"
	 viewBox="0 0 44.3 46" style="enable-background:new 0 0 44.3 46;" xml:space="preserve">
<style type="text/css">
	.st0{fill:#007ABF;}
	.st1{clip-path:url(#SVGID_2_);}
</style>
<title>LoteriaNacionalAJ_topaz</title>
<polygon class="st0" points="44.3,46 38.2,46 38.2,42.8 41,42.8 41,5 3.2,5 3.2,42.8 5.9,42.8 5.9,46 0,46 0,1.7 44.3,1.7 "/>
<g>
	<defs>
		<rect id="SVGID_1_" x="-13.4" y="-12.5" width="71.2" height="71.7"/>
	</defs>
	<clipPath id="SVGID_2_">
		<use xlink:href="#SVGID_1_"  style="overflow:visible;"/>
	</clipPath>
	<g class="st1">
		<path class="st0" d="M19.2,40.5c-0.6-3.1-0.9-6.2-0.8-9.4c0-3.8,0.4-7.6,1.3-11.2H19c-2.8,3.1-4.3,7.1-4.2,11.3
			c-0.1,3.3,0.9,6.6,2.8,9.4H19.2z"/>
		<path class="st0" d="M14,40.5h1.3c-1.6-2.9-2.5-6.1-2.4-9.4c0-4,1.2-7.9,3.5-11.1c0,0-0.1,0-0.1,0c-1.9,1.1-3.5,2.6-4.7,4.4
			C8.7,28.9,9,34.7,12.3,38.9C12.9,39.5,13.4,40,14,40.5"/>
		<path class="st0" d="M25,40.5h1.7c1.9-2.8,2.8-6,2.8-9.4c0.1-4.1-1.5-8.2-4.2-11.3h-0.6c0.9,3.7,1.3,7.5,1.3,11.2
			C25.9,34.2,25.6,37.4,25,40.5"/>
		<path class="st0" d="M23,40.5c0.6-3.1,0.9-6.2,0.9-9.4c0.1-3.8-0.4-7.6-1.3-11.3h-0.9c-0.9,3.7-1.4,7.5-1.3,11.3
			c0,3.1,0.3,6.3,0.9,9.4H23z"/>
		<path class="st0" d="M29,40.5h1.3c0.6-0.5,1.2-1,1.7-1.6c3.3-4.2,3.6-10,0.8-14.5c-1.3-1.8-2.9-3.3-4.7-4.4h-0.1
			c2.3,3.2,3.5,7.1,3.5,11.1C31.4,34.4,30.6,37.7,29,40.5"/>
		<path class="st0" d="M25.5,18.9c-2.2-1.2-4.8-1.2-6.9,0H25.5z"/>
		<path class="st0" d="M29,41.8H15.3c1.7,1,3.6,1.7,5.6,1.9V46h2.6v-2.3C25.4,43.5,27.3,42.9,29,41.8"/>
	</g>
</g>
</svg>
