<svg id="Layer_1" data-name="Layer 1" xmlns="http://www.w3.org/2000/svg" viewBox="0 0 276.32 79.76"><defs><style>.cls-1{fill:#748525;}.cls-2,.cls-3{fill:#fff;}.cls-2{fill-rule:evenodd;}.cls-4{opacity:0.1;}</style></defs><rect class="cls-1" width="276.32" height="79.76"/><polygon class="cls-2" points="85.99 16.76 85.99 62.81 75.68 62.81 75.68 65.23 88.41 65.23 88.41 14.34 33.28 14.34 33.28 65.23 46 65.23 46 62.81 35.7 62.81 35.7 16.76 85.99 16.76"/><path class="cls-3" d="M59.57,38.32a5.68,5.68,0,0,0,0-.72v-.09h0a6.28,6.28,0,0,0-2.18-5.13,6.85,6.85,0,0,0-5-1.73,5.54,5.54,0,0,0-4,1.69,5.94,5.94,0,0,0-2,4.45A6.62,6.62,0,0,0,48.8,42.1a6.18,6.18,0,0,0,4.55,1.64h0l1.18,0c.63,0,2-.15,2.72-.16s.4,0,.91,0c1.09,0,1.37.27,1.37.27l.09-.09h0s-.28-.27-.28-1.37a27,27,0,0,1,.19-3.63S59.55,38.53,59.57,38.32Zm-.08.51,0-.08Z"/><path class="cls-3" d="M62,38.74a28.51,28.51,0,0,1,.18,3.63c0,1.1-.27,1.37-.27,1.37h0l.09.09s.27-.27,1.36-.27c.51,0,.25,0,.91,0s2.09.16,2.73.16l1.18,0h0A6.17,6.17,0,0,0,72.7,42.1a6.64,6.64,0,0,0,2.37-5.31,6,6,0,0,0-2-4.45,5.56,5.56,0,0,0-4-1.69,6.84,6.84,0,0,0-5,1.73,6.29,6.29,0,0,0-2.18,5.13h0v.09c0,.25,0,.48,0,.72A2.53,2.53,0,0,0,62,38.74Zm0,0a.34.34,0,0,1,0,.08S62,38.81,62,38.76Z"/><path class="cls-3" d="M59.53,50.46a27,27,0,0,1-.19-3.63c0-1.09.28-1.37.28-1.37h0l-.09-.09s-.28.28-1.37.28h-.91c-.75,0-2.09-.17-2.72-.17l-1.18,0h0A6.22,6.22,0,0,0,48.8,47.1a6.65,6.65,0,0,0-2.36,5.32,6,6,0,0,0,2,4.44,5.5,5.5,0,0,0,4,1.69,6.9,6.9,0,0,0,5-1.72,6.31,6.31,0,0,0,2.18-5.14h0V51.6a5.68,5.68,0,0,0,0-.72C59.55,50.67,59.54,50.49,59.53,50.46Zm0,0a.94.94,0,0,1,0-.09S59.5,50.39,59.52,50.45Z"/><path class="cls-3" d="M61.93,50.88c0,.24,0,.47,0,.72v.09h0a6.3,6.3,0,0,0,2.18,5.14,6.85,6.85,0,0,0,5,1.72,5.52,5.52,0,0,0,4-1.69,6,6,0,0,0,2-4.44,6.38,6.38,0,0,0-2.28-5.23,6.51,6.51,0,0,0-4.63-1.73h0l-1.18,0c-.64,0-2,.16-2.73.17h-.91c-1.09,0-1.36-.28-1.36-.28l-.09.09h0s.27.28.27,1.37A28.43,28.43,0,0,1,62,50.46,2.53,2.53,0,0,0,61.93,50.88Zm.09-.51,0,.08C62,50.39,62,50.31,62,50.37Z"/><path class="cls-3" d="M61.8,63.19a14.35,14.35,0,0,0,.72-5.64,1.73,1.73,0,0,0-3.45,0,1.15,1.15,0,0,0,0,.19,12.53,12.53,0,0,1-.37,3.9,13.79,13.79,0,0,1-1.6,3.17,1.24,1.24,0,0,0-.17.23h0a1.72,1.72,0,0,0,2.79,2h0a1.35,1.35,0,0,0,.2-.27A16.24,16.24,0,0,0,61.8,63.19Z"/><path class="cls-3" d="M117.55,47.7H110v-15h7a4,4,0,0,1,2.85,1.1A3.56,3.56,0,0,1,121,36.55a3,3,0,0,1-1.92,3,3.7,3.7,0,0,1,2.22,1.28,3.77,3.77,0,0,1,.78,2.43,4.2,4.2,0,0,1-1.3,3.18A4.41,4.41,0,0,1,117.55,47.7ZM114.11,36V38.7h2a1.17,1.17,0,0,0,.91-.37,1.35,1.35,0,0,0,.36-1,1.28,1.28,0,0,0-.37-.93,1.18,1.18,0,0,0-.9-.38Zm0,5.46v2.85h2.53a1.51,1.51,0,0,0,1.1-.42,1.41,1.41,0,0,0,.43-1,1.3,1.3,0,0,0-.43-1,1.57,1.57,0,0,0-1.12-.4Z"/><path class="cls-3" d="M139.81,40.27a7.3,7.3,0,0,1-2.43,5.48,8.7,8.7,0,0,1-11.68,0,7.44,7.44,0,0,1,0-11,8.65,8.65,0,0,1,11.68,0A7.17,7.17,0,0,1,139.81,40.27Zm-12.35,0a4.1,4.1,0,0,0,8.19,0,3.91,3.91,0,0,0-1.23-2.87,3.83,3.83,0,0,0-2.88-1.23,4.17,4.17,0,0,0-4.08,4.1Z"/><path class="cls-3" d="M145.58,47.7h-3.91v-15h3.65l6.27,8v-8h3.91v15h-3.33l-6.59-8.35V47.7Z"/><path class="cls-3" d="M173.87,40.27a7.33,7.33,0,0,1-2.42,5.48,8.7,8.7,0,0,1-11.68,0,7.44,7.44,0,0,1,0-11,8.65,8.65,0,0,1,11.68,0A7.16,7.16,0,0,1,173.87,40.27Zm-12.33,0a4.09,4.09,0,1,0,7-2.87,3.81,3.81,0,0,0-2.87-1.23,3.88,3.88,0,0,0-2.88,1.23A3.92,3.92,0,0,0,161.54,40.27Z"/><path class="cls-3" d="M185.51,47.7h-9.77v-15h4.08V44h5.69V47.7Z"/><path class="cls-3" d="M202.67,40.27a7.34,7.34,0,0,1-2.43,5.48,8.7,8.7,0,0,1-11.68,0,7.44,7.44,0,0,1,0-11,8.65,8.65,0,0,1,11.68,0A7.21,7.21,0,0,1,202.67,40.27Zm-12.35,0a4.09,4.09,0,1,0,7-2.87,3.85,3.85,0,0,0-2.88-1.23,4.15,4.15,0,0,0-4.08,4.1Z"/><path class="cls-3" d="M211.21,47.7h-4.08V36.43h-4V32.74h12.07v3.69h-3.95Z"/><path class="cls-3" d="M232.1,40.27a7.3,7.3,0,0,1-2.43,5.48,8.69,8.69,0,0,1-11.67,0,7.42,7.42,0,0,1,0-11,8.63,8.63,0,0,1,11.67,0A7.17,7.17,0,0,1,232.1,40.27Zm-12.34,0a4.09,4.09,0,1,0,7-2.87,3.83,3.83,0,0,0-2.88-1.23,4.15,4.15,0,0,0-4.07,4.1Z"/><g class="cls-4"><polygon class="cls-3" points="272.85 5.06 6.17 5.06 6.17 74.75 272.85 5.06"/></g><path class="cls-3" d="M270.94,5.5V74.26H5.37V5.5H270.94m1-1H4.37V75.26H271.94V4.5Z"/></svg>