<svg id="Layer_1" data-name="Layer 1" xmlns="http://www.w3.org/2000/svg" viewBox="0 0 276.32 79.76"><defs><style>.cls-1{fill:#687d89;}.cls-2{fill:#fff;}.cls-3{opacity:0.1;}</style></defs><rect class="cls-1" width="276.32" height="79.76"/><path class="cls-2" d="M64.73,31.66V26.21h0c0-2.9-6.23-5.24-13.85-5.24S37.07,23.31,37,26.21h0v5.45A30.19,30.19,0,0,0,64.73,31.66Z"/><path class="cls-2" d="M68.56,35.4q-.65,0-1.26.06h0c-.41,0-.83-.06-1.25-.06s-.89,0-1.32.06h0v-2a30.19,30.19,0,0,1-27.71,0v5.46A30.29,30.29,0,0,0,54.72,42a12.14,12.14,0,0,0-.87,1.86A30.38,30.38,0,0,1,37,40.64v5.45a30.35,30.35,0,0,0,16,3.29c0-.08,0-.17,0-.25a12.72,12.72,0,0,0,.33,2.32A30.44,30.44,0,0,1,37,48.19v3.49a3.39,3.39,0,0,0,1.87,2.87,30.32,30.32,0,0,0,17,2,13,13,0,0,0,10.14,4.85c.42,0,.84,0,1.25-.06h0q.61.06,1.26.06a13,13,0,0,0,0-26Zm5.45,21a11.26,11.26,0,1,1,3.3-8A11.17,11.17,0,0,1,74,56.38Z"/><path class="cls-1" d="M50.87,29.84A27.37,27.37,0,0,1,42,28.51a11.18,11.18,0,0,1-1.89-.86h0a1.62,1.62,0,0,1-.8-1.4,1.64,1.64,0,0,1,.8-1.41A11.18,11.18,0,0,1,42,24a27.64,27.64,0,0,1,8.91-1.33A27.64,27.64,0,0,1,59.78,24a10.83,10.83,0,0,1,1.89.86,1.64,1.64,0,0,1,.8,1.41,1.62,1.62,0,0,1-.8,1.4,10.83,10.83,0,0,1-1.89.86A27.37,27.37,0,0,1,50.87,29.84Zm0-6.33a26.45,26.45,0,0,0-8.62,1.28,10.2,10.2,0,0,0-1.74.79.76.76,0,0,0-.38.67.79.79,0,0,0,.38.67h0a11,11,0,0,0,1.74.79A26.72,26.72,0,0,0,50.87,29a26.72,26.72,0,0,0,8.62-1.28,9.85,9.85,0,0,0,1.74-.79.8.8,0,0,0,.39-.67.77.77,0,0,0-.39-.67,9.85,9.85,0,0,0-1.74-.79A26.45,26.45,0,0,0,50.87,23.51Z"/><path class="cls-2" d="M70.88,53.92l-3.83-3.83a2.06,2.06,0,0,0,.29-1,2.08,2.08,0,0,0-1.29-1.91V39.28a.92.92,0,0,0-1.79,0v8a2,2,0,0,0-1,1.77,2.05,2.05,0,0,0,2.05,2.06l.24,0,4.1,4.1a.94.94,0,0,0,1.26-1.27Z"/><path class="cls-2" d="M98.4,48.31V34.69h5.53c2.61,0,4.69.72,4.69,3.42a3.72,3.72,0,0,1-1.52,3A3,3,0,0,1,109,44.2c0,3-2,4.11-5,4.11Zm3.8-10.44v2.27h1.57A1.16,1.16,0,0,0,105.08,39c0-1.06-.75-1.08-1.55-1.08Zm0,4.75v2.51h1.65c.94,0,1.64-.23,1.64-1.25,0-1.19-.88-1.26-2.09-1.26Z"/><path class="cls-2" d="M122.53,41.42c0,4.64-2.65,7.25-6.08,7.25-3.63,0-6.06-2.65-6.06-7.28,0-4.28,2.46-7.06,6.06-7.06C120.59,34.33,122.53,37.83,122.53,41.42Zm-8.35,0c0,1.74.46,3.92,2.27,3.92,1.64,0,2.29-1.67,2.29-3.92,0-1.85-.65-3.82-2.32-3.76S114.18,39.7,114.18,41.42Z"/><path class="cls-2" d="M123.66,34.69h10.62v3.58h-3.41v10h-3.8v-10h-3.41Z"/><path class="cls-2" d="M136,48.31V34.69h9.44v3.18H139.8v2h4.78V43H139.8v2.14h5.88v3.18Z"/><path class="cls-2" d="M153.56,38.64a1.17,1.17,0,0,0-.55-.92,1.83,1.83,0,0,0-1-.25c-.83,0-1.2.28-1.2.78,0,2,6.66.77,6.66,5.73,0,3.16-2.24,4.69-5.42,4.69a4.83,4.83,0,0,1-5.14-4.56h3.64a1.56,1.56,0,0,0,.63,1.08,1.86,1.86,0,0,0,1.07.34c.95,0,1.58-.36,1.58-1,0-2.07-6.66-.65-6.66-5.85,0-2.89,2.12-4.35,5-4.35a4.55,4.55,0,0,1,5,4.31Z"/><path class="cls-2" d="M163.55,48.31l4.16-13.62h3.86l4.15,13.62h-3.78l-.45-1.8h-3.78l-.44,1.8Zm6-9.52-1.17,4.88h2.4Z"/><path class="cls-2" d="M184.25,39.89c-.11-1.42-.87-2.23-2.06-2.23-1.34,0-2.14,1.34-2.14,4,0,1.91.35,3.71,2.28,3.71,1.23,0,1.81-1,1.95-2.31h3.65c-.33,3.52-2.47,5.64-5.53,5.64-3.83,0-6.15-2.76-6.15-7.19s2.54-7.15,5.78-7.15c3.54,0,5.52,2.06,5.82,5.56Z"/><path class="cls-2" d="M188.92,34.69h10.62v3.58h-3.42v10h-3.79v-10h-3.41Z"/><path class="cls-2" d="M201.26,48.31V34.69h3.8V48.31Z"/><path class="cls-2" d="M206.65,34.69h3.83l2,9.06,2.11-9.06h3.82l-4,13.62h-3.81Z"/><path class="cls-2" d="M231.59,41.42c0,4.64-2.65,7.25-6.08,7.25-3.64,0-6.07-2.65-6.07-7.28,0-4.28,2.46-7.06,6.07-7.06C229.64,34.33,231.59,37.83,231.59,41.42Zm-8.35,0c0,1.74.45,3.92,2.27,3.92,1.64,0,2.28-1.67,2.28-3.92,0-1.85-.64-3.82-2.31-3.76S223.24,39.7,223.24,41.42Z"/><path class="cls-2" d="M239.38,38.64a1.2,1.2,0,0,0-.55-.92,1.83,1.83,0,0,0-1-.25c-.84,0-1.21.28-1.21.78,0,2,6.67.77,6.67,5.73,0,3.16-2.24,4.69-5.43,4.69a4.82,4.82,0,0,1-5.13-4.56h3.64a1.59,1.59,0,0,0,.62,1.08,1.92,1.92,0,0,0,1.08.34c.95,0,1.58-.36,1.58-1,0-2.07-6.66-.65-6.66-5.85,0-2.89,2.12-4.35,5-4.35A4.53,4.53,0,0,1,243,38.64Z"/><g class="cls-3"><polygon class="cls-2" points="272.85 4.63 6.17 4.63 6.17 74.32 272.85 4.63"/></g><path class="cls-2" d="M270.94,5.5V74.26H5.37V5.5H270.94m1-1H4.37V75.26H271.94V4.5Z"/></svg>