<svg id="Layer_1" data-name="Layer 1" xmlns="http://www.w3.org/2000/svg" viewBox="0 0 276.32 79.76"><defs><style>.cls-1{fill:#687d89;}.cls-2{fill:#fff;}.cls-3{opacity:0.1;}</style></defs><rect class="cls-1" width="276.32" height="79.76"/><path class="cls-1" d="M44.33,39.89h0l2.19-7.71h0L46,29h0l-.51-.6-.06-.08A18.63,18.63,0,0,0,41.32,40a17.64,17.64,0,0,0,.13,2.19l.73-.08,0,0,.07-.07.48-.5Zm9.38-8.67,1.7-1.45,3.68-3.15-.29-2.43-.17-1.52h0l-8,1.88h0L46.5,28.94l.49,3Zm5-9.11,3.59-.24,2-.14a19.11,19.11,0,0,0-4.31-.49,18.62,18.62,0,0,0-9.57,2.63l.13.16Zm12.3,4.38.42,0h0l1.79.16a18.65,18.65,0,0,0-7.07-4.42L68,23.84ZM56.41,38.93l7.25,2.65h0l.28-.27,5.19-5h0l-1.89-6.82L67,29.45,59.39,27l0,0-5.23,4.48L56,37.8l.32,1.08.13,0ZM49.05,54.52h0l-1.83-.9a19,19,0,0,0,2.65,2.08l-.4-.57ZM70.88,27h0l-1.8,1.39-1.34,1,.13.48,1.77,6.38h0l5.28,4.22,2.22-2.06h0l0-.54v0l-.35-5.74-.05-.74a19,19,0,0,0-2.9-4.14h0L71.12,27Zm6.53,12,0-.06-1.55,1.43-.65.61-1.85,5.55-.68,2h0l.54,3.66h0L74.4,52a18.67,18.67,0,0,0,4.38-11.45ZM49.23,44.83h0v0l-4.69-4.36L42.88,42.1l-.16.16-.28,4.11a18.78,18.78,0,0,0,3.7,6.15h0l3,1.49h0l2.24-2.09.08-.08-1.28-4Zm22.92,4-.17,0-6.76.92-.29.25-5.05,4.3.37.85,1,2.34h0l1.93.89h0a18.36,18.36,0,0,0,4.21-1.23l1.47-1.3,3.81-3.36h0l-.54-3.68Zm-13.8,9.76c.56,0,1.13.08,1.7.08a20,20,0,0,0,2.21-.13L61,58ZM59.47,54l.08-.07.12-.09h0l4.61-3.93h0l.27-.24.27-.22L63.39,42l-3.55-1.3L56,39.31l-6.29,5.17L52,51.71l6.57,2Z"/><path class="cls-2" d="M60.05,20.16A19.82,19.82,0,1,0,79.87,40,19.81,19.81,0,0,0,60.05,20.16ZM74.4,52l-1.19.21h0l-.54-3.66h0l.68-2L75.16,41l.65-.61,1.55-1.43,0,.06,1.37,1.57A18.67,18.67,0,0,1,74.4,52ZM63.2,58.44h0l-1.93-.89h0l-1-2.34-.37-.85,5.05-4.3.29-.25L72,48.89l.17,0h0l.54,3.68h0l-3.81,3.36-1.47,1.3A18.36,18.36,0,0,1,63.2,58.44Zm-16-4.82,1.83.9h0l.42.61.4.57A19,19,0,0,1,47.22,53.62Zm2,.39h0l-3-1.49h0a18.78,18.78,0,0,1-3.7-6.15l.28-4.11.16-.16,1.65-1.68,4.69,4.36v0h0l1,3,1.28,4-.08.08ZM41.45,42.16A17.64,17.64,0,0,1,41.32,40a18.63,18.63,0,0,1,4.09-11.68l.06.08L46,29h0l.54,3.21h0l-2.19,7.71h0l-1.56,1.58-.48.5-.07.07,0,0Zm9.19-17.61h0l8-1.88h0l.17,1.52.29,2.43-3.68,3.15-1.7,1.45L47,31.91l-.49-3Zm9.41-3.31a19.11,19.11,0,0,1,4.31.49l-2,.14-3.59.24L50.61,24l-.13-.16A18.62,18.62,0,0,1,60.05,21.24Zm13.76,6a19,19,0,0,1,2.9,4.14l.05.74.35,5.74v0l0,.54h0L74.92,40.5l-5.28-4.22h0L67.87,29.9l-.13-.48,1.34-1L70.88,27h0l.24,0,2.69.24ZM56.28,38.88,56,37.8l-1.83-6.26,5.23-4.48,0,0L67,29.45l.25.08,1.89,6.82h0l-5.19,5-.28.27h0l-7.25-2.65h0ZM71.47,26.53h0l-.42,0L68,23.84l-1.81-1.57a18.65,18.65,0,0,1,7.07,4.42ZM49.66,44.48,56,39.31l3.89,1.42L63.39,42l1.43,7.45-.27.22-.27.24h0l-4.61,3.93h0l-.12.09-.08.07-.91-.28-6.57-2ZM61,58l1.22.57a20,20,0,0,1-2.21.13c-.57,0-1.14,0-1.7-.08Z"/><path class="cls-2" d="M100.68,30.71a2,2,0,0,0-2.09-2c-1.35,0-2.17,1.23-2.17,3.64,0,1.75.36,3.4,2.32,3.4,1.24,0,1.83-.92,2-2.12h3.71a5.39,5.39,0,0,1-5.63,5.18c-3.88,0-6.24-2.54-6.24-6.6s2.58-6.56,5.87-6.56c3.59,0,5.6,1.89,5.91,5.1Z"/><path class="cls-2" d="M106.16,38.44V25.94H110v9.58h5.29v2.92Z"/><path class="cls-2" d="M116,38.44l4.22-12.5h3.92l4.22,12.5h-3.84l-.46-1.65h-3.84l-.44,1.65Zm6.15-8.73L121,34.18h2.43Z"/><path class="cls-2" d="M135.81,29.57a1.06,1.06,0,0,0-.55-.85,2,2,0,0,0-1-.23c-.85,0-1.22.26-1.22.71,0,1.88,6.76.72,6.76,5.26,0,2.9-2.27,4.31-5.51,4.31s-5.13-1.93-5.21-4.19h3.7a1.44,1.44,0,0,0,.63,1,2,2,0,0,0,1.1.32c1,0,1.6-.33,1.6-.92,0-1.9-6.77-.59-6.77-5.37,0-2.65,2.16-4,5.1-4,3.27,0,4.76,1.77,5,4Z"/><path class="cls-2" d="M141.59,38.44V25.94h3.85v12.5Z"/><path class="cls-2" d="M147.91,38.44V25.94h9.15v2.92h-5.29v2.27H156v2.92h-4.21v4.39Z"/><path class="cls-2" d="M158.85,38.44V25.94h3.86v12.5Z"/><path class="cls-2" d="M172.45,30.71a2,2,0,0,0-2.09-2c-1.36,0-2.18,1.23-2.18,3.64,0,1.75.36,3.4,2.32,3.4,1.24,0,1.83-.92,2-2.12h3.71a5.38,5.38,0,0,1-5.62,5.18c-3.89,0-6.24-2.54-6.24-6.6s2.58-6.56,5.86-6.56c3.6,0,5.61,1.89,5.92,5.1Z"/><path class="cls-2" d="M176.86,38.44l4.22-12.5H185l4.22,12.5h-3.84l-.46-1.65h-3.84l-.44,1.65ZM183,29.71l-1.19,4.47h2.43Z"/><path class="cls-2" d="M197.88,30.71a2,2,0,0,0-2.09-2c-1.35,0-2.17,1.23-2.17,3.64,0,1.75.36,3.4,2.32,3.4,1.24,0,1.83-.92,2-2.12h3.71A5.39,5.39,0,0,1,196,38.77c-3.88,0-6.24-2.54-6.24-6.6s2.58-6.56,5.87-6.56c3.59,0,5.6,1.89,5.91,5.1Z"/><path class="cls-2" d="M203.36,38.44V25.94h3.86v12.5Z"/><path class="cls-2" d="M221.45,32.12c0,4.25-2.69,6.65-6.17,6.65-3.7,0-6.16-2.43-6.16-6.69,0-3.92,2.5-6.47,6.16-6.47C219.48,25.61,221.45,28.82,221.45,32.12Zm-8.48,0c0,1.6.46,3.59,2.31,3.59,1.66,0,2.32-1.53,2.32-3.59,0-1.7-.66-3.51-2.36-3.45S213,30.54,213,32.12Zm2.31-9.89h3.41l-2.81,2.57h-2.24Z"/><path class="cls-2" d="M231,32.76l-.15-2.84v-4h3.69v12.5H231l-4.2-6.81.15,2.85v4h-3.69V25.94h3.61Z"/><path class="cls-2" d="M144.59,59.26V46.76h3.85v9.58h5.3v2.92Z"/><path class="cls-2" d="M159.27,59.26V46.76h9.15v2.92h-5.3V52h4.22v2.92h-4.22v4.39Z"/><path class="cls-2" d="M173.7,59.26V46.76h5.67c3.38,0,5,1.65,5,4.22s-1.51,4.39-4.89,4.39h-1.94v3.89Zm5.46-6.8c.9,0,1.55-.39,1.55-1.46s-1.24-1.32-2.06-1.32h-1.09v2.78Z"/><g class="cls-3"><polygon class="cls-2" points="271.97 4.66 5.29 4.66 5.29 74.35 271.97 4.66"/></g><path class="cls-2" d="M270.5,5.5V74.26H5.82V5.5H270.5m1-1H4.82V75.26H271.5V4.5Z"/></svg>