<svg id="Layer_1" data-name="Layer 1" xmlns="http://www.w3.org/2000/svg" viewBox="0 0 276.32 79.76"><defs><style>.cls-1{fill:#0b4f75;}.cls-2,.cls-3{fill:#fff;}.cls-2{fill-rule:evenodd;}.cls-4{opacity:0.1;}</style></defs><rect class="cls-1" width="276.32" height="79.76"/><polygon class="cls-2" points="93.08 15.69 93.08 61.74 82.78 61.74 82.78 64.16 95.5 64.16 95.5 13.28 40.38 13.28 40.38 64.16 53.1 64.16 53.1 61.74 42.8 61.74 42.8 15.69 93.08 15.69"/><path class="cls-3" d="M67.94,27.9A18.14,18.14,0,1,0,86.08,46,18.14,18.14,0,0,0,67.94,27.9Zm1.77,3.86A8.75,8.75,0,1,1,61,40.51,8.74,8.74,0,0,1,69.71,31.76ZM68.06,60.15A14.88,14.88,0,0,1,53.58,45.63a13.79,13.79,0,0,1,6.86-11.48,18,18,0,0,0-1.11,1.71A12.09,12.09,0,0,0,58.1,41.6c0,5.94,5.09,12.4,11.73,12.4a14.18,14.18,0,0,0,12.44-8.82c0,.42,0,.83,0,1.26A13.94,13.94,0,0,1,68.06,60.15Z"/><path class="cls-3" d="M146.75,37.67H136.8V24.39h9.8v3.26h-6.18v1.83h5.76v3h-5.76v2h6.33v3.2Z"/><path class="cls-3" d="M148.45,32V24.39h3.62v7.18a3.57,3.57,0,0,0,.59,2.3,2.52,2.52,0,0,0,3.51,0,3.57,3.57,0,0,0,.59-2.3V24.39h3.62V32a5.6,5.6,0,0,1-1.7,4.4,6.78,6.78,0,0,1-8.53,0A5.6,5.6,0,0,1,148.45,32Z"/><path class="cls-3" d="M166,37.67H162.4V24.39h6a4.67,4.67,0,0,1,3.37,1.33,4.32,4.32,0,0,1,1.4,3.24,4.39,4.39,0,0,1-.62,2.29,3.8,3.8,0,0,1-1.65,1.51l3.31,4.92H170.1l-2.7-4.14H166Zm0-10v3h2a1.58,1.58,0,0,0,1.14-.41,1.53,1.53,0,0,0,.42-1.15,1.41,1.41,0,0,0-.36-1,1.18,1.18,0,0,0-.89-.4Z"/><path class="cls-3" d="M189.13,31.08A6.46,6.46,0,0,1,187,35.94a7.72,7.72,0,0,1-10.37,0,6.61,6.61,0,0,1,0-9.72,7.66,7.66,0,0,1,10.37,0A6.37,6.37,0,0,1,189.13,31.08Zm-11,0a3.63,3.63,0,0,0,7.26,0,3.46,3.46,0,0,0-1.09-2.55,3.38,3.38,0,0,0-2.55-1.09,3.67,3.67,0,0,0-3.62,3.64Z"/><path class="cls-3" d="M118.75,57.16H115.4V43.87h3l4.31,6.05L127,43.87h3V57.16h-3.36v-7l-3.93,5.43-3.93-5.43Z"/><path class="cls-3" d="M135.84,57.16h-3.62V43.87h3.62Z"/><path class="cls-3" d="M146.76,57.16h-8.67V43.87h3.62v10h5v3.27Z"/><path class="cls-3" d="M156.9,57.16h-8.67V43.87h3.62v10h5.05v3.27Z"/><path class="cls-3" d="M172.13,50.57A6.48,6.48,0,0,1,170,55.43a7.73,7.73,0,0,1-10.38,0,6.61,6.61,0,0,1,0-9.72,7.68,7.68,0,0,1,10.38,0A6.36,6.36,0,0,1,172.13,50.57Zm-11,0a3.63,3.63,0,0,0,7.26,0A3.53,3.53,0,0,0,167.35,48a3.43,3.43,0,0,0-2.56-1.08A3.49,3.49,0,0,0,162.23,48,3.54,3.54,0,0,0,161.17,50.57Z"/><path class="cls-3" d="M177.26,57.16h-3.47V43.87H177L182.6,51V43.87h3.47V57.16h-3l-5.85-7.41Z"/><path class="cls-3" d="M198.19,57.16h-9.95V43.87H198v3.27h-6.17V49h5.75v3h-5.75v2h6.32v3.2Z"/><path class="cls-3" d="M199,54.53l2.55-2A4,4,0,0,0,203,53.76a4.1,4.1,0,0,0,1.91.44c1.18,0,1.77-.31,1.77-1,0-.34-.24-.62-.74-.82a7.89,7.89,0,0,0-.78-.26c-.94-.28-1.64-.51-2.1-.67q-3.08-1.14-3.07-3.83a3.46,3.46,0,0,1,1.39-2.94,5.42,5.42,0,0,1,3.37-1,5.83,5.83,0,0,1,4.92,2.12l-2.38,2a3,3,0,0,0-2.4-1.05,2.1,2.1,0,0,0-1.07.23.68.68,0,0,0-.38.59.78.78,0,0,0,.54.76,3.93,3.93,0,0,0,.66.23,17.4,17.4,0,0,1,2.35.71,5.63,5.63,0,0,1,2.46,1.54,3.48,3.48,0,0,1,.76,2.29,3.79,3.79,0,0,1-1.35,3.1,6.12,6.12,0,0,1-3.95,1.12,7.37,7.37,0,0,1-3.68-.82A6.51,6.51,0,0,1,199,54.53Z"/><g class="cls-4"><polygon class="cls-3" points="271.97 4.5 5.29 4.5 5.29 74.2 271.97 4.5"/></g><path class="cls-3" d="M270.5,5.5V74.26H5.82V5.5H270.5m1-1H4.82V75.26H271.5V4.5Z"/></svg>