<svg id="Layer_1" data-name="Layer 1" xmlns="http://www.w3.org/2000/svg" viewBox="0 0 276.32 79.76"><defs><style>.cls-1{fill:#dc3f47;}.cls-2,.cls-3{fill:#fff;}.cls-2{fill-rule:evenodd;}.cls-4{opacity:0.1;}</style></defs><rect class="cls-1" width="276.32" height="79.76"/><polygon class="cls-2" points="86.01 16.76 86.01 62.81 75.71 62.81 75.71 65.23 88.43 65.23 88.43 14.34 33.31 14.34 33.31 65.23 46.03 65.23 46.03 62.81 35.73 62.81 35.73 16.76 86.01 16.76"/><polygon class="cls-3" points="122.19 39.18 128.12 39.18 128.12 35.91 122.19 35.91 122.19 34.22 128.55 34.22 128.55 30.65 118.24 30.65 118.24 44.58 128.66 44.58 128.66 41.06 122.19 41.06 122.19 39.18"/><polygon class="cls-3" points="134.84 30.65 130.9 30.65 130.9 44.58 140.05 44.58 140.05 41 134.84 41 134.84 30.65"/><path class="cls-3" d="M154.3,39.32h3.51v.78a3.53,3.53,0,0,1-2.72,1.09,3.69,3.69,0,0,1-2.55-1,3.32,3.32,0,0,1-1-2.61,3.52,3.52,0,0,1,3.42-3.62h.22a4,4,0,0,1,3,1.21v.06L160.77,33h-.06a7.27,7.27,0,0,0-5.62-2.54,7.46,7.46,0,0,0-5.4,2,6.71,6.71,0,0,0-2.19,5.08,6.6,6.6,0,0,0,2.19,5.09,7.72,7.72,0,0,0,5.4,2.06,7.53,7.53,0,0,0,6.17-3.09h0V36h-7Z"/><path class="cls-3" d="M173.07,40.17a3.5,3.5,0,0,1-2.54,1.1,3.72,3.72,0,0,1-2.61-1,3.49,3.49,0,0,1-1-2.61,3.4,3.4,0,0,1,1.1-2.54,3.5,3.5,0,0,1,2.54-1.1,3.4,3.4,0,0,1,2.54,1.1,3.5,3.5,0,0,1,.13,5l-.13.12m-2.6-9.7a7.33,7.33,0,0,0-5.4,2.07,6.87,6.87,0,0,0-2.24,5.09,6.68,6.68,0,0,0,2.24,5.09,7.64,7.64,0,0,0,5.4,2.12,7.29,7.29,0,0,0,5.39-2.12h0a6.73,6.73,0,0,0,2.24-5.09,6.84,6.84,0,0,0-2.24-5.09,7.2,7.2,0,0,0-5.39-2.12"/><path class="cls-3" d="M184.09,34.23h2.3a1.28,1.28,0,0,1,1.28,1.28A1.38,1.38,0,0,1,186.45,37h-2.36Zm7.39,1.28a4.47,4.47,0,0,0-1.45-3.4,5.05,5.05,0,0,0-3.53-1.4h-6.36v14h3.94V40.4h1.27l2.79,4.25h4.54l-3.46-5.15a4.49,4.49,0,0,0,2.3-4"/><path class="cls-3" d="M198,34.41h1.51a3.81,3.81,0,0,1,3.09,1,3.26,3.26,0,0,1,.69,2.25,3.59,3.59,0,0,1-.66,2.37,3.73,3.73,0,0,1-3.09,1H198Zm1.69-3.75H194V44.59h5.68a7.35,7.35,0,0,0,5.52-1.87,7.49,7.49,0,0,0,0-10,7.16,7.16,0,0,0-5.52-2"/><path class="cls-3" d="M218.81,40.17a3.5,3.5,0,0,1-2.54,1.1,3.72,3.72,0,0,1-2.61-1,3.45,3.45,0,0,1-1-2.61,3.36,3.36,0,0,1,1.09-2.54,3.5,3.5,0,0,1,2.55-1.1,3.4,3.4,0,0,1,2.54,1.1,3.5,3.5,0,0,1,.12,5l-.12.12m2.85-7.63a7.63,7.63,0,0,0-5.39-2.12,7.3,7.3,0,0,0-5.4,2.12,6.87,6.87,0,0,0-2.24,5.09,6.68,6.68,0,0,0,2.24,5.09,7.64,7.64,0,0,0,5.4,2.12,7.29,7.29,0,0,0,5.39-2.12h0a6.77,6.77,0,0,0,2.24-5.09,6.36,6.36,0,0,0-2.24-5.09"/><path class="cls-3" d="M119.27,58h1.82a3.36,3.36,0,0,0,3.8-2.83,3.14,3.14,0,0,0,0-.81,3.39,3.39,0,0,0-3.1-3.65,3.47,3.47,0,0,0-.72,0h-1.87V58Zm-1,1V49.79h3a4.74,4.74,0,0,1,3.45,1.27,5,5,0,0,1,0,6.67A4.64,4.64,0,0,1,121.22,59h-3Z"/><polygon class="cls-3" points="128 58.94 128 49.79 133.2 49.79 133.2 50.7 129.03 50.7 129.03 53.61 132.96 53.61 132.96 54.58 129.03 54.58 129.03 57.97 133.27 57.97 133.27 58.94 128 58.94"/><polygon class="cls-3" points="141.08 58.94 141.08 49.79 142.11 49.79 142.11 57.97 145.93 57.97 145.93 58.94 141.08 58.94"/><path class="cls-3" d="M149.26,55.73h3.64l-1.82-4.36Zm-2.42,3.21,3.88-9.15h.79l3.82,9.15h-1.08l-.93-2.23H148.9l-1,2.24Z"/><path class="cls-3" d="M163.2,54.4h1.87a1.64,1.64,0,0,0,1.27-.55,1.87,1.87,0,0,0,0-2.66,1.69,1.69,0,0,0-1.27-.54H163.2Zm-1,4.54V49.79h2.9a2.7,2.7,0,0,1,2.79,2.61v.18a2.93,2.93,0,0,1-.79,2,2.67,2.67,0,0,1-2,.78H163.2v3.58Z"/><path class="cls-3" d="M171,54.4h2a1.56,1.56,0,0,0,1.27-.55A1.83,1.83,0,0,0,173,50.71h-2Zm-1,4.54V49.79h3.15a2.7,2.7,0,0,1,2.73,2.74,2.78,2.78,0,0,1-1.76,2.54l2.17,3.82h-1.2l-2-3.58H171v3.63Z"/><rect class="cls-3" x="178.15" y="49.79" width="1.03" height="9.15"/><polygon class="cls-3" points="181.92 58.94 181.92 49.79 182.82 49.79 186.33 55.61 189.84 49.79 190.76 49.79 190.76 58.94 189.79 58.94 189.79 51.79 186.33 57.43 182.88 51.79 182.88 58.94 181.92 58.94"/><rect class="cls-3" x="193.48" y="49.79" width="1.03" height="9.15"/><polygon class="cls-3" points="198.88 58.94 198.88 50.7 196.39 50.7 196.39 49.79 202.39 49.79 202.39 50.7 199.91 50.7 199.91 58.94 198.88 58.94"/><rect class="cls-3" x="204.27" y="49.79" width="1.03" height="9.15"/><polygon class="cls-3" points="211.11 58.94 207.3 49.79 208.38 49.79 211.47 57.25 214.56 49.79 215.66 49.79 211.84 58.94 211.11 58.94"/><path class="cls-3" d="M217.84,55.73h3.63l-1.81-4.36Zm-2.54,3.21,3.82-9.15h.78l3.88,9.15h-1.09l-.85-2.23h-4.43l-1,2.24Z"/><path class="cls-3" d="M74.08,52.68c-4.39.32-8.83.48-13.14.48-5.58,0-10.21-.24-13.44-.48a17.4,17.4,0,0,1-.65-2.35c3.24.24,8.1.48,14.09.48,4.46,0,9.24-.15,13.78-.56a11.3,11.3,0,0,1-.64,2.43M67,60.61a48.31,48.31,0,0,1-6,.32c-2.26,0-4.37-.15-6.31-.32a13.94,13.94,0,0,1-4-2.91,62.27,62.27,0,0,0,10.21.88,61.78,61.78,0,0,0,10-.88,14,14,0,0,1-4,2.91m-19.48-17C51,43.36,55.73,43,61,43c4.78,0,9.16.24,13.29.56A20.91,20.91,0,0,1,74.79,46c-4.29-.34-8.9-.66-13.85-.66-5.51,0-10.62.32-14.17.58a21.68,21.68,0,0,1,.61-2.37m6.28-7.75A56.28,56.28,0,0,1,61,35.26a47.61,47.61,0,0,1,7,.49,14.37,14.37,0,0,1,3.4,2.91,54.16,54.16,0,0,0-21.3,0,11.72,11.72,0,0,1,3.4-2.91m7.13-5.1a30.07,30.07,0,1,0,.21.08"/><g class="cls-4"><polygon class="cls-3" points="272.87 4.94 6.19 4.94 6.19 74.64 272.87 4.94"/></g><path class="cls-3" d="M270.94,5.5V74.26H5.37V5.5H270.94m1-1H4.37V75.26H271.94V4.5Z"/></svg>