<svg id="Layer_1" data-name="Layer 1" xmlns="http://www.w3.org/2000/svg" viewBox="0 0 276.32 79.76"><defs><style>.cls-1{fill:#eb6c20;}.cls-2,.cls-3{fill:#fff;}.cls-2{fill-rule:evenodd;}.cls-4{opacity:0.1;}</style></defs><rect class="cls-1" width="276.32" height="79.76"/><polygon class="cls-2" points="93.08 16.76 93.08 62.81 82.78 62.81 82.78 65.23 95.5 65.23 95.5 14.34 40.38 14.34 40.38 65.23 53.1 65.23 53.1 62.81 42.8 62.81 42.8 16.76 93.08 16.76"/><path class="cls-3" d="M125.58,47.37H116V32.63h4V43.74h5.6v3.63Z"/><path class="cls-3" d="M142.47,40.06a7.18,7.18,0,0,1-2.39,5.39,8.56,8.56,0,0,1-11.5,0,7.31,7.31,0,0,1,0-10.78,8.5,8.5,0,0,1,11.5,0A7.05,7.05,0,0,1,142.47,40.06Zm-12.16,0a4,4,0,0,0,4,4,4,4,0,0,0,2.83-6.86,3.79,3.79,0,0,0-2.83-1.2,3.87,3.87,0,0,0-2.84,1.2A3.93,3.93,0,0,0,130.31,40.06Z"/><path class="cls-3" d="M150.89,47.37h-4V36.27h-4V32.64h11.88v3.63h-3.89v11.1Z"/><path class="cls-3" d="M171.46,40.06a7.18,7.18,0,0,1-2.39,5.39,8.56,8.56,0,0,1-11.5,0,7.31,7.31,0,0,1,0-10.78,8.5,8.5,0,0,1,11.5,0A7.09,7.09,0,0,1,171.46,40.06Zm-12.16,0a4,4,0,0,0,4,4,4,4,0,0,0,2.83-6.86,3.77,3.77,0,0,0-2.83-1.2,4.08,4.08,0,0,0-4,4Z"/><path class="cls-3" d="M179.87,47.37h-4V36.27h-4V32.64h11.88v3.63h-3.89v11.1Z"/><path class="cls-3" d="M184.91,41v-8.4h4v8a4,4,0,0,0,.65,2.56,2.82,2.82,0,0,0,3.89,0,4,4,0,0,0,.66-2.56v-8h4V41a6.24,6.24,0,0,1-1.89,4.89,7.55,7.55,0,0,1-9.47,0A6.24,6.24,0,0,1,184.91,41Z"/><path class="cls-3" d="M204.4,47.37h-4V32.63h6.71a5.16,5.16,0,0,1,3.73,1.48,5,5,0,0,1,.86,6.14,4.14,4.14,0,0,1-1.83,1.67l3.68,5.46h-4.61l-3-4.59H204.4Zm0-11.1v3.31h2.24a1.59,1.59,0,0,0,1.73-1.74,1.62,1.62,0,0,0-.39-1.13,1.38,1.38,0,0,0-1-.44Z"/><path class="cls-3" d="M218.78,47.37h-4V32.63h10.66v3.62h-6.64v2.29h6v3.4h-6Z"/><g id="X3DEOX"><path class="cls-3" d="M75.65,30.29c-.07.74-.13,1.28-.2,2l1.34-.9a13.14,13.14,0,0,0,0,2.28,9.94,9.94,0,0,0,.9,3,66.66,66.66,0,0,1,3.44,8.08c.45,1.13,1,2.23,1.36,3.38a2.08,2.08,0,0,1-.71,2.47,2.77,2.77,0,0,1-3,.29,2.6,2.6,0,0,1-1-1.34,1.27,1.27,0,0,0-1-.9,6.79,6.79,0,0,1-3.22-2.06c-.52-.54-1-1.08-1.51-1.65a.75.75,0,0,0-1-.17,3.5,3.5,0,0,0-2,3.83,31.2,31.2,0,0,0,1.1,4.25,16.46,16.46,0,0,1,1.06,6.49,7.53,7.53,0,0,1-3,5.57,3.2,3.2,0,0,1-.47.33s-.37-.44-.41-.47l-7.79-8.22c-1.4-1.5-4.64-5-4.64-5h0a24.14,24.14,0,0,1,1.4-8.36,13.48,13.48,0,0,1,7-7.34,28.59,28.59,0,0,1,8-2.23,2.27,2.27,0,0,0,1-.55c.65-.61,1.2-1.33,1.84-1.94A8.31,8.31,0,0,1,75.65,30.29Z"/></g><g class="cls-4"><polygon class="cls-3" points="271.97 4.94 5.29 4.94 5.29 74.64 271.97 4.94"/></g><path class="cls-3" d="M270.5,5.5V74.26H5.82V5.5H270.5m1-1H4.82V75.26H271.5V4.5Z"/></svg>