<svg id="Layer_1" data-name="Layer 1" xmlns="http://www.w3.org/2000/svg" viewBox="0 0 276.32 79.76"><defs><style>.cls-1,.cls-3{fill:#7784c0;}.cls-2,.cls-4{fill:#fff;}.cls-2,.cls-3{fill-rule:evenodd;}.cls-5{opacity:0.1;}</style></defs><rect class="cls-1" width="276.32" height="79.76" transform="translate(276.32 79.76) rotate(-180)"/><path class="cls-2" d="M50.38,43.59a16.9,16.9,0,1,1,16.9,16.9,16.9,16.9,0,0,1-16.9-16.9Z"/><path class="cls-3" d="M53.76,43.59c0-9.34,6.05-16.9,13.52-16.9S80.8,34.25,80.8,43.59s-6,16.9-13.52,16.9-13.52-7.57-13.52-16.9Z"/><path class="cls-2" d="M56.53,43.59c0-9.34,4.81-16.9,10.75-16.9S78,34.25,78,43.59s-4.82,16.9-10.76,16.9-10.75-7.57-10.75-16.9Z"/><path class="cls-3" d="M59.6,43.59c0-9.34,3.44-16.9,7.68-16.9S75,34.25,75,43.59s-3.44,16.9-7.68,16.9-7.68-7.57-7.68-16.9Z"/><path class="cls-2" d="M62.67,43.59c0-9.34,2.07-16.9,4.61-16.9s4.61,7.56,4.61,16.9-2.06,16.9-4.61,16.9-4.61-7.57-4.61-16.9Z"/><path class="cls-3" d="M65.75,43.59c0-9.34.68-16.9,1.53-16.9s1.54,7.56,1.54,16.9-.69,16.9-1.54,16.9-1.53-7.57-1.53-16.9Z"/><path class="cls-2" d="M77.07,29.81H57.5a16.9,16.9,0,0,1,19.57,0Z"/><path class="cls-2" d="M57.77,57.56h19a16.9,16.9,0,0,1-19,0Z"/><path class="cls-3" d="M50.42,42.51H84.15c0,.36,0,.71,0,1.08s0,.72,0,1.07H50.42c0-.35,0-.71,0-1.07s0-.72,0-1.08Z"/><path class="cls-3" d="M58.5,29.14H76.06a19.76,19.76,0,0,1,1.76,1.23H56.75a18.26,18.26,0,0,1,1.75-1.23Z"/><path class="cls-3" d="M56.75,56.8H77.82A17.88,17.88,0,0,1,76.06,58H58.5a16.64,16.64,0,0,1-1.75-1.23Z"/><polygon class="cls-2" points="64.82 59.26 69.74 59.26 69.74 64.17 64.82 64.17 64.82 59.26 64.82 59.26"/><polygon class="cls-2" points="92.42 15.69 92.42 61.74 82.12 61.74 82.12 64.16 94.84 64.16 94.84 13.28 39.72 13.28 39.72 64.16 52.44 64.16 52.44 61.74 42.14 61.74 42.14 15.69 92.42 15.69"/><path class="cls-4" d="M121.73,36.18V21h4.79V32.64h6.59v3.54Z"/><path class="cls-4" d="M140.49,24.82c3.76,0,6.08,2.3,6.08,5.74,0,4-2.64,5.94-6.06,5.94s-6-1.94-6-5.71S136.89,24.82,140.49,24.82Zm-1.81,5.74c0,2.08.75,3,1.83,3s1.83-.91,1.83-3c0-1.63-.69-2.85-1.79-2.79C139.11,27.77,138.68,29.31,138.68,30.56Z"/><path class="cls-4" d="M155.31,36.18c-5.55.32-6.22-.08-6.22-3.9V27.67h-1.5V25.14h1.56V21.7h4.17v3.44h2v2.53h-2v4c0,1,.14,1.37,1.32,1.37h.67Z"/><path class="cls-4" d="M161.19,31.65a2.08,2.08,0,0,0,2.09,2.17,1.66,1.66,0,0,0,1.58-1h4c-.73,2.74-3.41,3.65-5.89,3.65-3.42,0-6.06-2-6.06-5.73a5.74,5.74,0,0,1,6-5.95c3.94,0,6.32,2.83,6.26,6.83ZM165,29.42a2,2,0,0,0-1.87-1.92,1.79,1.79,0,0,0-2,1.92Z"/><path class="cls-4" d="M170.94,25.14h3.84v2.23h.05a3.23,3.23,0,0,1,3.27-2.55,5.52,5.52,0,0,1,.55.07v4.38a6.67,6.67,0,0,0-.88-.13c-1.72,0-2.6.85-2.6,3.23v3.81h-4.23Z"/><path class="cls-4" d="M180.17,36.18v-11h4.23v11Zm2.12-15.55h4.24L183,23.75h-2.78Z"/><path class="cls-4" d="M194.2,36.18,194,35a5.22,5.22,0,0,1-4,1.5c-2,0-3.8-1-3.8-3.33,0-5,7.58-2.74,7.58-4.8,0-.81-.93-.91-1.38-.91s-1.38.13-1.48,1.07h-4.07c0-2.34,1.61-3.71,5.81-3.71,5,0,5.35,1.94,5.35,4.58v5.16a1.45,1.45,0,0,0,.57,1.41v.21Zm-.43-4.89c-1.38.7-3.21.36-3.21,1.8,0,.54.51.92,1.34.92C193.39,34,193.87,32.81,193.77,31.29Z"/><path class="cls-4" d="M122.07,52l-.18-3.46V43.67h4.59V58.84H122l-5.23-8.26L117,54v4.81h-4.6V43.67h4.5Z"/><path class="cls-4" d="M136.4,58.84l-.2-1.18a5.22,5.22,0,0,1-4,1.5c-2,0-3.81-1-3.81-3.33,0-5,7.59-2.74,7.59-4.81,0-.8-.94-.91-1.39-.91s-1.38.13-1.48,1.08H129c0-2.34,1.61-3.71,5.82-3.71,5,0,5.34,1.94,5.34,4.57v5.17a1.45,1.45,0,0,0,.57,1.41v.21ZM136,54c-1.39.7-3.21.36-3.21,1.79,0,.55.5.93,1.34.93C135.59,56.67,136.08,55.47,136,54Z"/><path class="cls-4" d="M149.72,52a1.69,1.69,0,0,0-.45-1.14,1.41,1.41,0,0,0-1.1-.44c-1.58,0-1.84,1.71-1.84,3,0,1.67.6,2.76,1.84,2.76s1.53-.77,1.65-1.64h4.27a4.7,4.7,0,0,1-2,3.56,7,7,0,0,1-3.93,1c-3.43,0-6.07-2-6.07-5.74s2.56-5.94,6.07-5.94c2.85,0,5.53,1.26,5.84,4.53Z"/><path class="cls-4" d="M156.26,43.26h4.23v3.12h-4.23Zm0,15.58v-11h4.23v11Z"/><path class="cls-4" d="M168.52,47.48c3.76,0,6.08,2.3,6.08,5.73,0,4-2.64,5.95-6.06,5.95s-6-1.94-6-5.72S164.93,47.48,168.52,47.48Zm-1.81,5.73c0,2.09.76,3,1.83,3s1.83-.9,1.83-3c0-1.62-.69-2.84-1.79-2.78C167.14,50.43,166.71,52,166.71,53.21Z"/><path class="cls-4" d="M176.31,47.8h3.86v1.72a4.16,4.16,0,0,1,3.6-2c2.81,0,4.13,1.71,4.13,4.74v6.62h-4.23V53c0-1.09-.29-2.06-1.49-2.06s-1.64.86-1.64,2.27v5.63h-4.23Z"/><path class="cls-4" d="M197.41,58.84l-.2-1.18a5.22,5.22,0,0,1-4,1.5c-2,0-3.8-1-3.8-3.33,0-5,7.58-2.74,7.58-4.81,0-.8-.93-.91-1.38-.91s-1.38.13-1.48,1.08h-4.07c0-2.34,1.61-3.71,5.81-3.71,5,0,5.35,1.94,5.35,4.57v5.17a1.45,1.45,0,0,0,.57,1.41v.21ZM197,54c-1.38.7-3.21.36-3.21,1.79,0,.55.51.93,1.34.93C196.6,56.67,197.09,55.47,197,54Z"/><path class="cls-4" d="M203.71,58.84V43.67h4.23V58.84Z"/><g class="cls-5"><polygon class="cls-4" points="271.38 4.5 4.71 4.5 4.71 74.2 271.38 4.5"/></g><path class="cls-4" d="M270.5,5.5V74.26H5.82V5.5H270.5m1-1H4.82V75.26H271.5V4.5Z"/></svg>