<svg id="Layer_1" data-name="Layer 1" xmlns="http://www.w3.org/2000/svg" viewBox="0 0 276.32 79.76"><defs><style>.cls-1,.cls-2{fill:#fff;}.cls-2,.cls-6{fill-rule:evenodd;}.cls-3{fill:#f9f9f9;}.cls-4{fill:#e5e5e5;}.cls-5{font-size:19px;font-family:HelveticaLTStd-BoldCond, Helvetica LT Std;font-weight:700;}.cls-5,.cls-6{fill:#636363;}</style></defs><rect class="cls-1" width="276.32" height="79.76"/><path class="cls-2" d="M64.59,57.39v4.33h5.48V57.39a18.79,18.79,0,0,0,5.42-1.68H59.17A18.79,18.79,0,0,0,64.59,57.39Z"/><path class="cls-2" d="M70.53,24.05H68.4c.36,3.21.61,8.05.64,13.52h3.41A47.15,47.15,0,0,0,70.53,24.05Z"/><path class="cls-2" d="M59.87,24.05c-2.57,3.21-4.26,8.05-4.48,13.52H58.8C59,32.1,60.17,27.26,62,24.05Z"/><path class="cls-2" d="M64.13,24.05a47.15,47.15,0,0,0-1.92,13.52h3.42a134.75,134.75,0,0,1,.64-13.52Z"/><path class="cls-2" d="M86.11,37.57a18.79,18.79,0,0,0-7-13.52H76.71a20.48,20.48,0,0,1,5.63,13.52Z"/><path class="cls-2" d="M68.4,53.5h2.13A47.28,47.28,0,0,0,72.45,40H69C69,45.44,68.76,50.28,68.4,53.5Z"/><path class="cls-2" d="M62.21,40A47.28,47.28,0,0,0,64.13,53.5h2.14A135.14,135.14,0,0,1,65.63,40Z"/><path class="cls-2" d="M55.39,40c.22,5.47,1.91,10.31,4.48,13.53H62c-1.83-3.22-3-8.06-3.2-13.53Z"/><path class="cls-2" d="M48.54,40A18.73,18.73,0,0,0,55.63,53.5H58A20.58,20.58,0,0,1,52.32,40Z"/><path class="cls-2" d="M76.71,53.5H79A18.8,18.8,0,0,0,86.13,40H82.34A20.53,20.53,0,0,1,76.71,53.5Z"/><path class="cls-2" d="M72.66,53.5h2.13c2.57-3.22,4.26-8.06,4.48-13.53H75.86C75.7,45.44,74.49,50.28,72.66,53.5Z"/><path class="cls-2" d="M74.79,24.05H72.66c1.83,3.21,3,8.05,3.2,13.52h3.41C79.05,32.1,77.36,27.26,74.79,24.05Z"/><path class="cls-2" d="M58,24.05H55.61a18.72,18.72,0,0,0-7,13.52h3.76A20.53,20.53,0,0,1,58,24.05Z"/><path class="cls-2" d="M75.61,21.87h0a18.86,18.86,0,0,0-16.62,0H75.61Z"/><path class="cls-1" d="M108.55,44.18v4.34h-4V36.06h5.7c4,0,5.35,1.13,5.35,3.55a2.87,2.87,0,0,1-2,3c1.27.49,2,.8,2,3.31,0,1.63-.05,2.18.42,2.18v.38h-4a8.27,8.27,0,0,1-.21-2.18c0-1.63-.26-2.16-2.11-2.16Zm0-2.74h1.55c1.23,0,1.88-.31,1.88-1.17s-.67-1.3-1.59-1.3h-1.84Z"/><path class="cls-1" d="M117.89,48.52V36.06h9.84V39h-5.88v1.78h5v2.91h-5v2H128v2.91Z"/><path class="cls-1" d="M136.19,39.68a1.11,1.11,0,0,0-.57-.85,2.12,2.12,0,0,0-1-.23c-.87,0-1.25.26-1.25.71,0,1.87,6.94.71,6.94,5.25,0,2.89-2.33,4.29-5.65,4.29s-5.26-1.92-5.35-4.17h3.79a1.39,1.39,0,0,0,.65,1,2.12,2.12,0,0,0,1.13.32c1,0,1.64-.33,1.64-.92,0-1.89-6.94-.59-6.94-5.35,0-2.65,2.21-4,5.23-4,3.35,0,4.88,1.77,5.16,4Z"/><path class="cls-1" d="M142,36.06h4v7.46c0,1.23.23,2.28,1.86,2.28,1.42,0,1.84-.93,1.84-2.28V36.06h4v7c0,4-1.79,5.75-5.8,5.75-3.74,0-5.82-1.47-5.82-5.76Z"/><path class="cls-1" d="M156.08,48.52V36.06h4v9.55h5.43v2.91Z"/><path class="cls-1" d="M165,36.06H176v3.27h-3.55v9.19h-4V39.33H165Z"/><path class="cls-1" d="M175.51,48.52l4.33-12.46h4l4.33,12.46h-3.94l-.47-1.64h-3.94l-.46,1.64Zm6.3-8.7-1.22,4.46h2.5Z"/><path class="cls-1" d="M189.47,48.52V36.06h5.3c3.88,0,6.3,1.87,6.3,6,0,4.69-2.53,6.49-6.41,6.49Zm3.95-2.91h.84c1.85,0,2.85-1,2.85-3.35,0-2.6-.82-3.29-2.93-3.29h-.76Z"/><path class="cls-1" d="M214.74,42.22c0,4.24-2.77,6.63-6.34,6.63-3.79,0-6.32-2.42-6.32-6.66,0-3.91,2.57-6.46,6.32-6.46C212.71,35.73,214.74,38.93,214.74,42.22Zm-8.7,0c0,1.59.47,3.58,2.36,3.58,1.71,0,2.38-1.52,2.38-3.58,0-1.69-.67-3.49-2.41-3.44S206,40.65,206,42.22Z"/><path class="cls-1" d="M222.86,39.68a1.09,1.09,0,0,0-.57-.85,2.08,2.08,0,0,0-1-.23c-.87,0-1.26.26-1.26.71,0,1.87,6.94.71,6.94,5.25,0,2.89-2.33,4.29-5.65,4.29S216,46.93,216,44.68h3.79a1.4,1.4,0,0,0,.66,1,2.06,2.06,0,0,0,1.12.32c1,0,1.64-.33,1.64-.92,0-1.89-6.94-.59-6.94-5.35,0-2.65,2.22-4,5.23-4,3.36,0,4.88,1.77,5.17,4Z"/><polygon class="cls-3" points="4.71 74.32 271.38 74.32 271.38 4.63 4.71 74.32"/><path class="cls-4" d="M270.5,5.5V74.26H5.82V5.5H270.5m1-1H4.82V75.26H271.5V4.5Z"/><text class="cls-5" transform="translate(85.62 38.16)">BUSCA TU NÚMERO<tspan x="43.83" y="22.81">SOÑADO</tspan></text><path class="cls-6" d="M61,24.12a12.35,12.35,0,0,0-8.78-3.64h0A12.41,12.41,0,0,0,41.8,39.69l-3.55,3.55-.6-.6h0l-.4-.41-.41.41h0L35.7,43.75,28.51,51a4,4,0,0,0,5.61,5.61l7.19-7.2h0l1.12-1.12.41-.41-.41-.41h0l-.6-.61,3.54-3.54A12.41,12.41,0,0,0,64.58,32.89h0A12.36,12.36,0,0,0,61,24.12Zm1.3,8.77A10.08,10.08,0,1,1,52.17,22.81h.22a10.08,10.08,0,0,1,9.86,9.86Z"/><path class="cls-6" d="M52.12,24a8.95,8.95,0,0,0-6.27,2.62,9.2,9.2,0,0,0-.9,1.05,9.62,9.62,0,0,0-.73,1.18.59.59,0,0,0,.25.78.58.58,0,0,0,.78-.25,7.72,7.72,0,0,1,.64-1,8.18,8.18,0,0,1,.78-.91,7.86,7.86,0,0,1,2.5-1.68,7.62,7.62,0,0,1,2.95-.6.58.58,0,1,0,0-1.16Z"/></svg>