<svg id="Layer_1" data-name="Layer 1" xmlns="http://www.w3.org/2000/svg" viewBox="0 0 276.32 79.76"><defs><style>.cls-1{fill:#098342;}.cls-2,.cls-3{fill:#fff;}.cls-2{fill-rule:evenodd;}.cls-4{opacity:0.1;}</style></defs><rect class="cls-1" width="276.32" height="79.76"/><polygon class="cls-2" points="86.01 15.69 86.01 61.74 75.71 61.74 75.71 64.16 88.43 64.16 88.43 13.28 33.31 13.28 33.31 64.16 46.03 64.16 46.03 61.74 35.73 61.74 35.73 15.69 86.01 15.69"/><path class="cls-3" d="M78.24,44.5h0s-9-.61-17.34-.61-17.16.51-17.16.51h-.22A17.93,17.93,0,0,0,43.32,47a16.81,16.81,0,0,0,.19,2.57c.05,0,9,.6,17.33.6S78,49.63,78,49.63h.21a18.14,18.14,0,0,0,.2-2.67A19.77,19.77,0,0,0,78.24,44.5Z"/><path class="cls-3" d="M74.65,57.8a17.49,17.49,0,0,0,2.95-5.58s-10.07.61-16.77.61-16.7-.64-16.72-.64a17.63,17.63,0,0,0,3,5.61h.06s4.73,1.47,13.71,1.47S74.65,57.8,74.65,57.8Z"/><path class="cls-3" d="M50.79,32.64A100.24,100.24,0,0,1,60.89,32,94.88,94.88,0,0,1,71,32.68l.15.06a17.58,17.58,0,0,0-20.56,0Z"/><path class="cls-3" d="M60.83,62a93.59,93.59,0,0,1-10.1-.74,17.56,17.56,0,0,0,20.21,0A97.63,97.63,0,0,1,60.83,62Z"/><path class="cls-3" d="M44.12,41.8s10.06-.61,16.76-.61,16.73.64,16.73.64h0a17.47,17.47,0,0,0-3-5.68h-.1s-4.72-1.47-13.71-1.47-13.82,1.47-13.82,1.47h0a17.18,17.18,0,0,0-3,5.66Z"/><path class="cls-3" d="M112.74,48.9h-9.57V34.23h4V45.28h5.58V48.9Z"/><path class="cls-3" d="M117.5,48.9h-4.21l6-14.67h3.65l6,14.67h-4.23L123.91,47h-5.64Zm3.59-9.55-1.77,4.54h3.53Z"/><path class="cls-3" d="M141,48.9h-4V34.23h6.88a5.22,5.22,0,0,1,3.36,1.29,4.48,4.48,0,0,1,1.3,1.67,5.23,5.23,0,0,1,.5,2.26,4.84,4.84,0,0,1-1.62,3.72,5.09,5.09,0,0,1-3.54,1.47H141V48.9Zm0-11V41h2.71a1.83,1.83,0,0,0,.74-.21c.43-.18.65-.64.65-1.37s-.22-1.23-.65-1.41a2.11,2.11,0,0,0-.76-.18Z"/><path class="cls-3" d="M154.64,48.9h-4V34.23h6.67A5.19,5.19,0,0,1,161,35.7a5,5,0,0,1,.85,6.11,4,4,0,0,1-1.82,1.66l3.66,5.43h-4.58l-3-4.56h-1.52Zm0-11v3.28h2.23a1.58,1.58,0,0,0,1.72-1.72,1.58,1.58,0,0,0-.4-1.13,1.33,1.33,0,0,0-1-.43Z"/><path class="cls-3" d="M169,48.9h-4V34.23h4Z"/><path class="cls-3" d="M175.22,48.9h-3.71V34.23h3.29l4.75,6.67,4.76-6.67h3.28V48.9h-3.7V41.13l-4.34,6-4.33-6Z"/><path class="cls-3" d="M194.06,48.9h-4V34.23h4Z"/><path class="cls-3" d="M203.4,48.9h-4v-11h-4V34.24h11.82v3.62H203.4Z"/><path class="cls-3" d="M212.65,48.9h-4V34.23h4Z"/><path class="cls-3" d="M223.68,48.9H220l-5.93-14.67h4.23l3.56,9,3.53-9h4.23Z"/><path class="cls-3" d="M231.23,48.9H227l6-14.67h3.66l6,14.67H238.4L237.65,47H232Zm3.6-9.55-1.77,4.54h3.53Z"/><g class="cls-4"><polygon class="cls-3" points="271.5 5.03 4.82 5.03 4.82 74.73 271.5 5.03"/></g><path class="cls-3" d="M271.87,5.5V74.26H6.3V5.5H271.87m1-1H5.3V75.26H272.87V4.5Z"/></svg>