<svg id="Layer_1" data-name="Layer 1" xmlns="http://www.w3.org/2000/svg" viewBox="0 0 276.32 79.76"><defs><style>.cls-1{fill:#ddb536;}.cls-2,.cls-3{fill:#fff;}.cls-2{fill-rule:evenodd;}.cls-4{opacity:0.1;}</style></defs><rect class="cls-1" width="276.32" height="79.76"/><polygon class="cls-2" points="93.08 16.76 93.08 62.81 82.78 62.81 82.78 65.23 95.5 65.23 95.5 14.34 40.38 14.34 40.38 65.23 53.1 65.23 53.1 62.81 42.8 62.81 42.8 16.76 93.08 16.76"/><path class="cls-3" d="M126.18,41.09l-1.58-1.65a6.73,6.73,0,0,1-2.9.62c-3.7,0-6.09-2.38-6.09-6.41a5.8,5.8,0,0,1,6.09-6.2,5.89,5.89,0,0,1,6.11,6.24A7.11,7.11,0,0,1,126.46,38l1.32,1.38Zm-3.59-7.17,1.25,1.3a5.82,5.82,0,0,0,.16-1.53c0-2-.89-3.31-2.33-3.31-1.73,0-2.25,1.79-2.25,3.31s.46,3.44,2.28,3.44a1.63,1.63,0,0,0,.59-.12L121,35.67Z"/><path class="cls-3" d="M129.58,27.76h3.81v7.17c0,1.19.23,2.2,1.8,2.2,1.37,0,1.78-.9,1.78-2.2V27.76h3.81v6.78c0,3.84-1.73,5.52-5.59,5.52-3.61,0-5.61-1.42-5.61-5.54Z"/><path class="cls-3" d="M143.14,39.74v-12H147v12Zm1.91-15.54h3.38l-2.78,2.47h-2.22Z"/><path class="cls-3" d="M157.05,34.3l-.15-2.73V27.76h3.66v12H157l-4.15-6.52L153,36v3.79h-3.65v-12h3.57Z"/><path class="cls-3" d="M162.17,27.76h10.68v3.15h-3.43v8.83H165.6V30.91h-3.43Z"/><path class="cls-3" d="M174.48,27.76h3.81v7.17c0,1.19.23,2.2,1.8,2.2,1.37,0,1.78-.9,1.78-2.2V27.76h3.81v6.78c0,3.84-1.73,5.52-5.59,5.52-3.61,0-5.61-1.42-5.61-5.54Z"/><path class="cls-3" d="M187.74,39.74v-12h5.61c3.35,0,5,1.58,5,4S196.82,36,193.48,36h-1.93v3.72Zm5.4-6.52c.89,0,1.53-.36,1.53-1.4s-1.22-1.26-2-1.26h-1.09v2.66Z"/><path class="cls-3" d="M199.72,39.74v-12h3.81V37h5.24v2.79Z"/><path class="cls-3" d="M210.5,39.74v-12H220v2.8h-5.67v1.71h4.8v2.8h-4.8V37h5.9v2.79Z"/><path class="cls-3" d="M144.84,57.32v-12h5.61c3.35,0,5,1.58,5,4s-1.49,4.21-4.84,4.21h-1.92v3.73Zm5.4-6.52c.89,0,1.54-.37,1.54-1.4s-1.23-1.27-2-1.27h-1.08V50.8Z"/><path class="cls-3" d="M156.82,57.32v-12h3.82v9.18h5.24v2.8Z"/><path class="cls-3" d="M167.51,45.34h3.82v7.17c0,1.18.22,2.2,1.79,2.2,1.37,0,1.78-.9,1.78-2.2V45.34h3.81v6.77c0,3.84-1.73,5.52-5.59,5.52-3.61,0-5.61-1.41-5.61-5.54Z"/><path class="cls-3" d="M187,48.82a1,1,0,0,0-.55-.82,2,2,0,0,0-1-.21c-.84,0-1.22.25-1.22.68,0,1.79,6.7.68,6.7,5,0,2.78-2.25,4.12-5.45,4.12s-5.08-1.84-5.16-4H184a1.33,1.33,0,0,0,.63,1,2,2,0,0,0,1.08.3c.95,0,1.58-.31,1.58-.88,0-1.81-6.69-.57-6.69-5.14,0-2.55,2.13-3.83,5-3.83,3.24,0,4.71,1.7,5,3.8Z"/><g id="X3DEOX"><path class="cls-3" d="M73.69,41.33c-.06.63-.11,1.09-.17,1.67l1.14-.75a10.93,10.93,0,0,0,0,1.91,8.5,8.5,0,0,0,.76,2.57,55.92,55.92,0,0,1,2.9,6.81c.38,1,.81,1.88,1.15,2.85a1.77,1.77,0,0,1-.6,2.09,2.38,2.38,0,0,1-2.51.24,2.21,2.21,0,0,1-.82-1.13,1.09,1.09,0,0,0-.82-.76A5.7,5.7,0,0,1,72,55.09c-.44-.45-.87-.91-1.27-1.39a.64.64,0,0,0-.89-.14,2.94,2.94,0,0,0-1.64,3.23,26.12,26.12,0,0,0,.92,3.58,13.8,13.8,0,0,1,.9,5.48,6.37,6.37,0,0,1-2.56,4.7,2.64,2.64,0,0,1-.39.27s-.32-.37-.35-.39l-6.57-6.94c-1.18-1.26-3.91-4.23-3.91-4.23h0a20.11,20.11,0,0,1,1.18-7A11.32,11.32,0,0,1,63.4,46a24,24,0,0,1,6.75-1.89,2,2,0,0,0,.89-.46c.54-.52,1-1.12,1.55-1.63A6.77,6.77,0,0,1,73.69,41.33Z"/></g><rect class="cls-3" x="57.9" y="22.96" width="3.07" height="15.71"/><rect class="cls-3" x="74.25" y="22.96" width="3.07" height="15.71"/><rect class="cls-3" x="66.25" y="18.9" width="3.07" height="16.51"/><g class="cls-4"><polygon class="cls-3" points="271.97 5.09 5.29 5.09 5.29 74.79 271.97 5.09"/></g><path class="cls-3" d="M271,6.09V74.85H6.29V6.09H271m1-1H5.29V75.85H272V5.09Z"/></svg>