<svg id="Layer_1" data-name="Layer 1" xmlns="http://www.w3.org/2000/svg" viewBox="0 0 276.32 79.76"><defs><style>.cls-1{fill:#c22021;}.cls-2,.cls-3{fill:#fff;}.cls-2{fill-rule:evenodd;}.cls-4{opacity:0.1;}</style></defs><rect class="cls-1" width="276.32" height="79.76"/><polygon class="cls-2" points="92.42 16.76 92.42 62.81 82.12 62.81 82.12 65.23 94.84 65.23 94.84 14.34 39.72 14.34 39.72 65.23 52.44 65.23 52.44 62.81 42.14 62.81 42.14 16.76 92.42 16.76"/><path class="cls-3" d="M67.05,48.29,52.42,56.81l14.8,8.53,14.57-8.53Zm4.42,9a6.08,6.08,0,0,1-3.19.68l-3.13-.12L68,59.47l-2,1.12-6.07-3.51,1.35-.78,6.68.15a2.68,2.68,0,0,0,1.37-.21c.39-.22.59-.63,0-1a2.32,2.32,0,0,0-2,0l-2-1.12a6.46,6.46,0,0,1,5.78,0C73.18,55.28,72.53,56.81,71.47,57.28Z"/><path class="cls-3" d="M66.17,29.4,51.35,38V55.2l14.78-8.53V29.4ZM58.08,47.33v-7L56.87,41V38.68l3.4-2V46Z"/><path class="cls-3" d="M82.83,37.87,68.05,29.4V46.74l14.78,8.54ZM77.25,47.92,75.7,44.47l-1.56,1.67-2.53-1.47,2.78-3.12-2.76-6.16L74.33,37l1.37,3.14,1.37-1.55,2.7,1.57L77,43.1l2.76,6.31Z"/><path class="cls-3" d="M153.82,35.93a7.64,7.64,0,0,0-10.28,0,6.52,6.52,0,0,0-.41,9.23c.13.14.27.28.41.41a7.33,7.33,0,0,0,5.13,2,7.57,7.57,0,0,0,3.18-.67L153,48.14,155.49,46l-1.07-1.2a6,6,0,0,0,1.55-4,6.41,6.41,0,0,0-2.15-4.83m-5.16,8.25a3.35,3.35,0,0,1-2.43-1,3.43,3.43,0,0,1,0-4.84,3.31,3.31,0,0,1,2.43-1,3.5,3.5,0,0,1,3.23,4.75l-1.43-1.57L148,42.65l1.33,1.43a3.75,3.75,0,0,1-.67,0"/><path class="cls-3" d="M165.85,41.32c0,2-.69,2.86-2.2,2.86s-2.21-.89-2.21-2.86V34.17H157.7v7.52a5.6,5.6,0,0,0,1.7,4.39,6.78,6.78,0,0,0,8.58,0,5.59,5.59,0,0,0,1.57-4.43V34.17h-3.7Z"/><rect class="cls-3" x="171.91" y="34.13" width="3.75" height="13.23"/><polygon class="cls-3" points="186.79 40.93 181.47 34.13 178.13 34.13 178.13 47.37 181.74 47.37 181.74 40.28 187.32 47.33 187.33 47.37 190.38 47.37 190.38 34.13 186.79 34.13 186.79 40.93"/><rect class="cls-3" x="192.87" y="34.13" width="3.75" height="13.23"/><polygon class="cls-3" points="202.83 42.24 208.48 42.24 208.48 39.12 202.83 39.12 202.83 37.53 208.9 37.53 208.9 34.13 199.09 34.13 199.09 47.37 209.04 47.37 209.04 44.02 202.83 44.02 202.83 42.24"/><polygon class="cls-3" points="214.88 34.13 211.13 34.13 211.13 47.37 219.84 47.37 219.84 43.95 214.88 43.95 214.88 34.13"/><path class="cls-3" d="M229.35,34.17H226l-5.4,13.23h3.95l.69-1.79h4.88l.67,1.7h4Zm-.29,8.58H226.2l1.43-3.68Z"/><polygon class="cls-3" points="116.02 34.13 112.27 34.13 112.27 47.37 120.98 47.37 120.98 43.95 116.02 43.95 116.02 34.13"/><path class="cls-3" d="M130.49,34.17h-3.4L121.7,47.36h3.94l.69-1.75h4.89l.67,1.7h4Zm-.28,8.58h-2.86l1.43-3.68Z"/><g class="cls-4"><polygon class="cls-3" points="271.38 4.94 4.71 4.94 4.71 74.64 271.38 4.94"/></g><path class="cls-3" d="M270.5,5.5V74.26H5.82V5.5H270.5m1-1H4.82V75.26H271.5V4.5Z"/></svg>