<svg id="Layer_1" data-name="Layer 1" xmlns="http://www.w3.org/2000/svg" viewBox="0 0 276.32 79.76"><defs><style>.cls-1{fill:#6b9eb2;}.cls-2,.cls-3{fill:#fff;}.cls-2{fill-rule:evenodd;}.cls-4{opacity:0.1;}</style></defs><rect class="cls-1" width="276.32" height="79.76"/><polygon class="cls-2" points="92.42 16.76 92.42 62.81 82.12 62.81 82.12 65.23 94.84 65.23 94.84 14.34 39.72 14.34 39.72 65.23 52.44 65.23 52.44 62.81 42.14 62.81 42.14 16.76 92.42 16.76"/><path class="cls-3" d="M112.35,47.54V34.6h9.88v3h-5.91v1.85h5v3h-5v2h6.15v3Z"/><path class="cls-3" d="M124.5,47.54V34.6h4v9.92h5.45v3Z"/><path class="cls-3" d="M150.56,48.48l-1.78-1.67a8.26,8.26,0,0,1-3.24.62c-4.15,0-6.83-2.41-6.83-6.48,0-3.81,2.77-6.28,6.83-6.28,4.27,0,6.85,2.79,6.85,6.31a6.71,6.71,0,0,1-1.53,4.33l1.49,1.4Zm-4-7.26,1.39,1.31a5.06,5.06,0,0,0,.18-1.55c0-2.07-1-3.35-2.61-3.35-1.93,0-2.51,1.82-2.51,3.35s.5,3.49,2.55,3.49a1.93,1.93,0,0,0,.65-.12L144.73,43Z"/><path class="cls-3" d="M154.5,34.6h4v7.74c0,1.28.24,2.38,1.87,2.38,1.43,0,1.85-1,1.85-2.38V34.6h4v7.31c0,4.15-1.81,6-5.83,6-3.76,0-5.84-1.53-5.84-6Z"/><path class="cls-3" d="M168.4,47.54V34.6h4V47.54Z"/><path class="cls-3" d="M182.66,41.66l-.15-2.95V34.6h3.89V47.54h-3.81l-4.43-7,.16,2.95v4.1h-3.9V34.6h3.81Z"/><path class="cls-3" d="M188.87,47.52V34.58h4V47.52Z"/><path class="cls-3" d="M207.42,47.58h-2.68l-.16-1.28a4.65,4.65,0,0,1-3.83,1.58c-3.24,0-6.16-2.14-6.16-6.65,0-4.14,2.55-7,6.66-7,3.05,0,5.5,1.62,6,4.8h-3.95a2.08,2.08,0,0,0-2.13-1.63c-1.64,0-2.42,1.51-2.42,3.79,0,1.84.56,3.51,2.66,3.51a2.27,2.27,0,0,0,2.14-1.5h-1.84v-2.8h5.7Z"/><path class="cls-3" d="M223.5,41c0,4.4-3.08,6.88-7.06,6.88-4.22,0-7-2.52-7-6.92,0-4.06,2.86-6.71,7-6.71C221.25,34.25,223.5,37.58,223.5,41Zm-9.69,0c0,1.65.52,3.72,2.63,3.72,1.91,0,2.66-1.58,2.66-3.72,0-1.77-.75-3.64-2.69-3.58S213.81,39.36,213.81,41Z"/><path class="cls-3" d="M225.29,47.54V34.6h4v9.92h5.45v3Z"/><path class="cls-3" d="M66.4,39.87V35s-2.48-1.16-5.23-2.33a10.09,10.09,0,0,0-4.87,3.24L56,42l5.1,1.58Z"/><polygon class="cls-3" points="54.47 54.63 59.27 56.3 62.36 51.44 60.18 44.99 55.63 43.58 52.12 48.2 54.47 54.63"/><path class="cls-3" d="M54.31,42.43l.43-5.53s-3.11,2.18-3.93,8.1a7.23,7.23,0,0,0,.46,2Z"/><path class="cls-3" d="M53.19,56.69V55.15l-2.51-6.8S50.37,54,53.19,56.69Z"/><path class="cls-3" d="M59.24,58l-4.77-2-.22,2.55a18.64,18.64,0,0,0,5.68,4.53c1-.71,1.74-1.32,1.74-1.32Z"/><path class="cls-3" d="M67.93,39.87l5.34,3.71L78.37,42,78,35.93a10.09,10.09,0,0,0-4.87-3.24C70.41,33.86,67.93,35,67.93,35Z"/><polygon class="cls-3" points="71.97 51.44 75.06 56.3 79.86 54.63 82.21 48.2 78.7 43.58 74.14 44.99 71.97 51.44"/><path class="cls-3" d="M83.06,47a7.23,7.23,0,0,0,.46-2c-.83-5.92-3.93-8.1-3.93-8.1L80,42.43Z"/><path class="cls-3" d="M83.65,48.35l-2.51,6.8v1.54C84,54,83.65,48.35,83.65,48.35Z"/><path class="cls-3" d="M75.08,58l-2.43,3.75s.74.61,1.75,1.32a18.64,18.64,0,0,0,5.68-4.53L79.86,56Z"/><path class="cls-3" d="M67.16,63H62.71L61.58,64a11.67,11.67,0,0,0,5.52,1.08h.12A11.75,11.75,0,0,0,72.75,64L71.61,63Z"/><polygon class="cls-3" points="63.48 61.63 67.16 61.63 70.85 61.63 73.7 57.2 70.69 52.27 67.16 52.27 63.64 52.27 60.63 57.2 63.48 61.63"/><path class="cls-3" d="M71.33,31.77a18.69,18.69,0,0,0-4.17-.66,18.68,18.68,0,0,0-4.16.66l4.16,1.9Z"/><polygon class="cls-3" points="70.53 50.73 72.5 44.94 67.16 41.25 61.83 44.94 63.8 50.73 67.16 50.73 70.53 50.73"/><g class="cls-4"><polygon class="cls-3" points="271.38 5.06 4.71 5.06 4.71 74.75 271.38 5.06"/></g><path class="cls-3" d="M270.5,5.5V74.26H5.82V5.5H270.5m1-1H4.82V75.26H271.5V4.5Z"/></svg>