<svg id="Layer_1" data-name="Layer 1" xmlns="http://www.w3.org/2000/svg" viewBox="0 0 114.67 37.17"><defs><style>.cls-1{font-size:20px;fill:#fff;font-family:Montserrat-Bold, Montserrat;font-weight:700;}.cls-2{fill:#fffffe;fill-rule:evenodd;}</style></defs><text class="cls-1" transform="translate(46.96 27.37)">INICIO</text><path class="cls-2" d="M37.55,17.46,19.9.7a1.14,1.14,0,0,0-1.57,0L.68,17.46a1.14,1.14,0,1,0,1.57,1.65l16.87-16L36,19.11a1.14,1.14,0,0,0,1.56-1.65Z"/><path class="cls-2" d="M32.32,18.65a.57.57,0,0,0-.19-.42l-.4-.36h0L19.52,6h0a.57.57,0,0,0-.79,0L6.38,17.86l-.26.26a.55.55,0,0,0-.21.43V36.21a.57.57,0,0,0,.57.57h8.75V28a.56.56,0,0,1,.57-.57h6.64A.57.57,0,0,1,23,28v8.75h8.74a.57.57,0,0,0,.57-.57V18.65Z"/></svg>