<svg id="Layer_1" data-name="Layer 1" xmlns="http://www.w3.org/2000/svg" xmlns:xlink="http://www.w3.org/1999/xlink" viewBox="0 0 111.63 90.7"><defs><style>.cls-1{fill:none;}.cls-2{clip-path:url(#clip-path);}.cls-3{opacity:0.05;}.cls-4{fill:#002c6d;}</style><clipPath id="clip-path"><rect class="cls-1" x="-14.6" y="-14.51" width="140.36" height="105.21"/></clipPath></defs><g class="cls-2"><g class="cls-3"><path class="cls-4" d="M55.74.54A55.29,55.29,0,1,0,111,55.83,55.3,55.3,0,0,0,55.74.54Zm5.39,11.77A26.65,26.65,0,1,1,34.48,39,26.64,26.64,0,0,1,61.13,12.31Zm-5,86.54C32.15,98.85,12,77.72,12,54.57c0-14.45,8.61-27.35,20.91-35A60.15,60.15,0,0,0,29.5,24.8c-2,3.75-3.76,9.33-3.76,17.5,0,18.1,15.52,37.78,35.77,37.78,15.86,0,32.73-12.3,37.91-26.87.06,1.26.09,2.52.09,3.85C99.51,80.33,80.08,98.85,56.11,98.85Z"/></g></g></svg>