<?xml version="1.0" encoding="utf-8"?>
<!-- Generator: Adobe Illustrator 24.2.0, SVG Export Plug-In . SVG Version: 6.00 Build 0)  -->
<svg version="1.1" id="Layer_1" xmlns="http://www.w3.org/2000/svg" xmlns:xlink="http://www.w3.org/1999/xlink" x="0px" y="0px"
	 viewBox="0 0 103.6 78.7" style="enable-background:new 0 0 103.6 78.7;" xml:space="preserve">
<style type="text/css">
	.st0{opacity:6.000000e-02;}
	.st1{fill:#DC3F47;}
</style>
<g class="st0">
	<g>
		<path class="st1" d="M103.3,55.5C103,27.3,80.1,4.2,51.9,4.1h-0.6C22.9,4.3,0.1,27.6,0.3,56c0.1,8.1,2.1,15.8,5.5,22.6h92
			C101.3,71.7,103.3,63.9,103.3,55.5z M30,19.3c7.2-1,15.2-1.4,22.5-1.5c6.9,0,13.9,0.5,20.8,1.5c3.8,2.3,7.2,5.3,10.2,8.7
			c-21-4.2-42.6-4.2-63.6,0C22.7,24.4,26.1,21.5,30,19.3z M11.9,42.7C22.6,42,36.8,41,52.5,41c14.3,0,27.3,0.7,39.6,1.7
			c0.7,2.4,1.2,4.8,1.5,7.3c-12.8-1-26.5-2-41.3-2c-16.4,0-31.7,1-42.3,1.7C10.6,47.4,11.2,45,11.9,42.7z M91.6,69.8
			c-13.1,1-26.3,1.4-39.2,1.4c-16.7,0-30.5-0.7-40.1-1.4c-0.8-2.3-1.5-4.6-1.9-7c9.6,0.7,24.2,1.4,42,1.4c13.3,0,27.6-0.5,41.1-1.7
			C93.1,65,92.5,67.5,91.6,69.8z"/>
	</g>
</g>
</svg>
