<svg id="Layer_1" data-name="Layer 1" xmlns="http://www.w3.org/2000/svg" xmlns:xlink="http://www.w3.org/1999/xlink" viewBox="0 0 103.11 86.59"><defs><style>.cls-1{fill:none;}.cls-2{clip-path:url(#clip-path);}.cls-3{opacity:0.07;}.cls-4{fill:#3969c9;fill-rule:evenodd;}</style><clipPath id="clip-path"><rect class="cls-1" x="-8.72" y="-7.91" width="120.33" height="93.94"/></clipPath></defs><g class="cls-2"><g class="cls-3"><path class="cls-4" d="M59.94,11.37H54.17A344.33,344.33,0,0,1,55.9,46.76h9.23C64.88,32.44,62.91,19.78,59.94,11.37Z"/><path class="cls-4" d="M31.1,11.37c-7,8.41-11.53,21.07-12.13,35.39H28.2c.43-14.32,3.7-27,8.67-35.39Z"/><path class="cls-4" d="M42.63,11.37c-3,8.41-4.94,21.07-5.19,35.39h9.23A347.22,347.22,0,0,1,48.4,11.37Z"/><path class="cls-4" d="M102.09,46.76A48.66,48.66,0,0,0,83,11.37H76.67c8.73,8.41,14.49,21.07,15.24,35.39Z"/><path class="cls-4" d="M54.17,88.44h5.77c3-8.42,4.94-21.08,5.19-35.4H55.9A344.71,344.71,0,0,1,54.17,88.44Z"/><path class="cls-4" d="M37.44,53c.25,14.32,2.21,27,5.19,35.4H48.4A347.6,347.6,0,0,1,46.67,53Z"/><path class="cls-4" d="M19,53c.6,14.32,5.18,27,12.12,35.4h5.77C31.9,80,28.63,67.36,28.2,53Z"/><path class="cls-4" d="M.43,53a48.62,48.62,0,0,0,19.18,35.4H25.9C17.17,80,11.41,67.36,10.66,53Z"/><path class="cls-4" d="M91.91,53c-.75,14.32-6.51,27-15.24,35.4H83A48.62,48.62,0,0,0,102.14,53Z"/><path class="cls-4" d="M65.71,88.44h5.77C78.42,80,83,67.36,83.6,53H74.37C73.94,67.36,70.67,80,65.71,88.44Z"/><path class="cls-4" d="M71.47,11.37H65.71c5,8.41,8.23,21.07,8.66,35.39H83.6C83,32.44,78.42,19.78,71.47,11.37Z"/><path class="cls-4" d="M25.9,11.37H19.56A48.66,48.66,0,0,0,.48,46.76H10.66C11.41,32.44,17.17,19.78,25.9,11.37Z"/><path class="cls-4" d="M73.68,5.67h.09a52.49,52.49,0,0,0-45,0H73.68Z"/></g></g></svg>