<svg id="Layer_1" data-name="Layer 1" xmlns="http://www.w3.org/2000/svg" viewBox="0 0 273.46 78.94"><defs><style>.cls-1{fill:#fff;}.cls-2,.cls-5{fill:#748525;}.cls-3{opacity:0.03;}.cls-4{fill:#1d1d1b;}.cls-5{fill-rule:evenodd;}</style></defs><rect class="cls-1" x="0.5" y="0.5" width="272.46" height="77.94"/><path class="cls-2" d="M272.46,1V77.94H1V1H272.46m1-1H0V78.94H273.46V0Z"/><path class="cls-2" d="M57.9,38.33c0-.21,0-.41,0-.63v-.08h0A5.52,5.52,0,0,0,56,33.12a6,6,0,0,0-4.39-1.52,4.86,4.86,0,0,0-3.5,1.49A5.21,5.21,0,0,0,46.38,37a5.84,5.84,0,0,0,2.07,4.67,5.45,5.45,0,0,0,4,1.43h0l1,0c.56,0,1.73-.13,2.39-.14s.36,0,.8,0c1,0,1.2.24,1.2.24l.08-.08h0s-.24-.24-.24-1.2a24.6,24.6,0,0,1,.16-3.18S57.88,38.51,57.9,38.33Zm-.07.45,0-.08C57.83,38.76,57.81,38.83,57.83,38.78Z"/><path class="cls-2" d="M60,38.7a24.6,24.6,0,0,1,.16,3.18c0,1-.24,1.2-.24,1.2h0l.08.08s.24-.24,1.19-.24c.45,0,.22,0,.8,0s1.83.14,2.39.14l1,0h0a5.42,5.42,0,0,0,4-1.43A5.83,5.83,0,0,0,71.49,37a5.22,5.22,0,0,0-1.76-3.89,4.84,4.84,0,0,0-3.5-1.49,6,6,0,0,0-4.39,1.52,5.52,5.52,0,0,0-1.91,4.5h0v.08c0,.22,0,.42,0,.63A2.61,2.61,0,0,0,60,38.7Zm0,0,0,.07S60,38.76,60,38.71Z"/><path class="cls-2" d="M57.86,49a24.75,24.75,0,0,1-.16-3.19c0-1,.24-1.2.24-1.2h0l-.08-.08s-.24.24-1.2.24h-.8c-.66,0-1.83-.14-2.39-.14l-1,0h0a5.46,5.46,0,0,0-4,1.44,5.85,5.85,0,0,0-2.07,4.66,5.28,5.28,0,0,0,1.75,3.9,4.85,4.85,0,0,0,3.5,1.48A6,6,0,0,0,56,54.56a5.55,5.55,0,0,0,1.92-4.51h0V50c0-.21,0-.42,0-.63S57.87,49,57.86,49Zm0,0a.14.14,0,0,1,0-.07S57.83,48.91,57.85,49Z"/><path class="cls-2" d="M60,49.34c0,.21,0,.42,0,.63V50h0a5.53,5.53,0,0,0,1.91,4.51,6,6,0,0,0,4.39,1.51,4.83,4.83,0,0,0,3.5-1.48,5.22,5.22,0,0,0,1.76-3.9,5.58,5.58,0,0,0-2-4.58,5.7,5.7,0,0,0-4.06-1.52h0l-1,0c-.56,0-1.73.14-2.39.14h-.8c-1,0-1.19-.24-1.19-.24l-.08.08h0s.24.24.24,1.2A24.75,24.75,0,0,1,60,49,2.21,2.21,0,0,0,60,49.34ZM60,48.9,60,49C60,48.91,60.06,48.84,60,48.9Z"/><path class="cls-2" d="M59.85,60.14a12.61,12.61,0,0,0,.64-5,1.52,1.52,0,0,0-3,0,.91.91,0,0,0,0,.17,11.06,11.06,0,0,1-.33,3.42,11.58,11.58,0,0,1-1.4,2.77,1.37,1.37,0,0,0-.15.21h0a1.48,1.48,0,0,0-.2.75A1.5,1.5,0,0,0,56.9,64,1.49,1.49,0,0,0,58,63.52h0a0,0,0,0,1,0,0,1.46,1.46,0,0,0,.17-.24A14.18,14.18,0,0,0,59.85,60.14Z"/><g class="cls-3"><polygon class="cls-4" points="7.04 73.22 268.93 73.22 268.93 4.78 7.04 73.22"/></g><polygon class="cls-5" points="81.06 19.42 81.06 59.8 72.03 59.8 72.03 61.92 83.18 61.92 83.18 17.3 34.84 17.3 34.84 61.92 46 61.92 46 59.8 36.96 59.8 36.96 19.42 81.06 19.42"/><path class="cls-2" d="M116.33,46.15h-7.44V31.34h6.89a3.94,3.94,0,0,1,2.82,1.08,3.51,3.51,0,0,1,1.15,2.7,2.94,2.94,0,0,1-1.9,3,3.62,3.62,0,0,1,2.2,1.26,3.7,3.7,0,0,1,.77,2.41,4.15,4.15,0,0,1-1.29,3.14A4.33,4.33,0,0,1,116.33,46.15Zm-3.4-11.54v2.64h1.95a1.18,1.18,0,0,0,.91-.37,1.37,1.37,0,0,0,.34-1,1.29,1.29,0,0,0-.36-.93,1.19,1.19,0,0,0-.89-.37Zm0,5.4v2.83h2.51a1.46,1.46,0,0,0,1.08-.42,1.38,1.38,0,0,0,.42-1,1.27,1.27,0,0,0-.42-1,1.53,1.53,0,0,0-1.11-.4Z"/><path class="cls-2" d="M138.36,38.8a7.22,7.22,0,0,1-2.4,5.42,8.59,8.59,0,0,1-11.55,0,7.36,7.36,0,0,1,0-10.84,8.54,8.54,0,0,1,11.55,0A7.12,7.12,0,0,1,138.36,38.8Zm-12.21,0A4,4,0,1,0,133,36a3.79,3.79,0,0,0-2.85-1.21A3.83,3.83,0,0,0,127.34,36,3.87,3.87,0,0,0,126.15,38.8Z"/><path class="cls-2" d="M144.08,46.15h-3.87V31.34h3.61l6.2,7.94V31.34h3.87V46.15H150.6l-6.52-8.27v8.27Z"/><path class="cls-2" d="M172.08,38.8a7.25,7.25,0,0,1-2.4,5.42,8.61,8.61,0,0,1-11.56,0,7.36,7.36,0,0,1,0-10.84,8.55,8.55,0,0,1,11.56,0A7.12,7.12,0,0,1,172.08,38.8Zm-12.21,0A4,4,0,1,0,166.75,36a3.78,3.78,0,0,0-2.84-1.21,4.1,4.1,0,0,0-4,4.06Z"/><path class="cls-2" d="M183.6,46.15h-9.67V31.34h4V42.5h5.63v3.65Z"/><path class="cls-2" d="M200.57,38.8a7.22,7.22,0,0,1-2.4,5.42,8.61,8.61,0,0,1-11.56,0,7.36,7.36,0,0,1,0-10.84,8.55,8.55,0,0,1,11.56,0A7.12,7.12,0,0,1,200.57,38.8Zm-12.22,0A4.05,4.05,0,1,0,195.24,36a3.8,3.8,0,0,0-2.85-1.21A3.87,3.87,0,0,0,189.54,36,3.91,3.91,0,0,0,188.35,38.8Z"/><path class="cls-2" d="M209,46.15h-4V35h-4V31.35h11.93V35H209Z"/><path class="cls-2" d="M229.7,38.8a7.22,7.22,0,0,1-2.4,5.42,8.61,8.61,0,0,1-11.56,0,7.36,7.36,0,0,1,0-10.84,8.55,8.55,0,0,1,11.56,0A7.12,7.12,0,0,1,229.7,38.8Zm-12.21,0A4,4,0,1,0,224.37,36a3.8,3.8,0,0,0-2.85-1.21,4.08,4.08,0,0,0-4,4.06Z"/></svg>