<svg id="Layer_1" data-name="Layer 1" xmlns="http://www.w3.org/2000/svg" viewBox="0 0 273.46 78.94"><defs><style>.cls-1{fill:#fff;}.cls-2{fill:#ea8500;}.cls-3{opacity:0.03;}.cls-4{fill:#1d1d1b;}</style></defs><rect class="cls-1" x="0.5" y="0.5" width="272.46" height="77.94"/><path class="cls-2" d="M272.46,1V77.94H1V1H272.46m1-1H0V78.94H273.46V0Z"/><g class="cls-3"><polygon class="cls-4" points="7.04 73.48 268.93 73.48 268.93 5.04 7.04 73.48"/></g><path class="cls-2" d="M64.06,30.28v-5.4h0C64,22,57.89,19.7,50.35,19.7S36.69,22,36.64,24.88h0v5.4A29.91,29.91,0,0,0,64.06,30.28Z"/><path class="cls-2" d="M67.85,34c-.42,0-.84,0-1.24.06h0c-.41,0-.83-.06-1.24-.06a11.26,11.26,0,0,0-1.31.07h0V32a29.91,29.91,0,0,1-27.43,0v5.4A30,30,0,0,0,54.16,40.5a12.37,12.37,0,0,0-.87,1.84,30,30,0,0,1-16.66-3.18v5.4a30,30,0,0,0,15.88,3.25c0-.08,0-.16,0-.25a12.5,12.5,0,0,0,.33,2.3,30,30,0,0,1-16.2-3.23v3.46a3.38,3.38,0,0,0,1.85,2.84,30.17,30.17,0,0,0,16.85,2,12.89,12.89,0,0,0,10,4.8c.41,0,.83,0,1.24-.06h0c.4,0,.82.06,1.24.06a12.89,12.89,0,0,0,0-25.78Zm5.4,20.77a11.15,11.15,0,1,1,3.26-7.88A11.07,11.07,0,0,1,73.25,54.74Z"/><path class="cls-1" d="M50.35,28.48a27.08,27.08,0,0,1-8.82-1.32,11,11,0,0,1-1.87-.85h0a1.61,1.61,0,0,1-.79-1.39,1.58,1.58,0,0,1,.79-1.39,11,11,0,0,1,1.87-.85,27.08,27.08,0,0,1,8.82-1.32,27.06,27.06,0,0,1,8.81,1.32,11,11,0,0,1,1.87.85,1.58,1.58,0,0,1,.79,1.39A1.61,1.61,0,0,1,61,26.31a11,11,0,0,1-1.87.85A27.06,27.06,0,0,1,50.35,28.48Zm0-6.27a26.56,26.56,0,0,0-8.54,1.26,10,10,0,0,0-1.72.79.76.76,0,0,0,0,1.32h0a10,10,0,0,0,1.72.78,26.27,26.27,0,0,0,8.54,1.27,26.25,26.25,0,0,0,8.53-1.27,10,10,0,0,0,1.72-.78.76.76,0,0,0,0-1.32,10,10,0,0,0-1.72-.79A26.54,26.54,0,0,0,50.35,22.21Z"/><path class="cls-2" d="M70.15,52.31l-3.79-3.8a2,2,0,0,0,.28-1,2,2,0,0,0-1.27-1.89V37.81a.92.92,0,0,0-1.78,0v7.92a2,2,0,0,0,1,3.79l.23,0,4.06,4.06a.93.93,0,0,0,1.25-1.25Z"/><path class="cls-2" d="M97.38,46.75V33.27h5.48c2.58,0,4.63.72,4.63,3.39A3.66,3.66,0,0,1,106,39.6a3,3,0,0,1,1.91,3.09c0,3-2,4.06-4.94,4.06Zm3.76-10.33v2.25h1.56A1.14,1.14,0,0,0,104,37.49c0-1.05-.73-1.07-1.53-1.07Zm0,4.7v2.49h1.64c.92,0,1.62-.23,1.62-1.24,0-1.18-.87-1.25-2.07-1.25Z"/><path class="cls-2" d="M121.27,39.94c0,4.58-2.63,7.17-6,7.17-3.6,0-6-2.62-6-7.21,0-4.23,2.43-7,6-7C119.34,32.92,121.27,36.38,121.27,39.94Zm-8.26,0c0,1.72.44,3.87,2.24,3.87,1.62,0,2.26-1.64,2.26-3.87,0-1.84-.64-3.78-2.29-3.73S113,38.23,113,39.94Z"/><path class="cls-2" d="M122.39,33.27H132.9v3.54h-3.38v9.94h-3.76V36.81h-3.37Z"/><path class="cls-2" d="M134.6,46.75V33.27H144v3.15h-5.59v1.93h4.73v3.14h-4.73v2.12h5.81v3.14Z"/><path class="cls-2" d="M152,37.19a1.19,1.19,0,0,0-.54-.92,1.79,1.79,0,0,0-1-.24c-.83,0-1.19.28-1.19.76,0,2,6.59.77,6.59,5.68,0,3.12-2.21,4.64-5.37,4.64a4.78,4.78,0,0,1-5.08-4.51H149a1.58,1.58,0,0,0,.62,1.06,1.84,1.84,0,0,0,1.07.34c.94,0,1.56-.36,1.56-1,0-2-6.59-.64-6.59-5.79,0-2.86,2.1-4.3,5-4.3a4.49,4.49,0,0,1,4.9,4.27Z"/><path class="cls-2" d="M161.86,46.75,166,33.27h3.82l4.11,13.48h-3.74L169.71,45H166l-.43,1.78Zm6-9.41-1.16,4.83h2.37Z"/><path class="cls-2" d="M182.35,38.42c-.12-1.4-.86-2.21-2-2.21s-2.12,1.33-2.12,3.93c0,1.89.35,3.67,2.26,3.67,1.21,0,1.78-1,1.93-2.28H186c-.33,3.48-2.45,5.58-5.48,5.58-3.79,0-6.08-2.74-6.08-7.12s2.52-7.07,5.72-7.07c3.5,0,5.46,2,5.76,5.5Z"/><path class="cls-2" d="M187,33.27h10.51v3.54H194.1v9.94h-3.76V36.81H187Z"/><path class="cls-2" d="M199.18,46.75V33.27h3.76V46.75Z"/><path class="cls-2" d="M204.52,33.27h3.79l2,9,2.09-9h3.79l-4,13.48h-3.78Z"/><path class="cls-2" d="M229.2,39.94c0,4.58-2.63,7.17-6,7.17-3.6,0-6-2.62-6-7.21,0-4.23,2.43-7,6-7C227.27,32.92,229.2,36.38,229.2,39.94Zm-8.27,0c0,1.72.45,3.87,2.25,3.87,1.62,0,2.26-1.64,2.26-3.87,0-1.84-.64-3.78-2.29-3.73S220.93,38.23,220.93,39.94Z"/><path class="cls-2" d="M236.91,37.19a1.2,1.2,0,0,0-.55-.92,1.79,1.79,0,0,0-1-.24c-.82,0-1.19.28-1.19.76,0,2,6.59.77,6.59,5.68,0,3.12-2.21,4.64-5.36,4.64a4.77,4.77,0,0,1-5.08-4.51h3.59a1.55,1.55,0,0,0,.63,1.06,1.78,1.78,0,0,0,1.06.34c.94,0,1.56-.36,1.56-1,0-2-6.59-.64-6.59-5.79,0-2.86,2.1-4.3,5-4.3a4.49,4.49,0,0,1,4.9,4.27Z"/></svg>