<svg id="Layer_1" data-name="Layer 1" xmlns="http://www.w3.org/2000/svg" viewBox="0 0 273.46 78.94"><defs><style>.cls-1{fill:#fff;}.cls-2{fill:#445aa0;}.cls-3{opacity:0.03;}.cls-4{fill:#1d1d1b;}</style></defs><rect class="cls-1" x="0.5" y="0.5" width="272.46" height="77.94"/><path class="cls-2" d="M272.46,1V77.94H1V1H272.46m1-1H0V78.94H273.46V0Z"/><g class="cls-3"><polygon class="cls-4" points="5.89 73.51 267.78 73.51 267.78 5.07 5.89 73.51"/></g><path class="cls-1" d="M43.87,38.42h0L46,30.79h0l-.53-3.18h0L45,27l-.06-.08a18.42,18.42,0,0,0-4,11.56A19.45,19.45,0,0,0,41,40.67l.72-.08,0-.05.07-.06.48-.49Zm9.28-8.58,1.68-1.44,3.64-3.11-.28-2.41L58,21.38h0l-7.91,1.87h0L46,27.58l.49,3Zm5-9,3.56-.23,2-.14A18.67,18.67,0,0,0,59.43,20,18.45,18.45,0,0,0,50,22.56l.12.17Zm12.17,4.34.42,0h0l1.76.15a18.52,18.52,0,0,0-7-4.37l1.8,1.56ZM55.82,37.47,63,40.09h0l.28-.27,5.13-4.9h0l-1.87-6.75-.24-.08L58.77,25.7l0,0-5.17,4.43,1.82,6.2.31,1.07.12,0ZM48.54,52.9h0L46.73,52a18.8,18.8,0,0,0,2.63,2.06L49,53.5ZM70.15,25.66h0L68.37,27l-1.33,1,.13.47,1.75,6.32h0L74.15,39l2.2-2h0l0-.53v0L76,30.74l0-.73A18.36,18.36,0,0,0,73,25.91h0l-2.65-.23Zm6.46,11.88,0-.06L75,38.9l-.65.6L72.55,45l-.67,2h0l.53,3.62h0l1.18-.2A18.48,18.48,0,0,0,78,39.09ZM48.72,43.31h0v-.05l-4.64-4.32L42.43,40.6l-.15.17L42,44.83a18.58,18.58,0,0,0,3.66,6.09h0l3,1.47h0l2.22-2.06.08-.08-1.27-3.94Zm22.69,4-.17,0-6.69.91-.29.24-5,4.26.37.84,1,2.32h0l1.9.88h0a18.23,18.23,0,0,0,4.17-1.22l1.46-1.29L71.94,51h0l-.53-3.64ZM57.75,57c.55.05,1.12.07,1.68.07a19.82,19.82,0,0,0,2.19-.12l-1.21-.57Zm1.11-4.56.07-.06.12-.1h0l4.56-3.89h0l.27-.23.27-.22-1.41-7.37-3.52-1.29-3.85-1.41L49.15,43l2.3,7.16,6.51,2Z"/><path class="cls-2" d="M59.43,18.89A19.61,19.61,0,1,0,79,38.5,19.61,19.61,0,0,0,59.43,18.89Zm14.2,31.54-1.18.2h0L71.88,47h0l.67-2,1.83-5.49.65-.6,1.53-1.42,0,.06L78,39.09A18.48,18.48,0,0,1,73.63,50.43ZM62.54,56.78h0l-1.9-.88h0l-1-2.32-.37-.84,5-4.26.29-.24,6.69-.91.17,0h0L71.94,51h0l-3.77,3.32-1.46,1.29A18.23,18.23,0,0,1,62.54,56.78ZM46.73,52l1.81.89h0l.42.6.4.57A18.8,18.8,0,0,1,46.73,52Zm1.93.38h0l-3-1.47h0A18.58,18.58,0,0,1,42,44.83l.28-4.06.15-.17,1.64-1.66,4.64,4.32v.05h0l1,3L51,50.25l-.08.08ZM41,40.67a19.45,19.45,0,0,1-.13-2.17,18.42,18.42,0,0,1,4-11.56L45,27l.51.59h0L46,30.79h0l-2.17,7.63h0L42.33,40l-.48.49-.07.06,0,.05Zm9.09-17.43h0L58,21.37h0l.17,1.5.28,2.41L54.83,28.4l-1.68,1.44-6.64.69-.49-3ZM59.43,20a18.67,18.67,0,0,1,4.26.49l-2,.14-3.56.23-8.07,1.91L50,22.56A18.45,18.45,0,0,1,59.43,20ZM73,25.91A18.36,18.36,0,0,1,75.92,30l0,.73.35,5.68v0l0,.53h0l-2.2,2-5.23-4.17h0l-1.75-6.32L67,28.06l1.33-1,1.78-1.37h0l.24,0,2.65.23ZM55.7,37.42l-.31-1.07-1.82-6.2,5.17-4.43,0,0,7.53,2.39.24.08,1.87,6.75h0l-5.13,4.9-.28.27h0l-7.18-2.62h0Zm15-12.22h0l-.42,0-3-2.62L65.5,21a18.52,18.52,0,0,1,7,4.37ZM49.15,43l6.22-5.12,3.85,1.41,3.52,1.29,1.41,7.37-.27.22-.27.23h0l-4.56,3.89h0l-.12.1-.07.06-.9-.27-6.51-2ZM60.41,56.35l1.21.57a19.82,19.82,0,0,1-2.19.12c-.56,0-1.13,0-1.68-.07Z"/><path class="cls-2" d="M99.64,29.34a2,2,0,0,0-2.07-2c-1.34,0-2.15,1.22-2.15,3.61,0,1.73.36,3.37,2.3,3.37,1.23,0,1.81-.92,2-2.1h3.67a5.33,5.33,0,0,1-5.57,5.12c-3.85,0-6.17-2.51-6.17-6.53s2.55-6.49,5.8-6.49c3.56,0,5.55,1.87,5.86,5.05Z"/><path class="cls-2" d="M105.07,37V24.62h3.81V34.1h5.24V37Z"/><path class="cls-2" d="M114.81,37,119,24.62h3.88L127,37h-3.8l-.45-1.63H119L118.54,37Zm6.08-8.64-1.18,4.43h2.41Z"/><path class="cls-2" d="M134.41,28.21a1.09,1.09,0,0,0-.55-.85,2,2,0,0,0-1-.22c-.84,0-1.21.26-1.21.7,0,1.86,6.7.71,6.7,5.21,0,2.87-2.25,4.26-5.45,4.26s-5.08-1.91-5.16-4.14h3.65a1.42,1.42,0,0,0,.63,1,2.09,2.09,0,0,0,1.09.31c.95,0,1.58-.33,1.58-.91,0-1.88-6.69-.59-6.69-5.31,0-2.63,2.13-3.95,5-3.95,3.24,0,4.71,1.75,5,3.92Z"/><path class="cls-2" d="M140.12,37V24.62h3.82V37Z"/><path class="cls-2" d="M146.38,37V24.62h9.06V27.5H150.2v2.25h4.17v2.89H150.2V37Z"/><path class="cls-2" d="M157.21,37V24.62H161V37Z"/><path class="cls-2" d="M170.66,29.34a2,2,0,0,0-2.07-2c-1.34,0-2.15,1.22-2.15,3.61,0,1.73.36,3.37,2.3,3.37,1.23,0,1.81-.92,2-2.1h3.67a5.32,5.32,0,0,1-5.56,5.12c-3.85,0-6.18-2.51-6.18-6.53s2.55-6.49,5.8-6.49c3.56,0,5.55,1.87,5.86,5.05Z"/><path class="cls-2" d="M175,37l4.17-12.36h3.88L187.26,37h-3.8L183,35.35h-3.8L178.77,37Zm6.08-8.64-1.18,4.43h2.41Z"/><path class="cls-2" d="M195.84,29.34a2,2,0,0,0-2.07-2c-1.34,0-2.15,1.22-2.15,3.61,0,1.73.35,3.37,2.3,3.37,1.22,0,1.81-.92,2-2.1h3.67A5.32,5.32,0,0,1,194,37.31c-3.85,0-6.18-2.51-6.18-6.53s2.56-6.49,5.81-6.49c3.55,0,5.54,1.87,5.85,5.05Z"/><path class="cls-2" d="M201.26,37V24.62h3.82V37Z"/><path class="cls-2" d="M219.17,30.73c0,4.21-2.67,6.58-6.12,6.58-3.65,0-6.09-2.41-6.09-6.61,0-3.89,2.47-6.41,6.09-6.41C217.21,24.29,219.17,27.47,219.17,30.73Zm-8.4,0c0,1.58.46,3.56,2.28,3.56,1.65,0,2.3-1.52,2.3-3.56,0-1.68-.65-3.47-2.33-3.42S210.77,29.17,210.77,30.73Zm2.28-9.79h3.38l-2.78,2.54h-2.21Z"/><path class="cls-2" d="M228.65,31.37l-.15-2.82V24.62h3.66V37h-3.58l-4.15-6.73.14,2.82V37h-3.65V24.62h3.57Z"/><path class="cls-2" d="M143.09,57.59V45.22h3.82V54.7h5.24v2.89Z"/><path class="cls-2" d="M157.62,57.59V45.22h9.06v2.89h-5.24v2.25h4.17v2.88h-4.17v4.35Z"/><path class="cls-2" d="M171.91,57.59V45.22h5.61c3.34,0,5,1.63,5,4.18s-1.49,4.34-4.83,4.34h-1.93v3.85Zm5.4-6.73c.89,0,1.53-.38,1.53-1.45s-1.23-1.3-2-1.3h-1.09v2.75Z"/></svg>