<svg id="Layer_1" data-name="Layer 1" xmlns="http://www.w3.org/2000/svg" viewBox="0 0 273.46 78.94"><defs><style>.cls-1{fill:#fff;}.cls-2{fill:#043f65;}.cls-3,.cls-4{fill:#0a597c;}.cls-3{fill-rule:evenodd;}.cls-5{opacity:0.03;}.cls-6{fill:#1d1d1b;}</style></defs><rect class="cls-1" x="0.5" y="0.5" width="272.46" height="77.94"/><path class="cls-2" d="M272.46,1V77.94H1V1H272.46m1-1H0V78.94H273.46V0Z"/><polygon class="cls-3" points="89.24 19.32 89.24 59.69 80.21 59.69 80.21 61.81 91.36 61.81 91.36 17.2 43.03 17.2 43.03 61.81 54.19 61.81 54.19 59.69 45.16 59.69 45.16 19.32 89.24 19.32"/><path class="cls-4" d="M67.2,30A15.91,15.91,0,1,0,83.1,45.93,15.91,15.91,0,0,0,67.2,30Zm1.55,3.39a7.67,7.67,0,1,1-7.67,7.66A7.65,7.65,0,0,1,68.75,33.41ZM67.31,58.3a13,13,0,0,1-12.7-12.74,12.09,12.09,0,0,1,6-10.06c-.41.57-.82,1.23-1,1.5a10.58,10.58,0,0,0-1.08,5c0,5.21,4.46,10.87,10.29,10.87a12.43,12.43,0,0,0,10.9-7.73c0,.37,0,.73,0,1.11A12.22,12.22,0,0,1,67.31,58.3Z"/><path class="cls-4" d="M145.23,37.28h-9.84V24.13h9.69v3.23H139v1.81h5.7v2.95H139v2h6.26v3.16Z"/><path class="cls-4" d="M146.91,31.63v-7.5h3.59v7.11a3.53,3.53,0,0,0,.58,2.28,2.5,2.5,0,0,0,3.47,0,3.52,3.52,0,0,0,.59-2.28V24.13h3.58v7.5A5.54,5.54,0,0,1,157,36a6.72,6.72,0,0,1-8.44,0A5.55,5.55,0,0,1,146.91,31.63Z"/><path class="cls-4" d="M164.31,37.28h-3.59V24.13h6A4.65,4.65,0,0,1,170,25.45a4.44,4.44,0,0,1,.76,5.48,3.71,3.71,0,0,1-1.63,1.49l3.28,4.87h-4.11l-2.67-4.1h-1.36Zm0-9.9v2.94h2a1.53,1.53,0,0,0,1.13-.4,1.51,1.51,0,0,0,.42-1.14,1.44,1.44,0,0,0-.35-1,1.18,1.18,0,0,0-.89-.39Z"/><path class="cls-4" d="M187.18,30.76A6.42,6.42,0,0,1,185,35.57a7.64,7.64,0,0,1-10.26,0,6.54,6.54,0,0,1,0-9.62A7.58,7.58,0,0,1,185,26,6.33,6.33,0,0,1,187.18,30.76Zm-10.85,0a3.6,3.6,0,1,0,6.11-2.53,3.36,3.36,0,0,0-2.53-1.08,3.64,3.64,0,0,0-3.58,3.61Z"/><path class="cls-4" d="M117.53,56.57H114.2V43.42h3l4.26,6,4.27-6h2.94V56.57H125.3v-7L121.41,55l-3.88-5.37Z"/><path class="cls-4" d="M134.44,56.57h-3.59V43.42h3.59Z"/><path class="cls-4" d="M145.24,56.57h-8.58V43.42h3.59v9.91h5v3.24Z"/><path class="cls-4" d="M155.28,56.57H146.7V43.42h3.58v9.91h5v3.24Z"/><path class="cls-4" d="M170.35,50.05a6.41,6.41,0,0,1-2.13,4.81,7.64,7.64,0,0,1-10.26,0,6.52,6.52,0,0,1,0-9.62,7.58,7.58,0,0,1,10.26,0A6.28,6.28,0,0,1,170.35,50.05Zm-10.85,0a3.6,3.6,0,0,0,7.19,0,3.45,3.45,0,0,0-1.07-2.53,3.5,3.5,0,0,0-5.06,0A3.45,3.45,0,0,0,159.5,50.05Z"/><path class="cls-4" d="M175.43,56.57H172V43.42h3.21l5.51,7.06V43.42h3.44V56.57h-2.93l-5.79-7.34Z"/><path class="cls-4" d="M196.15,56.57H186.3V43.42H196v3.23h-6.12v1.81h5.7v2.95h-5.7v2h6.27v3.17Z"/><path class="cls-4" d="M196.93,54,199.46,52a3.86,3.86,0,0,0,1.4,1.18,4,4,0,0,0,1.89.44c1.17,0,1.76-.31,1.76-.94,0-.33-.25-.61-.74-.81a5.83,5.83,0,0,0-.77-.26c-.93-.28-1.62-.5-2.08-.66-2-.76-3-2-3-3.8a3.42,3.42,0,0,1,1.38-2.9,5.38,5.38,0,0,1,3.34-1,5.78,5.78,0,0,1,4.86,2.09l-2.36,2a2.92,2.92,0,0,0-2.37-1,2,2,0,0,0-1.06.23.66.66,0,0,0-.37.58.75.75,0,0,0,.53.75,3.93,3.93,0,0,0,.66.23,16.94,16.94,0,0,1,2.32.7,5.58,5.58,0,0,1,2.43,1.52A3.43,3.43,0,0,1,208,52.6a3.75,3.75,0,0,1-1.34,3.06,6,6,0,0,1-3.91,1.11,7.24,7.24,0,0,1-3.64-.82A6.45,6.45,0,0,1,196.93,54Z"/><g class="cls-5"><polygon class="cls-6" points="5.89 73.65 267.78 73.65 267.78 5.21 5.89 73.65"/></g></svg>