<?xml version="1.0" encoding="utf-8"?>
<!-- Generator: Adobe Illustrator 24.2.0, SVG Export Plug-In . SVG Version: 6.00 Build 0)  -->
<svg version="1.1" id="Layer_1" xmlns="http://www.w3.org/2000/svg" xmlns:xlink="http://www.w3.org/1999/xlink" x="0px" y="0px"
	 viewBox="0 0 276.1 79.7" style="enable-background:new 0 0 276.1 79.7;" xml:space="preserve">
<style type="text/css">
	.st0{fill:#FFFFFF;}
	.st1{fill:#DC3F47;}
	.st2{opacity:3.000000e-02;}
	.st3{fill:#1D1D1B;}
	.st4{fill-rule:evenodd;clip-rule:evenodd;fill:#DC3F47;}
</style>
<rect x="0.5" y="0.5" class="st0" width="275.1" height="78.7"/>
<path class="st1" d="M275.1,1v77.7H1V1H275.1 M276.1,0H0v79.7h276.1V0z"/>
<g class="st2">
	<polygon class="st3" points="7.1,74.2 271.5,74.2 271.5,5.1 	"/>
</g>
<polygon class="st1" points="122.1,38.1 128,38.1 128,34.8 122.1,34.8 122.1,33.1 128.4,33.1 128.4,29.5 118.1,29.5 118.1,43.5 
	128.5,43.5 128.5,40 122.1,40 "/>
<polygon class="st1" points="134.7,29.5 130.8,29.5 130.8,43.5 139.9,43.5 139.9,39.9 134.7,39.9 "/>
<path class="st1" d="M154.2,38.2h3.5V39c-0.7,0.7-1.7,1.2-2.7,1.1c-0.9,0-1.9-0.4-2.5-1c-0.7-0.7-1.1-1.6-1-2.6
	c-0.1-1.9,1.5-3.6,3.4-3.6c0,0,0,0,0,0h0.2c1.1-0.1,2.2,0.4,3,1.1v0.1l2.6-2.2h-0.1c-1.4-1.6-3.5-2.6-5.6-2.5c-2-0.1-3.9,0.7-5.4,2
	c-2.8,2.7-2.9,7.1-0.3,9.9c0.1,0.1,0.2,0.2,0.3,0.3c1.5,1.4,3.4,2.1,5.4,2.1c2.4,0,4.7-1.1,6.2-3.1l0,0v-5.6h-7L154.2,38.2z"/>
<path class="st1" d="M172.9,39.1c-0.7,0.7-1.6,1.1-2.6,1.1c-1,0-1.9-0.3-2.6-1c-0.7-0.7-1-1.6-1-2.6c0-1,0.4-1.9,1.1-2.6
	c0.7-0.7,1.6-1.1,2.5-1.1c1,0,1.9,0.4,2.6,1.1c1.4,1.3,1.5,3.5,0.2,5c0,0,0,0,0,0L172.9,39.1 M170.3,29.4c-2-0.1-3.9,0.7-5.4,2.1
	c-1.4,1.3-2.2,3.2-2.2,5.1c0,1.9,0.8,3.8,2.2,5.1c1.4,1.4,3.4,2.2,5.4,2.1c2,0.1,4-0.7,5.4-2.1l0,0c1.4-1.3,2.3-3.1,2.2-5.1
	c0-1.9-0.8-3.8-2.2-5.1C174.3,30.1,172.3,29.3,170.3,29.4"/>
<path class="st1" d="M183.9,33.1h2.3c0.7,0,1.3,0.6,1.3,1.3c0,0,0,0,0,0c0.1,0.7-0.4,1.4-1.2,1.5c0,0,0,0,0,0h-2.4V33.1z
	 M191.3,34.4c0-1.3-0.5-2.5-1.4-3.4c-1-0.9-2.2-1.4-3.5-1.4H180v14h3.9v-4.3h1.3l2.8,4.2h4.5l-3.4-5.1
	C190.5,37.6,191.4,36.1,191.3,34.4"/>
<path class="st1" d="M197.8,33.3h1.5c1.1-0.1,2.3,0.2,3.1,1c0.5,0.6,0.7,1.4,0.7,2.3c0.1,0.8-0.2,1.7-0.7,2.4c-0.8,0.8-2,1.2-3.1,1
	h-1.5V33.3z M199.4,29.6h-5.6v13.9h5.7c2,0.2,4-0.5,5.5-1.9c2.5-2.8,2.5-7.2,0-10C203.5,30.2,201.5,29.5,199.4,29.6"/>
<path class="st1" d="M218.6,39.1c-0.7,0.7-1.6,1.1-2.5,1.1c-1,0-1.9-0.3-2.6-1c-0.7-0.7-1-1.6-1-2.6c0-1,0.4-1.9,1.1-2.5
	c0.7-0.7,1.6-1.1,2.5-1.1c1,0,1.9,0.4,2.5,1.1c1.4,1.3,1.5,3.5,0.2,5c0,0,0,0,0,0L218.6,39.1 M221.5,31.5c-1.5-1.4-3.4-2.1-5.4-2.1
	c-2-0.1-4,0.7-5.4,2.1c-1.4,1.3-2.2,3.2-2.2,5.1c0,1.9,0.8,3.8,2.2,5.1c1.4,1.4,3.4,2.2,5.4,2.1c2,0.1,4-0.7,5.4-2.1l0,0
	c1.4-1.3,2.3-3.1,2.2-5.1C223.8,34.7,223,32.8,221.5,31.5"/>
<path class="st1" d="M119.2,56.9h1.8c1.8,0.3,3.5-1,3.8-2.8c0,0,0,0,0,0c0-0.3,0-0.5,0-0.8c0.2-1.9-1.2-3.5-3.1-3.6c0,0,0,0,0,0
	c-0.2,0-0.5,0-0.7,0h-1.9L119.2,56.9L119.2,56.9z M118.2,57.9v-9.2h3c1.3,0,2.5,0.4,3.4,1.3c1.7,1.9,1.7,4.8,0,6.7
	c-0.9,0.9-2.2,1.3-3.4,1.3L118.2,57.9L118.2,57.9z"/>
<polygon class="st1" points="127.9,57.8 127.9,48.7 133.1,48.7 133.1,49.6 128.9,49.6 128.9,52.5 132.8,52.5 132.8,53.5 128.9,53.5 
	128.9,56.8 133.1,56.8 133.1,57.8 "/>
<polygon class="st1" points="140.9,57.8 140.9,48.7 142,48.7 142,56.8 145.8,56.8 145.8,57.8 "/>
<path class="st1" d="M149.1,54.6h3.6l-1.8-4.4L149.1,54.6z M146.7,57.8l3.9-9.1h0.8l3.8,9.1h-1.1l-0.9-2.2h-4.4l-1,2.2L146.7,57.8z"
	/>
<path class="st1" d="M163.1,53.3h1.9c0.5,0,0.9-0.2,1.3-0.5c0.7-0.7,0.7-1.9,0-2.7c-0.3-0.4-0.8-0.5-1.3-0.5h-1.9V53.3z M162.1,57.8
	v-9.1h2.9c1.5-0.1,2.7,1.1,2.8,2.6c0,0,0,0,0,0c0,0.1,0,0.1,0,0.2c0,0.7-0.3,1.5-0.8,2c-0.5,0.5-1.3,0.8-2,0.8h-1.9v3.6H162.1z"/>
<path class="st1" d="M170.8,53.3h2c0.5,0,1-0.2,1.3-0.5c0.7-0.7,0.7-1.9,0-2.6c0,0,0,0,0,0c-0.3-0.3-0.8-0.6-1.3-0.6h-2L170.8,53.3z
	 M169.8,57.8v-9.1h3.2c1.5,0,2.7,1.2,2.7,2.6c0,0,0,0.1,0,0.1c0,1.2-0.7,2.2-1.8,2.6l2.2,3.8h-1.2l-2-3.6h-2.1v3.6L169.8,57.8z"/>
<rect x="178" y="48.7" class="st1" width="1" height="9.1"/>
<polygon class="st1" points="181.8,57.8 181.8,48.7 182.6,48.7 186.2,54.5 189.7,48.7 190.6,48.7 190.6,57.8 189.6,57.8 189.6,50.7 
	186.2,56.3 182.7,50.7 182.7,57.8 "/>
<rect x="193.3" y="48.7" class="st1" width="1" height="9.1"/>
<polygon class="st1" points="198.7,57.8 198.7,49.6 196.2,49.6 196.2,48.7 202.2,48.7 202.2,49.6 199.7,49.6 199.7,57.8 "/>
<rect x="204.1" y="48.7" class="st1" width="1" height="9.1"/>
<polygon class="st1" points="210.9,57.8 207.1,48.7 208.2,48.7 211.3,56.1 214.4,48.7 215.5,48.7 211.6,57.8 "/>
<path class="st1" d="M217.6,54.6h3.6l-1.8-4.4L217.6,54.6z M215.1,57.8l3.8-9.1h0.8l3.9,9.1h-1.1l-0.9-2.2h-4.4l-1,2.2L215.1,57.8z"
	/>
<g>
	<g>
		<polygon class="st4" points="81.8,19.6 81.8,60.4 72.7,60.4 72.7,62.5 84,62.5 84,17.5 35.1,17.5 35.1,62.5 46.4,62.5 46.4,60.4 
			37.3,60.4 37.3,19.6 		"/>
	</g>
	<g>
		<path class="st1" d="M71.2,51.4c-3.9,0.3-7.8,0.4-11.6,0.4c-4.9,0-9-0.2-11.9-0.4c-0.2-0.7-0.4-1.4-0.6-2.1
			c2.9,0.2,7.2,0.4,12.5,0.4c3.9,0,8.2-0.1,12.2-0.5C71.7,50,71.5,50.7,71.2,51.4 M64.9,58.5c-1.8,0.2-3.5,0.3-5.3,0.3
			c-2,0-3.9-0.1-5.6-0.3c-1.3-0.6-2.5-1.5-3.5-2.6c3,0.5,6,0.8,9,0.8c3,0,5.9-0.3,8.8-0.8C67.4,56.9,66.2,57.8,64.9,58.5 M47.6,43.4
			c3.2-0.2,7.4-0.5,12.1-0.5c4.2,0,8.1,0.2,11.8,0.5c0.2,0.7,0.3,1.4,0.5,2.2C68.1,45.3,64,45,59.6,45c-4.9,0-9.4,0.3-12.6,0.5
			C47.2,44.8,47.4,44.1,47.6,43.4 M53,36.4c2.2-0.3,4.5-0.4,6.7-0.4c2.1,0,4.1,0.1,6.2,0.4c1.1,0.7,2.1,1.6,3,2.6
			c-6.2-1.2-12.6-1.2-18.9,0C50.8,38,51.8,37.1,53,36.4 M59.3,31.9c-8.4,0.1-15.2,7-15.1,15.4c0.1,8.4,7,15.2,15.4,15.1
			c8.4-0.1,15.1-6.9,15.1-15.3C74.6,38.8,67.7,32,59.3,31.9"/>
	</g>
</g>
</svg>
