<svg id="Layer_1" data-name="Layer 1" xmlns="http://www.w3.org/2000/svg" viewBox="0 0 273.46 78.94"><defs><style>.cls-1{fill:#fff;}.cls-2,.cls-5{fill:#eb6c20;}.cls-3{opacity:0.03;}.cls-4{fill:#1d1d1b;}.cls-5{fill-rule:evenodd;}</style></defs><rect class="cls-1" x="0.5" y="0.5" width="272.46" height="77.94"/><path class="cls-2" d="M272.46,1V77.94H1V1H272.46m1-1H0V78.94H273.46V0Z"/><g class="cls-3"><polygon class="cls-4" points="5.89 73.47 267.78 73.47 267.78 5.03 5.89 73.47"/></g><polygon class="cls-5" points="89.26 19.45 89.26 59.9 80.21 59.9 80.21 62.02 91.38 62.02 91.38 17.32 42.96 17.32 42.96 62.02 54.13 62.02 54.13 59.9 45.09 59.9 45.09 19.45 89.26 19.45"/><path class="cls-2" d="M124.28,45.82h-9.52V31.24h4v11h5.54v3.59Z"/><path class="cls-2" d="M141,38.59a7.08,7.08,0,0,1-2.37,5.33,8.46,8.46,0,0,1-11.38,0,7.25,7.25,0,0,1,0-10.67,8.43,8.43,0,0,1,11.38,0A7,7,0,0,1,141,38.59Zm-12,0a4,4,0,1,0,6.79-2.81,3.9,3.9,0,0,0-5.61,0A3.86,3.86,0,0,0,129,38.59Z"/><path class="cls-2" d="M149.33,45.82h-4v-11h-3.93V31.25h11.76v3.59h-3.85v11Z"/><path class="cls-2" d="M169.69,38.59a7.08,7.08,0,0,1-2.37,5.33,8.46,8.46,0,0,1-11.38,0,7.25,7.25,0,0,1,0-10.67,8.43,8.43,0,0,1,11.38,0A7,7,0,0,1,169.69,38.59Zm-12,0a4,4,0,1,0,6.78-2.81,3.9,3.9,0,0,0-5.61,0A3.81,3.81,0,0,0,157.66,38.59Z"/><path class="cls-2" d="M178,45.82h-4v-11h-3.93V31.25h11.75v3.59H178v11Z"/><path class="cls-2" d="M183,39.55V31.24h4v7.88a3.92,3.92,0,0,0,.65,2.53,2.38,2.38,0,0,0,1.93.78,2.35,2.35,0,0,0,1.92-.78,3.86,3.86,0,0,0,.65-2.53V31.24h4v8.31a6.15,6.15,0,0,1-1.87,4.83,7.44,7.44,0,0,1-9.37,0A6.17,6.17,0,0,1,183,39.55Z"/><path class="cls-2" d="M202.29,45.82h-4V31.24H205a5.15,5.15,0,0,1,3.7,1.46,4.93,4.93,0,0,1,.85,6.07,4.1,4.1,0,0,1-1.82,1.66l3.64,5.4h-4.55l-3-4.54h-1.51Zm0-11v3.27h2.22a1.58,1.58,0,0,0,1.71-1.72,1.61,1.61,0,0,0-.39-1.12,1.33,1.33,0,0,0-1-.43Z"/><path class="cls-2" d="M216.52,45.82h-4V31.24h10.55v3.58h-6.57v2.26h6v3.37h-6Z"/><g id="X3DEOX"><path class="cls-2" d="M74,31.33c-.07.65-.12,1.13-.18,1.74.45-.29.75-.5,1.18-.79a10.93,10.93,0,0,0,0,2A8.86,8.86,0,0,0,75.76,37a59,59,0,0,1,3,7.09c.39,1,.84,2,1.19,3a1.81,1.81,0,0,1-.62,2.17,2.46,2.46,0,0,1-2.61.26,2.31,2.31,0,0,1-.86-1.18,1.12,1.12,0,0,0-.85-.79,5.91,5.91,0,0,1-2.82-1.81c-.46-.47-.91-.95-1.33-1.45a.66.66,0,0,0-.92-.15,3.07,3.07,0,0,0-1.71,3.37,25.53,25.53,0,0,0,1,3.73,14.36,14.36,0,0,1,.93,5.7,6.62,6.62,0,0,1-2.66,4.9,2.3,2.3,0,0,1-.41.28l-.36-.41-6.85-7.22C58.64,53.09,55.8,50,55.8,50h0A21,21,0,0,1,57,42.66a11.83,11.83,0,0,1,6.19-6.44,24.94,24.94,0,0,1,7-2,2,2,0,0,0,.93-.49c.57-.53,1-1.16,1.61-1.7A7.85,7.85,0,0,1,74,31.33Z"/></g></svg>