<svg id="Layer_1" data-name="Layer 1" xmlns="http://www.w3.org/2000/svg" viewBox="0 0 273.46 78.94"><defs><style>.cls-1,.cls-6{fill:#fff;}.cls-2{fill:#5f70af;}.cls-3{opacity:0.03;}.cls-4{fill:#1d1d1b;}.cls-5{fill:#7784c0;}.cls-5,.cls-6,.cls-7{fill-rule:evenodd;}.cls-7{fill:#5b656d;}</style></defs><rect class="cls-1" x="0.5" y="0.5" width="272.46" height="77.94"/><path class="cls-2" d="M272.46,1V77.94H1V1H272.46m1-1H0V78.94H273.46V0Z"/><g class="cls-3"><polygon class="cls-4" points="5.7 73.65 267.6 73.65 267.6 5.21 5.7 73.65"/></g><path class="cls-5" d="M50.47,43.79A14.82,14.82,0,1,1,65.29,58.61,14.82,14.82,0,0,1,50.47,43.79Z"/><path class="cls-6" d="M53.43,43.79C53.43,35.6,58.74,29,65.29,29S77.15,35.6,77.15,43.79,71.84,58.61,65.29,58.61,53.43,52,53.43,43.79Z"/><path class="cls-5" d="M55.86,43.79C55.86,35.6,60.08,29,65.29,29s9.43,6.64,9.43,14.83S70.5,58.61,65.29,58.61,55.86,52,55.86,43.79Z"/><path class="cls-6" d="M58.55,43.79c0-8.19,3-14.83,6.74-14.83S72,35.6,72,43.79s-3,14.82-6.74,14.82S58.55,52,58.55,43.79Z"/><path class="cls-5" d="M61.25,43.79c0-8.19,1.81-14.83,4-14.83s4,6.64,4,14.83-1.81,14.82-4,14.82-4-6.64-4-14.82Z"/><path class="cls-6" d="M63.94,43.79c0-8.19.61-14.83,1.35-14.83s1.35,6.64,1.35,14.83S66,58.61,65.29,58.61,63.94,52,63.94,43.79Z"/><path class="cls-5" d="M73.87,31.7H56.71a14.8,14.8,0,0,1,17.16,0Z"/><path class="cls-5" d="M57,56H73.63A14.82,14.82,0,0,1,57,56Z"/><path class="cls-6" d="M50.5,42.84H80.08c0,.31,0,.63,0,.95s0,.63,0,.94H50.5c0-.31,0-.63,0-.94s0-.64,0-.95Z"/><path class="cls-6" d="M57.59,31.12H73a15.17,15.17,0,0,1,1.54,1.08H56.05a15.17,15.17,0,0,1,1.54-1.08Z"/><path class="cls-6" d="M56.05,55.37H74.53A13.73,13.73,0,0,1,73,56.45H57.59a13.73,13.73,0,0,1-1.54-1.08Z"/><polygon class="cls-5" points="63.13 57.53 67.45 57.53 67.45 61.84 63.13 61.84 63.13 57.53 63.13 57.53"/><polygon class="cls-7" points="87.34 19.32 87.34 59.71 78.31 59.71 78.31 61.83 89.47 61.83 89.47 17.2 41.12 17.2 41.12 61.83 52.27 61.83 52.27 59.71 43.24 59.71 43.24 19.32 87.34 19.32"/><path class="cls-2" d="M120.47,35.81v-15h4.75V32.31h6.51v3.5Z"/><path class="cls-2" d="M139,24.57c3.72,0,6,2.27,6,5.67,0,4-2.61,5.88-6,5.88s-6-1.92-6-5.65S135.48,24.57,139,24.57Zm-1.79,5.67c0,2.07.74,3,1.81,3s1.81-.89,1.81-3c0-1.61-.68-2.81-1.77-2.75C137.67,27.49,137.25,29,137.25,30.24Z"/><path class="cls-2" d="M153.7,35.81c-5.49.31-6.15-.08-6.15-3.86V27.38h-1.49v-2.5h1.55v-3.4h4.12v3.4h2v2.5h-2v4c0,1,.15,1.35,1.31,1.35h.66Z"/><path class="cls-2" d="M159.52,31.33a2.07,2.07,0,0,0,2.07,2.14,1.65,1.65,0,0,0,1.57-1h4c-.72,2.72-3.37,3.61-5.83,3.61-3.38,0-6-2-6-5.67a5.67,5.67,0,0,1,6-5.88c3.9,0,6.26,2.79,6.2,6.76Zm3.8-2.22a1.92,1.92,0,0,0-1.85-1.89,1.76,1.76,0,0,0-1.95,1.89Z"/><path class="cls-2" d="M169.18,24.88H173v2.21h0a3.19,3.19,0,0,1,3.24-2.52,5,5,0,0,1,.54.06V29a6.38,6.38,0,0,0-.86-.13c-1.71,0-2.58.84-2.58,3.19v3.78h-4.18Z"/><path class="cls-2" d="M178.31,35.81V24.88h4.19V35.81Zm2.09-15.39h4.21l-3.46,3.08h-2.76Z"/><path class="cls-2" d="M192.19,35.81l-.2-1.17a5.15,5.15,0,0,1-4,1.48c-2,0-3.76-1-3.76-3.29,0-5,7.5-2.71,7.5-4.76,0-.79-.92-.9-1.37-.9s-1.37.13-1.47,1.07h-4c0-2.32,1.59-3.67,5.75-3.67,5,0,5.29,1.92,5.29,4.52V34.2a1.43,1.43,0,0,0,.57,1.4v.21ZM191.77,31c-1.37.69-3.18.36-3.18,1.77,0,.55.51.92,1.33.92C191.39,33.66,191.87,32.47,191.77,31Z"/><path class="cls-2" d="M120.81,51.41,120.63,48V43.21h4.54v15h-4.44l-5.17-8.17.18,3.42v4.75h-4.55v-15h4.45Z"/><path class="cls-2" d="M135,58.23l-.2-1.17a5.15,5.15,0,0,1-4,1.48c-2,0-3.76-1-3.76-3.29,0-5,7.5-2.71,7.5-4.76,0-.79-.92-.89-1.37-.89s-1.37.12-1.47,1.06h-4c0-2.31,1.59-3.67,5.75-3.67,5,0,5.29,1.92,5.29,4.53v5.11a1.43,1.43,0,0,0,.57,1.39v.21Zm-.42-4.84c-1.37.69-3.18.36-3.18,1.78,0,.54.51.91,1.33.91C134.19,56.08,134.67,54.89,134.57,53.39Z"/><path class="cls-2" d="M148.17,51.47a1.66,1.66,0,0,0-.44-1.12,1.39,1.39,0,0,0-1.09-.44c-1.57,0-1.83,1.69-1.83,3,0,1.65.61,2.73,1.83,2.73s1.51-.77,1.63-1.62h4.23a4.66,4.66,0,0,1-2,3.52,6.88,6.88,0,0,1-3.88,1c-3.4,0-6-2-6-5.67s2.53-5.88,6-5.88c2.82,0,5.47,1.25,5.78,4.48Z"/><path class="cls-2" d="M154.65,42.82h4.18V45.9h-4.18Zm0,15.41V47.3h4.18V58.23Z"/><path class="cls-2" d="M166.78,47c3.72,0,6,2.27,6,5.67,0,4-2.62,5.88-6,5.88s-6-1.91-6-5.65S163.22,47,166.78,47ZM165,52.66c0,2.07.75,3,1.81,3s1.81-.89,1.81-3c0-1.6-.68-2.81-1.77-2.75C165.41,49.91,165,51.43,165,52.66Z"/><path class="cls-2" d="M174.49,47.3h3.82V49a4.11,4.11,0,0,1,3.56-2c2.78,0,4.08,1.69,4.08,4.69v6.55h-4.18V52.45c0-1.08-.28-2-1.47-2s-1.63.85-1.63,2.25v5.57h-4.18Z"/><path class="cls-2" d="M195.37,58.23l-.2-1.17a5.15,5.15,0,0,1-4,1.48c-2,0-3.76-1-3.76-3.29,0-5,7.5-2.71,7.5-4.76,0-.79-.93-.89-1.37-.89s-1.37.12-1.47,1.06h-4c0-2.31,1.59-3.67,5.75-3.67,5,0,5.29,1.92,5.29,4.53v5.11A1.43,1.43,0,0,0,199.7,58v.21ZM195,53.39c-1.37.69-3.18.36-3.18,1.78,0,.54.5.91,1.33.91C194.57,56.08,195.05,54.89,195,53.39Z"/><path class="cls-2" d="M201.61,58.23v-15h4.18v15Z"/></svg>