<svg id="Layer_1" data-name="Layer 1" xmlns="http://www.w3.org/2000/svg" viewBox="0 0 273.46 78.94"><defs><style>.cls-1{fill:#fff;}.cls-2,.cls-5,.cls-6{fill:#636363;}.cls-3{opacity:0.03;}.cls-4{fill:#1d1d1b;}.cls-5{font-size:19px;font-family:HelveticaLTStd-BoldCond, Helvetica LT Std;font-weight:700;}.cls-6{fill-rule:evenodd;}</style></defs><rect class="cls-1" x="0.5" y="0.5" width="272.46" height="77.94"/><path class="cls-2" d="M272.46,1V77.94H1V1H272.46m1-1H0V78.94H273.46V0Z"/><g class="cls-3"><polygon class="cls-4" points="5.7 73.69 267.6 73.69 267.6 5.25 5.7 73.69"/></g><text class="cls-5" transform="translate(84.48 38.02)">BUSCA TU NÚMERO<tspan x="43.83" y="22.81">SOÑADO</tspan></text><path class="cls-6" d="M59.8,24A12.38,12.38,0,0,0,51,20.34h0A12.41,12.41,0,0,0,40.65,39.56L37.11,43.1l-.61-.6h0l-.41-.41-.41.41h0l-1.12,1.12-7.2,7.19A4,4,0,0,0,33,56.42l7.19-7.2h0l1.13-1.12.41-.41-.41-.41h0l-.61-.61,3.54-3.54A12.4,12.4,0,0,0,63.43,32.75h0A12.38,12.38,0,0,0,59.8,24Zm1.31,8.77A10.08,10.08,0,1,1,51,22.67h.21a10.08,10.08,0,0,1,9.87,9.87Z"/><path class="cls-6" d="M51,23.81a8.95,8.95,0,0,0-6.27,2.62,9.2,9.2,0,0,0-.9,1.05,9.54,9.54,0,0,0-.72,1.18.58.58,0,1,0,1,.53,8.85,8.85,0,0,1,.63-1,7.35,7.35,0,0,1,.79-.91A7.7,7.7,0,0,1,51,25a.58.58,0,0,0,0-1.16Z"/></svg>