<svg id="Layer_1" data-name="Layer 1" xmlns="http://www.w3.org/2000/svg" viewBox="0 0 273.46 78.94"><defs><style>.cls-1{fill:#fff;}.cls-2,.cls-5{fill:#098342;}.cls-3{opacity:0.03;}.cls-4{fill:#1d1d1b;}.cls-5{fill-rule:evenodd;}</style></defs><rect class="cls-1" x="0.5" y="0.5" width="272.46" height="77.94"/><path class="cls-2" d="M272.46,1V77.94H1V1H272.46m1-1H0V78.94H273.46V0Z"/><g class="cls-3"><polygon class="cls-4" points="7.06 73.65 268.96 73.65 268.96 5.21 7.06 73.65"/></g><polygon class="cls-5" points="80.97 19.37 80.97 59.7 71.95 59.7 71.95 61.82 83.09 61.82 83.09 17.25 34.81 17.25 34.81 61.82 45.95 61.82 45.95 59.7 36.93 59.7 36.93 19.37 80.97 19.37"/><path class="cls-2" d="M74.17,44.59h0s-7.89-.53-15.19-.53-15,.45-15,.45h-.19a15,15,0,0,0-.17,2.24A13.94,13.94,0,0,0,43.75,49s7.9.53,15.18.53,15-.44,15-.44h.18a16.42,16.42,0,0,0,.17-2.34A19.26,19.26,0,0,0,74.17,44.59Z"/><path class="cls-2" d="M71,56.25a15.5,15.5,0,0,0,2.58-4.89s-8.83.53-14.69.53-14.63-.56-14.65-.56a15.47,15.47,0,0,0,2.59,4.92h0s4.14,1.28,12,1.28S71,56.25,71,56.25Z"/><path class="cls-2" d="M50.12,34.21A87,87,0,0,1,59,33.6a81.8,81.8,0,0,1,8.86.65l.13,0a15.39,15.39,0,0,0-18,0Z"/><path class="cls-2" d="M58.92,59.93a83,83,0,0,1-8.85-.64,15.39,15.39,0,0,0,17.7,0S62.82,59.93,58.92,59.93Z"/><path class="cls-2" d="M44.28,42.23S53.1,41.7,59,41.7s14.65.56,14.65.56h0a15.39,15.39,0,0,0-2.58-5H71S66.84,36,59,36s-12.11,1.29-12.11,1.29h0a15.46,15.46,0,0,0-2.59,5Z"/><path class="cls-2" d="M111.58,48.39H102.1V33.88h4V44.81h5.51v3.58Z"/><path class="cls-2" d="M116.28,48.39h-4.16L118,33.88h3.61l5.91,14.51h-4.18l-.75-1.89h-5.58Zm3.56-9.45-1.75,4.5h3.49Z"/><path class="cls-2" d="M139.49,48.39h-4V33.88h6.8a5.17,5.17,0,0,1,3.33,1.27A4.61,4.61,0,0,1,147,36.81a5.24,5.24,0,0,1,.49,2.24,4.79,4.79,0,0,1-1.61,3.68,5,5,0,0,1-3.49,1.45H139.5v4.21Zm0-10.92v3.14h2.69a1.71,1.71,0,0,0,.72-.21c.44-.18.65-.63.65-1.35s-.21-1.22-.65-1.4a2,2,0,0,0-.74-.18Z"/><path class="cls-2" d="M153,48.39h-3.95V33.88h6.59a5.11,5.11,0,0,1,3.69,1.46,4.9,4.9,0,0,1,.84,6,4,4,0,0,1-1.8,1.64L162,48.4H157.5l-3-4.52H153Zm0-10.92v3.25h2.21a1.69,1.69,0,0,0,1.24-.45A1.67,1.67,0,0,0,157,39a1.57,1.57,0,0,0-.39-1.11,1.28,1.28,0,0,0-1-.43Z"/><path class="cls-2" d="M167.28,48.39h-3.95V33.88h3.95Z"/><path class="cls-2" d="M173.41,48.39h-3.67V33.88H173l4.71,6.6,4.7-6.6h3.25V48.39H182V40.71l-4.29,5.93-4.29-5.93Z"/><path class="cls-2" d="M192.06,48.39h-4V33.88h4Z"/><path class="cls-2" d="M201.3,48.39h-4V37.47h-3.91V33.89h11.7v3.58H201.3Z"/><path class="cls-2" d="M210.45,48.39H206.5V33.88h3.95Z"/><path class="cls-2" d="M221.36,48.39h-3.64l-5.87-14.51H216l3.51,8.89,3.5-8.89h4.18Z"/><path class="cls-2" d="M228.84,48.39h-4.17l5.92-14.51h3.62l5.92,14.51h-4.19l-.75-1.89h-5.58Zm3.56-9.45-1.75,4.5h3.49Z"/></svg>