<svg id="Layer_1" data-name="Layer 1" xmlns="http://www.w3.org/2000/svg" viewBox="0 0 273.46 78.94"><defs><style>.cls-1{fill:#fff;}.cls-2,.cls-5{fill:#c22021;}.cls-3{opacity:0.03;}.cls-4{fill:#1d1d1b;}.cls-5{fill-rule:evenodd;}.cls-6{fill:#be1e1d;}</style></defs><rect class="cls-1" x="0.5" y="0.5" width="272.46" height="77.94"/><path class="cls-2" d="M272.46,1V77.94H1V1H272.46m1-1H0V78.94H273.46V0Z"/><g class="cls-3"><polygon class="cls-4" points="5.7 73.47 267.6 73.47 267.6 5.03 5.7 73.47"/></g><polygon class="cls-5" points="87.27 19.39 87.27 59.69 78.26 59.69 78.26 61.8 89.39 61.8 89.39 17.28 41.15 17.28 41.15 61.8 52.28 61.8 52.28 59.69 43.27 59.69 43.27 19.39 87.27 19.39"/><path class="cls-2" d="M65.06,47,52.27,54.44l12.95,7.47L78,54.44Zm3.88,7.87a5.44,5.44,0,0,1-2.8.6l-2.74-.11,2.45,1.43-1.71,1-5.31-3.06L60,54l5.84.14a2.45,2.45,0,0,0,1.2-.19c.34-.19.52-.55,0-.86a2,2,0,0,0-1.71,0l-1.71-1a5.61,5.61,0,0,1,5.05,0C70.43,53.1,69.86,54.44,68.94,54.85Z"/><path class="cls-2" d="M64.29,30.45l-13,7.49V53l12.94-7.47V30.45ZM57.22,46.14V40l-1.06.61v-2l3-1.71V45Z"/><path class="cls-2" d="M78.87,37.87,65.94,30.45V45.63L78.87,53.1ZM74,46.66l-1.35-3L71.27,45.1l-2.21-1.29,2.43-2.72-2.42-5.4,2.37,1.37,1.2,2.74,1.2-1.35,2.36,1.37-2.41,2.62L76.2,48Z"/><path class="cls-6" d="M152.23,34.5a7.55,7.55,0,0,0-10.18,0,6.48,6.48,0,0,0-.4,9.14c.13.14.26.27.4.4a7.3,7.3,0,0,0,5.08,2,7.58,7.58,0,0,0,3.15-.66l1.14,1.26,2.47-2.13-1.07-1.19a5.87,5.87,0,0,0,1.53-4,6.29,6.29,0,0,0-2.12-4.78m-5.11,8.17a3.35,3.35,0,0,1-2.41-1,3.42,3.42,0,0,1,0-4.8,3.3,3.3,0,0,1,2.41-1,3.47,3.47,0,0,1,3.43,3.39,3.36,3.36,0,0,1-.23,1.3L148.9,39l-2.46,2.12,1.32,1.42h-.67"/><path class="cls-6" d="M164.13,39.83c0,2-.67,2.84-2.18,2.84s-2.18-.88-2.18-2.84V32.76h-3.7V40.2a5.53,5.53,0,0,0,1.68,4.35,6.7,6.7,0,0,0,8.49,0,5.55,5.55,0,0,0,1.56-4.39v-7.4h-3.67Z"/><rect class="cls-6" x="170.14" y="32.71" width="3.71" height="13.09"/><polygon class="cls-6" points="184.86 39.45 179.59 32.72 176.29 32.72 176.29 45.82 179.86 45.82 179.86 38.8 185.38 45.78 185.4 45.82 188.41 45.82 188.41 32.72 184.86 32.72 184.86 39.45"/><rect class="cls-6" x="190.87" y="32.71" width="3.71" height="13.09"/><polygon class="cls-6" points="200.74 40.74 206.33 40.74 206.33 37.65 200.74 37.65 200.74 36.08 206.74 36.08 206.74 32.72 197.03 32.72 197.03 45.82 206.88 45.82 206.88 42.51 200.74 42.51 200.74 40.74"/><polygon class="cls-6" points="212.66 32.72 208.95 32.72 208.95 45.82 217.57 45.82 217.57 42.44 212.66 42.44 212.66 32.72"/><path class="cls-6" d="M227,32.76h-3.37l-5.33,13.09h3.9l.68-1.77h4.83l.66,1.69h3.94Zm-.28,8.49h-2.83l1.41-3.64Z"/><polygon class="cls-6" points="114.82 32.72 111.11 32.72 111.11 45.82 119.73 45.82 119.73 42.44 114.82 42.44 114.82 32.72"/><path class="cls-6" d="M129.14,32.76h-3.36l-5.34,13.05h3.91l.68-1.73h4.84l.66,1.69h3.94Zm-.28,8.49H126l1.42-3.64Z"/></svg>