<svg id="Layer_1" data-name="Layer 1" xmlns="http://www.w3.org/2000/svg" viewBox="0 0 273.46 78.94"><defs><style>.cls-1{fill:#fff;}.cls-2,.cls-5{fill:#6b9eb2;}.cls-3{opacity:0.03;}.cls-4{fill:#1d1d1b;}.cls-5{fill-rule:evenodd;}</style></defs><rect class="cls-1" x="0.5" y="0.5" width="272.46" height="77.94"/><path class="cls-2" d="M272.46,1V77.93H1V1H272.46m1-1H0V78.93H273.46V0Z"/><g class="cls-3"><polygon class="cls-4" points="5.7 73.22 267.6 73.22 267.6 4.78 5.7 73.22"/></g><polygon class="cls-5" points="87.34 19.42 87.34 59.78 78.31 59.78 78.31 61.9 89.47 61.9 89.47 17.3 41.15 17.3 41.15 61.9 52.3 61.9 52.3 59.78 43.27 59.78 43.27 19.42 87.34 19.42"/><path class="cls-2" d="M111.19,46V33.18H121v3h-5.85V38h4.95v3h-4.95v2h6.08v3Z"/><path class="cls-2" d="M123.22,46V33.18h3.93V43h5.4v3Z"/><path class="cls-2" d="M149,46.91l-1.76-1.65a8.07,8.07,0,0,1-3.2.62c-4.11,0-6.76-2.38-6.76-6.41,0-3.77,2.74-6.22,6.76-6.22,4.23,0,6.77,2.77,6.77,6.25a6.68,6.68,0,0,1-1.5,4.28l1.46,1.38Zm-4-7.18L146.4,41a4.92,4.92,0,0,0,.18-1.53c0-2-1-3.32-2.58-3.32-1.92,0-2.49,1.8-2.49,3.32S142,43,144,43a1.91,1.91,0,0,0,.64-.12l-1.45-1.35Z"/><path class="cls-2" d="M152.9,33.18h3.93v7.67c0,1.26.24,2.34,1.85,2.34,1.42,0,1.84-1,1.84-2.34V33.18h3.93v7.24c0,4.11-1.79,5.91-5.77,5.91-3.71,0-5.78-1.52-5.78-5.93Z"/><path class="cls-2" d="M166.66,46V33.18h3.93V46Z"/><path class="cls-2" d="M180.77,40.17l-.15-2.92V33.18h3.86V46h-3.77l-4.39-7,.15,2.92V46h-3.85V33.18h3.77Z"/><path class="cls-2" d="M186.92,46V33.16h3.93V46Z"/><path class="cls-2" d="M205.28,46h-2.65l-.16-1.26a4.61,4.61,0,0,1-3.79,1.57c-3.21,0-6.1-2.12-6.1-6.59,0-4.09,2.52-6.9,6.59-6.9,3,0,5.45,1.6,6,4.75h-3.91A2.06,2.06,0,0,0,199.1,36c-1.63,0-2.4,1.5-2.4,3.76,0,1.81.56,3.46,2.64,3.46a2.24,2.24,0,0,0,2.12-1.47h-1.82V38.94h5.64Z"/><path class="cls-2" d="M221.2,39.51c0,4.36-3,6.82-7,6.82-4.18,0-7-2.5-7-6.85,0-4,2.83-6.64,7-6.64C219,32.84,221.2,36.13,221.2,39.51Zm-9.6,0c0,1.64.52,3.68,2.61,3.68,1.88,0,2.62-1.56,2.62-3.68,0-1.74-.74-3.59-2.66-3.54S211.6,37.89,211.6,39.51Z"/><path class="cls-2" d="M223,46V33.18h3.93V43h5.4v3Z"/><path class="cls-2" d="M64.54,39.67V35.42s-2.18-1-4.59-2a8.89,8.89,0,0,0-4.27,2.84l-.3,5.32,4.47,1.39Z"/><polygon class="cls-2" points="54.07 52.61 58.28 54.07 60.99 49.81 59.09 44.16 55.1 42.93 52.02 46.98 54.07 52.61"/><path class="cls-2" d="M53.94,41.91l.37-4.84s-2.72,1.91-3.44,7.1a6.23,6.23,0,0,0,.41,1.75Z"/><path class="cls-2" d="M53,54.41V53.07l-2.19-6S50.48,52.08,53,54.41Z"/><path class="cls-2" d="M58.26,55.59l-4.19-1.77-.19,2.24a16.32,16.32,0,0,0,5,4c.89-.63,1.53-1.16,1.53-1.16Z"/><path class="cls-2" d="M65.87,39.67l4.69,3.26L75,41.54l-.29-5.32a8.89,8.89,0,0,0-4.27-2.84c-2.41,1-4.59,2-4.59,2Z"/><polygon class="cls-2" points="69.42 49.81 72.13 54.07 76.33 52.61 78.39 46.98 75.31 42.93 71.32 44.16 69.42 49.81"/><path class="cls-2" d="M79.13,45.92a6.23,6.23,0,0,0,.41-1.75c-.72-5.19-3.44-7.1-3.44-7.1l.37,4.84Z"/><path class="cls-2" d="M79.65,47.11l-2.19,6v1.34C79.93,52.08,79.65,47.11,79.65,47.11Z"/><path class="cls-2" d="M72.15,55.59,70,58.88s.64.53,1.53,1.16a16.22,16.22,0,0,0,5-4l-.19-2.24Z"/><path class="cls-2" d="M65.2,59.9H61.3l-1,1a10.24,10.24,0,0,0,4.84.95h.11a10.24,10.24,0,0,0,4.84-.95l-1-1Z"/><polygon class="cls-2" points="61.97 58.75 65.2 58.75 68.44 58.75 70.94 54.87 68.3 50.54 65.2 50.54 62.11 50.54 59.47 54.87 61.97 58.75"/><path class="cls-2" d="M68.85,32.58A16.2,16.2,0,0,0,65.2,32a16.19,16.19,0,0,0-3.64.58l3.64,1.66Z"/><polygon class="cls-2" points="68.16 49.19 69.89 44.12 65.2 40.88 60.52 44.12 62.25 49.19 65.2 49.19 68.16 49.19"/></svg>