<svg id="Layer_1" data-name="Layer 1" xmlns="http://www.w3.org/2000/svg" viewBox="0 0 273.46 78.94"><defs><style>.cls-1{fill:#fff;}.cls-2,.cls-5{fill:#ddb536;}.cls-3{opacity:0.03;}.cls-4{fill:#1d1d1b;}.cls-5{fill-rule:evenodd;}.cls-6{fill:#d89c05;}</style></defs><rect class="cls-1" x="0.5" y="0.5" width="272.46" height="77.94"/><path class="cls-2" d="M272.46,1V77.94H1V1H272.46m1-1H0V78.94H273.46V0Z"/><g class="cls-3"><polygon class="cls-4" points="5.89 73.25 267.78 73.25 267.78 4.81 5.89 73.25"/></g><polygon class="cls-5" points="89.25 19.4 89.25 59.74 80.22 59.74 80.22 61.86 91.36 61.86 91.36 17.28 43.07 17.28 43.07 61.86 54.22 61.86 54.22 59.74 45.19 59.74 45.19 19.4 89.25 19.4"/><path class="cls-6" d="M124.88,39.61,123.31,38a6.77,6.77,0,0,1-2.86.61c-3.67,0-6-2.36-6-6.34a5.75,5.75,0,0,1,6-6.14,5.83,5.83,0,0,1,6,6.17,7,7,0,0,1-1.34,4.23l1.31,1.37Zm-3.55-7.1,1.23,1.29a5.74,5.74,0,0,0,.16-1.52c0-2-.88-3.28-2.31-3.28-1.71,0-2.22,1.78-2.22,3.28s.45,3.41,2.26,3.41a1.53,1.53,0,0,0,.57-.12l-1.29-1.33Z"/><path class="cls-6" d="M128.24,26.42H132v7.1c0,1.17.23,2.17,1.78,2.17,1.36,0,1.76-.89,1.76-2.17v-7.1h3.78v6.7c0,3.8-1.71,5.47-5.54,5.47-3.57,0-5.55-1.4-5.55-5.49Z"/><path class="cls-6" d="M141.66,38.27V26.42h3.78V38.27Zm1.89-15.37h3.35l-2.76,2.43H142Z"/><path class="cls-6" d="M155.43,32.89l-.15-2.7V26.42h3.62V38.27h-3.54l-4.11-6.45.14,2.7v3.75h-3.61V26.42h3.53Z"/><path class="cls-6" d="M160.5,26.42h10.56v3.11h-3.39v8.74h-3.78V29.53H160.5Z"/><path class="cls-6" d="M172.68,26.42h3.77v7.1c0,1.17.23,2.17,1.78,2.17,1.36,0,1.76-.89,1.76-2.17v-7.1h3.78v6.7c0,3.8-1.72,5.47-5.54,5.47-3.57,0-5.55-1.4-5.55-5.49Z"/><path class="cls-6" d="M185.8,38.27V26.42h5.55c3.31,0,4.91,1.56,4.91,4s-1.47,4.17-4.78,4.17h-1.91v3.68Zm5.34-6.45c.88,0,1.52-.36,1.52-1.38s-1.21-1.25-2-1.25h-1.08v2.63Z"/><path class="cls-6" d="M197.66,38.27V26.42h3.77v9.09h5.19v2.76Z"/><path class="cls-6" d="M208.33,38.27V26.42h9.39v2.77H212.1v1.69h4.76v2.77H212.1v1.86H218v2.76Z"/><path class="cls-6" d="M143.34,55.67V43.81h5.56c3.31,0,4.91,1.57,4.91,4S152.34,52,149,52h-1.91v3.69Zm5.35-6.46c.88,0,1.52-.36,1.52-1.38s-1.22-1.25-2-1.25h-1.07v2.63Z"/><path class="cls-6" d="M155.2,55.67V43.81H159V52.9h5.18v2.77Z"/><path class="cls-6" d="M165.78,43.81h3.78v7.1c0,1.17.22,2.17,1.77,2.17,1.36,0,1.76-.89,1.76-2.17v-7.1h3.78v6.7c0,3.81-1.71,5.47-5.54,5.47-3.57,0-5.55-1.4-5.55-5.48Z"/><path class="cls-6" d="M185.11,47.25a1,1,0,0,0-.54-.8,2.05,2.05,0,0,0-1-.22c-.83,0-1.2.25-1.2.68,0,1.78,6.62.67,6.62,5,0,2.75-2.22,4.08-5.39,4.08s-5-1.83-5.1-4h3.61a1.36,1.36,0,0,0,.63.94,2,2,0,0,0,1.07.3c.94,0,1.57-.32,1.57-.87,0-1.8-6.63-.56-6.63-5.09,0-2.52,2.12-3.79,5-3.79,3.2,0,4.65,1.68,4.92,3.75Z"/><g id="X3DEOX"><path class="cls-2" d="M72.26,40.92c-.06.55-.1.95-.15,1.47l1-.67a9.41,9.41,0,0,0,0,1.69,7.08,7.08,0,0,0,.66,2.24,48.19,48.19,0,0,1,2.54,6c.33.84.71,1.64,1,2.5a1.53,1.53,0,0,1-.53,1.82,2,2,0,0,1-2.19.21,1.85,1.85,0,0,1-.73-1,.91.91,0,0,0-.71-.66A5,5,0,0,1,70.81,53c-.39-.4-.76-.8-1.12-1.22a.57.57,0,0,0-.78-.13,2.6,2.6,0,0,0-1.44,2.84,24,24,0,0,0,.81,3.13,12.27,12.27,0,0,1,.79,4.8,5.56,5.56,0,0,1-2.24,4.12,2.24,2.24,0,0,1-.35.24l-.3-.35-5.76-6.07L57,56.63h0a17.55,17.55,0,0,1,1-6.17A9.92,9.92,0,0,1,63.24,45a21,21,0,0,1,5.91-1.66,1.58,1.58,0,0,0,.78-.4c.48-.45.89-1,1.36-1.43A6.83,6.83,0,0,1,72.26,40.92Z"/></g><rect class="cls-2" x="58.42" y="24.83" width="2.69" height="13.76"/><rect class="cls-2" x="72.75" y="24.83" width="2.69" height="13.76"/><rect class="cls-2" x="65.74" y="21.27" width="2.69" height="14.46"/></svg>