<svg id="Layer_1" data-name="Layer 1" xmlns="http://www.w3.org/2000/svg" viewBox="0 0 273.46 78.94"><defs><style>.cls-1,.cls-6{fill:#fff;}.cls-2,.cls-5{fill:#be1e1d;}.cls-3{opacity:0.03;}.cls-4{fill:#1d1d1b;}.cls-5,.cls-6{fill-rule:evenodd;}</style></defs><rect class="cls-1" x="0.5" y="0.5" width="272.46" height="77.94"/><path class="cls-2" d="M272.46,1V77.94H1V1H272.46m1-1H0V78.94H273.46V0Z"/><g class="cls-3"><polygon class="cls-4" points="5.7 73.48 267.6 73.48 267.6 5.04 5.7 73.48"/></g><path class="cls-5" d="M47.94,37.32A18.64,18.64,0,1,1,66.58,56,18.63,18.63,0,0,1,47.94,37.32Z"/><path class="cls-6" d="M51.66,37.32c0-10.3,6.68-18.64,14.92-18.64S81.49,27,81.49,37.32,74.81,56,66.58,56,51.66,47.61,51.66,37.32Z"/><path class="cls-5" d="M54.72,37.32C54.72,27,60,18.68,66.58,18.68S78.44,27,78.44,37.32,73.13,56,66.58,56,54.72,47.61,54.72,37.32Z"/><path class="cls-6" d="M58.1,37.32c0-10.3,3.8-18.64,8.48-18.64S75.05,27,75.05,37.32,71.26,56,66.58,56,58.1,47.61,58.1,37.32Z"/><path class="cls-5" d="M61.49,37.32c0-10.3,2.28-18.64,5.09-18.64S71.66,27,71.66,37.32,69.38,56,66.58,56s-5.09-8.35-5.09-18.64Z"/><path class="cls-6" d="M64.88,37.32c0-10.3.76-18.64,1.7-18.64S68.27,27,68.27,37.32,67.51,56,66.58,56s-1.7-8.35-1.7-18.64Z"/><path class="cls-5" d="M77.37,22.12H55.79a18.64,18.64,0,0,1,21.58,0Z"/><path class="cls-5" d="M56.09,52.72h21a18.6,18.6,0,0,1-21,0Z"/><path class="cls-6" d="M47.92,36.13H85.23c0,.39,0,.79,0,1.19s0,.79,0,1.18H47.92c0-.39,0-.79,0-1.18s0-.8,0-1.19Z"/><path class="cls-6" d="M56.55,21.39H76.61a20.6,20.6,0,0,1,2,1.35H54.54a19.59,19.59,0,0,1,2-1.35Z"/><path class="cls-6" d="M54.72,51.89H78.44a21,21,0,0,1-2,1.36H56.69a19.63,19.63,0,0,1-2-1.36Z"/><polygon class="cls-5" points="63.87 54.6 69.29 54.6 69.29 60.02 63.87 60.02 63.87 54.6 63.87 54.6"/><path class="cls-2" d="M107.42,42.67V47h-3.91V34.63h5.64c4,0,5.29,1.12,5.29,3.51a2.85,2.85,0,0,1-2,3c1.27.48,2,.79,2,3.27,0,1.61,0,2.16.41,2.16V47h-4a8.2,8.2,0,0,1-.2-2.15c0-1.61-.27-2.14-2.09-2.14Zm0-2.71H109c1.21,0,1.85-.31,1.85-1.17s-.66-1.28-1.57-1.28h-1.83Z"/><path class="cls-2" d="M116.67,47V34.63h9.74v2.88h-5.82v1.76h4.93v2.88h-4.93v1.94h6V47Z"/><path class="cls-2" d="M134.78,38.21a1.1,1.1,0,0,0-.56-.84,2.16,2.16,0,0,0-1-.22c-.86,0-1.24.26-1.24.7,0,1.85,6.87.71,6.87,5.19,0,2.86-2.31,4.25-5.59,4.25s-5.21-1.9-5.3-4.13h3.76a1.4,1.4,0,0,0,.64,1,2.16,2.16,0,0,0,1.11.31c1,0,1.63-.33,1.63-.91,0-1.87-6.87-.58-6.87-5.29,0-2.62,2.19-3.94,5.18-3.94,3.32,0,4.83,1.74,5.11,3.9Z"/><path class="cls-2" d="M140.55,34.63h3.91V42c0,1.22.23,2.26,1.84,2.26,1.41,0,1.83-.92,1.83-2.26V34.63H152v7c0,4-1.77,5.69-5.74,5.69-3.7,0-5.75-1.46-5.75-5.7Z"/><path class="cls-2" d="M154.47,47V34.63h3.92v9.46h5.37V47Z"/><path class="cls-2" d="M163.27,34.63h10.95v3.24h-3.51V47h-3.92V37.87h-3.52Z"/><path class="cls-2" d="M173.7,47,178,34.63h4L186.24,47h-3.9l-.46-1.62H178L177.53,47Zm6.24-8.61-1.22,4.42h2.48Z"/><path class="cls-2" d="M187.51,47V34.63h5.24c3.85,0,6.24,1.85,6.24,5.91,0,4.64-2.5,6.42-6.34,6.42Zm3.92-2.87h.83c1.82,0,2.82-1,2.82-3.33,0-2.56-.82-3.25-2.91-3.25h-.74Z"/><path class="cls-2" d="M212.52,40.73c0,4.2-2.74,6.56-6.27,6.56-3.75,0-6.26-2.4-6.26-6.59,0-3.87,2.54-6.39,6.26-6.39C210.51,34.31,212.52,37.48,212.52,40.73Zm-8.61,0c0,1.58.46,3.54,2.34,3.54,1.69,0,2.36-1.5,2.36-3.54,0-1.68-.67-3.46-2.39-3.41S203.91,39.17,203.91,40.73Z"/><path class="cls-2" d="M220.56,38.21a1.09,1.09,0,0,0-.57-.84,2.15,2.15,0,0,0-1-.22c-.86,0-1.24.26-1.24.7,0,1.85,6.87.71,6.87,5.19,0,2.86-2.31,4.25-5.59,4.25s-5.21-1.9-5.3-4.13h3.75a1.41,1.41,0,0,0,.65,1,2.13,2.13,0,0,0,1.11.31c1,0,1.63-.33,1.63-.91,0-1.87-6.87-.58-6.87-5.29,0-2.62,2.19-3.94,5.18-3.94,3.31,0,4.82,1.74,5.1,3.9Z"/></svg>