<?xml version="1.0" encoding="utf-8"?>
<!-- Generator: Adobe Illustrator 19.2.1, SVG Export Plug-In . SVG Version: 6.00 Build 0)  -->
<svg version="1.1" id="Capa_1" xmlns="http://www.w3.org/2000/svg" xmlns:xlink="http://www.w3.org/1999/xlink" x="0px" y="0px"
	 viewBox="0 0 15.1 15" style="enable-background:new 0 0 15.1 15;" xml:space="preserve">
<style type="text/css">
	.st0{fill:#FFFFFF;}
	.st1{clip-path:url(#SVGID_2_);fill:#FFFFFF;}
</style>
<g id="LOGO_LOTERIAS">
	<g>
		<g>
			<polygon class="st0" points="12.1,11.6 10.8,11.6 10.8,10.9 11.4,10.9 11.4,2.1 3.1,2.1 3.1,10.9 3.7,10.9 3.7,11.6 2.4,11.6 
				2.4,1.4 12.1,1.4 			"/>
		</g>
	</g>
	<g>
		<g>
			<defs>
				<ellipse id="SVGID_1_" cx="7.3" cy="8.2" rx="3" ry="3.2"/>
			</defs>
			<clipPath id="SVGID_2_">
				<use xlink:href="#SVGID_1_"  style="overflow:visible;"/>
			</clipPath>
			<path class="st1" d="M10.3,8.1c0,0,0-0.1,0-0.1c0,0,0,0,0-0.1c0,0,0,0,0-0.1c0-0.1,0-0.1,0-0.2c0-0.1-0.1-0.3-0.1-0.4
				c0-0.1-0.1-0.3-0.1-0.4C10,6.6,9.9,6.4,9.7,6.2C9.7,6.1,9.6,6,9.6,6c0,0,0,0-0.1-0.1l0,0c0,0,0,0,0,0l0,0l0,0c0,0,0,0,0,0
				C9.3,5.7,9.3,5.6,9.2,5.5C9.1,5.5,9,5.4,8.9,5.3c0,0-0.1,0-0.1,0c0,0-0.1,0-0.1,0c0,0-0.1,0-0.1,0l0,0l0,0l0,0l0,0l0,0l0,0l0,0
				c0,0,0,0,0,0l0,0l0,0l0,0l0,0c0,0-0.1,0-0.1,0C8.1,5,8,5,7.9,4.9c-0.2,0-0.4-0.1-0.7-0.1C7,4.9,6.8,4.9,6.6,5
				C6.4,5,6.3,5,6.2,5.1C6.1,5.1,6,5.2,5.9,5.2C5.7,5.3,5.5,5.5,5.3,5.6C5.1,5.8,5,6,4.8,6.1c0,0-0.1,0.1-0.1,0.1c0,0,0,0,0,0.1
				c0,0,0,0,0,0l0,0l0,0l0,0l0,0l0,0l0,0l0,0l0,0c0,0,0,0.1,0,0.1c0,0,0,0.1,0,0.1C4.4,7,4.3,7.2,4.2,7.5c0,0.1,0,0.1,0,0.2
				c0,0.1,0,0.1,0,0.2c0,0.1,0,0.2,0,0.4c0,0.2,0,0.5,0.1,0.7c0.1,0.5,0.3,0.9,0.6,1.3c0.1,0.2,0.3,0.4,0.5,0.5c0,0,0,0,0.1,0.1l0,0
				l0,0l0,0l0,0l0,0l0,0l0,0c0,0,0,0,0.1,0c0.1,0.1,0.2,0.1,0.3,0.2c0.2,0.1,0.4,0.2,0.6,0.2c0.1,0,0.2,0,0.3,0c0.1,0,0.2,0,0.3,0
				c0.4,0,0.8-0.1,1.2-0.3c0.4-0.2,0.7-0.4,1-0.7c0.1-0.1,0.1-0.1,0.2-0.2c0,0,0,0,0-0.1c0,0,0,0,0-0.1l0,0l0,0l0,0l0,0
				c0,0,0,0,0-0.1c0,0,0,0,0-0.1l0,0l0,0l0,0l0,0l0,0c0,0,0,0,0-0.1C10,9.7,10,9.6,10,9.5c0-0.1,0.1-0.2,0.1-0.2
				c0-0.1,0.1-0.2,0.1-0.3c0-0.1,0-0.2,0.1-0.3c0-0.1,0-0.2,0-0.2C10.3,8.4,10.3,8.2,10.3,8.1z M9,7.2C9,8,8.4,8.7,7.6,8.7
				S6.1,8,6.1,7.2c0-0.7,0.4-1.2,1-1.4c0,0,0,0,0,0c0,0,0,0,0,0c0,0,0,0,0,0c0,0,0,0,0,0c0,0,0,0,0,0c0.1,0,0.3-0.1,0.4-0.1
				C8.4,5.7,9,6.4,9,7.2z M9.6,8.6c0,0.1,0,0.3-0.1,0.4c0,0.1,0,0.1-0.1,0.2c0,0.1-0.1,0.1-0.1,0.2c0,0.1-0.1,0.1-0.1,0.2
				c0,0,0,0,0,0l0,0l0,0l0,0l0,0l0,0c0,0,0,0,0,0c0,0,0,0,0,0l0,0c0,0,0,0,0,0l0,0l0,0c0,0,0,0,0,0c0,0,0,0,0,0
				c0,0.1-0.1,0.1-0.2,0.2c-0.1,0.1-0.2,0.2-0.4,0.3c-0.1,0.1-0.3,0.1-0.4,0.2c-0.3,0.1-0.6,0.1-0.9,0.1c-0.3,0-0.6-0.1-0.9-0.3
				c-0.1,0-0.1-0.1-0.2-0.1l0,0l0,0l0,0c0,0,0,0,0,0l0,0l0,0l0,0c0,0,0,0,0,0l0,0c0,0,0,0,0,0C5.7,10,5.6,9.9,5.5,9.7
				C5.4,9.6,5.3,9.5,5.2,9.3c0-0.1-0.1-0.2-0.1-0.2C5.1,9,5,8.9,5,8.8C5,8.7,4.9,8.5,4.9,8.3c0-0.1,0-0.2,0-0.3c0-0.1,0-0.2,0-0.3
				c0-0.2,0.1-0.4,0.1-0.5c0,0,0,0,0-0.1c0,0,0,0,0-0.1l0,0l0,0l0,0l0,0l0,0l0,0c0,0,0,0,0,0l0,0l0,0c0,0,0,0,0-0.1
				c0,0,0.1-0.1,0.1-0.1c0.2-0.3,0.4-0.5,0.7-0.7c0,0,0,0,0,0c0,0,0,0,0,0.1c0,0,0,0,0,0.1c0,0-0.1,0.1-0.1,0.2
				c0,0.1-0.1,0.1-0.1,0.2c0,0.1,0,0.1-0.1,0.2C5.6,7,5.6,7.3,5.6,7.6c0,0.3,0.1,0.6,0.3,0.9c0,0,0,0.1,0.1,0.1c0,0,0,0,0,0.1l0,0
				l0,0l0,0c0,0,0,0,0,0l0,0l0,0c0,0,0,0,0,0l0,0l0,0l0,0l0,0c0,0,0,0,0,0.1c0,0,0,0,0.1,0.1c0.1,0.1,0.1,0.1,0.2,0.2
				c0.1,0.1,0.2,0.1,0.2,0.2c0.2,0.1,0.4,0.2,0.6,0.2c0.1,0,0.2,0,0.3,0c0,0,0.1,0,0.1,0c0,0,0,0,0,0l0,0l0,0c0,0,0,0,0,0l0,0l0,0
				l0,0l0,0l0,0l0,0l0,0c0.1,0,0.2-0.1,0.3-0.1c0,0,0.1,0,0.1-0.1c0,0,0.1,0,0.1-0.1c0.2-0.1,0.4-0.2,0.5-0.4
				c0.2-0.2,0.3-0.3,0.4-0.6l0,0l0,0l0,0l0,0l0,0l0,0l0,0c0,0,0,0,0,0l0,0C9.6,8.2,9.6,8.4,9.6,8.6z"/>
		</g>
	</g>
</g>
</svg>
