<?xml version="1.0" encoding="utf-8"?>
<!-- Generator: Adobe Illustrator 19.2.1, SVG Export Plug-In . SVG Version: 6.00 Build 0)  -->
<svg version="1.1" xmlns="http://www.w3.org/2000/svg" xmlns:xlink="http://www.w3.org/1999/xlink" x="0px" y="0px"
	 viewBox="0 0 24 21.8" style="enable-background:new 0 0 24 21.8;" xml:space="preserve">
<style type="text/css">
	.st0{display:none;}
	.st1{display:inline;}
	.st2{fill:#FFFFFF;}
</style>
<g id="primitiva" class="st0">
	<g id="LOOG_PRIM_2_" class="st1">
		<g>
			<g>
				<polygon class="st2" points="21.5,20.6 18.9,20.6 18.9,19.2 20.1,19.2 20.1,2.9 3.9,2.9 3.9,19.2 5,19.2 5,20.6 2.5,20.6 
					2.5,1.6 21.5,1.6 				"/>
			</g>
		</g>
		<g>
			<path class="st2" d="M17.8,15c0-0.3,0.1-0.6,0.1-0.9c0-0.3,0-0.6-0.1-0.8C16,13.2,14.1,13,12,13c-2.4,0-4.5,0.1-5.9,0.3
				c0,0.3-0.1,0.5-0.1,0.8s0,0.6,0.1,0.9c1.3,0.1,3.3,0.2,5.9,0.2C13.9,15.2,15.9,15.2,17.8,15z"/>
			<path class="st2" d="M16.6,17.9c0.5-0.6,0.8-1.2,1-1.9c-1.8,0.1-3.8,0.2-5.6,0.2c-2.4,0-4.4-0.1-5.7-0.2c0.2,0.7,0.6,1.4,1,1.9
				c1.3,0.2,2.9,0.5,4.7,0.5C13.5,18.3,15,18.2,16.6,17.9z"/>
			<path class="st2" d="M7.3,10.5c-0.4,0.6-0.8,1.2-1,1.9c1.4-0.1,3.5-0.2,5.7-0.2c2,0,3.9,0.1,5.6,0.2c-0.2-0.7-0.6-1.4-1-1.9
				C15.3,10.2,13.7,10,12,10C10.5,10,9,10.1,7.3,10.5z"/>
			<path class="st2" d="M12,9.1c1.2,0,2.3,0.1,3.4,0.3c-1-0.7-2.1-1.1-3.4-1.1S9.5,8.7,8.6,9.4C9.7,9.2,10.9,9.1,12,9.1z"/>
			<path class="st2" d="M12,19.2c-1.3,0-2.4-0.1-3.5-0.2c1,0.7,2.1,1.1,3.4,1.1s2.4-0.4,3.4-1.1C14.2,19.2,13.1,19.2,12,19.2z"/>
		</g>
	</g>
</g>
<g id="Bonolot" class="st0">
	<g class="st1">
		<g>
			<g>
				<polygon class="st2" points="21.4,19 18.8,19 18.8,17.7 20,17.7 20,3 3.8,3 3.8,17.7 4.9,17.7 4.9,19 2.4,19 2.4,1.7 21.4,1.7 
									"/>
			</g>
		</g>
		<g>
			<g>
				<path class="st2" d="M7.5,12.2c-1.1-1-1.3-2.3-0.2-3.3s2.5-0.8,3.6,0.2c1.3,1.1,0,3.1,0.6,3.6c0,0,0,0.1-0.1,0
					C10.8,12.2,8.8,13.3,7.5,12.2z"/>
				<path class="st2" d="M16.2,12.2c1.1-1,1.3-2.3,0.2-3.3s-2.5-0.8-3.6,0.2c-1.3,1.1,0,3.1-0.6,3.6c0,0,0,0.1,0.1,0
					C12.9,12.2,14.9,13.3,16.2,12.2z"/>
				<path class="st2" d="M7.5,13.8c-1.1,1-1.3,2.3-0.2,3.3s2.5,0.8,3.6-0.2c1.3-1.1,0-3.1,0.6-3.6c0,0,0-0.1-0.1,0
					C10.8,13.7,8.8,12.6,7.5,13.8z"/>
				<path class="st2" d="M16.2,13.8c1.1,1,1.3,2.3,0.2,3.3c-1.1,1-2.5,0.8-3.6-0.2c-1.3-1.1,0-3.1-0.6-3.6c0,0,0-0.1,0.1,0
					C12.9,13.7,14.9,12.6,16.2,13.8z"/>
			</g>
			<path class="st2" d="M11,20.7c-0.1,0-0.3,0-0.4-0.1c-0.3-0.2-0.3-0.6-0.1-0.8c0.7-0.8,0.8-1.8,0.7-2.4c0-0.3,0.3-0.6,0.6-0.6
				c0.4,0,0.7,0.2,0.7,0.6c0.1,1.2-0.3,2.3-1,3.2C11.3,20.6,11.1,20.7,11,20.7z"/>
		</g>
	</g>
</g>
<g id="ElGordo" class="st0">
	<g class="st1">
		<g>
			<g>
				<polygon class="st2" points="21.5,20.6 18.9,20.6 18.9,19.2 20.1,19.2 20.1,2.9 3.9,2.9 3.9,19.2 5,19.2 5,20.6 2.5,20.6 
					2.5,1.6 21.5,1.6 				"/>
			</g>
		</g>
		<g>
			<path class="st2" d="M17.8,15c0-0.3,0.1-0.6,0.1-0.9c0-0.3,0-0.6-0.1-0.8C16,13.2,14.1,13,12,13c-2.4,0-4.5,0.1-5.9,0.3
				c0,0.3-0.1,0.5-0.1,0.8s0,0.6,0.1,0.9c1.3,0.1,3.3,0.2,5.9,0.2C13.9,15.2,15.9,15.2,17.8,15z"/>
			<path class="st2" d="M16.6,17.9c0.5-0.6,0.8-1.2,1-1.9c-1.8,0.1-3.8,0.2-5.6,0.2c-2.4,0-4.4-0.1-5.7-0.2c0.2,0.7,0.6,1.4,1,1.9
				c1.3,0.2,2.9,0.5,4.7,0.5C13.5,18.3,15,18.2,16.6,17.9z"/>
			<path class="st2" d="M7.3,10.5c-0.4,0.6-0.8,1.2-1,1.9c1.4-0.1,3.5-0.2,5.7-0.2c2,0,3.9,0.1,5.6,0.2c-0.2-0.7-0.6-1.4-1-1.9
				C15.3,10.2,13.7,10,12,10C10.6,10,9,10.2,7.3,10.5z"/>
			<path class="st2" d="M12,9.1c1.2,0,2.3,0.1,3.4,0.3c-1-0.7-2.1-1.1-3.4-1.1S9.5,8.7,8.6,9.4C9.7,9.2,10.9,9.1,12,9.1z"/>
			<path class="st2" d="M12,19.2c-1.3,0-2.4-0.1-3.5-0.2c1,0.7,2.1,1.1,3.4,1.1s2.4-0.4,3.4-1.1C14.2,19.2,13.1,19.2,12,19.2z"/>
		</g>
	</g>
</g>
<g id="LoteriaNacional">
	<g id="logo_loteria_2_">
		<g>
			<polygon class="st2" points="21.4,20.6 18.8,20.6 18.8,19.2 20,19.2 20,3.1 4.3,3.1 4.3,19.2 5.4,19.2 5.4,20.6 3,20.6 3,1.7 
				21.4,1.7 			"/>
		</g>
		<g>
			<g>
				<path class="st2" d="M11,18.2c-0.2-1.2-0.3-2.5-0.3-4c0-1.8,0.2-3.6,0.5-4.8h-0.3c-1.1,1.1-1.8,2.9-1.8,4.8c0,1.6,0.4,2.9,1.1,4
					H11z"/>
				<path class="st2" d="M8.8,18.2h0.5c-0.7-1.2-1-2.5-1-4c0-1.8,0.6-3.5,1.5-4.8l0,0c-0.8,0.5-1.5,1.1-2,1.9
					C7.3,12.1,7,13.1,7,14.2c0,1.3,0.4,2.4,1.1,3.3C8.3,17.8,8.6,18,8.8,18.2z"/>
				<path class="st2" d="M13.4,18.2h0.7c0.8-1.1,1.2-2.5,1.1-4c0-1.9-0.7-3.7-1.8-4.8h-0.3c0.3,1.2,0.5,3,0.5,4.8
					C13.8,15.7,13.7,17.1,13.4,18.2z"/>
				<path class="st2" d="M12.6,18.2c0.2-1.1,0.4-2.5,0.4-4c0-1.9-0.2-3.7-0.6-4.8H12c-0.3,1.1-0.6,3-0.6,4.8c0,1.5,0.1,2.9,0.4,4
					H12.6z"/>
				<path class="st2" d="M15,18.2h0.5c0.3-0.2,0.5-0.4,0.7-0.7c0.7-0.9,1.1-2.1,1.1-3.3c0-1.1-0.3-2-0.8-2.9c-0.5-0.7-1.2-1.4-2-1.9
					l0,0c0.9,1.2,1.5,3,1.5,4.8C16,15.7,15.6,17,15,18.2z"/>
			</g>
			<path class="st2" d="M13.6,8.9c-0.4-0.2-0.9-0.4-1.4-0.4c-0.5,0-1,0.1-1.4,0.4H13.6z"/>
			<path class="st2" d="M15,18.8H9.4c0.7,0.4,1.5,0.7,2.3,0.8v1h1.1v-1C13.6,19.5,14.4,19.2,15,18.8z"/>
		</g>
	</g>
</g>
</svg>
