<?xml version="1.0" encoding="utf-8"?>
<!-- Generator: Adobe Illustrator 25.2.1, SVG Export Plug-In . SVG Version: 6.00 Build 0)  -->
<svg version="1.1" id="Capa_1" xmlns="http://www.w3.org/2000/svg" xmlns:xlink="http://www.w3.org/1999/xlink" x="0px" y="0px"
	 viewBox="0 0 24 21.8" style="enable-background:new 0 0 24 21.8;" xml:space="preserve">
<style type="text/css">
	.st0{fill:#FFFFFF;}
	.st1{font-family:'HurmeGeometricSans2-Black';}
	.st2{font-size:2px;}
</style>
<g>
	<g>
		<g>
			<polygon class="st0" points="22.6,20.9 19.8,20.9 19.8,19.5 21.1,19.5 21.1,2.3 3.9,2.3 3.9,19.5 5.1,19.5 5.1,20.9 2.4,20.9 
				2.4,0.9 22.6,0.9 			"/>
		</g>
	</g>
	<g>
		<g>
			<path class="st0" d="M20,13c-0.2-0.5-0.5-0.9-0.9-1.2c-0.4-0.3-0.8-0.5-1.3-0.7c-0.5-0.2-1-0.2-1.5-0.2c-0.4,0-0.7,0-1,0.1
				c-0.3,0.1-0.6,0.2-0.8,0.3l0.1-1.8h5.3V6.9h-6l-2,3.6l-0.1,2.3l1.9,1.1c0.3-0.2,0.6-0.3,0.9-0.4c0.3-0.1,0.6-0.2,1-0.2
				c0.5,0,0.9,0.1,1.2,0.4c0.3,0.2,0.5,0.6,0.5,1v0c0,0.4-0.2,0.8-0.5,1c-0.3,0.2-0.7,0.4-1.3,0.4c-0.5,0-1-0.1-1.4-0.3
				c-0.5-0.2-0.9-0.5-1.4-0.9L10.8,17c0.6,0.6,1.3,1,2.1,1.4c0.8,0.3,1.7,0.5,2.7,0.5c0.7,0,1.4-0.1,2-0.3c0.6-0.2,1.1-0.5,1.5-0.8
				c0.4-0.4,0.8-0.8,1-1.3c0.2-0.5,0.4-1.1,0.4-1.8v0C20.3,14,20.2,13.5,20,13z"/>
		</g>
		<g>
			<polygon class="st0" points="13.8,3.3 13.8,5.7 13.1,6.9 11.9,9.2 8.6,15 5.1,15 10.2,6 4.8,6 4.8,3.3 			"/>
		</g>
	</g>
</g>
<text transform="matrix(1 0 0 1 5.4444 20.9499)"><tspan x="0" y="0" class="st0 st1 st2">ANIVER</tspan><tspan x="7.8" y="0" class="st0 st1 st2">S</tspan><tspan x="9" y="0" class="st0 st1 st2">ARI</tspan><tspan x="12.5" y="0" class="st0 st1 st2">O</tspan></text>
</svg>
