<?xml version="1.0" encoding="utf-8"?>
<!-- Generator: Adobe Illustrator 22.1.0, SVG Export Plug-In . SVG Version: 6.00 Build 0)  -->
<svg version="1.1" id="Capa_1" xmlns="http://www.w3.org/2000/svg" xmlns:xlink="http://www.w3.org/1999/xlink" x="0px" y="0px"
	 viewBox="0 0 77.8 77.8" style="enable-background:new 0 0 77.8 77.8;" xml:space="preserve">
<style type="text/css">
	.st0{fill:#FFFFFF;}
</style>
<title>Recurso 4</title>
<g id="Capa_2_1_">
	<g id="quinigol">
		<path class="st0" d="M40,33.1v5.7l1,0.6l0.2,0.1l3,2l0.1,0.1l0.4,0.3c0.3,0.2,0.5,0.4,0.7,0.6l0.1,0.1l0.5,0.5l0.5,0.4l0.1,0.1
			l5.9-1.6c0.4-0.1,0.6-0.4,0.6-0.8c0-0.4,0-0.9,0-1.7c-0.1-1.8-0.3-3.5-0.7-5.3L52,33.8c-0.9-0.8-1.8-1.5-2.8-2.1l-0.5-0.3
			c-0.6-0.4-1.2-0.7-1.9-0.9h-0.2l-1.2,0.1c-1.8,0.1-3.6,0.7-5.2,1.6C40.1,32.5,40,32.8,40,33.1z"/>
		<path class="st0" d="M38.8,40.5l-5.7,4.1c-0.3,0.2-0.5,0.6-0.3,1l2,6.1c0.1,0.4,0.4,0.6,0.8,0.6l3.4,0.2h0.1l3.1-0.2
			c0.4,0,0.7-0.3,0.8-0.6l2-6.2c0.1-0.4,0-0.8-0.3-1L38.8,40.5L38.8,40.5z"/>
		<path class="st0" d="M37.4,32.3c-1.6-0.9-3.3-1.4-5.1-1.6l0,0l-0.7-0.1l0,0h-0.4c-0.7,0-1.3,0.2-1.9,0.6c-1.2,0.6-2.3,1.4-3.3,2.2
			c-0.1,0.1-0.2,0.2-0.2,0.3c-0.4,1-0.6,2-0.7,3v0.1c-0.2,0.9-0.2,1.9-0.2,2.8v0.2c0,0.5,0,0.9,0,1.2c0,0.4,0.3,0.7,0.6,0.8l5.8,1.7
			l0,0l0.5-0.5l0.6-0.5l0.7-0.6l0.4-0.3l0.1-0.1l2.9-2l0.2-0.1l0.9-0.5c0-0.9,0-3.6,0-5.7C37.7,32.8,37.6,32.5,37.4,32.3z"/>
		<path class="st0" d="M42.9,67.9c-1.4,0.3-2.8,0.4-4.2,0.4c-1.3,0-2.6-0.1-3.9-0.4c-0.2-0.1-0.5,0-0.7,0.1
			c-0.5,0.3-1.1,0.6-1.7,0.9c2.1,0.7,4.2,1.1,6.4,1.1c2.2,0,4.3-0.4,6.4-1.1c-0.6-0.2-1.2-0.5-1.7-0.9
			C43.4,67.9,43.1,67.9,42.9,67.9z"/>
		<path class="st0" d="M55.2,42.5c1.5,1.4,2.6,3.2,3.3,5.1c0.4-0.4,0.7-0.8,1-1.3c0-0.1,0.1-0.1,0.1-0.2c-0.6-4.2-2.5-8.1-5.4-11.2
			c0.6,2.2,0.8,4.5,0.7,6.8C54.9,42,55,42.3,55.2,42.5z"/>
		<path class="st0" d="M18.1,46.1c0,0.1,0.1,0.1,0.1,0.1c0.3,0.5,0.6,0.9,1,1.3c0.7-1.9,1.9-3.6,3.3-5.1c0.2-0.2,0.4-0.5,0.3-0.9
			c-0.2-2.1-0.1-4.3,0.4-6.4C20.5,38.3,18.7,42,18.1,46.1z"/>
		<path class="st0" d="M46.8,60c-0.6-1.1-1.4-2.4-2.4-3.9c-0.4-0.5-0.7-1-1-1.4c-0.2-0.3-0.5-0.4-0.9-0.4c-1,0.1-2,0.2-3.1,0.1h-1.1
			c-1,0-2,0-3.1-0.1c-0.3-0.1-0.7,0.1-0.9,0.4c-0.3,0.4-0.6,0.9-1,1.4c-1,1.5-1.8,2.8-2.4,3.9c-0.1,0.2-0.2,0.5-0.1,0.8
			c0.8,1.9,2.1,3.6,3.6,4.9l0,0c0.8,0.2,1.6,0.4,2.4,0.5c1.3,0.2,2.6,0.2,3.9,0c0.7-0.1,1.5-0.2,2.2-0.4c0.1,0,0.3-0.1,0.4-0.2
			c1.5-1.3,2.6-3,3.4-4.8C46.9,60.6,46.9,60.3,46.8,60z"/>
		<path class="st0" d="M29,67.6h0.1c0.8,0,1.6-0.1,2.3-0.4c0.5-0.1,0.7-0.6,0.6-1.1c0-0.1-0.1-0.2-0.2-0.3c-1.1-1.3-2-2.7-2.7-4.3
			C29,61.2,28.7,61,28.4,61c-1.3-0.2-2.7-0.6-3.9-1.1c-0.4-0.2-0.9,0-1.1,0.4c0,0.1-0.1,0.2-0.1,0.4c0,1,0,2,0.2,3
			c1.4,1.5,3,2.9,4.8,3.9L29,67.6z"/>
		<path class="st0" d="M33.5,29.1c1.7,0.3,3.4,0.8,4.9,1.6c0.3,0.2,0.6,0.2,0.9,0c1.6-0.8,3.4-1.4,5.2-1.6l-1-0.4l-0.8-0.3
			C41.5,28.2,40.2,28,39,28l0,0h-0.3l0,0c-1.2,0-2.4,0.2-3.6,0.4C34.6,28.6,34.1,28.9,33.5,29.1z"/>
		<path class="st0" d="M54.4,60.7c0-0.5-0.4-0.9-0.8-0.9c-0.1,0-0.2,0-0.4,0.1c-1.3,0.5-2.6,0.8-4,1.1c-0.3,0-0.6,0.2-0.7,0.5
			c-0.7,1.6-1.6,3-2.7,4.3c-0.3,0.3-0.3,0.9,0,1.2c0.1,0.1,0.2,0.2,0.4,0.2c0.7,0.2,1.5,0.4,2.3,0.4h0.9c1.8-1.1,3.4-2.4,4.8-3.9
			C54.4,62.7,54.5,61.7,54.4,60.7z"/>
		<path class="st0" d="M49.3,59c1.7-0.3,3.3-0.9,4.8-1.6v-0.1c2-2.3,2.6-6,2.7-7.4c0-0.3,0-0.5,0-0.6v-0.2V49c-0.6-1.9-1.6-3.6-3-5
			c-0.2-0.2-0.6-0.3-0.9-0.2l-5.5,1.5C47.3,45.4,47,45.7,47,46c-0.4,2.3-1.1,4.5-2,6.6c-0.1,0.3-0.1,0.6,0.1,0.9
			c0.7,1.1,2.2,3.1,3.3,5.1C48.5,58.9,48.9,59.1,49.3,59z"/>
		<path class="st0" d="M56.4,60c1.9-3.2,3-6.9,3.1-10.7c-0.1,0.1-0.3,0.2-0.5,0.3c-0.1,1.5-0.6,5.4-2.7,8.3
			c-0.2,0.2-0.2,0.5-0.1,0.7C56.3,59.1,56.4,59.6,56.4,60z"/>
		<path class="st0" d="M23.7,57.4c1.5,0.7,3.2,1.3,4.8,1.6c0.4,0.1,0.8-0.1,0.9-0.4c1.2-2,2.6-4,3.3-5.1c0.2-0.3,0.2-0.6,0.1-0.9
			c-0.9-2.1-1.6-4.4-2.1-6.6c-0.1-0.3-0.3-0.6-0.6-0.7l-5.5-1.5c-0.3-0.1-0.6,0-0.9,0.2c-1.4,1.4-2.4,3.1-3,5v0.3
			c0,0.1,0,0.4,0.1,0.6C21,51.4,21.5,55.1,23.7,57.4L23.7,57.4z"/>
		<path class="st0" d="M18.7,49.7c-0.2-0.1-0.3-0.2-0.5-0.3c0,3.8,1.1,7.4,3,10.7c0-0.4,0.1-0.8,0.2-1.3c0.1-0.3,0-0.5-0.1-0.7
			C19.3,55.1,18.8,51.2,18.7,49.7z"/>
		<polygon class="st0" points="72.3,71.6 63.1,71.6 63.1,66.7 67.4,66.7 67.4,9.7 10.4,9.7 10.4,66.7 14.4,66.7 14.4,71.6 5.5,71.6 
			5.5,4.8 72.3,4.8 		"/>
	</g>
</g>
</svg>
