<?xml version="1.0" encoding="utf-8"?>
<!-- Generator: Adobe Illustrator 19.2.1, SVG Export Plug-In . SVG Version: 6.00 Build 0)  -->
<svg version="1.1" xmlns="http://www.w3.org/2000/svg" xmlns:xlink="http://www.w3.org/1999/xlink" x="0px" y="0px"
	 viewBox="0 0 24 21.8" style="enable-background:new 0 0 24 21.8;" xml:space="preserve">
<style type="text/css">
	.st0{display:none;}
	.st1{display:inline;}
	.st2{fill:#FFFFFF;}
</style>
<g id="primitiva" class="st0">
	<g id="LOOG_PRIM_2_" class="st1">
		<g>
			<g>
				<polygon class="st2" points="21.5,20.6 18.9,20.6 18.9,19.2 20.1,19.2 20.1,2.9 3.9,2.9 3.9,19.2 5,19.2 5,20.6 2.5,20.6 
					2.5,1.6 21.5,1.6 				"/>
			</g>
		</g>
		<g>
			<path class="st2" d="M17.8,15c0-0.3,0.1-0.6,0.1-0.9c0-0.3,0-0.6-0.1-0.8C16,13.2,14.1,13,12,13c-2.4,0-4.5,0.1-5.9,0.3
				c0,0.3-0.1,0.5-0.1,0.8s0,0.6,0.1,0.9c1.3,0.1,3.3,0.2,5.9,0.2C13.9,15.2,15.9,15.2,17.8,15z"/>
			<path class="st2" d="M16.6,17.9c0.5-0.6,0.8-1.2,1-1.9c-1.8,0.1-3.8,0.2-5.6,0.2c-2.4,0-4.4-0.1-5.7-0.2c0.2,0.7,0.6,1.4,1,1.9
				c1.3,0.2,2.9,0.5,4.7,0.5C13.5,18.3,15,18.2,16.6,17.9z"/>
			<path class="st2" d="M7.3,10.5c-0.4,0.6-0.8,1.2-1,1.9c1.4-0.1,3.5-0.2,5.7-0.2c2,0,3.9,0.1,5.6,0.2c-0.2-0.7-0.6-1.4-1-1.9
				C15.3,10.2,13.7,10,12,10C10.5,10,9,10.1,7.3,10.5z"/>
			<path class="st2" d="M12,9.1c1.2,0,2.3,0.1,3.4,0.3c-1-0.7-2.1-1.1-3.4-1.1S9.5,8.7,8.6,9.4C9.7,9.2,10.9,9.1,12,9.1z"/>
			<path class="st2" d="M12,19.2c-1.3,0-2.4-0.1-3.5-0.2c1,0.7,2.1,1.1,3.4,1.1s2.4-0.4,3.4-1.1C14.2,19.2,13.1,19.2,12,19.2z"/>
		</g>
	</g>
</g>
<g id="Bonolot" class="st0">
	<g class="st1">
		<g>
			<g>
				<polygon class="st2" points="21.4,19 18.8,19 18.8,17.7 20,17.7 20,3 3.8,3 3.8,17.7 4.9,17.7 4.9,19 2.4,19 2.4,1.7 21.4,1.7 
									"/>
			</g>
		</g>
		<g>
			<g>
				<path class="st2" d="M7.5,12.2c-1.1-1-1.3-2.3-0.2-3.3s2.5-0.8,3.6,0.2c1.3,1.1,0,3.1,0.6,3.6c0,0,0,0.1-0.1,0
					C10.8,12.2,8.8,13.3,7.5,12.2z"/>
				<path class="st2" d="M16.2,12.2c1.1-1,1.3-2.3,0.2-3.3s-2.5-0.8-3.6,0.2c-1.3,1.1,0,3.1-0.6,3.6c0,0,0,0.1,0.1,0
					C12.9,12.2,14.9,13.3,16.2,12.2z"/>
				<path class="st2" d="M7.5,13.8c-1.1,1-1.3,2.3-0.2,3.3s2.5,0.8,3.6-0.2c1.3-1.1,0-3.1,0.6-3.6c0,0,0-0.1-0.1,0
					C10.8,13.7,8.8,12.6,7.5,13.8z"/>
				<path class="st2" d="M16.2,13.8c1.1,1,1.3,2.3,0.2,3.3c-1.1,1-2.5,0.8-3.6-0.2c-1.3-1.1,0-3.1-0.6-3.6c0,0,0-0.1,0.1,0
					C12.9,13.7,14.9,12.6,16.2,13.8z"/>
			</g>
			<path class="st2" d="M11,20.7c-0.1,0-0.3,0-0.4-0.1c-0.3-0.2-0.3-0.6-0.1-0.8c0.7-0.8,0.8-1.8,0.7-2.4c0-0.3,0.3-0.6,0.6-0.6
				c0.4,0,0.7,0.2,0.7,0.6c0.1,1.2-0.3,2.3-1,3.2C11.3,20.6,11.1,20.7,11,20.7z"/>
		</g>
	</g>
</g>
<g id="ElGordo" class="st0">
	<g class="st1">
		<g>
			<g>
				<polygon class="st2" points="21.5,20.6 18.9,20.6 18.9,19.2 20.1,19.2 20.1,2.9 3.9,2.9 3.9,19.2 5,19.2 5,20.6 2.5,20.6 
					2.5,1.6 21.5,1.6 				"/>
			</g>
		</g>
		<g>
			<path class="st2" d="M17.8,15c0-0.3,0.1-0.6,0.1-0.9c0-0.3,0-0.6-0.1-0.8C16,13.2,14.1,13,12,13c-2.4,0-4.5,0.1-5.9,0.3
				c0,0.3-0.1,0.5-0.1,0.8s0,0.6,0.1,0.9c1.3,0.1,3.3,0.2,5.9,0.2C13.9,15.2,15.9,15.2,17.8,15z"/>
			<path class="st2" d="M16.6,17.9c0.5-0.6,0.8-1.2,1-1.9c-1.8,0.1-3.8,0.2-5.6,0.2c-2.4,0-4.4-0.1-5.7-0.2c0.2,0.7,0.6,1.4,1,1.9
				c1.3,0.2,2.9,0.5,4.7,0.5C13.5,18.3,15,18.2,16.6,17.9z"/>
			<path class="st2" d="M7.3,10.5c-0.4,0.6-0.8,1.2-1,1.9c1.4-0.1,3.5-0.2,5.7-0.2c2,0,3.9,0.1,5.6,0.2c-0.2-0.7-0.6-1.4-1-1.9
				C15.3,10.2,13.7,10,12,10C10.6,10,9,10.2,7.3,10.5z"/>
			<path class="st2" d="M12,9.1c1.2,0,2.3,0.1,3.4,0.3c-1-0.7-2.1-1.1-3.4-1.1S9.5,8.7,8.6,9.4C9.7,9.2,10.9,9.1,12,9.1z"/>
			<path class="st2" d="M12,19.2c-1.3,0-2.4-0.1-3.5-0.2c1,0.7,2.1,1.1,3.4,1.1s2.4-0.4,3.4-1.1C14.2,19.2,13.1,19.2,12,19.2z"/>
		</g>
	</g>
</g>
<g id="LoteriaNacional" class="st0">
	<g id="logo_loteria_2_" class="st1">
		<g>
			<polygon class="st2" points="21.4,20.6 18.8,20.6 18.8,19.2 20,19.2 20,3.1 4.3,3.1 4.3,19.2 5.4,19.2 5.4,20.6 3,20.6 3,1.7 
				21.4,1.7 			"/>
		</g>
		<g>
			<g>
				<path class="st2" d="M11,18.2c-0.2-1.2-0.3-2.5-0.3-4c0-1.8,0.2-3.6,0.5-4.8h-0.3c-1.1,1.1-1.8,2.9-1.8,4.8c0,1.6,0.4,2.9,1.1,4
					H11z"/>
				<path class="st2" d="M8.8,18.2h0.5c-0.7-1.2-1-2.5-1-4c0-1.8,0.6-3.5,1.5-4.8l0,0c-0.8,0.5-1.5,1.1-2,1.9
					C7.3,12.1,7,13.1,7,14.2c0,1.3,0.4,2.4,1.1,3.3C8.3,17.8,8.6,18,8.8,18.2z"/>
				<path class="st2" d="M13.4,18.2h0.7c0.8-1.1,1.2-2.5,1.1-4c0-1.9-0.7-3.7-1.8-4.8h-0.3c0.3,1.2,0.5,3,0.5,4.8
					C13.8,15.7,13.7,17.1,13.4,18.2z"/>
				<path class="st2" d="M12.6,18.2c0.2-1.1,0.4-2.5,0.4-4c0-1.9-0.2-3.7-0.6-4.8H12c-0.3,1.1-0.6,3-0.6,4.8c0,1.5,0.1,2.9,0.4,4
					H12.6z"/>
				<path class="st2" d="M15,18.2h0.5c0.3-0.2,0.5-0.4,0.7-0.7c0.7-0.9,1.1-2.1,1.1-3.3c0-1.1-0.3-2-0.8-2.9c-0.5-0.7-1.2-1.4-2-1.9
					l0,0c0.9,1.2,1.5,3,1.5,4.8C16,15.7,15.6,17,15,18.2z"/>
			</g>
			<path class="st2" d="M13.6,8.9c-0.4-0.2-0.9-0.4-1.4-0.4c-0.5,0-1,0.1-1.4,0.4H13.6z"/>
			<path class="st2" d="M15,18.8H9.4c0.7,0.4,1.5,0.7,2.3,0.8v1h1.1v-1C13.6,19.5,14.4,19.2,15,18.8z"/>
		</g>
	</g>
</g>
<g id="Lototurf" class="st0">
	<g class="st1">
		<path class="st2" d="M13.7,8.8c0.2-0.3,0.6-0.6,1-0.7l0,0c0,0.2-0.1,0.5-0.1,0.7c0.2-0.1,0.3-0.3,0.5-0.4l0,0
			c-0.2,1.5,0.4,2.1,0.8,3.1c0.2,0.6,0.5,1.2,0.7,1.8c0.2,0.2,0.2,0.5,0.4,0.8c0.4,1-0.3,1.6-1.3,1.3c-0.2-0.2-0.3-0.4-0.4-0.7
			c-1-0.1-1.5-1-2-1.5c-1.7,0.7-0.4,2.5-0.1,4.1c0.2,1.7-0.3,2.6-1.2,3.2c-4.4-4.5-4.7-4.8-4.7-4.9c0-0.9,0.1-1.8,0.4-2.6
			c0.8-2.3,2.7-3.4,5.7-3.7C13.4,9.2,13.7,8.9,13.7,8.8"/>
		<g>
			<g>
				<g>
					<polygon class="st2" points="21.4,20.5 18.8,20.5 18.8,19.1 20,19.1 20,2.9 3.9,2.9 3.9,19.1 5.1,19.1 5.1,20.5 2.5,20.5 
						2.5,1.6 21.4,1.6 					"/>
				</g>
			</g>
		</g>
	</g>
</g>
<g id="Primitiva" class="st0">
	<g id="LOOG_PRIM_1_" class="st1">
		<g>
			<g>
				<polygon class="st2" points="21.5,20.6 18.9,20.6 18.9,19.2 20.1,19.2 20.1,2.9 3.9,2.9 3.9,19.2 5,19.2 5,20.6 2.5,20.6 
					2.5,1.6 21.5,1.6 				"/>
			</g>
		</g>
		<g>
			<path class="st2" d="M17.8,15c0-0.3,0.1-0.6,0.1-0.9c0-0.3,0-0.6-0.1-0.8C16,13.2,14.1,13,12,13c-2.4,0-4.5,0.1-5.9,0.3
				c0,0.3-0.1,0.5-0.1,0.8s0,0.6,0.1,0.9c1.3,0.1,3.3,0.2,5.9,0.2C13.9,15.2,15.9,15.2,17.8,15z"/>
			<path class="st2" d="M16.6,17.9c0.5-0.6,0.8-1.2,1-1.9c-1.8,0.1-3.8,0.2-5.6,0.2c-2.4,0-4.4-0.1-5.7-0.2c0.2,0.7,0.6,1.4,1,1.9
				c1.3,0.2,2.9,0.5,4.7,0.5C13.5,18.3,15,18.2,16.6,17.9z"/>
			<path class="st2" d="M7.3,10.5c-0.4,0.6-0.8,1.2-1,1.9c1.4-0.1,3.5-0.2,5.7-0.2c2,0,3.9,0.1,5.6,0.2c-0.2-0.7-0.6-1.4-1-1.9
				C15.3,10.2,13.7,10,12,10C10.5,10,9,10.1,7.3,10.5z"/>
			<path class="st2" d="M12,9.1c1.2,0,2.3,0.1,3.4,0.3c-1-0.7-2.1-1.1-3.4-1.1S9.5,8.7,8.6,9.4C9.7,9.2,10.9,9.1,12,9.1z"/>
			<path class="st2" d="M12,19.2c-1.3,0-2.4-0.1-3.5-0.2c1,0.7,2.1,1.1,3.4,1.1s2.4-0.4,3.4-1.1C14.2,19.2,13.1,19.2,12,19.2z"/>
		</g>
	</g>
</g>
<g id="Quiniela" class="st0">
	<g class="st1">
		<polygon class="st2" points="21.5,20.6 18.9,20.6 18.9,19.2 20.1,19.2 20.1,3 3.9,3 3.9,19.2 5.1,19.2 5.1,20.6 2.5,20.6 2.5,1.6 
			21.5,1.6 		"/>
		<g>
			<path class="st2" d="M12,14.6l-5.2,3l5.2,3l5.1-3L12,14.6z M13.6,17.7c-0.3,0.2-0.8,0.3-1.1,0.2c-0.3,0-1.1,0-1.1,0l1,0.6
				l-0.7,0.4l-2.1-1.2l0.5-0.3c0,0,2.2,0,2.4,0.1c0.2,0,0.4,0,0.5-0.1s0.2-0.2,0-0.3c-0.3-0.2-0.7,0-0.7,0l-0.7-0.4
				c0.6-0.3,1.5-0.3,2,0C14.2,17,13.9,17.5,13.6,17.7z"/>
			<path class="st2" d="M11.7,7.9l-5.2,3V17l5.2-3V7.9z M8.8,14.2v-2.5l-0.4,0.2v-0.8l1.2-0.7v0.5v0.2v2.5L8.8,14.2z"/>
			<path class="st2" d="M17.6,10.9l-5.2-3V14l5.2,3V10.9z M15.6,14.4l-0.5-1.2l-0.6,0.6l-0.9-0.5l1-1.1l-1-2.2l1,0.6l0.5,1.1
				l0.5-0.5l1,0.6l-1,1l1,2.2L15.6,14.4z"/>
		</g>
	</g>
</g>
<g id="Quinigol" class="st0">
	<g class="st1">
		<g>
			<path class="st2" d="M12.3,9.6v1.6l0.3,0.2l0,0l0.8,0.6l0,0l0.1,0.1c0.1,0.1,0.1,0.1,0.2,0.2l0,0l0.2,0.1l0.1,0.1l0,0
				c0.9-0.3,1.4-0.4,1.7-0.5c0.1,0,0.2-0.1,0.2-0.2c0-0.1,0-0.3,0-0.5c0-0.4-0.1-1.3-0.2-1.5l-0.1-0.1c-0.3-0.2-0.5-0.4-0.8-0.6
				L14.7,9c-0.2-0.1-0.3-0.2-0.5-0.2l0,0c-0.1,0-0.3,0-0.3,0c-0.3,0-0.9,0.1-1.5,0.5C12.4,9.5,12.3,9.5,12.3,9.6z"/>
			<path class="st2" d="M12,11.7l-1.6,1.2c-0.1,0.1-0.1,0.2-0.1,0.3l0.6,1.7c0,0.1,0.1,0.2,0.2,0.2l1,0.1l0,0l0.9-0.1
				c0.1,0,0.2-0.1,0.2-0.2l0.6-1.8c0-0.1,0-0.2-0.1-0.3L12,11.7L12,11.7z"/>
			<path class="st2" d="M11.6,9.4C11,9.1,10.4,9,10.1,9l0,0c0,0-0.1,0-0.2,0l0,0H9.8C9.7,9,9.5,9,9.3,9.2c-0.4,0.1-0.7,0.3-1,0.5
				c0,0-0.1,0-0.1,0.1S8.1,10.1,8,10.6l0,0c0,0.4,0,0.6,0,0.9l0,0c0,0.1,0,0.3,0,0.3C8,11.9,8.1,12,8.2,12c0.3,0.1,0.7,0.2,1.7,0.5
				l0,0l0.1-0.1l0.2-0.1c0.1-0.1,0.1-0.1,0.2-0.2l0.1-0.1l0,0l0.8-0.6l0,0l0.3-0.2c0-0.2,0-1,0-1.6C11.7,9.5,11.6,9.5,11.6,9.4z"/>
			<path class="st2" d="M13.2,19.5c-0.3,0.1-0.8,0.1-1.2,0.1c-0.2,0-0.7,0-1.1-0.1c-0.1,0-0.1,0-0.2,0c-0.1,0.1-0.3,0.2-0.5,0.2
				c0.6,0.2,1.2,0.3,1.8,0.3s1.2-0.1,1.8-0.3c-0.2-0.1-0.3-0.1-0.5-0.2H13.2z"/>
			<path class="st2" d="M16.6,12.3c0.4,0.4,0.8,1,0.9,1.4c0.1-0.1,0.2-0.3,0.3-0.4l0,0c-0.2-1.2-0.7-2.3-1.5-3.2
				c0.1,0.5,0.3,1.4,0.2,1.9C16.5,12.1,16.6,12.2,16.6,12.3z"/>
			<path class="st2" d="M6.1,13.3C6.1,13.3,6.1,13.4,6.1,13.3c0.1,0.2,0.2,0.3,0.3,0.4c0.2-0.4,0.5-1,1-1.4c0.1-0.1,0.1-0.1,0.1-0.2
				c-0.1-0.5,0-1.4,0.1-1.8C6.8,11.1,6.3,12.1,6.1,13.3z"/>
			<path class="st2" d="M14.2,17.3c-0.2-0.3-0.4-0.7-0.7-1.1c-0.1-0.2-0.2-0.3-0.3-0.4c-0.1-0.1-0.1-0.1-0.2-0.1c-0.3,0-0.6,0-0.9,0
				h-0.2h-0.2c-0.2,0-0.6,0-0.9,0c-0.1,0-0.2,0-0.2,0.1c-0.1,0.1-0.2,0.2-0.3,0.4C10,16.6,9.8,17,9.6,17.3c0,0.1,0,0.1,0,0.2
				c0.2,0.4,0.6,1,1,1.4l0,0C10.8,19,11,19,11.3,19c0.2,0,0.4,0,0.6,0c0.2,0,0.4,0,0.6,0c0.2,0,0.4-0.1,0.6-0.1c0,0,0.1,0,0.1-0.1
				c0.5-0.4,0.8-1,1-1.4C14.3,17.4,14.3,17.4,14.2,17.3z"/>
			<path class="st2" d="M9.2,19.4L9.2,19.4c0.2,0,0.4,0,0.7-0.1c0.2,0,0.2-0.2,0.1-0.4c-0.4-0.4-0.6-0.9-0.8-1.2
				c0-0.1-0.1-0.1-0.2-0.1c-0.3-0.1-0.8-0.2-1.1-0.3c-0.2-0.1-0.3,0.1-0.3,0.2c0,0.3,0,0.6,0,0.8C8,18.8,8.5,19.1,9,19.4
				C9.1,19.4,9.1,19.4,9.2,19.4z"/>
			<path class="st2" d="M10.5,8.5c0.4,0.1,1,0.2,1.4,0.5c0.1,0,0.2,0,0.3,0c0.4-0.3,1-0.4,1.5-0.5c-0.1,0-0.2-0.1-0.3-0.1
				s-0.2-0.1-0.2-0.1c-0.3-0.1-0.7-0.1-1.1-0.1l0,0l0,0l0,0l0,0c-0.3,0-0.7,0.1-1,0.1C10.8,8.4,10.6,8.4,10.5,8.5z"/>
			<path class="st2" d="M16.4,17.5c0-0.2-0.2-0.3-0.3-0.2c-0.4,0.1-0.8,0.2-1.1,0.3c-0.1,0-0.2,0.1-0.2,0.1
				c-0.1,0.3-0.4,0.8-0.8,1.2c-0.1,0.2,0,0.4,0.1,0.4c0.2,0.1,0.5,0.1,0.7,0.1c0.1,0,0.2,0,0.2,0c0.5-0.3,1-0.7,1.4-1.1
				C16.4,18.1,16.4,17.8,16.4,17.5z"/>
			<path class="st2" d="M15,17c0.5-0.1,1.1-0.3,1.4-0.5l0,0c0.6-0.7,0.7-1.7,0.8-2.1c0-0.1,0-0.1,0-0.2v-0.1l0,0
				c-0.1-0.5-0.5-1.1-0.8-1.4c-0.1-0.1-0.2-0.1-0.2-0.1L14.6,13c-0.1,0-0.2,0.1-0.2,0.2c-0.1,0.5-0.3,1.3-0.6,1.9c0,0.1,0,0.2,0,0.3
				c0.2,0.3,0.6,0.9,0.9,1.4C14.7,17,14.9,17,15,17z"/>
			<path class="st2" d="M17,17.3c0.6-0.9,0.9-2,0.9-3l-0.1,0.1c0,0.4-0.2,1.5-0.8,2.4c0,0.1-0.1,0.1,0,0.2C17,17,17,17.2,17,17.3z"
				/>
			<path class="st2" d="M7.7,16.5C8,16.7,8.6,16.9,9,17c0.1,0,0.2,0,0.3-0.1c0.3-0.6,0.7-1.2,1-1.5c0.1-0.1,0.1-0.2,0-0.3
				c-0.3-0.5-0.5-1.3-0.6-1.8c0-0.1-0.1-0.2-0.2-0.2L8,12.7c-0.1,0-0.2,0-0.2,0.1c-0.4,0.3-0.7,0.9-0.8,1.4l0,0v0.1c0,0,0,0.1,0,0.2
				C6.9,14.8,7.1,15.9,7.7,16.5L7.7,16.5z"/>
			<path class="st2" d="M6.3,14.3l-0.1-0.1c0,1.1,0.3,2.1,0.9,3c0-0.1,0-0.2,0.1-0.4c0-0.1,0-0.1,0-0.2C6.4,15.9,6.3,14.8,6.3,14.3z
				"/>
		</g>
		<g>
			<g>
				<polygon class="st2" points="21.5,20.6 18.9,20.6 18.9,19.2 20.1,19.2 20.1,3 3.9,3 3.9,19.2 5,19.2 5,20.6 2.5,20.6 2.5,1.6 
					21.5,1.6 				"/>
			</g>
		</g>
	</g>
</g>
<g id="QuintuplePlus">
	<g>
		<g>
			<g>
				<polygon class="st2" points="20.1,16.4 18.1,16.4 18.1,15.2 19.1,15.2 19.1,2.8 6.5,2.8 6.5,15.2 7.3,15.2 7.3,16.4 5.4,16.4 
					5.4,1.6 20.1,1.6 				"/>
			</g>
		</g>
		<g>
			<rect x="9.6" y="4.9" class="st2" width="1.1" height="5.2"/>
			<rect x="12.3" y="3.6" class="st2" width="1.1" height="5.4"/>
			<rect x="14.9" y="4.9" class="st2" width="1.1" height="5.2"/>
		</g>
		<path class="st2" d="M14.1,11.4c0.2-0.2,0.5-0.4,0.7-0.5l0,0c0,0.2-0.1,0.3-0.1,0.5c0.1-0.1,0.2-0.2,0.4-0.3l0,0
			c-0.2,1.2,0.3,1.6,0.6,2.3c0.1,0.4,0.3,0.9,0.5,1.4c0.1,0.2,0.2,0.3,0.3,0.6c0.3,0.8-0.2,1.3-1.1,1.1c-0.1-0.1-0.2-0.2-0.2-0.4
			c-0.7-0.1-1.2-0.7-1.6-1.2c-1.4,0.5-0.3,2-0.1,3.2c0.2,1.3-0.2,2-0.9,2.5c-3.4-3.5-3.6-3.8-3.6-3.8c0-0.6,0.1-1.4,0.3-2
			c0.6-1.8,2.1-2.6,4.4-2.8C13.9,11.7,14.1,11.5,14.1,11.4"/>
	</g>
</g>
</svg>
