<svg id="Layer_1" data-name="Layer 1" xmlns="http://www.w3.org/2000/svg" viewBox="0 0 15.79 20.09"><defs><style>.cls-1{fill:#ce9509;}</style></defs><g id="X3DEOX"><path class="cls-1" d="M11.71.2c0,.42-.07.73-.11,1.12l.76-.5a6.73,6.73,0,0,0,0,1.28,5.59,5.59,0,0,0,.51,1.73,37.71,37.71,0,0,1,1.95,4.58c.25.64.54,1.26.77,1.91a1.18,1.18,0,0,1-.4,1.4,1.6,1.6,0,0,1-1.69.17,1.51,1.51,0,0,1-.55-.76.73.73,0,0,0-.55-.51A3.85,3.85,0,0,1,10.6,9.45c-.3-.3-.58-.61-.86-.94a.42.42,0,0,0-.59-.09A2,2,0,0,0,8,10.59,18.13,18.13,0,0,0,8.66,13a9.23,9.23,0,0,1,.61,3.68,4.28,4.28,0,0,1-1.73,3.16,2.28,2.28,0,0,1-.26.18s-.21-.25-.23-.26L2.63,15.1,0,12.25H0A13.61,13.61,0,0,1,.8,7.52a7.6,7.6,0,0,1,4-4.16A16,16,0,0,1,9.33,2.09a1.28,1.28,0,0,0,.6-.31c.37-.35.68-.75,1-1.1A5,5,0,0,1,11.71.2Z"/></g></svg>