<svg id="Layer_1" data-name="Layer 1" xmlns="http://www.w3.org/2000/svg" xmlns:xlink="http://www.w3.org/1999/xlink" viewBox="0 0 82.81 79.2"><defs><style>.cls-1{fill:url(#linear-gradient);}.cls-2{fill:url(#linear-gradient-2);}.cls-3{fill:url(#linear-gradient-3);}.cls-4{fill:url(#linear-gradient-4);}.cls-5{fill:url(#linear-gradient-5);}</style><linearGradient id="linear-gradient" x1="52.66" y1="88.09" x2="35.08" y2="-1.23" gradientUnits="userSpaceOnUse"><stop offset="0" stop-color="#fff9d8"/><stop offset="0.06" stop-color="#fff8cd"/><stop offset="0.16" stop-color="#fff5b0"/><stop offset="0.29" stop-color="#fef181"/><stop offset="0.45" stop-color="#feec41"/><stop offset="0.59" stop-color="#fde602"/><stop offset="1" stop-color="#ffc502"/></linearGradient><linearGradient id="linear-gradient-2" x1="41.65" y1="2.84" x2="41.31" y2="36.29" gradientUnits="userSpaceOnUse"><stop offset="0" stop-color="#ff9302"/><stop offset="0.38" stop-color="#ff9e02"/><stop offset="1" stop-color="#ffb902"/></linearGradient><linearGradient id="linear-gradient-3" x1="33.73" y1="4.25" x2="54.65" y2="79.67" gradientUnits="userSpaceOnUse"><stop offset="0" stop-color="#fff9d8"/><stop offset="0.23" stop-color="#fde602"/><stop offset="0.56" stop-color="#fedb02"/><stop offset="1" stop-color="#ffc502"/></linearGradient><linearGradient id="linear-gradient-4" x1="47.17" y1="48.8" x2="35.68" y2="15.46" gradientUnits="userSpaceOnUse"><stop offset="0" stop-color="#fff9d8"/><stop offset="0.44" stop-color="#fde602"/><stop offset="0.68" stop-color="#fedb02"/><stop offset="1" stop-color="#ffc502"/></linearGradient><linearGradient id="linear-gradient-5" x1="28.32" y1="-11.16" x2="49.35" y2="58.15" gradientUnits="userSpaceOnUse"><stop offset="0" stop-color="#fff9d8"/><stop offset="0.06" stop-color="#fff8c9"/><stop offset="0.19" stop-color="#fef4a1"/><stop offset="0.36" stop-color="#feee60"/><stop offset="0.57" stop-color="#fde708"/><stop offset="0.59" stop-color="#fde602"/><stop offset="1" stop-color="#ffc502"/></linearGradient></defs><path class="cls-1" d="M17.6,79a1.52,1.52,0,0,1-1.25-.59,2.7,2.7,0,0,1-.26-2.17l3.65-22.49A6,6,0,0,0,18,48.51l-16.75-16c-.38-.33-1.44-1.27-1-2.36S2,28.92,2.5,28.91l22.88-3.16A6,6,0,0,0,30,22.4L39.8,1.79C40,1.45,40.62.07,41.88.07Q43.13.07,44,1.84L53.87,22.4a5.94,5.94,0,0,0,4.55,3.34L80,28.79c.42,0,2,.22,2.52,1.43.33.82,0,1.76-1,2.79l0,0L65.78,48.57a6,6,0,0,0-1.69,5.27l3.82,22.22a2.76,2.76,0,0,1-.32,2.33,1.59,1.59,0,0,1-1.27.57h0a3.51,3.51,0,0,1-1.58-.49l-20-10.54a6,6,0,0,0-2.78-.69,6.09,6.09,0,0,0-2.81.7l-20,10.63A3.26,3.26,0,0,1,17.6,79Z"/><path class="cls-2" d="M67,76.22,63.18,54a6.88,6.88,0,0,1,2-6.07L80.88,32.38c2.34-2.49-1-2.67-1-2.67l-21.6-3.06A6.88,6.88,0,0,1,53,22.8L43.22,2.26c-1.45-2.8-2.58-.1-2.58-.1L30.78,22.8a6.9,6.9,0,0,1-5.28,3.86L2.58,29.83s-2.95,0-.74,2L18.61,47.84a6.88,6.88,0,0,1,2,6.09L17,76.46s-.68,2.56,1.68,1.3l20-10.63a6.86,6.86,0,0,1,6.45,0L65.19,77.67S67.57,79.15,67,76.22Z"/><path class="cls-3" d="M7.78,34.29,20.2,46.18a9.21,9.21,0,0,1,2.71,8.12l-2.76,17s-1.31,4.18,2.22,1.88L37.59,65.1a9.18,9.18,0,0,1,8.6,0l15,7.88s3.56,3.09,2.6-1.87L60.92,54.38a9.19,9.19,0,0,1,2.6-8.1L75.4,34.56c3.83-3.67-1.06-3.32-1.06-3.32L58,28.93a9.16,9.16,0,0,1-7-5.14L43.49,8.14c-1.57-5-3.16,0-3.16,0L32.86,23.79a9.16,9.16,0,0,1-7,5.14l-17,2.35S3.61,31.26,7.78,34.29Z"/><path class="cls-4" d="M74.34,31.24,58,28.93a9.16,9.16,0,0,1-7-5.14L43.49,8.14c-1.57-5-3.16,0-3.16,0L32.86,23.79a9.16,9.16,0,0,1-7,5.14l-17,2.35s-5.26,0-1.09,3L20.2,46.18a9.26,9.26,0,0,1,2.68,5C49.65,48.05,77,32.23,76.72,31.85,76.18,31.11,74.34,31.24,74.34,31.24Z"/><path class="cls-5" d="M74.34,31.24,58,28.93a9.16,9.16,0,0,1-7-5.14L43.49,8.14c-1.57-5-3.16,0-3.16,0L32.86,23.79a9.16,9.16,0,0,1-7,5.14l-17,2.35s-5.26,0-1.09,3L20.2,46.18a9.21,9.21,0,0,1,2.71,8.12l-2.76,17s-1.31,4.18,2.22,1.88L37.59,65.1a9.18,9.18,0,0,1,8.6,0l15,7.88s3.56,3.09,2.6-1.87L60.92,54.38a9.19,9.19,0,0,1,2.6-8.1L75.4,34.56C79.23,30.89,74.34,31.24,74.34,31.24Zm-.7,3.6L62.38,46a8.72,8.72,0,0,0-2.47,7.68l2.72,15.84c.91,4.7-2.47,1.77-2.47,1.77L45.94,63.77a8.71,8.71,0,0,0-8.14,0L23.37,71.46c-3.35,2.18-2.11-1.78-2.11-1.78l2.62-16.13a8.69,8.69,0,0,0-2.58-7.69L9.53,34.59c-3.95-2.88,1-2.86,1-2.86l16.07-2.22a8.72,8.72,0,0,0,6.67-4.88L40.4,9.79s1.5-4.7,3,0l7.09,14.83a8.7,8.7,0,0,0,6.65,4.87l15.52,2.19S77.27,31.36,73.64,34.84Z"/></svg>