<svg id="Layer_1" data-name="Layer 1" xmlns="http://www.w3.org/2000/svg" viewBox="0 0 268.17 32.51"><defs><style>.cls-1{fill:#fff;}.cls-2{fill:#098342;}.cls-3{fill:#b3233f;}</style></defs><rect class="cls-1" x="0.5" y="0.5" width="267.17" height="31.51"/><path class="cls-2" d="M267.17,1V31.51H1V1H267.17m1-1H0V32.51H268.17V0Z"/><path class="cls-3" d="M44.55,10.67,43,3.28l-1.58,7.39L36.63,7.5,34.34,8.91l1.76-.35,2.64,4.92h7.92L49.3,8.56l1.93.53L49.3,7.68ZM41,13l-.18.18H39.27L36.46,8.21h-.18L36.63,8l4.75,3.17ZM43,5.74,44.2,11,41.56,12.6Zm3.7,7.39h-5.1l7.91-4.92Z"/><path class="cls-3" d="M43.49,2.93c0-.18-.35-.35-.53-.53-.35,0-.52.18-.52.35-.18.18.17.53.52.53S43.49,3.1,43.49,2.93Z"/><path class="cls-3" d="M52.64,9.09c-.35,0-.53.17-.53.35s.35.35.53.52c.35,0,.53-.17.53-.35A.46.46,0,0,0,52.64,9.09Z"/><path class="cls-3" d="M33.11,8.73c-.35,0-.52.18-.52.36s.35.35.52.52.36-.17.36-.35C33.64,8.91,33.47,8.73,33.11,8.73Z"/><path class="cls-3" d="M29.24,14.56H27.6v2.81h2.11v5.87c0,.93-.24,1.87-2.11,1.87a2.17,2.17,0,0,1-1.18-.23v2.58c.71,0,1.18.23,2.11.23,4.46,0,4.93-2.34,4.93-4.69V17.37l-.7-2.81Z"/><path class="cls-3" d="M42.84,14.32c-4.46,0-8,2.82-8,6.8s3.51,6.81,8,6.81c4.69,0,8-2.82,8-6.81C50.82,17.37,47.3,14.32,42.84,14.32Zm0,10.79c-2.58,0-4.92-1.87-4.92-4.22s2.11-4.22,4.92-4.22,4.93,2.11,4.93,4.22A4.86,4.86,0,0,1,42.84,25.11Z"/><polygon class="cls-3" points="61.6 14.56 56.44 20.42 56.44 14.56 52.93 14.56 52.93 27.46 56.44 27.46 56.44 21.83 61.84 27.46 65.83 27.46 59.26 20.89 65.83 14.56 61.6 14.56"/><polygon class="cls-3" points="70.75 22.06 77.08 22.3 77.08 19.72 70.75 19.72 70.75 17.37 77.55 17.37 77.55 14.56 67.7 14.56 67.7 27.46 77.79 27.69 77.79 25.11 70.75 25.11 70.75 22.06"/><path class="cls-3" d="M88.81,22.77a4.32,4.32,0,0,0,2.81-4c0-2.58-2.11-4.22-5.16-4.22H80.37v2.11l3,4H80.13v7h3.29V23.24h2.11L89,27.46l3.29.23Zm-1.64-1.88-2.58-3.28H86.7c.7-.24,1.41.47,1.41,1.64A2,2,0,0,1,87.17,20.89Z"/></svg>