<svg id="Layer_1" data-name="Layer 1" xmlns="http://www.w3.org/2000/svg" viewBox="0 0 268.17 32.51"><defs><style>.cls-1{fill:#fff;}.cls-2{fill:#002c6d;}</style></defs><rect class="cls-1" x="0.5" y="0.5" width="267.17" height="31.51"/><path class="cls-2" d="M267.17,1V31.51H1V1H267.17m1-1H0V32.51H268.17V0Z"/><path class="cls-2" d="M28.89,21.66v2.7H17.65V9.84h11v2.7H21v3.15h6.74V18.3H21v3.36Z"/><path class="cls-2" d="M31.57,9.84h3.36V21.62h7.28v2.74H31.57Z"/><path class="cls-2" d="M63.18,24.36l0-8.71-4.27,7.18H57.37l-4.25-7v8.52H50V9.84h2.78l5.43,9,5.35-9h2.76l0,14.52Z"/><path class="cls-2" d="M69.78,9.84h3.36V24.36H69.78Z"/><path class="cls-2" d="M76.58,9.84h3.36V21.62h7.28v2.74H76.58Z"/><path class="cls-2" d="M89.11,9.84h3.36V21.62h7.29v2.74H89.11Z"/><path class="cls-2" d="M132.22,9.84V24.36h-2.76l-7.24-8.82v8.82H118.9V9.84h2.78l7.22,8.82V9.84Z"/><path class="cls-2" d="M115.34,13.25a7.35,7.35,0,0,0-2.85-2.68,8.94,8.94,0,0,0-8.14,0,7.19,7.19,0,0,0-2.84,2.68,7.3,7.3,0,0,0-1,3.85,7.26,7.26,0,0,0,3.87,6.54,9,9,0,0,0,8.14,0A7.38,7.38,0,0,0,115.34,21a7.28,7.28,0,0,0,1-3.85A7.3,7.3,0,0,0,115.34,13.25ZM112.8,21.4,109,20.23l-3.17,2.4-.06-4-3.27-2.27,3.77-1.28,1.15-3.81,2.38,3.19,4-.09-2.29,3.25Z"/><polygon class="cls-2" points="117.05 8.57 114.73 8.44 113.27 10.24 112.69 8 110.52 7.17 112.47 5.92 112.59 3.6 114.38 5.07 116.62 4.47 115.78 6.63 117.05 8.57"/></svg>