<svg id="Layer_1" data-name="Layer 1" xmlns="http://www.w3.org/2000/svg" viewBox="0 0 128.05 27.72"><defs><style>.cls-1,.cls-2{fill:#fff;}.cls-2{fill-rule:evenodd;}</style></defs><path class="cls-1" d="M128.05,27.72H0V0H128.05Zm-127-1H127V1H1.09Z"/><path class="cls-1" d="M40.61,8.83a4.15,4.15,0,0,1,1.86,1.55,4.27,4.27,0,0,1,.65,2.4,4.3,4.3,0,0,1-.65,2.39,4.1,4.1,0,0,1-1.86,1.56,7,7,0,0,1-2.86.54H34.9v3.64H32.55V8.29h5.2A7,7,0,0,1,40.61,8.83ZM40,14.64a2.28,2.28,0,0,0,.79-1.86A2.25,2.25,0,0,0,40,10.92a3.63,3.63,0,0,0-2.33-.65H34.9v5h2.74A3.63,3.63,0,0,0,40,14.64Z"/><path class="cls-1" d="M53.73,20.91l-2.58-3.7a3.19,3.19,0,0,1-.49,0H47.81v3.68H45.47V8.29h5.19a7,7,0,0,1,2.86.54,4.23,4.23,0,0,1,1.87,1.55,4.35,4.35,0,0,1,.65,2.4,4.28,4.28,0,0,1-.7,2.45,4.06,4.06,0,0,1-2,1.53l2.9,4.15Zm-.85-10a3.62,3.62,0,0,0-2.33-.65H47.81v5h2.74a3.56,3.56,0,0,0,2.33-.66,2.27,2.27,0,0,0,.79-1.86A2.25,2.25,0,0,0,52.88,10.92Z"/><path class="cls-1" d="M68.12,19v2H58.65V8.29h9.22v2H61v3.29h6.09v1.93H61V19Z"/><path class="cls-1" d="M82.33,20.91l0-8.37-4.14,6.93h-1L73,12.65v8.26H70.73V8.29h1.93l5,8.37L82.6,8.29h1.93l0,12.62Z"/><path class="cls-1" d="M88,8.29H90.3V20.91H88Z"/><path class="cls-1" d="M96.13,20.25a6.19,6.19,0,0,1-2.44-2.32,6.38,6.38,0,0,1-.88-3.33,6.38,6.38,0,0,1,.88-3.33A6.13,6.13,0,0,1,96.13,9a7.63,7.63,0,0,1,7,0,6.21,6.21,0,0,1,2.43,2.31,6.39,6.39,0,0,1,.89,3.34,6.39,6.39,0,0,1-.89,3.34,6.28,6.28,0,0,1-2.43,2.31,7.63,7.63,0,0,1-7,0Zm5.75-1.78a4.19,4.19,0,0,0,1.59-1.59,4.77,4.77,0,0,0,0-4.56,4.19,4.19,0,0,0-1.59-1.59,4.81,4.81,0,0,0-4.54,0,4.05,4.05,0,0,0-1.59,1.59,4.77,4.77,0,0,0,0,4.56,4.05,4.05,0,0,0,1.59,1.59,4.81,4.81,0,0,0,4.54,0Z"/><path class="cls-1" d="M110,20.68a6.07,6.07,0,0,1-2.16-1.1l.81-1.82a6.61,6.61,0,0,0,1.91,1,6.83,6.83,0,0,0,2.26.38,3.9,3.9,0,0,0,2.1-.45,1.36,1.36,0,0,0,.69-1.19,1.14,1.14,0,0,0-.38-.89,2.77,2.77,0,0,0-1-.55q-.58-.19-1.62-.45a18.53,18.53,0,0,1-2.33-.69,3.74,3.74,0,0,1-1.54-1.07,2.92,2.92,0,0,1-.64-2,3.38,3.38,0,0,1,.57-1.91,3.89,3.89,0,0,1,1.71-1.36,7.1,7.1,0,0,1,2.81-.5,8.73,8.73,0,0,1,2.27.29,6,6,0,0,1,1.93.83l-.74,1.82a7.11,7.11,0,0,0-1.73-.74,6.43,6.43,0,0,0-1.75-.25,3.71,3.71,0,0,0-2.07.46,1.46,1.46,0,0,0-.67,1.25,1.12,1.12,0,0,0,.39.88,2.63,2.63,0,0,0,1,.54,16.68,16.68,0,0,0,1.62.45,18.14,18.14,0,0,1,2.31.68,3.86,3.86,0,0,1,1.54,1.07,2.81,2.81,0,0,1,.64,1.95,3.29,3.29,0,0,1-.57,1.89,3.81,3.81,0,0,1-1.72,1.36,7.1,7.1,0,0,1-2.81.5A9.81,9.81,0,0,1,110,20.68Z"/><path class="cls-2" d="M11.74,13.11h-.05a1.29,1.29,0,0,1-1.3-1.28V8.06h1.35V7.24H10a.41.41,0,0,0-.41.41v4.18a2.15,2.15,0,0,0,.17.82,2,2,0,0,0,.46.66,2.06,2.06,0,0,0,.67.46,2.1,2.1,0,0,0,.82.16h.1a5.52,5.52,0,0,1,0-.71Z"/><path class="cls-2" d="M24,7.24H22.18v.82h1.35v3.77a1.29,1.29,0,0,1-1.3,1.28h-.05v.11a4.17,4.17,0,0,1-.05.71h.1a2.15,2.15,0,0,0,.83-.16,2.06,2.06,0,0,0,.67-.46,2.18,2.18,0,0,0,.46-.66,2.15,2.15,0,0,0,.17-.82V7.65A.41.41,0,0,0,24,7.24Z"/><path class="cls-2" d="M21.77,5.05H12.15a.13.13,0,0,0-.12.12v8.05a4.74,4.74,0,0,0,.39,1.89,5.21,5.21,0,0,0,1.06,1.56,4.6,4.6,0,0,0,.73.59,4.87,4.87,0,0,0,.84.45c.18.08.36.14.54.2v2.5h-.52a.12.12,0,0,0-.12.12v.86h-.74a.13.13,0,0,0-.12.12v.86h-.47a.12.12,0,0,0-.12.12v1a.12.12,0,0,0,.12.12h6.69a.12.12,0,0,0,.12-.12v-1a.12.12,0,0,0-.12-.12h-.48v-.86a.12.12,0,0,0-.12-.12H19v-.86a.13.13,0,0,0-.12-.12h-.52v-2.5l.54-.19a5.16,5.16,0,0,0,.83-.46,4.19,4.19,0,0,0,.73-.59,4.72,4.72,0,0,0,.61-.73,4.44,4.44,0,0,0,.45-.83,4.74,4.74,0,0,0,.39-1.89v-8A.12.12,0,0,0,21.77,5.05ZM18.3,11.57a.17.17,0,0,0-.07.2L19,14,17.07,12.6a.2.2,0,0,0-.11,0,.19.19,0,0,0-.1,0L15,14l.73-2.2a.19.19,0,0,0-.07-.2l-1.89-1.36h2.34a.17.17,0,0,0,.16-.12L17,7.89l.72,2.21a.18.18,0,0,0,.17.12h2.34Z"/></svg>